<svg width="81" height="81" viewBox="0 0 81 81" fill="none" xmlns="http://www.w3.org/2000/svg">
<g filter="url(#filter0_d_325_3)">
<path d="M40.5001 71C59.5539 71 75 55.5538 75 36.5C75 17.4462 59.5539 2 40.5001 2C21.4462 2 6 17.4462 6 36.5C6 55.5538 21.4462 71 40.5001 71Z" stroke="#3CA9EA" stroke-width="2.6998" stroke-miterlimit="10" shape-rendering="crispEdges"/>
</g>
<path d="M38.95 62.5C38.5833 62.5 38.2717 62.3717 38.015 62.115C37.7583 61.895 37.63 61.5833 37.63 61.18V57.33C34.99 57.0733 32.7167 56.4317 30.81 55.405C28.94 54.3783 27.51 53.1317 26.52 51.665C25.5667 50.1617 25.0533 48.5667 24.98 46.88C24.98 46.5867 25.09 46.33 25.31 46.11C25.5667 45.8533 25.86 45.725 26.19 45.725H31.14C31.58 45.725 31.91 45.8167 32.13 46C32.3867 46.1467 32.625 46.4033 32.845 46.77C33.2483 48.0167 34.0917 49.0617 35.375 49.905C36.695 50.7483 38.4917 51.17 40.765 51.17C43.295 51.17 45.2017 50.7483 46.485 49.905C47.805 49.025 48.465 47.8333 48.465 46.33C48.465 45.34 48.135 44.515 47.475 43.855C46.815 43.195 45.8067 42.6267 44.45 42.15C43.13 41.6367 41.1683 41.0317 38.565 40.335C34.2383 39.3083 31.0667 37.9517 29.05 36.265C27.0333 34.5783 26.025 32.1583 26.025 29.005C26.025 26.145 27.0517 23.725 29.105 21.745C31.195 19.765 34.0367 18.555 37.63 18.115V14.32C37.63 13.9167 37.7583 13.605 38.015 13.385C38.2717 13.1283 38.5833 13 38.95 13H42.36C42.7633 13 43.075 13.1283 43.295 13.385C43.5517 13.605 43.68 13.9167 43.68 14.32V18.225C46.0633 18.555 48.0983 19.27 49.785 20.37C51.5083 21.4333 52.81 22.68 53.69 24.11C54.6067 25.54 55.1017 26.9333 55.175 28.29C55.175 28.62 55.065 28.895 54.845 29.115C54.625 29.335 54.35 29.445 54.02 29.445H48.795C48.025 29.445 47.4933 29.115 47.2 28.455C46.98 27.2817 46.2467 26.31 45 25.54C43.79 24.7333 42.2683 24.33 40.435 24.33C38.4183 24.33 36.8233 24.715 35.65 25.485C34.5133 26.255 33.945 27.3733 33.945 28.84C33.945 29.83 34.22 30.655 34.77 31.315C35.3567 31.975 36.2733 32.5617 37.52 33.075C38.8033 33.5883 40.6183 34.1383 42.965 34.725C46.2283 35.4583 48.8133 36.2833 50.72 37.2C52.6633 38.1167 54.0933 39.2717 55.01 40.665C55.9267 42.0583 56.385 43.8367 56.385 46C56.385 49.19 55.23 51.775 52.92 53.755C50.6467 55.735 47.5667 56.9267 43.68 57.33V61.18C43.68 61.5833 43.5517 61.895 43.295 62.115C43.075 62.3717 42.7633 62.5 42.36 62.5H38.95Z" fill="#3CA9EA"/>
<defs>
<filter id="filter0_d_325_3" x="0.650146" y="0.650085" width="79.6997" height="79.6998" filterUnits="userSpaceOnUse" color-interpolation-filters="sRGB">
<feFlood flood-opacity="0" result="BackgroundImageFix"/>
<feColorMatrix in="SourceAlpha" type="matrix" values="0 0 0 0 0 0 0 0 0 0 0 0 0 0 0 0 0 0 127 0" result="hardAlpha"/>
<feOffset dy="4"/>
<feGaussianBlur stdDeviation="2"/>
<feComposite in2="hardAlpha" operator="out"/>
<feColorMatrix type="matrix" values="0 0 0 0 0 0 0 0 0 0 0 0 0 0 0 0 0 0 0.25 0"/>
<feBlend mode="normal" in2="BackgroundImageFix" result="effect1_dropShadow_325_3"/>
<feBlend mode="normal" in="SourceGraphic" in2="effect1_dropShadow_325_3" result="shape"/>
</filter>
</defs>
</svg>
