<svg width="72" height="40" viewBox="0 0 72 40" fill="none" xmlns="http://www.w3.org/2000/svg">
<path d="M5.79999 8.20007H0.200012V39.6001H5.79999V8.20007Z" fill="black"/>
<path d="M71.7 8.20007H66.1V39.6001H71.7V8.20007Z" fill="black"/>
<path d="M18.9 30.3H13.3V39.6001H18.9V30.3Z" fill="black"/>
<path d="M32.2 30.3H26.6V39.6001H32.2V30.3Z" fill="black"/>
<path d="M45.3 30.3H39.7V39.6001H45.3V30.3Z" fill="black"/>
<path d="M58.6 30.3H53V39.6001H58.6V30.3Z" fill="black"/>
<path d="M14.68 24.7061C14.5059 24.7061 14.358 24.6451 14.2361 24.5233C14.1142 24.4014 14.0533 24.2534 14.0533 24.0793V7.0787C14.0533 6.88719 14.1055 6.7305 14.21 6.60864C14.3319 6.48677 14.4885 6.42583 14.68 6.42583H21.6788C23.7853 6.42583 25.4393 6.92201 26.6405 7.91437C27.8418 8.90672 28.4424 10.3517 28.4424 12.2494C28.4424 14.1296 27.8418 15.5572 26.6405 16.5322C25.4393 17.4897 23.7853 17.9685 21.6788 17.9685H17.8399V24.0793C17.8399 24.2708 17.779 24.4275 17.6571 24.5494C17.5352 24.6538 17.3786 24.7061 17.187 24.7061H14.68ZM21.5482 15.0437C22.558 15.0437 23.324 14.8086 23.8463 14.3386C24.386 13.8511 24.6558 13.146 24.6558 12.2233C24.6558 11.318 24.3947 10.6129 23.8724 10.108C23.3675 9.60311 22.5928 9.35067 21.5482 9.35067H17.7877V15.0437H21.5482ZM38.344 24.9672C35.9414 24.9672 34.0786 24.3579 32.7554 23.1392C31.4497 21.9031 30.7533 20.1534 30.6663 17.8901C30.6489 17.4201 30.6401 16.6541 30.6401 15.5921C30.6401 14.5127 30.6489 13.7292 30.6663 13.2417C30.7533 11.0133 31.4584 9.28103 32.7815 8.04494C34.1047 6.79144 35.9588 6.16469 38.344 6.16469C39.8934 6.16469 41.2427 6.43454 42.3917 6.97424C43.5408 7.49653 44.4287 8.21904 45.0554 9.14175C45.6996 10.0645 46.0391 11.1003 46.0739 12.2494V12.3016C46.0739 12.4409 46.0129 12.5628 45.8911 12.6672C45.7866 12.7543 45.6647 12.7978 45.5255 12.7978H42.9924C42.7834 12.7978 42.6267 12.7543 42.5223 12.6672C42.4178 12.5628 42.3308 12.3887 42.2611 12.1449C42 11.0655 41.5473 10.3082 40.9032 9.87296C40.259 9.42031 39.4059 9.19398 38.344 9.19398C35.8544 9.19398 34.5573 10.5868 34.4529 13.3723C34.4355 13.8424 34.4268 14.5649 34.4268 15.5398C34.4268 16.5148 34.4355 17.2547 34.4529 17.7596C34.5573 20.5451 35.8544 21.9379 38.344 21.9379C39.3885 21.9379 40.2329 21.7203 40.8771 21.285C41.5386 20.8324 42 20.0664 42.2611 18.987C42.3308 18.7432 42.4178 18.5778 42.5223 18.4908C42.6267 18.3863 42.7834 18.3341 42.9924 18.3341H45.5255C45.6822 18.3341 45.8127 18.3863 45.9172 18.4908C46.0391 18.5952 46.0913 18.7258 46.0739 18.8825C46.0391 20.0315 45.6996 21.0674 45.0554 21.9901C44.4287 22.9129 43.5408 23.6441 42.3917 24.1838C41.2427 24.7061 39.8934 24.9672 38.344 24.9672ZM53.8187 24.7061C53.6446 24.7061 53.4966 24.6451 53.3747 24.5233C53.2529 24.4014 53.1919 24.2534 53.1919 24.0793V9.69016H48.3607C48.1866 9.69016 48.0387 9.62923 47.9168 9.50736C47.7949 9.38549 47.734 9.2288 47.734 9.03729V7.0787C47.734 6.88719 47.7862 6.7305 47.8907 6.60864C48.0125 6.48677 48.1692 6.42583 48.3607 6.42583H61.7053C61.8968 6.42583 62.0535 6.48677 62.1754 6.60864C62.2972 6.7305 62.3582 6.88719 62.3582 7.0787V9.03729C62.3582 9.2288 62.2972 9.38549 62.1754 9.50736C62.0535 9.62923 61.8968 9.69016 61.7053 9.69016H56.9002V24.0793C56.9002 24.2534 56.8393 24.4014 56.7174 24.5233C56.613 24.6451 56.465 24.7061 56.2735 24.7061H53.8187Z" fill="black"/>
</svg>
