<svg width="215" height="137" viewBox="0 0 215 137" fill="none" xmlns="http://www.w3.org/2000/svg">
<path d="M46.8448 54.7367V89.207L41.3098 89.0295L40.4948 89.0034L39.8212 89.4628L27.867 97.6152H2.50233L2.55003 46.41H28.41L40.3743 54.322L41.0014 54.7367H41.7533H46.8448Z" fill="white" stroke="#E4974E" stroke-width="5"/>
<path d="M175.191 89.4632L174.518 89.0034L173.702 89.0295L168.154 89.2072V54.7367H173.258H174.01L174.637 54.3217L186.595 46.41H212.449L212.497 97.6152H187.139L175.191 89.4632Z" fill="white" stroke="#E4974E" stroke-width="5"/>
<path d="M175.494 68.5C175.494 104.943 145.849 134.5 109.263 134.5C72.6776 134.5 43.0332 104.943 43.0332 68.5C43.0332 32.0571 72.6776 2.5 109.263 2.5C145.849 2.5 175.494 32.0571 175.494 68.5Z" fill="white" stroke="#E4974E" stroke-width="5"/>
<path d="M148.416 56.6348C149.013 55.4404 149.312 54.2459 149.61 53.0515V52.7529C149.61 47.9751 145.728 43.7946 140.95 43.7946L120.944 42.8988L122.138 36.6281C122.735 32.4475 122.138 28.267 120.346 24.6837L119.152 22.5935C117.958 20.2047 115.569 18.7116 113.18 18.1144H112.881C109.895 17.5172 106.909 19.3088 106.312 22.2949C106.312 22.5935 106.312 22.8921 106.312 23.4893V28.8642C106.312 31.5517 105.715 33.9406 104.222 36.3294L97.6524 47.0793C96.7565 48.871 94.965 49.7668 92.8747 49.7668H86.0066H85.708C83.9164 47.3779 80.9303 46.1835 76.7498 46.1835H67.7916C66.8958 46.1835 66 47.0794 66 47.9752C66 48.871 66.8958 49.7668 67.7916 49.7668H73.1663V80.2248C73.1663 81.1206 74.0624 82.0165 74.9582 82.0165C75.8541 82.0165 76.7498 81.1206 76.7498 80.2248V49.4682C81.8261 49.4682 83.9165 51.5585 83.9165 56.6348V89.1831C83.9165 94.558 81.8261 96.3496 76.7498 96.3496H67.7916C66.8958 96.3496 66 97.2455 66 98.1413C66 99.0371 66.8958 99.933 67.7916 99.933H76.7498C82.722 99.933 86.0067 97.5441 87.2011 92.7664H94.3677C95.5622 92.7664 97.055 93.0649 98.2494 93.3635L104.52 94.8566C108.701 96.051 113.18 96.3497 117.659 95.7525L135.874 93.6622C141.249 93.065 145.43 88.2872 145.43 82.9123V82.0165C145.43 81.7179 145.43 81.7178 145.43 81.4192C147.818 79.6276 149.013 76.9401 149.311 74.2527V73.0582C149.311 72.1624 149.013 71.5652 148.714 70.6693C151.402 68.8777 152.895 66.1902 152.895 63.2041V62.3083C153.193 59.3223 151.103 56.9334 148.416 56.6348ZM149.61 62.9056C149.61 65.5931 147.52 67.9819 144.832 68.2805L138.263 69.1763C137.367 69.1763 136.471 70.0721 136.471 70.968C136.471 71.8638 137.367 72.7596 138.263 72.7596H138.561L145.131 71.8638H145.43C145.728 72.1624 145.728 72.461 145.728 72.7596V73.954C145.728 76.6415 143.936 79.0304 141.249 79.329L136.471 79.9262C135.576 79.9262 134.68 80.8221 134.68 82.0165C134.68 82.9123 135.575 83.8081 136.77 83.8081H137.068L141.846 82.9123H142.145C142.145 86.4956 139.457 89.7802 135.575 90.0788L117.36 92.1691C113.478 92.4677 109.298 92.1692 105.715 91.2733L99.4439 89.7803C97.9509 89.4817 96.1593 89.1831 94.6663 89.1831H87.7982V56.6348C87.7982 55.4404 87.7982 54.2459 87.4996 53.0515H92.8747C96.1594 53.0515 98.8468 51.2598 100.638 48.5724L107.208 37.8225C108.999 35.135 109.895 31.8504 109.895 28.5657V23.1907C109.895 22.5935 110.194 21.9963 110.492 21.6977C110.791 21.3991 111.388 21.1004 111.985 21.399H112.284C113.777 21.6976 115.27 22.5935 115.867 24.0866L117.062 26.1768C118.555 29.1629 119.152 32.4476 118.555 35.7323L117.36 42.6002H115.27C114.374 42.6002 113.478 43.1974 113.478 44.3919C113.478 45.2877 114.076 46.1835 115.27 46.1835L140.95 47.378C143.937 47.378 146.027 49.7668 146.027 52.7529V53.0515C146.027 55.1417 144.534 56.6348 142.444 56.6348H137.068C136.173 56.6348 135.277 57.5307 135.277 58.4265C135.277 59.3223 136.173 60.2181 137.068 60.2181H147.818C148.714 60.2181 149.61 61.1139 149.61 62.0097V62.9056Z" fill="#E4974E"/>
<path d="M75.2562 85.5996C74.3604 85.5996 73.4646 86.4955 73.4646 87.3913V90.9746C73.4646 91.8704 74.3604 92.7663 75.2562 92.7663C76.152 92.7663 77.0477 91.8704 77.0477 90.9746V87.3913C77.0477 86.1968 76.152 85.5996 75.2562 85.5996Z" fill="#E4974E"/>
</svg>
