<svg width="81" height="81" viewBox="0 0 81 81" fill="none" xmlns="http://www.w3.org/2000/svg">
<path d="M40.5 78.9933C61.763 78.9933 79 61.7562 79 40.4933C79 19.2303 61.763 1.99329 40.5 1.99329C19.237 1.99329 2 19.2303 2 40.4933C2 61.7562 19.237 78.9933 40.5 78.9933Z" stroke="#3CA9EA" stroke-width="3" stroke-miterlimit="10"/>
<path d="M5.97449 57.1357H76.5164" stroke="#3CA9EA" stroke-width="3.902" stroke-miterlimit="10"/>
<path d="M41.494 60.1159C45.8838 60.1159 49.4424 56.5572 49.4424 52.1675C49.4424 47.7777 45.8838 44.2191 41.494 44.2191C37.1043 44.2191 33.5457 47.7777 33.5457 52.1675C33.5457 56.5572 37.1043 60.1159 41.494 60.1159Z" fill="white" stroke="#3CA9EA" stroke-width="3.9694" stroke-miterlimit="10"/>
<path d="M41.4933 23.8515V42.7289" stroke="#3CA9EA" stroke-width="2.7377" stroke-miterlimit="10"/>
<path d="M67.0779 39.0034H78.0069" stroke="#3CA9EA" stroke-width="2.0788" stroke-miterlimit="10"/>
<path d="M60.371 19.1321L68.0709 11.4321" stroke="#3CA9EA" stroke-width="2.0788" stroke-miterlimit="10"/>
<path d="M41.4933 11.9291V1" stroke="#3CA9EA" stroke-width="2.0788" stroke-miterlimit="10"/>
<path d="M15.1641 11.4321L22.8641 19.1321" stroke="#3CA9EA" stroke-width="2.0788" stroke-miterlimit="10"/>
<path d="M3.24194 39.0034H14.6677" stroke="#3CA9EA" stroke-width="2.1441" stroke-miterlimit="10"/>
</svg>
