<svg width="116" height="138" viewBox="0 0 116 138" fill="none" xmlns="http://www.w3.org/2000/svg">
<path d="M54.1367 14.2561V1H115V114H84.5684V18.7825H25V114H54.1367V37.3734H30.5036" stroke="black" stroke-width="1.5396" stroke-miterlimit="10"/>
<path d="M19 37H1V115" stroke="black" stroke-width="1.5396" stroke-miterlimit="10"/>
<path d="M9.89353 129.229V135.373H8.59992V129.229L8.27653 128.905L2.77872 135.535H1L7.30631 128.259L1.48511 122.276H3.2638L8.59992 127.935V122.276H9.89353V127.935L15.2297 122.276H17.0084L11.1871 128.259L17.4935 135.535H15.7148L10.2169 128.905L9.89353 129.229Z" fill="black"/>
<path d="M29.7843 135.373H28.4907V125.186L19.5972 135.373H19.2738V122.114H20.5674V132.463L29.4609 122.114H29.7843V135.373Z" fill="black"/>
<path d="M43.8493 135.373H42.394L38.0281 125.024L33.5005 135.373H32.0452L37.8664 122.114H38.1898L43.8493 135.373Z" fill="black"/>
<path d="M56.6253 135.373H55.17V125.186L46.2765 135.373H45.9531V122.114H47.2467V132.463L56.1402 122.114H56.4636V135.373H56.6253Z" fill="black"/>
<path d="M75.3824 134.08H77.6462V137.314H76.3526V135.373H59.8591V122.114H61.1528V134.241H66.8123V122.114H68.1059V134.241H73.9271V122.114H75.2207C75.3824 121.952 75.3824 134.08 75.3824 134.08Z" fill="black"/>
<path d="M79.5871 121.952H80.8807V127.612H87.6721V121.952H88.9657V135.212H87.6721V128.744H81.0424V135.212H79.7488V121.952H79.5871Z" fill="black"/>
<path d="M102.873 135.373H101.579V125.186L92.6854 135.373H92.362V122.114H93.6556V132.463L102.549 122.114H102.873V135.373Z" fill="black"/>
<path d="M106.106 121.952H107.399V126.965L112.735 121.952H114.514L108.208 127.935L114.999 135.212H113.221L107.399 129.067V135.212H106.106V121.952Z" fill="black"/>
</svg>
