<?xml version="1.0" encoding="utf-8"?>
<!-- Generator: Adobe Illustrator 25.4.1, SVG Export Plug-In . SVG Version: 6.00 Build 0)  -->
<svg version="1.1" id="Слой_1" xmlns="http://www.w3.org/2000/svg" xmlns:xlink="http://www.w3.org/1999/xlink" x="0px" y="0px"
	 viewBox="0 0 1920 1080" style="enable-background:new 0 0 1920 1080;" xml:space="preserve">
<style type="text/css">
	.st0{fill:#35CBE2;}
	.st1{opacity:0.7;fill:url(#SVGID_1_);enable-background:new    ;}
	.st2{opacity:0.7;}
	.st3{fill:url(#SVGID_00000116198265872313563570000016828425713626530230_);}
	.st4{fill:#CBB35B;}
	.st5{fill:#AE8F4C;}
	.st6{fill:#856238;}
	.st7{fill:url(#SVGID_00000023280656381432325240000003033906819616072369_);}
	.st8{fill:none;stroke:#856238;stroke-width:2.0244;stroke-miterlimit:10;}
	.st9{fill:url(#SVGID_00000163768497914838855200000002186256402220310144_);}
	.st10{fill:url(#SVGID_00000148655377021183887570000007673238523556571573_);}
	.st11{fill:#8D6030;}
	.st12{fill:#D1B349;}
	.st13{fill:#B58E3F;}
	.st14{fill:#8D5700;}
	.st15{fill:url(#SVGID_00000168811477109961022740000014216599502831739283_);}
	.st16{fill:url(#SVGID_00000147907669484416881710000016561492122502414238_);}
	.st17{fill:#404040;}
	
		.st18{fill:url(#SVGID_00000124136819055761004320000006628773053559965866_);stroke:#404040;stroke-width:5.7462;stroke-miterlimit:10;}
	.st19{fill:#5E5E5E;}
	.st20{fill:#868686;}
	.st21{fill:#FFFFFF;stroke:#FFFFFF;stroke-width:2.9805;stroke-miterlimit:10;}
	.st22{fill:none;stroke:#FFFFFF;stroke-width:4.7885;stroke-miterlimit:10;}
	.st23{opacity:0.21;}
	.st24{fill:#FFFFFF;}
	.st25{fill:none;stroke:#000000;stroke-width:0.7184;stroke-miterlimit:9.9999;}
	.st26{fill:none;stroke:#404040;stroke-width:5.7462;stroke-miterlimit:10;}
	.st27{fill:none;stroke:#FFFFFF;stroke-width:1.9154;stroke-miterlimit:10;}
	.st28{fill:#F03B2C;}
	.st29{fill:#FFFFFF;stroke:#000000;stroke-width:0.8867;stroke-miterlimit:10;}
	.st30{fill:none;stroke:#000000;stroke-width:0.8867;stroke-miterlimit:10;}
	.st31{fill:none;stroke:#000000;stroke-width:4.331;stroke-miterlimit:10;}
	.st32{fill:none;stroke:#000000;stroke-width:3.8456;stroke-miterlimit:10;}
	.st33{fill:none;stroke:#000000;stroke-width:6.5149;stroke-miterlimit:10;}
	.st34{fill:none;stroke:#000000;stroke-width:5.446;stroke-miterlimit:10;}
	.st35{fill:none;stroke:#000000;stroke-width:6.0985;stroke-miterlimit:10;}
	.st36{fill:none;stroke:#000000;stroke-width:6.2006;stroke-miterlimit:10;}
	.st37{fill:#FFFFFF;stroke:#FFFFFF;stroke-width:0.8808;stroke-miterlimit:10;}
	.st38{fill:#FFFFFF;stroke:#000000;stroke-width:0.2395;stroke-miterlimit:10;}
	.st39{opacity:0.38;fill:#FFFFFF;stroke:#000000;stroke-width:0.2506;stroke-miterlimit:10;enable-background:new    ;}
	.st40{fill:#D53847;}
	.st41{fill:none;stroke:#000000;stroke-width:1.5061;stroke-miterlimit:10;}
	.st42{display:none;fill:#17A8D6;}
	.st43{display:none;fill:#169AC4;}
	.st44{display:none;fill:#09A1D1;fill-opacity:0.5;}
	.st45{fill:#1DB1D1;}
	.st46{display:none;fill:#1BA9D5;}
	.st47{display:none;fill:#219FC6;}
	.st48{display:none;fill:#FFFFFF;}
	.st49{fill:none;}
	.st50{fill:#1BA9D5;}
	.st51{fill:#219FC6;}
	.st52{fill:#09A1D1;fill-opacity:0.5;}
	.st53{fill:#17A8D6;}
	.st54{fill:#169AC4;}
</style>
<path class="st0" d="M1920,0H0v1080h1920V0z"/>
<linearGradient id="SVGID_1_" gradientUnits="userSpaceOnUse" x1="73.4722" y1="784.5894" x2="73.0085" y2="929.6965" gradientTransform="matrix(1 0 0 -1 539.0551 1324.3622)">
	<stop  offset="0" style="stop-color:#CCCCCC"/>
	<stop  offset="0.1516" style="stop-color:#B3B3B3"/>
	<stop  offset="0.3214" style="stop-color:#999999"/>
	<stop  offset="0.4947" style="stop-color:#A9A9A9"/>
	<stop  offset="0.773" style="stop-color:#CCCCCC"/>
	<stop  offset="0.9079" style="stop-color:#CACACA"/>
	<stop  offset="0.9564" style="stop-color:#C3C3C3"/>
	<stop  offset="0.9909" style="stop-color:#B8B8B8"/>
	<stop  offset="1" style="stop-color:#B3B3B3"/>
</linearGradient>
<path class="st1" d="M0,389l1223.2-4.1l1.9,160.8L0,549V389z"/>
<g class="st2">
	
		<linearGradient id="SVGID_00000166652588821727288620000008238495425062438590_" gradientUnits="userSpaceOnUse" x1="458.6742" y1="922.132" x2="462.2473" y2="794.5624" gradientTransform="matrix(1 0 0 -1 539.0551 1324.3622)">
		<stop  offset="0" style="stop-color:#AC8C4B"/>
		<stop  offset="0.1516" style="stop-color:#CBB35B"/>
		<stop  offset="0.2629" style="stop-color:#AE8F4C"/>
		<stop  offset="0.2923" style="stop-color:#A28147"/>
		<stop  offset="0.3454" style="stop-color:#92703F"/>
		<stop  offset="0.4013" style="stop-color:#88663A"/>
		<stop  offset="0.4641" style="stop-color:#856238"/>
		<stop  offset="0.5555" style="stop-color:#88653A"/>
		<stop  offset="0.6297" style="stop-color:#916F3E"/>
		<stop  offset="0.6975" style="stop-color:#A08045"/>
		<stop  offset="0.7373" style="stop-color:#AC8D4B"/>
		<stop  offset="0.8514" style="stop-color:#AD8E4C"/>
		<stop  offset="1" style="stop-color:#866338"/>
	</linearGradient>
	<path style="fill:url(#SVGID_00000166652588821727288620000008238495425062438590_);" d="M1017.2,386.3l-37.2,0.1l1.8,154.9h37.2
		L1017.2,386.3z"/>
	<path class="st4" d="M1096.8,370.7l-83.7-0.1l0.9,57.2l83.7,0.1L1096.8,370.7z"/>
	<path class="st5" d="M1097.7,428.2l-84-0.1l1.3,88.1l83.7,0.1L1097.7,428.2z"/>
	<path class="st6" d="M1015,516.2l0.2,37.8l82.2,0.5l1.3-38.1L1015,516.2z"/>
	<path class="st4" d="M1239.7,383.9l-145.6-0.8l1.2,51.2l145.6,0.8L1239.7,383.9z"/>
	<path class="st5" d="M1241,435.2l-147.1-0.8l1.9,78.2l146.6,0.8L1241,435.2z"/>
	<path class="st6" d="M1096.3,512.6l0.2,33.1l143.4,1.1l2.5-33.4L1096.3,512.6z"/>
	<path class="st4" d="M984.1,370.7l-79.4-0.5l-3.9,44.5l84,1.5L984.1,370.7z"/>
	<path class="st5" d="M984.8,414.8l-84-0.1l1,90.7l84.3,0.1L984.8,414.8z"/>
	<path class="st6" d="M901.8,505.5l3.3,48.6l81.2,0.1l-0.3-48.6L901.8,505.5z"/>
	
		<linearGradient id="SVGID_00000097470435359445274380000014322609097408070786_" gradientUnits="userSpaceOnUse" x1="241.5457" y1="936.097" x2="242.5782" y2="777.204" gradientTransform="matrix(1 0 0 -1 539.0551 1324.3622)">
		<stop  offset="0" style="stop-color:#AC8C4B"/>
		<stop  offset="0.1516" style="stop-color:#CBB35B"/>
		<stop  offset="0.2629" style="stop-color:#AE8F4C"/>
		<stop  offset="0.2923" style="stop-color:#A28147"/>
		<stop  offset="0.3454" style="stop-color:#92703F"/>
		<stop  offset="0.4013" style="stop-color:#88663A"/>
		<stop  offset="0.4641" style="stop-color:#856238"/>
		<stop  offset="0.5555" style="stop-color:#88653A"/>
		<stop  offset="0.6297" style="stop-color:#916F3E"/>
		<stop  offset="0.6975" style="stop-color:#A08045"/>
		<stop  offset="0.7373" style="stop-color:#AC8D4B"/>
		<stop  offset="0.8514" style="stop-color:#AD8E4C"/>
		<stop  offset="1" style="stop-color:#866338"/>
	</linearGradient>
	<path style="fill:url(#SVGID_00000097470435359445274380000014322609097408070786_);" d="M906,386l-15.3,0.1l0.1-6l-10.1-0.2h-38.2
		l-0.1-14.1h-40.3l0.1,17.7l-148.5,1.2v165.2l153.3-0.3l0.1,14.7h40.7l-0.1-14.7l46.5,0.1l-0.2-8.3h15.6L906,386z"/>
	<path class="st8" d="M889.3,378.6l2.2,171.1"/>
	<path class="st4" d="M882.6,372.5l-37.6-0.3l-1.4,69.6l39.7,0.5L882.6,372.5z"/>
	<path class="st5" d="M883.3,442.2l-39.7-0.5l1.1,87.7h39.7L883.3,442.2z"/>
	<path class="st6" d="M884.4,529.5h-39.7l0.3,26.8h39.7L884.4,529.5z"/>
	
		<linearGradient id="SVGID_00000091722507251657433520000009864182877924679822_" gradientUnits="userSpaceOnUse" x1="284.6761" y1="954.0062" x2="285.3847" y2="766.3769" gradientTransform="matrix(1 0 0 -1 539.0551 1324.3622)">
		<stop  offset="0" style="stop-color:#AC8C4B"/>
		<stop  offset="0.1516" style="stop-color:#CBB35B"/>
		<stop  offset="0.2629" style="stop-color:#AE8F4C"/>
		<stop  offset="0.2923" style="stop-color:#A28147"/>
		<stop  offset="0.3454" style="stop-color:#92703F"/>
		<stop  offset="0.4013" style="stop-color:#88663A"/>
		<stop  offset="0.4641" style="stop-color:#856238"/>
		<stop  offset="0.5555" style="stop-color:#88653A"/>
		<stop  offset="0.6297" style="stop-color:#916F3E"/>
		<stop  offset="0.6975" style="stop-color:#A08045"/>
		<stop  offset="0.7373" style="stop-color:#AC8D4B"/>
		<stop  offset="0.8514" style="stop-color:#AD8E4C"/>
		<stop  offset="1" style="stop-color:#866338"/>
	</linearGradient>
	<path style="fill:url(#SVGID_00000091722507251657433520000009864182877924679822_);" d="M805.2,562h39.7l-0.1-195.8h-42.2
		L805.2,562z"/>
	<path class="st8" d="M822.6,363.7l2.5,200.6"/>
	<path class="st8" d="M759.1,383l1.6,167.6"/>
</g>
<linearGradient id="SVGID_00000152971298316227547570000017476870883950151824_" gradientUnits="userSpaceOnUse" x1="751.7265" y1="927.5518" x2="750.2386" y2="784.2557" gradientTransform="matrix(1 0 0 -1 539.0551 1324.3622)">
	<stop  offset="0" style="stop-color:#B38B3E"/>
	<stop  offset="0.1516" style="stop-color:#D1B349"/>
	<stop  offset="0.2629" style="stop-color:#B58E3F"/>
	<stop  offset="0.2923" style="stop-color:#A9803B"/>
	<stop  offset="0.3454" style="stop-color:#996E35"/>
	<stop  offset="0.4013" style="stop-color:#906431"/>
	<stop  offset="0.4641" style="stop-color:#8D6030"/>
	<stop  offset="0.5555" style="stop-color:#906331"/>
	<stop  offset="0.6297" style="stop-color:#986D34"/>
	<stop  offset="0.6975" style="stop-color:#A77E3A"/>
	<stop  offset="0.7373" style="stop-color:#B38C3E"/>
	<stop  offset="0.8514" style="stop-color:#B48D3F"/>
	<stop  offset="1" style="stop-color:#8E6130"/>
</linearGradient>
<path style="fill:url(#SVGID_00000152971298316227547570000017476870883950151824_);" d="M1270.9,364.3H1201v152.8v40.5h71l12-13.1
	v-8l4.7,0.2l4.7-7.6l1.9,8.7l5.5-8.7h52.5h26.2l-16.8-77l-22.4-59.3l-7.6-2.2l-33.7,4.4l-3.7-8.8l-3.7,8.8l-4.7-12.2l-2.8,1.1
	L1270.9,364.3z"/>
<path class="st11" d="M1271.9,519.2l1,37.6l-71.9,0.9l-0.2-38.4H1271.9z"/>
<path class="st12" d="M1200.9,365.4h69.2l3.6,59.4h-72.8V365.4z"/>
<path class="st13" d="M1200.9,424.8v94.4h71.1l1.8-94.4H1200.9z"/>
<path class="st14" d="M1286.9,539V380.7l3.7,7.2v147.4L1286.9,539z"/>
<path class="st14" d="M1294.4,536.8V385.1l3.7,6.9v141.3L1294.4,536.8z"/>
<linearGradient id="SVGID_00000012471231250159984990000015699489803108910473_" gradientUnits="userSpaceOnUse" x1="1354.6655" y1="954.5547" x2="1360.8568" y2="781.3181" gradientTransform="matrix(1 0 0 -1 539.0551 1324.3622)">
	<stop  offset="0" style="stop-color:#CCCCCC"/>
	<stop  offset="0.1516" style="stop-color:#B3B3B3"/>
	<stop  offset="0.3214" style="stop-color:#999999"/>
	<stop  offset="0.4947" style="stop-color:#A9A9A9"/>
	<stop  offset="0.773" style="stop-color:#CCCCCC"/>
	<stop  offset="0.9079" style="stop-color:#CACACA"/>
	<stop  offset="0.9564" style="stop-color:#C3C3C3"/>
	<stop  offset="0.9909" style="stop-color:#B8B8B8"/>
	<stop  offset="1" style="stop-color:#B3B3B3"/>
</linearGradient>
<path style="fill:url(#SVGID_00000012471231250159984990000015699489803108910473_);" d="M1866.9,361.3l53.1,0.7v190l-19.8-0.1
	L1866.9,361.3z"/>
<linearGradient id="SVGID_00000116232195104295105460000002732910707822229909_" gradientUnits="userSpaceOnUse" x1="1281.4609" y1="938.2808" x2="1281.6735" y2="789.1312" gradientTransform="matrix(1 0 0 -1 539.0551 1324.3622)">
	<stop  offset="0" style="stop-color:#B38B3E"/>
	<stop  offset="0.1516" style="stop-color:#D1B349"/>
	<stop  offset="0.2629" style="stop-color:#B58E3F"/>
	<stop  offset="0.2923" style="stop-color:#A9803B"/>
	<stop  offset="0.3454" style="stop-color:#996E35"/>
	<stop  offset="0.4013" style="stop-color:#906431"/>
	<stop  offset="0.4641" style="stop-color:#8D6030"/>
	<stop  offset="0.5555" style="stop-color:#906331"/>
	<stop  offset="0.6297" style="stop-color:#986D34"/>
	<stop  offset="0.6975" style="stop-color:#A77E3A"/>
	<stop  offset="0.7373" style="stop-color:#B38C3E"/>
	<stop  offset="0.8514" style="stop-color:#B48D3F"/>
	<stop  offset="1" style="stop-color:#8E6130"/>
</linearGradient>
<path style="fill:url(#SVGID_00000116232195104295105460000002732910707822229909_);" d="M1841,557.2h74.4V398.1v-42.4h-75.5
	l-12.8,13.9v8.2l-4.1-2.5l-5.9,10.2l-2-9.2l-6,9.2h-55.8h-27.8l17.9,80.1l23.8,61.8l8.1,2.3l35.8-4.7l4,9.2l4-9.2l3.9,12.8l4.1-1.3
	L1841,557.2z"/>
<path class="st12" d="M1840.1,395.8l-1.1-39l76.5-1l0.3,40H1840.1z"/>
<path class="st11" d="M1915.7,556.1H1842l-4-61.8h77.6V556.1z"/>
<path class="st13" d="M1915.7,494.3v-98.5h-75.6l-2,98.5H1915.7z"/>
<path class="st14" d="M1824.1,375.3V540l-4.1-7.5V379L1824.1,375.3z"/>
<path class="st14" d="M1816.1,377.5v157.9l-4-7.1V381.2L1816.1,377.5z"/>
<g>
	<path class="st17" d="M1661.2,670.3c11.3,6,24.6,16.7,28.9,20.5c0.9,0.8,2.2,0.9,3.3,0.1c8.9-6.4,49.7-36.3,49.7-39.7
		c0-5.8-5.7-21-8.2-27.5c-0.7-1.6-2.6-2.1-3.9-1.2l-68.7,47.7"/>
	
		<radialGradient id="SVGID_00000165921437315035333680000006418823560202891402_" cx="-3.1098" cy="1083.1146" r="1.0124" gradientTransform="matrix(243.173 0 0 -243.37 2311.1421 264040.6875)" gradientUnits="userSpaceOnUse">
		<stop  offset="0" style="stop-color:#FFFFFF"/>
		<stop  offset="0.4545" style="stop-color:#FDFDFD"/>
		<stop  offset="0.6281" style="stop-color:#F6F6F6"/>
		<stop  offset="0.7537" style="stop-color:#EAEAEA"/>
		<stop  offset="0.8561" style="stop-color:#D9D9D9"/>
		<stop  offset="0.9433" style="stop-color:#C3C3C3"/>
		<stop  offset="1" style="stop-color:#B0B0B0"/>
	</radialGradient>
	
		<path style="fill:url(#SVGID_00000165921437315035333680000006418823560202891402_);stroke:#404040;stroke-width:5.7462;stroke-miterlimit:10;" d="
		M1554.9,689.5c136,0,246.2-110.3,246.2-246.4c0-136.1-110.2-246.4-246.2-246.4S1308.7,307,1308.7,443.1
		C1308.7,579.2,1419,689.5,1554.9,689.5z"/>
	<path class="st19" d="M1776.7,337.2l-25.8,14.9l12,19.7l24.4-16.3L1776.7,337.2z"/>
	<path class="st19" d="M1709,250.1l-22.8,23l15.4,15L1723,264L1709,250.1z"/>
	<path class="st19" d="M1799,407.2l-28.2,5.7l5.1,29.6l28.8-8.1L1799,407.2z"/>
	<path class="st19" d="M1747.4,288.1l-24.9,19.4l15,18.5l23.3-20.9L1747.4,288.1z"/>
	<path class="st19" d="M1686.1,274.1l-39.7,63.6l19.5,12l37.7-64.1L1686.1,274.1z"/>
	<path class="st19" d="M1723.6,306.3l-132.3,215.4l19.5,12l127.4-208.4L1723.6,306.3z"/>
	<path class="st19" d="M1749.4,353.4l-134.1,217.5l19.4,12l125.1-206.6L1749.4,353.4z"/>
	<path class="st19" d="M1767.9,412.6l-99.6,161.2l21.1,13l84.2-140.9L1767.9,412.6z"/>
	<path class="st20" d="M1719.4,304l-132.3,215.5l19.6,11.9L1734,322.9L1719.4,304z"/>
	<path class="st20" d="M1748.3,346.8l-134.2,217.5l19.4,11.9l125.1-206.5L1748.3,346.8z"/>
	<path class="st20" d="M1769.7,406.3L1663.1,579l19.4,12l90.6-150.9L1769.7,406.3z"/>
	<path class="st20" d="M1683,272.2l-39.6,63.6l19.4,12l37.7-64.2L1683,272.2z"/>
	<path class="st20" d="M1705.5,249.9l-22.9,23l15.5,14.9l21.3-24L1705.5,249.9z"/>
	<path class="st20" d="M1745.1,284.2l-25.5,20l14.9,18.4l24-21.3L1745.1,284.2z"/>
	<path class="st20" d="M1774.1,332l-26.5,15.3l12.1,20.2l25.3-16.9L1774.1,332z"/>
	<path class="st20" d="M1798.1,402.1l-29.5,6.1l4.9,29.5l30.4-8.3L1798.1,402.1z"/>
	<path class="st21" d="M1623.6,629.7c35.2,0,63.8-27.3,63.8-60.9s-28.6-60.9-63.8-60.9c-35.2,0-63.8,27.3-63.8,60.9
		S1588.3,629.7,1623.6,629.7z"/>
	<path class="st22" d="M1556.4,663.2c119.7,0,216.7-97.1,216.7-216.9c0-119.8-97-216.9-216.7-216.9s-216.7,97.1-216.7,216.9
		C1339.7,566.1,1436.8,663.2,1556.4,663.2z"/>
	<path d="M1522.2,429.3l18.1,5.7c0,0,5.6-1.9,6.6-5.7c0.3-1.2,0-21,0-21h14.8l0.4,21c0,0,3.1,4.7,5.4,4.7c2.3,0,20.2-7.6,20.2-7.6
		l5.7,12.5l-19.1,7.6c0,0-3.8,5.7-2.8,7.6c0.8,1.5,13.3,16.2,13.3,16.2l-10.5,9.5l-14.2-16.2c0,0-5.7-0.9-6.6,0.9
		c-0.9,1.8-11.4,18.1-11.4,18.1l-12.5-8.6l10.7-17.5c0,0,0.7-5.7-1.6-8c-2.2-2.1-20.3-5.1-20.3-5.1L1522.2,429.3z"/>
	<g class="st23">
		<path class="st24" d="M1557.3,666.4c121.5,0,219.9-98.5,219.9-220.1s-98.5-220.1-219.9-220.1c-121.5,0-219.9,98.5-219.9,220.1
			S1435.9,666.4,1557.3,666.4z"/>
		<path class="st25" d="M1557.3,666.4c121.5,0,219.9-98.5,219.9-220.1s-98.5-220.1-219.9-220.1c-121.5,0-219.9,98.5-219.9,220.1
			S1435.9,666.4,1557.3,666.4z"/>
	</g>
	<path class="st26" d="M1556.4,692.7c136,0,246.2-110.3,246.2-246.4c0-136.1-110.2-246.4-246.2-246.4s-246.2,110.3-246.2,246.4
		C1310.2,582.4,1420.5,692.7,1556.4,692.7z"/>
	<path d="M1624.8,623c29,0,52.5-23.5,52.5-52.6c0-29-23.5-52.6-52.5-52.6c-29,0-52.5,23.5-52.5,52.6
		C1572.2,599.5,1595.8,623,1624.8,623z"/>
	<path class="st27" d="M1625.5,517.8l-2.2,105.3"/>
	<path class="st27" d="M1609.4,520l30,101"/>
	<path class="st27" d="M1654.2,614l-59.4-86.7"/>
	<path class="st27" d="M1642,520.8l-34.7,99.4"/>
	<path class="st27" d="M1656.7,528.7l-64.1,83.4"/>
	<path class="st27" d="M1668.2,540.8l-87.1,59.2"/>
	<path class="st27" d="M1675.3,556l-101.1,28.9"/>
	<path class="st27" d="M1677.4,572.6l-105.3-4.1"/>
	<path class="st27" d="M1674,589.1l-98.6-36.6"/>
	<path class="st27" d="M1665.8,603.4l-82.8-65"/>
	<path d="M1624.8,616.3c25.3,0,45.9-20.6,45.9-45.9c0-25.4-20.5-45.9-45.9-45.9s-45.9,20.6-45.9,45.9
		C1578.9,595.8,1599.4,616.3,1624.8,616.3z"/>
	<path class="st24" d="M1622.9,527.9c0-1,0.1-1.8,0.3-2.3c0.2-0.6,0.5-1.1,0.9-1.4c0.4-0.3,0.9-0.5,1.5-0.5c0.4,0,0.8,0.1,1.2,0.3
		c0.3,0.2,0.6,0.4,0.8,0.8c0.2,0.3,0.4,0.7,0.5,1.2c0.1,0.5,0.2,1.1,0.2,1.9c0,1-0.1,1.7-0.3,2.3c-0.2,0.6-0.5,1-0.9,1.4
		c-0.4,0.3-0.9,0.5-1.5,0.5c-0.8,0-1.4-0.3-1.9-0.9C1623.1,530.6,1622.9,529.5,1622.9,527.9z M1623.9,527.9c0,1.4,0.2,2.3,0.5,2.7
		c0.3,0.4,0.7,0.7,1.2,0.7c0.5,0,0.9-0.2,1.2-0.7c0.3-0.4,0.5-1.3,0.5-2.7c0-1.4-0.2-2.3-0.5-2.7c-0.3-0.4-0.7-0.7-1.2-0.7
		s-0.8,0.2-1.1,0.6C1624.1,525.7,1623.9,526.6,1623.9,527.9z"/>
	<path class="st24" d="M1649.2,540.7l-0.8-0.6l4-5.1c-0.3,0-0.7,0-1.2,0c-0.5-0.1-0.8-0.1-1.2-0.2l0.6-0.8c0.6,0.1,1.2,0.2,1.8,0.2
		c0.6,0,1-0.1,1.4-0.3l0.5,0.4L1649.2,540.7z"/>
	<path class="st24" d="M1663,562.7l-1,0.2l-1.2-5.3c0.2-0.1,0.5-0.1,0.7,0c0.4,0,0.8,0.2,1.2,0.4c0.4,0.2,0.9,0.5,1.5,1
		c0.9,0.7,1.6,1.2,2.1,1.4c0.5,0.2,0.9,0.3,1.3,0.2c0.4-0.1,0.7-0.3,0.9-0.7c0.2-0.3,0.3-0.7,0.2-1.2c-0.1-0.5-0.3-0.8-0.7-1
		c-0.3-0.2-0.8-0.3-1.3-0.2l-0.1-1c0.8-0.1,1.4,0,1.9,0.4c0.5,0.4,0.9,0.9,1,1.7c0.2,0.8,0.1,1.4-0.2,2c-0.3,0.5-0.8,0.9-1.4,1
		c-0.3,0.1-0.7,0.1-1,0c-0.3-0.1-0.7-0.2-1.1-0.4c-0.4-0.2-1-0.6-1.8-1.2c-0.6-0.5-1.1-0.8-1.3-0.9c-0.2-0.1-0.4-0.2-0.6-0.3
		L1663,562.7z"/>
	<path class="st24" d="M1662.9,582.2l-0.2,1c-0.6-0.1-1,0-1.4,0.1c-0.3,0.2-0.6,0.5-0.7,0.8c-0.2,0.4-0.2,0.9,0.1,1.3
		c0.2,0.4,0.5,0.7,1,0.9c0.4,0.2,0.9,0.2,1.2,0c0.4-0.2,0.7-0.5,0.8-0.9c0.1-0.2,0.1-0.4,0.1-0.7l0.8,0.4c0,0.1-0.1,0.1-0.1,0.1
		c-0.2,0.4-0.2,0.8-0.1,1.2c0.1,0.4,0.4,0.7,0.8,0.8c0.3,0.1,0.7,0.1,1,0c0.3-0.2,0.5-0.4,0.7-0.8c0.1-0.4,0.1-0.7,0-1
		c-0.1-0.3-0.4-0.6-0.9-0.9l0.5-0.9c0.6,0.4,1,0.8,1.2,1.3c0.2,0.5,0.2,1.1,0,1.7c-0.2,0.4-0.4,0.8-0.7,1.1c-0.3,0.3-0.6,0.5-1,0.5
		c-0.4,0.1-0.7,0-1.1-0.1c-0.3-0.1-0.6-0.3-0.8-0.6c-0.2-0.3-0.3-0.6-0.4-1c-0.3,0.4-0.6,0.7-1.1,0.8c-0.4,0.1-0.9,0.1-1.4-0.1
		c-0.7-0.3-1.2-0.7-1.4-1.4c-0.3-0.7-0.3-1.4,0-2.1c0.3-0.7,0.7-1.2,1.2-1.5C1661.6,582.1,1662.2,582,1662.9,582.2z"/>
	<path class="st24" d="M1645.8,602.4l1.1,1.6l2.9-2.1l0.5,0.8l0.1,6.5l-0.7,0.5l-3.1-4.3l-0.9,0.6l-0.5-0.8l0.9-0.6l-1.1-1.6
		L1645.8,602.4z M1647.4,604.7l2.2,3l-0.1-4.5L1647.4,604.7z"/>
	<path class="st24" d="M1626.3,610.3l-1.1,0.1c-0.1-0.5-0.3-0.9-0.5-1.2c-0.3-0.3-0.6-0.4-1-0.4c-0.5,0-0.9,0.2-1.2,0.5
		c-0.3,0.4-0.5,0.9-0.5,1.5c0,0.6,0.2,1,0.5,1.4c0.3,0.3,0.7,0.5,1.3,0.5c0.3,0,0.6-0.1,0.9-0.2c0.3-0.1,0.5-0.3,0.6-0.6l1,0.1
		l-0.8,4.2h-4.1v-1h3.3l0.4-2.2c-0.5,0.3-1,0.5-1.5,0.5c-0.7,0-1.3-0.2-1.8-0.7c-0.5-0.5-0.7-1.1-0.7-1.9c0-0.7,0.2-1.4,0.6-1.9
		c0.5-0.7,1.2-1,2.2-1c0.7,0,1.4,0.2,1.8,0.6C1626,609.1,1626.3,609.6,1626.3,610.3z"/>
	<path class="st24" d="M1595.6,603.9l0.8,0.6c-0.2,0.4-0.3,0.7-0.2,0.9c0,0.4,0.2,0.7,0.5,1c0.3,0.2,0.5,0.3,0.8,0.3
		c0.4,0,0.8-0.1,1.2-0.3c0.4-0.2,0.9-0.7,1.4-1.3c-0.4,0.1-0.8,0.2-1.2,0.1c-0.4-0.1-0.7-0.2-1-0.5c-0.5-0.4-0.8-1-0.9-1.6
		c-0.1-0.7,0.1-1.3,0.6-1.9c0.3-0.4,0.7-0.7,1.2-0.9c0.5-0.2,0.9-0.3,1.3-0.2c0.5,0.1,0.9,0.2,1.3,0.5c0.7,0.5,1,1.2,1,2
		c0,0.8-0.4,1.8-1.3,2.9c-1,1.2-1.9,2-2.8,2.2c-0.8,0.2-1.5,0-2.2-0.5c-0.5-0.4-0.8-0.9-0.9-1.4
		C1595.2,605,1595.3,604.5,1595.6,603.9z M1601.1,603.7c0.2-0.3,0.4-0.6,0.4-0.9c0.1-0.3,0.1-0.7,0-1c-0.1-0.3-0.3-0.5-0.5-0.7
		c-0.3-0.3-0.7-0.4-1.2-0.3c-0.4,0.1-0.9,0.4-1.2,0.8c-0.4,0.4-0.5,0.9-0.5,1.3c0,0.4,0.2,0.8,0.6,1.1c0.4,0.3,0.8,0.4,1.2,0.3
		C1600.3,604.4,1600.7,604.1,1601.1,603.7z"/>
	<path class="st24" d="M1581.9,584.8l-0.9,0.3l-1.4-5.1l0.8-0.2c0.7,0.4,1.5,0.7,2.6,0.9c1,0.2,2,0.4,3.1,0.4c0.7,0,1.5-0.1,2.3-0.2
		l0.3,1c-0.6,0.2-1.4,0.3-2.4,0.3c-1,0-1.9-0.1-2.8-0.3c-0.9-0.2-1.8-0.5-2.5-0.8L1581.9,584.8z"/>
	<path class="st24" d="M1584.4,557.3c-0.3,0.4-0.6,0.6-0.9,0.7c-0.3,0.1-0.7,0.1-1.1,0c-0.6-0.2-1-0.5-1.2-1.1
		c-0.3-0.5-0.3-1.1-0.1-1.8c0.2-0.7,0.6-1.2,1.1-1.5c0.5-0.3,1.1-0.3,1.6-0.2c0.4,0.1,0.6,0.3,0.9,0.6c0.2,0.3,0.3,0.6,0.3,1.1
		c0.3-0.4,0.7-0.7,1.1-0.8c0.4-0.1,0.9-0.1,1.4,0c0.7,0.2,1.2,0.6,1.5,1.3c0.3,0.6,0.3,1.3,0.1,2.1c-0.3,0.8-0.7,1.3-1.3,1.6
		c-0.6,0.3-1.3,0.4-1.9,0.2c-0.5-0.2-0.9-0.4-1.2-0.8C1584.5,558.3,1584.4,557.8,1584.4,557.3z M1582.7,557c0.4,0.1,0.7,0.1,1-0.1
		c0.3-0.2,0.5-0.4,0.6-0.8c0.1-0.4,0.1-0.7-0.1-1c-0.2-0.3-0.4-0.5-0.7-0.6c-0.4-0.1-0.7-0.1-1,0.1c-0.3,0.2-0.5,0.4-0.7,0.8
		c-0.1,0.4-0.1,0.7,0.1,1C1582.1,556.6,1582.4,556.9,1582.7,557z M1586.2,558.4c0.3,0.1,0.6,0.1,0.9,0.1c0.3,0,0.6-0.2,0.8-0.4
		c0.2-0.2,0.4-0.5,0.5-0.8c0.2-0.5,0.1-0.9-0.1-1.3c-0.2-0.4-0.5-0.7-1-0.8c-0.5-0.1-0.9-0.1-1.3,0.1c-0.4,0.2-0.7,0.5-0.8,1
		c-0.2,0.5-0.1,0.9,0.1,1.3C1585.4,558,1585.7,558.3,1586.2,558.4z"/>
	<path class="st24" d="M1599.8,538.3l0.7-0.6c0.3,0.3,0.6,0.5,1,0.6c0.3,0,0.6,0,0.9-0.2c0.3-0.2,0.4-0.4,0.6-0.6
		c0.1-0.2,0.2-0.5,0.2-0.8c0-0.3-0.1-0.6-0.2-1c-0.1-0.4-0.3-0.8-0.6-1.1c0,0-0.1-0.1-0.1-0.2c0,0.4-0.1,0.8-0.2,1.1
		c-0.2,0.4-0.4,0.7-0.8,0.9c-0.6,0.4-1.2,0.5-1.8,0.4c-0.7-0.1-1.2-0.5-1.7-1.2c-0.5-0.7-0.6-1.4-0.5-2.1c0.1-0.7,0.5-1.3,1.1-1.7
		c0.4-0.3,0.9-0.5,1.5-0.5c0.5,0,1,0.1,1.5,0.5c0.5,0.3,1,0.9,1.6,1.7c0.6,0.9,1,1.6,1.1,2.3c0.2,0.6,0.1,1.2-0.1,1.7
		c-0.2,0.5-0.5,1-1,1.3c-0.5,0.4-1.1,0.5-1.6,0.4C1600.7,539.1,1600.2,538.8,1599.8,538.3z M1601.2,533c-0.3-0.5-0.7-0.8-1.2-0.9
		c-0.4-0.1-0.9,0-1.2,0.2c-0.4,0.3-0.6,0.6-0.7,1.1c-0.1,0.5,0.1,1,0.4,1.5c0.3,0.4,0.7,0.7,1.1,0.8c0.4,0.1,0.9,0,1.2-0.3
		c0.4-0.3,0.6-0.6,0.7-1.1C1601.6,534,1601.5,533.5,1601.2,533z"/>
	<path class="st28" d="M1625.1,579.8c5.2,0,9.5-4.2,9.5-9.5s-4.2-9.5-9.5-9.5c-5.2,0-9.5,4.2-9.5,9.5S1619.8,579.8,1625.1,579.8z"/>
	<path class="st28" d="M1631.2,566.1l-13.4,3.6l0.5-25.2L1631.2,566.1z"/>
	<path class="st29" d="M1551.1,540.2h-136.7v36.2h136.7V540.2z"/>
	<path class="st30" d="M1545.3,540.2v33.7"/>
	<path class="st30" d="M1540,540.2v33.1"/>
	<path class="st31" d="M1534,540.2v33.1"/>
	<path class="st30" d="M1526.3,540.2v33.1"/>
	<path class="st32" d="M1519.2,540.2v33.7"/>
	<path class="st30" d="M1509.3,540.2v33.1"/>
	<path class="st33" d="M1500.2,540.2v33.1"/>
	<path class="st30" d="M1488.9,540.2v33.1"/>
	<path class="st34" d="M1477.1,540.2v34"/>
	<path class="st30" d="M1466.8,540.2v33.1"/>
	<path class="st30" d="M1452.6,540.2v33.1"/>
	<path class="st35" d="M1442.3,540.2v33.7"/>
	<path class="st30" d="M1430.1,540.2v33.7"/>
	<path class="st36" d="M1422.5,540.2v33.1"/>
	<path class="st30" d="M1448.1,540.2v33.7"/>
	<path class="st30" d="M1512,539.9v33"/>
	<path class="st30" d="M1514.5,539.9v33"/>
	<path class="st30" d="M1505.7,539.9v33"/>
	<path class="st30" d="M1523.1,540.7v33"/>
	<path class="st30" d="M1529.2,540.7v33"/>
	<path class="st30" d="M1538.3,540.7v33"/>
	<path class="st30" d="M1542.7,540.7v33"/>
	<path class="st30" d="M1548,540.7v33"/>
	<path class="st30" d="M1485.9,539.9V573"/>
	<path class="st30" d="M1488.5,540.3v33.1"/>
	<path class="st30" d="M1491.1,540.3v33.1"/>
	<path class="st30" d="M1482.3,540.3v33.1"/>
	<path class="st30" d="M1467.1,540.3v33.1"/>
	<path class="st30" d="M1469.6,540v33.1"/>
	<path class="st30" d="M1472.3,540v33.1"/>
	<path class="st30" d="M1463.4,540v33.1"/>
	<path class="st30" d="M1457.8,540.4v33.1"/>
	<path class="st30" d="M1460.4,540v33.1"/>
	<path class="st30" d="M1462.9,540v33.1"/>
	<path class="st30" d="M1454.2,540v33.1"/>
	<path class="st30" d="M1430,540.7v33"/>
	<path class="st30" d="M1432.5,540.2v33.1"/>
	<path class="st30" d="M1435.2,540.2v33.1"/>
	<path class="st30" d="M1427.3,540.2v33.1"/>
	<path class="st37" d="M1549.8,571.5h-134.1v3.5h134.1V571.5z"/>
	<path class="st38" d="M1704.1,328.2h-298v55.3h298V328.2z"/>
	<path class="st39" d="M1439.9,332H1408v47.9h31.9V332z"/>
	<path class="st39" d="M1477.7,332h-31.9v47.9h31.9V332z"/>
	<path class="st39" d="M1514.7,332h-31.9v47.9h31.9V332z"/>
	<path class="st39" d="M1552.5,332h-31.9v47.9h31.9V332z"/>
	<path class="st39" d="M1590.3,332h-31.9v47.9h31.9V332z"/>
	<path class="st39" d="M1628.2,332h-31.9v47.9h31.9V332z"/>
	<path class="st39" d="M1665.2,332h-31.9v47.9h31.9V332z"/>
	<path class="st39" d="M1703,332h-31.9v47.9h31.9V332z"/>
	<path d="M1412.1,355.9c0-4.1,0.4-7.4,1.3-9.9c0.9-2.5,2.1-4.5,3.8-5.8c1.7-1.4,3.8-2,6.3-2c1.9,0,3.5,0.4,4.9,1.1
		c1.4,0.7,2.6,1.8,3.5,3.3c0.9,1.4,1.6,3.1,2.2,5.2c0.5,2,0.8,4.8,0.8,8.2c0,4.1-0.4,7.4-1.3,9.9c-0.8,2.5-2.1,4.4-3.8,5.8
		c-1.7,1.4-3.8,2-6.3,2c-3.4,0-6-1.2-7.9-3.6C1413.3,367.1,1412.1,362.4,1412.1,355.9z M1416.5,355.9c0,5.7,0.7,9.5,2,11.4
		c1.3,1.9,3,2.8,5,2.8c2,0,3.6-0.9,4.9-2.8c1.3-1.9,2-5.7,2-11.4c0-5.7-0.7-9.5-2-11.4c-1.3-1.9-3-2.8-5-2.8c-2,0-3.5,0.8-4.7,2.5
		C1417.2,346.2,1416.5,350.2,1416.5,355.9z"/>
	<path d="M1450,356.1c0-4.1,0.4-7.4,1.3-9.9c0.9-2.5,2.1-4.5,3.8-5.8c1.7-1.4,3.8-2,6.3-2c1.9,0,3.5,0.4,4.9,1.1
		c1.4,0.7,2.6,1.8,3.5,3.3c0.9,1.4,1.6,3.1,2.2,5.2c0.5,2,0.8,4.8,0.8,8.2c0,4.1-0.4,7.4-1.3,9.9c-0.8,2.5-2.1,4.4-3.8,5.8
		c-1.7,1.4-3.8,2-6.3,2c-3.4,0-6-1.2-7.9-3.6C1451.2,367.3,1450,362.6,1450,356.1z M1454.4,356.1c0,5.7,0.7,9.5,2,11.4
		c1.3,1.9,3,2.8,4.9,2.8c2,0,3.6-0.9,4.9-2.8c1.3-1.9,2-5.7,2-11.4c0-5.7-0.7-9.5-2-11.4c-1.3-1.9-3-2.8-5-2.8c-2,0-3.5,0.8-4.7,2.5
		C1455.2,346.4,1454.4,350.3,1454.4,356.1z"/>
	<path d="M1488.3,356c0-4.1,0.4-7.4,1.3-9.9c0.9-2.5,2.1-4.5,3.8-5.8c1.7-1.4,3.8-2,6.3-2c1.9,0,3.5,0.4,4.9,1.1
		c1.4,0.7,2.6,1.8,3.5,3.3c0.9,1.4,1.6,3.1,2.2,5.2c0.5,2,0.8,4.8,0.8,8.2c0,4.1-0.4,7.4-1.3,9.9c-0.8,2.5-2.1,4.4-3.8,5.8
		c-1.7,1.4-3.8,2-6.3,2c-3.4,0-6-1.2-7.9-3.6C1489.4,367.3,1488.3,362.6,1488.3,356z M1492.7,356c0,5.7,0.7,9.5,2,11.4
		c1.3,1.9,3,2.8,5,2.8s3.6-0.9,4.9-2.8c1.3-1.9,2-5.7,2-11.4c0-5.7-0.7-9.5-2-11.4c-1.3-1.9-3-2.8-5-2.8c-2,0-3.5,0.8-4.7,2.5
		C1493.4,346.4,1492.7,350.3,1492.7,356z"/>
	<path d="M1527.1,355.8c0-4.1,0.4-7.4,1.3-9.9c0.9-2.5,2.1-4.5,3.8-5.8c1.7-1.4,3.8-2,6.3-2c1.9,0,3.5,0.4,4.9,1.1
		c1.4,0.7,2.6,1.8,3.5,3.3c0.9,1.4,1.6,3.1,2.2,5.2c0.5,2,0.8,4.8,0.8,8.2c0,4.1-0.4,7.4-1.3,9.9c-0.8,2.5-2.1,4.4-3.8,5.8
		c-1.7,1.4-3.8,2-6.3,2c-3.4,0-6-1.2-7.9-3.6C1528.3,367.1,1527.1,362.3,1527.1,355.8z M1531.5,355.8c0,5.7,0.7,9.5,2,11.4
		c1.3,1.9,3,2.8,5,2.8c2,0,3.6-0.9,4.9-2.8c1.3-1.9,2-5.7,2-11.4c0-5.7-0.7-9.5-2-11.4c-1.3-1.9-3-2.8-5-2.8c-2,0-3.5,0.8-4.7,2.5
		C1532.2,346.2,1531.5,350.1,1531.5,355.8z"/>
	<path d="M1564,355.8c0-4.1,0.4-7.4,1.3-9.9c0.9-2.5,2.1-4.5,3.8-5.8c1.7-1.4,3.8-2,6.3-2c1.9,0,3.5,0.4,4.9,1.1
		c1.4,0.7,2.6,1.8,3.5,3.3c0.9,1.4,1.6,3.1,2.2,5.2c0.5,2,0.8,4.8,0.8,8.2c0,4.1-0.4,7.4-1.3,9.9c-0.8,2.5-2.1,4.4-3.8,5.8
		c-1.7,1.4-3.8,2-6.3,2c-3.4,0-6-1.2-7.9-3.6C1565.1,367.1,1564,362.3,1564,355.8z M1568.4,355.8c0,5.7,0.7,9.5,2,11.4
		c1.3,1.9,3,2.8,5,2.8c2,0,3.6-0.9,4.9-2.8c1.3-1.9,2-5.7,2-11.4c0-5.7-0.7-9.5-2-11.4c-1.3-1.9-3-2.8-5-2.8c-2,0-3.5,0.8-4.7,2.5
		C1569.1,346.2,1568.4,350.1,1568.4,355.8z"/>
	<path class="st40" d="M1602.2,355.1c0-4.1,0.4-7.4,1.3-9.9c0.9-2.5,2.1-4.5,3.8-5.8c1.7-1.4,3.8-2,6.3-2c1.9,0,3.5,0.4,4.9,1.1
		c1.4,0.7,2.6,1.8,3.5,3.3c0.9,1.4,1.6,3.1,2.2,5.2c0.5,2,0.8,4.8,0.8,8.2c0,4.1-0.4,7.4-1.3,9.9c-0.8,2.5-2.1,4.4-3.8,5.8
		c-1.7,1.4-3.8,2-6.3,2c-3.4,0-6-1.2-7.9-3.6C1603.3,366.4,1602.2,361.7,1602.2,355.1z M1606.6,355.1c0,5.7,0.7,9.5,2,11.4
		c1.3,1.9,3,2.8,4.9,2.8c2,0,3.6-0.9,4.9-2.8c1.3-1.9,2-5.7,2-11.4c0-5.7-0.7-9.5-2-11.4c-1.3-1.9-3-2.8-5-2.8c-2,0-3.5,0.8-4.7,2.5
		C1607.3,345.5,1606.6,349.4,1606.6,355.1z"/>
	<path class="st40" d="M1661.2,346l-4.3,0.3c-0.4-1.7-0.9-2.9-1.6-3.7c-1.2-1.2-2.6-1.8-4.3-1.8c-1.4,0-2.6,0.4-3.6,1.1
		c-1.3,1-2.4,2.4-3.2,4.3c-0.8,1.9-1.2,4.6-1.2,8c1-1.6,2.3-2.7,3.8-3.5c1.5-0.8,3-1.1,4.7-1.1c2.8,0,5.3,1.1,7.3,3.2
		c2,2.1,3,4.8,3,8.1c0,2.2-0.5,4.2-1.4,6.1c-0.9,1.9-2.2,3.3-3.9,4.3c-1.6,1-3.5,1.5-5.6,1.5c-3.6,0-6.5-1.3-8.7-3.9
		c-2.2-2.6-3.4-6.9-3.4-13c0-6.7,1.2-11.6,3.7-14.7c2.2-2.7,5.1-4,8.8-4c2.7,0,5,0.8,6.7,2.3C1659.8,341.2,1660.9,343.3,1661.2,346z
		 M1643.8,361c0,1.5,0.3,2.9,0.9,4.2c0.6,1.3,1.5,2.4,2.6,3.1c1.1,0.7,2.3,1,3.5,1c1.8,0,3.4-0.7,4.6-2.2c1.3-1.5,2-3.4,2-5.9
		c0-2.4-0.6-4.3-1.9-5.7c-1.3-1.4-2.9-2.1-4.8-2.1c-1.9,0-3.6,0.7-4.9,2.1C1644.5,357,1643.8,358.8,1643.8,361z"/>
	<path class="st40" d="M1699,368.7v4.1h-23c0-1,0.1-2,0.5-3c0.6-1.6,1.5-3.1,2.8-4.6c1.3-1.5,3.2-3.3,5.6-5.3
		c3.8-3.1,6.3-5.6,7.7-7.4c1.3-1.8,2-3.5,2-5.1c0-1.7-0.6-3.1-1.8-4.3c-1.2-1.2-2.8-1.8-4.7-1.8c-2.1,0-3.7,0.6-4.9,1.9
		c-1.2,1.2-1.9,2.9-1.9,5.1l-4.4-0.5c0.3-3.3,1.4-5.8,3.4-7.5c2-1.7,4.6-2.6,7.9-2.6c3.3,0,6,0.9,7.9,2.8c1.9,1.9,2.9,4.1,2.9,6.9
		c0,1.4-0.3,2.8-0.9,4.1c-0.6,1.3-1.5,2.8-2.8,4.2c-1.3,1.5-3.5,3.5-6.6,6.1c-2.6,2.2-4.2,3.6-4.9,4.4c-0.7,0.8-1.3,1.5-1.8,2.3
		H1699z"/>
	<path class="st28" d="M1417.1,411l1.9,0.5c-0.4,1.6-1.1,2.8-2.2,3.6c-1,0.8-2.3,1.2-3.8,1.2c-1.6,0-2.8-0.3-3.8-0.9
		c-1-0.6-1.7-1.6-2.2-2.8c-0.5-1.2-0.8-2.5-0.8-3.9c0-1.5,0.3-2.8,0.9-3.9c0.6-1.1,1.4-2,2.5-2.6c1.1-0.6,2.2-0.9,3.5-0.9
		c1.4,0,2.7,0.4,3.7,1.1c1,0.7,1.7,1.8,2.1,3.1l-1.9,0.4c-0.3-1.1-0.8-1.8-1.5-2.3c-0.6-0.5-1.4-0.7-2.4-0.7c-1.1,0-2.1,0.3-2.8,0.8
		c-0.7,0.5-1.3,1.3-1.6,2.2c-0.3,0.9-0.5,1.8-0.5,2.8c0,1.2,0.2,2.3,0.5,3.2c0.4,0.9,0.9,1.6,1.7,2.1c0.8,0.5,1.6,0.7,2.5,0.7
		c1.1,0,2-0.3,2.7-0.9C1416.3,413.1,1416.8,412.2,1417.1,411z M1421.3,416v-14.5h5.4c1.1,0,2,0.1,2.7,0.4c0.7,0.3,1.2,0.7,1.6,1.4
		c0.4,0.6,0.6,1.2,0.6,1.9c0,0.6-0.2,1.2-0.5,1.7c-0.3,0.5-0.8,1-1.5,1.3c0.9,0.3,1.5,0.7,2,1.3c0.5,0.6,0.7,1.4,0.7,2.2
		c0,0.7-0.1,1.3-0.4,1.9c-0.3,0.6-0.6,1-1.1,1.3c-0.4,0.3-1,0.6-1.6,0.7c-0.6,0.2-1.4,0.2-2.3,0.2H1421.3z M1423.2,407.6h3.1
		c0.9,0,1.5-0.1,1.8-0.2c0.5-0.1,0.9-0.4,1.1-0.7c0.3-0.3,0.4-0.8,0.4-1.3c0-0.5-0.1-0.9-0.3-1.3c-0.2-0.4-0.6-0.6-1-0.8
		c-0.4-0.1-1.2-0.2-2.2-0.2h-2.9V407.6z M1423.2,414.3h3.6c0.6,0,1.1,0,1.3-0.1c0.4-0.1,0.8-0.2,1.1-0.4c0.3-0.2,0.5-0.5,0.7-0.8
		c0.2-0.4,0.3-0.8,0.3-1.2c0-0.5-0.1-1-0.4-1.4c-0.3-0.4-0.7-0.7-1.2-0.8c-0.5-0.2-1.2-0.2-2.1-0.2h-3.4V414.3z M1434.9,401.5h1.9
		v6.3c0.9,0,1.5-0.2,1.9-0.5c0.4-0.3,0.8-1.2,1.4-2.5c0.4-0.9,0.7-1.6,1-2c0.3-0.4,0.6-0.7,1.1-1c0.5-0.3,1-0.4,1.6-0.4
		c0.7,0,1.1,0,1.2,0v1.7c-0.1,0-0.2,0-0.4,0c-0.2,0-0.3,0-0.4,0c-0.6,0-1.1,0.1-1.4,0.4c-0.3,0.3-0.6,0.9-1,1.9
		c-0.5,1.2-0.9,2-1.2,2.3c-0.3,0.3-0.7,0.6-1.2,0.8c0.9,0.3,1.9,1.1,2.8,2.6l3,4.8h-2.4l-2.4-3.9c-0.7-1.1-1.2-1.8-1.7-2.2
		c-0.4-0.4-1-0.6-1.7-0.6v6.8h-1.9V401.5z M1451.4,411.7v-1.8h5.5v1.8H1451.4z M1470.7,416h-1.8v-11.3c-0.4,0.4-1,0.8-1.7,1.2
		c-0.7,0.4-1.3,0.7-1.9,0.9v-1.7c1-0.5,1.9-1,2.6-1.7c0.7-0.7,1.3-1.3,1.6-1.9h1.1V416z M1475.2,412.2l1.9-0.2
		c0.1,0.9,0.5,1.6,1,2.1c0.5,0.5,1.1,0.7,1.8,0.7c0.9,0,1.6-0.3,2.2-1c0.6-0.6,0.9-1.5,0.9-2.6c0-1-0.3-1.8-0.9-2.4
		c-0.6-0.6-1.3-0.9-2.2-0.9c-0.6,0-1.1,0.1-1.5,0.4c-0.5,0.3-0.8,0.6-1.1,1l-1.7-0.2l1.4-7.4h7.2v1.7h-5.8l-0.8,3.9
		c0.9-0.6,1.8-0.9,2.7-0.9c1.3,0,2.3,0.4,3.2,1.3c0.9,0.9,1.3,2,1.3,3.4c0,1.3-0.4,2.4-1.1,3.4c-0.9,1.2-2.2,1.8-3.8,1.8
		c-1.3,0-2.4-0.4-3.2-1.1C1475.8,414.4,1475.4,413.5,1475.2,412.2z M1487.3,401.5h9.4v1.7h-7.4V416h-1.9V401.5z"/>
	<path class="st28" d="M1406.3,442.6l1.7-0.2c0.2,0.8,0.4,1.4,0.8,1.8c0.4,0.4,0.9,0.5,1.6,0.5c0.5,0,1-0.1,1.4-0.4
		c0.4-0.3,0.8-0.6,1-1c0.3-0.4,0.5-1,0.7-1.7c0.2-0.7,0.3-1.4,0.3-2.2c0-0.1,0-0.2,0-0.4c-0.4,0.6-0.9,1-1.5,1.4
		c-0.6,0.3-1.3,0.5-2,0.5c-1.2,0-2.2-0.4-3-1.3c-0.8-0.9-1.2-2-1.2-3.4c0-1.5,0.4-2.7,1.3-3.5c0.9-0.9,2-1.3,3.3-1.3
		c0.9,0,1.8,0.3,2.6,0.8c0.8,0.5,1.4,1.2,1.8,2.2c0.4,0.9,0.6,2.3,0.6,4.1c0,1.9-0.2,3.3-0.6,4.4c-0.4,1.1-1,1.9-1.8,2.5
		c-0.8,0.6-1.7,0.9-2.8,0.9c-1.1,0-2.1-0.3-2.8-0.9C1406.9,444.6,1406.4,443.7,1406.3,442.6z M1413.6,436.2c0-1-0.3-1.8-0.8-2.4
		c-0.5-0.6-1.2-0.9-2-0.9c-0.8,0-1.5,0.3-2.1,1c-0.6,0.6-0.9,1.5-0.9,2.5c0,0.9,0.3,1.7,0.8,2.3c0.6,0.6,1.2,0.9,2.1,0.9
		c0.8,0,1.5-0.3,2-0.9C1413.3,438,1413.6,437.2,1413.6,436.2z M1417.3,438.8c0-1.7,0.2-3.1,0.5-4.1c0.4-1,0.9-1.9,1.6-2.4
		c0.7-0.6,1.6-0.9,2.6-0.9c0.8,0,1.5,0.2,2,0.5c0.6,0.3,1.1,0.8,1.5,1.4c0.4,0.6,0.7,1.3,0.9,2.2c0.2,0.8,0.3,2,0.3,3.4
		c0,1.7-0.2,3.1-0.5,4.1c-0.3,1-0.9,1.8-1.6,2.4c-0.7,0.6-1.6,0.8-2.6,0.8c-1.4,0-2.5-0.5-3.3-1.5
		C1417.8,443.5,1417.3,441.5,1417.3,438.8z M1419.1,438.8c0,2.4,0.3,4,0.8,4.8c0.6,0.8,1.2,1.2,2.1,1.2c0.8,0,1.5-0.4,2.1-1.2
		c0.6-0.8,0.8-2.4,0.8-4.7c0-2.4-0.3-4-0.8-4.8c-0.5-0.8-1.2-1.2-2.1-1.2c-0.8,0-1.5,0.3-2,1
		C1419.4,434.8,1419.1,436.4,1419.1,438.8z M1429,433.9c0-0.8,0.3-1.4,0.8-1.9c0.5-0.5,1.2-0.8,1.9-0.8c0.8,0,1.4,0.3,2,0.8
		c0.5,0.5,0.8,1.2,0.8,1.9c0,0.8-0.3,1.4-0.8,1.9c-0.5,0.5-1.2,0.8-1.9,0.8c-0.7,0-1.4-0.3-1.9-0.8
		C1429.3,435.3,1429,434.7,1429,433.9z M1430.1,433.9c0,0.5,0.2,0.9,0.5,1.2c0.3,0.3,0.7,0.5,1.2,0.5s0.9-0.2,1.2-0.5
		c0.3-0.3,0.5-0.7,0.5-1.2c0-0.5-0.2-0.9-0.5-1.2c-0.3-0.3-0.7-0.5-1.2-0.5s-0.9,0.2-1.2,0.5
		C1430.2,433.1,1430.1,433.5,1430.1,433.9z M1447.7,440.8l1.9,0.5c-0.4,1.6-1.1,2.8-2.2,3.6c-1,0.8-2.3,1.2-3.8,1.2
		c-1.6,0-2.8-0.3-3.8-0.9c-1-0.6-1.7-1.6-2.2-2.8c-0.5-1.2-0.8-2.5-0.8-3.9c0-1.5,0.3-2.8,0.9-3.9c0.6-1.1,1.4-2,2.5-2.6
		c1.1-0.6,2.2-0.9,3.5-0.9c1.4,0,2.7,0.4,3.7,1.1c1,0.7,1.7,1.8,2.1,3.1l-1.9,0.4c-0.3-1.1-0.8-1.8-1.5-2.3
		c-0.6-0.5-1.4-0.7-2.4-0.7c-1.1,0-2,0.3-2.8,0.8c-0.7,0.5-1.3,1.3-1.6,2.2c-0.3,0.9-0.5,1.8-0.5,2.8c0,1.2,0.2,2.3,0.5,3.2
		c0.4,0.9,0.9,1.6,1.7,2.1c0.8,0.5,1.6,0.7,2.5,0.7c1.1,0,2-0.3,2.7-0.9C1447,443,1447.5,442.1,1447.7,440.8z"/>
	<path d="M1412.7,474.6h-1.8v-11.3c-0.4,0.4-1,0.8-1.7,1.2c-0.7,0.4-1.3,0.7-1.9,0.9v-1.7c1-0.5,1.9-1,2.6-1.7
		c0.7-0.7,1.3-1.3,1.6-1.9h1.1V474.6z M1418.3,474.6v-2h2v2c0,0.7-0.1,1.3-0.4,1.8c-0.3,0.5-0.7,0.8-1.3,1.1l-0.5-0.8
		c0.4-0.2,0.7-0.4,0.8-0.7c0.2-0.3,0.3-0.8,0.3-1.4H1418.3z M1432.2,463.7l-1.8,0.1c-0.2-0.7-0.4-1.2-0.7-1.5
		c-0.5-0.5-1.1-0.8-1.8-0.8c-0.6,0-1.1,0.2-1.5,0.5c-0.6,0.4-1,1-1.3,1.8c-0.3,0.8-0.5,1.9-0.5,3.4c0.4-0.7,1-1.1,1.6-1.5
		c0.6-0.3,1.3-0.5,2-0.5c1.2,0,2.2,0.4,3,1.3c0.8,0.9,1.3,2,1.3,3.4c0,0.9-0.2,1.8-0.6,2.5c-0.4,0.8-0.9,1.4-1.6,1.8
		c-0.7,0.4-1.5,0.6-2.3,0.6c-1.5,0-2.7-0.5-3.6-1.6c-0.9-1.1-1.4-2.9-1.4-5.4c0-2.8,0.5-4.8,1.6-6.1c0.9-1.1,2.1-1.7,3.6-1.7
		c1.1,0,2.1,0.3,2.8,1C1431.6,461.7,1432,462.6,1432.2,463.7z M1424.9,470c0,0.6,0.1,1.2,0.4,1.8c0.3,0.6,0.6,1,1.1,1.3
		c0.5,0.3,1,0.4,1.5,0.4c0.8,0,1.4-0.3,1.9-0.9c0.5-0.6,0.8-1.4,0.8-2.5c0-1-0.3-1.8-0.8-2.4c-0.5-0.6-1.2-0.9-2-0.9
		c-0.8,0-1.5,0.3-2.1,0.9C1425.2,468.3,1424.9,469,1424.9,470z M1440.5,474.6v-14.5h2.9l3.4,10.3c0.3,1,0.5,1.7,0.7,2.1
		c0.2-0.5,0.4-1.3,0.8-2.3l3.5-10.1h2.6v14.5h-1.9v-12.1l-4.2,12.1h-1.7l-4.2-12.3v12.3H1440.5z M1457.4,474.6v-14.5h5.5
		c1,0,1.7,0,2.2,0.1c0.7,0.1,1.3,0.3,1.8,0.7c0.5,0.3,0.9,0.8,1.2,1.4c0.3,0.6,0.4,1.3,0.4,2c0,1.2-0.4,2.3-1.2,3.1
		c-0.8,0.9-2.2,1.3-4.3,1.3h-3.7v5.9H1457.4z M1459.3,467h3.7c1.2,0,2.1-0.2,2.6-0.7c0.5-0.5,0.8-1.1,0.8-1.9c0-0.6-0.2-1.1-0.5-1.6
		c-0.3-0.4-0.7-0.7-1.2-0.9c-0.3-0.1-0.9-0.1-1.8-0.1h-3.7V467z M1477.5,473.4c-0.7,0.6-1.3,1-1.9,1.2c-0.6,0.2-1.3,0.3-2,0.3
		c-1.2,0-2-0.3-2.7-0.8c-0.6-0.6-0.9-1.3-0.9-2.2c0-0.5,0.1-1,0.3-1.4c0.2-0.4,0.5-0.8,0.9-1c0.4-0.3,0.8-0.5,1.3-0.6
		c0.4-0.1,0.9-0.2,1.6-0.3c1.4-0.2,2.5-0.4,3.2-0.6c0-0.2,0-0.4,0-0.5c0-0.7-0.2-1.2-0.5-1.5c-0.5-0.4-1.1-0.6-2-0.6
		c-0.8,0-1.5,0.1-1.9,0.4c-0.4,0.3-0.7,0.8-0.9,1.6l-1.7-0.2c0.2-0.7,0.4-1.3,0.8-1.8c0.4-0.5,0.9-0.8,1.6-1.1
		c0.7-0.3,1.5-0.4,2.4-0.4s1.6,0.1,2.2,0.3c0.6,0.2,1,0.5,1.2,0.8c0.3,0.3,0.4,0.7,0.6,1.2c0.1,0.3,0.1,0.9,0.1,1.6v2.4
		c0,1.7,0,2.7,0.1,3.1c0.1,0.4,0.2,0.9,0.5,1.3h-1.9C1477.7,474.3,1477.6,473.8,1477.5,473.4z M1477.4,469.4
		c-0.6,0.3-1.6,0.5-2.9,0.7c-0.7,0.1-1.3,0.2-1.6,0.4c-0.3,0.1-0.5,0.3-0.7,0.6c-0.2,0.3-0.2,0.5-0.2,0.8c0,0.5,0.2,0.9,0.5,1.2
		c0.4,0.3,0.9,0.5,1.6,0.5c0.7,0,1.3-0.1,1.8-0.4c0.5-0.3,0.9-0.7,1.2-1.2c0.2-0.4,0.3-1,0.3-1.8V469.4z"/>
	<path d="M1406.7,503.4v-14.5h5.4c1.1,0,2,0.1,2.7,0.4c0.7,0.3,1.2,0.7,1.6,1.4c0.4,0.6,0.6,1.2,0.6,1.9c0,0.6-0.2,1.2-0.5,1.7
		c-0.3,0.5-0.9,1-1.5,1.3c0.9,0.3,1.5,0.7,2,1.3c0.5,0.6,0.7,1.4,0.7,2.2c0,0.7-0.2,1.3-0.4,1.9c-0.3,0.6-0.6,1-1.1,1.3
		c-0.4,0.3-1,0.6-1.6,0.7c-0.6,0.2-1.4,0.2-2.3,0.2H1406.7z M1408.6,495h3.1c0.9,0,1.5-0.1,1.8-0.2c0.5-0.1,0.9-0.4,1.1-0.7
		c0.2-0.3,0.4-0.8,0.4-1.3c0-0.5-0.1-0.9-0.3-1.3c-0.2-0.4-0.6-0.6-1-0.8c-0.4-0.1-1.2-0.2-2.2-0.2h-2.9V495z M1408.6,501.7h3.6
		c0.6,0,1.1,0,1.3-0.1c0.4-0.1,0.8-0.2,1.1-0.4c0.3-0.2,0.5-0.5,0.7-0.8c0.2-0.4,0.3-0.8,0.3-1.2c0-0.5-0.1-1-0.4-1.4
		c-0.3-0.4-0.7-0.7-1.2-0.8c-0.5-0.2-1.2-0.2-2.1-0.2h-3.4V501.7z M1420.3,503.4v-14.5h1.9v6h7.5v-6h1.9v14.5h-1.9v-6.8h-7.5v6.8
		H1420.3z M1433.3,503.6l4.2-15h1.4l-4.2,15H1433.3z M1438.9,503.4l5.6-14.5h2.1l5.9,14.5h-2.2l-1.7-4.4h-6.1l-1.6,4.4H1438.9z
		 M1443.1,497.4h4.9l-1.5-4c-0.5-1.2-0.8-2.2-1-3c-0.2,0.9-0.4,1.9-0.8,2.8L1443.1,497.4z M1456.7,503.4l-5.6-14.5h2.1l3.8,10.5
		c0.3,0.8,0.6,1.6,0.8,2.4c0.2-0.8,0.5-1.6,0.8-2.4l3.9-10.5h2l-5.7,14.5H1456.7z"/>
	<path class="st41" d="M1554.2,249.1v-8h36.5v68.1h-18.4v-57.4h-35.6v57.4h17.5v-46.1h-14.3"/>
	<path class="st41" d="M1533.3,263.1h-10.9v46.8"/>
	<path d="M1527.6,318.3v3.7h-0.9v-3.7l-0.2-0.2l-3.3,3.9h-1l3.8-4.4l-3.5-3.6h1l3.3,3.3v-3.1h0.9v3.3l3.3-3.3h1l-3.5,3.6l3.8,4.4h-1
		l-3.3-3.9H1527.6z"/>
	<path d="M1539.7,322h-0.9v-6.1l-5.3,6.1h-0.2V314h0.9v6.2l5.3-6.2h0.2V322z"/>
	<path d="M1548.1,322h-0.9l-2.7-6.2l-2.7,6.2h-0.9l3.5-8.1h0.2L1548.1,322z"/>
	<path d="M1555.7,322h-0.9v-6.1l-5.3,6.1h-0.2V314h0.9v6.2l5.3-6.2h0.2V322z"/>
	<path d="M1567,321.2h1.3v1.9h-0.8v-1.2h-10v-8.1h0.9v7.3h3.4v-7.3h0.8v7.3h3.5v-7.3h0.9C1567,313.9,1567,321.2,1567,321.2z"/>
	<path d="M1569.5,313.9h0.9v3.3h4v-3.3h0.9v8.1h-0.9V318h-4v3.9h-0.9V313.9z"/>
	<path d="M1583.4,322h-0.9v-6.1l-5.3,6.1h-0.2V314h0.9v6.2l5.3-6.2h0.2V322z"/>
	<path d="M1585.5,313.9h0.9v2.9l3.3-2.9h1l-3.8,3.6l4,4.4h-1.1l-3.5-3.7v3.7h-0.9C1585.5,322,1585.5,313.9,1585.5,313.9z"/>
</g>
<circle class="st42" cx="-85.6" cy="118.3" r="398.3"/>
<circle class="st43" cx="-16.2" cy="150.2" r="266.2"/>
<circle class="st44" cx="1905.4" cy="1055.6" r="418.5"/>
<path class="st45" d="M1699.5,905c83.7,45.3,57.7,177-37.5,175c-140.6-3.1-329,1-563,0c-400.2-1.7-668,3-721.5-31
	c-121.2-77.1,322.9-260.1,721.2-260.1C1349.4,788.9,1570.3,835,1699.5,905z"/>
<circle class="st46" cx="1930.7" cy="18.1" r="172.6"/>
<circle class="st47" cx="1932.3" cy="9.5" r="112.4"/>
<circle class="st44" cx="1918.1" cy="1051" r="234.8"/>
<path class="st48" d="M327.2,872.1v0.9h-3.7v-0.9H327.2z M323.8,869.3v6.6h-1v-6.6H323.8z M328,869.3v6.6h-1v-6.6H328z M331.8,876.1
	c-0.4,0-0.8-0.1-1.1-0.2c-0.3-0.2-0.6-0.4-0.8-0.7c-0.2-0.3-0.3-0.7-0.3-1.1c0-0.4,0.1-0.7,0.2-0.9c0.1-0.2,0.3-0.4,0.6-0.6
	c0.3-0.1,0.5-0.2,0.8-0.3c0.3-0.1,0.6-0.1,0.9-0.2c0.4-0.1,0.7-0.1,1-0.1c0.3,0,0.4-0.1,0.6-0.1c0.1-0.1,0.2-0.2,0.2-0.3v0
	c0-0.4-0.1-0.8-0.3-1c-0.2-0.2-0.6-0.4-1-0.4c-0.5,0-0.9,0.1-1.1,0.3c-0.3,0.2-0.5,0.4-0.6,0.7l-1-0.3c0.2-0.4,0.4-0.7,0.7-0.9
	c0.3-0.2,0.6-0.4,0.9-0.5c0.3-0.1,0.7-0.1,1-0.1c0.2,0,0.5,0,0.7,0.1c0.3,0,0.5,0.2,0.8,0.3c0.3,0.2,0.5,0.4,0.7,0.7
	c0.2,0.3,0.3,0.7,0.3,1.3v4.4h-1V875h-0.1c-0.1,0.2-0.2,0.3-0.3,0.5c-0.2,0.2-0.4,0.3-0.6,0.4C332.5,876,332.2,876.1,331.8,876.1z
	 M332,875.1c0.4,0,0.7-0.1,1-0.2c0.3-0.2,0.5-0.4,0.6-0.6c0.1-0.3,0.2-0.5,0.2-0.8v-0.9c0,0.1-0.1,0.1-0.3,0.1
	c-0.1,0-0.3,0.1-0.5,0.1c-0.2,0-0.4,0.1-0.5,0.1c-0.2,0-0.3,0-0.4,0.1c-0.3,0-0.5,0.1-0.7,0.2c-0.2,0.1-0.4,0.2-0.6,0.3
	c-0.1,0.2-0.2,0.4-0.2,0.6c0,0.4,0.1,0.6,0.4,0.8C331.2,875.1,331.5,875.1,332,875.1z M336,877.8V875h0.6c0.1-0.1,0.3-0.3,0.3-0.5
	c0.1-0.2,0.2-0.4,0.3-0.6c0.1-0.2,0.1-0.5,0.2-0.8c0.1-0.3,0.1-0.7,0.1-1.2l0.2-2.6h4.2v5.7h1v2.9h-1v-1.9H337v1.9H336z M337.7,875
	h3.2v-4.7h-2.2l-0.2,1.7c-0.1,0.7-0.2,1.3-0.3,1.8C338.1,874.2,337.9,874.6,337.7,875z M344.3,875.9v-6.6h5.2v6.6h-1v-5.7h-3.2v5.7
	H344.3z M351.3,869.3h1v5.1l3.2-5.1h1.2v6.6h-1v-5.1l-3.2,5.1 M361.3,876c-0.6,0-1.2-0.2-1.6-0.4c-0.4-0.3-0.8-0.7-1-1.2
	c-0.2-0.5-0.4-1.1-0.4-1.8c0-0.7,0.1-1.3,0.4-1.8c0.3-0.5,0.6-0.9,1-1.2c0.4-0.3,1-0.4,1.6-0.4c0.5,0,0.9,0.1,1.3,0.3
	c0.4,0.2,0.7,0.4,0.9,0.7c0.2,0.3,0.4,0.7,0.4,1.1h-1c-0.1-0.3-0.3-0.6-0.5-0.8c-0.3-0.2-0.6-0.4-1.1-0.4c-0.4,0-0.7,0.1-1,0.3
	c-0.3,0.2-0.5,0.5-0.7,0.9c-0.2,0.4-0.2,0.8-0.2,1.3s0.1,1,0.2,1.3c0.2,0.4,0.4,0.7,0.7,0.9c0.3,0.2,0.6,0.3,1.1,0.3
	c0.3,0,0.5,0,0.7-0.1s0.4-0.2,0.5-0.4c0.1-0.2,0.3-0.4,0.3-0.6h1c-0.1,0.4-0.2,0.7-0.4,1.1c-0.2,0.3-0.5,0.6-0.9,0.7
	C362.2,876,361.8,876,361.3,876z M364.9,870.2v-1h5.4v1h-2.2v5.7h-1v-5.7H364.9z M372.6,871.7h1.9c0.8,0,1.4,0.2,1.8,0.6
	c0.4,0.4,0.6,0.9,0.6,1.5c0,0.4-0.1,0.7-0.3,1.1c-0.2,0.3-0.5,0.6-0.8,0.8c-0.4,0.2-0.8,0.3-1.3,0.3h-2.8v-6.6h1v5.7h1.8
	c0.4,0,0.7-0.1,1-0.3c0.3-0.2,0.4-0.5,0.4-0.8c0-0.4-0.1-0.6-0.4-0.9c-0.3-0.2-0.6-0.3-1-0.3h-1.9V871.7z"/>
<rect x="116.4" y="524.7" class="st49" width="543.6" height="563.8"/>
<path class="st50" d="M1920,0h-160.9c0,0-18.1,164.3,160.9,190.6V0z"/>
<path class="st51" d="M1920,0h-99.7c0,0-10.3,103.3,99.7,121.2V0z"/>
<path class="st52" d="M1920,1080V637.3c0,0-416.2-21.3-431.1,442.7H1920z"/>
<path class="st52" d="M1920,816.2V1080h-235C1685,1080,1661,834.4,1920,816.2z"/>
<path class="st53" d="M0,0h294.9C294.9,0,398,379.7,0,507.4V0z"/>
<path class="st54" d="M0,0h203.6C203.6,0,316,306,0,416.4V0z"/>
</svg>
