<?xml version="1.0" encoding="utf-8"?>
<!-- Generator: Adobe Illustrator 25.4.1, SVG Export Plug-In . SVG Version: 6.00 Build 0)  -->
<svg version="1.1" id="Слой_1" xmlns="http://www.w3.org/2000/svg" xmlns:xlink="http://www.w3.org/1999/xlink" x="0px" y="0px"
	 viewBox="0 0 1920 698.3" style="enable-background:new 0 0 1920 698.3;" xml:space="preserve">
<style type="text/css">
	.st0{clip-path:url(#SVGID_00000163768674215872102230000004664876541781531808_);}
	.st1{fill:#FFFFFF;}
	.st2{clip-path:url(#SVGID_00000051362162809767792920000006575926330541417116_);}
	.st3{fill:#35CBE2;}
	.st4{opacity:0.7;fill:url(#SVGID_00000018920226165568493640000008804183295157016746_);enable-background:new    ;}
	.st5{opacity:0.7;}
	.st6{fill:url(#SVGID_00000003790151599706554290000004652931398612400274_);}
	.st7{fill:#CBB35B;}
	.st8{fill:#AE8F4C;}
	.st9{fill:#856238;}
	.st10{fill:url(#SVGID_00000060737948121133409640000016730839293010331833_);}
	.st11{fill:none;stroke:#856238;stroke-width:1.2132;stroke-miterlimit:10;}
	.st12{fill:url(#SVGID_00000161608188821882106070000011782330901476087222_);}
	.st13{fill:url(#SVGID_00000127760406226957155810000002636624590427816601_);}
	.st14{fill:#8D6030;}
	.st15{fill:#D1B349;}
	.st16{fill:#B58E3F;}
	.st17{fill:#8D5700;}
	.st18{fill:url(#SVGID_00000106137325367648865760000012738724534385130409_);}
	.st19{fill:url(#SVGID_00000114767392736987877830000016888347883627907727_);}
	.st20{fill:#404040;}
	
		.st21{fill:url(#SVGID_00000168098545084698730840000001128470442622303401_);stroke:#404040;stroke-width:3.4437;stroke-miterlimit:10;}
	.st22{fill:#5E5E5E;}
	.st23{fill:#868686;}
	.st24{fill:#FFFFFF;stroke:#FFFFFF;stroke-width:1.7862;stroke-miterlimit:10;}
	.st25{fill:none;stroke:#FFFFFF;stroke-width:2.8697;stroke-miterlimit:10;}
	.st26{opacity:0.21;}
	.st27{fill:none;stroke:#000000;stroke-width:0.4305;stroke-miterlimit:9.9999;}
	.st28{fill:none;stroke:#404040;stroke-width:3.4437;stroke-miterlimit:10;}
	.st29{fill:none;stroke:#FFFFFF;stroke-width:1.1479;stroke-miterlimit:10;}
	.st30{fill:#F03B2C;}
	.st31{fill:#FFFFFF;stroke:#000000;stroke-width:0.5314;stroke-miterlimit:10;}
	.st32{fill:none;stroke:#000000;stroke-width:0.5314;stroke-miterlimit:10;}
	.st33{fill:none;stroke:#000000;stroke-width:2.5955;stroke-miterlimit:10;}
	.st34{fill:none;stroke:#000000;stroke-width:2.3046;stroke-miterlimit:10;}
	.st35{fill:none;stroke:#000000;stroke-width:3.9043;stroke-miterlimit:10;}
	.st36{fill:none;stroke:#000000;stroke-width:3.2637;stroke-miterlimit:10;}
	.st37{fill:none;stroke:#000000;stroke-width:3.6547;stroke-miterlimit:10;}
	.st38{fill:none;stroke:#000000;stroke-width:3.716;stroke-miterlimit:10;}
	.st39{fill:#FFFFFF;stroke:#FFFFFF;stroke-width:0.5279;stroke-miterlimit:10;}
	.st40{fill:#FFFFFF;stroke:#000000;stroke-width:0.1435;stroke-miterlimit:10;}
	.st41{opacity:0.38;fill:#FFFFFF;stroke:#000000;stroke-width:0.1502;stroke-miterlimit:10;enable-background:new    ;}
	.st42{fill:#D53847;}
	.st43{fill:none;stroke:#000000;stroke-width:0.9026;stroke-miterlimit:10;}
	.st44{fill:#1BA9D5;}
	.st45{fill:#219FC6;}
	.st46{fill:#09A1D1;fill-opacity:0.5;}
	.st47{fill:#17A8D6;}
	.st48{fill:#169AC4;}
	.st49{fill:#4E4148;}
	.st50{fill:#383838;}
	.st51{fill:none;stroke:#000000;stroke-width:5.5075;stroke-miterlimit:10;}
	.st52{fill:#555352;stroke:#000000;stroke-width:0.6885;stroke-miterlimit:10;}
	.st53{fill:#CACACA;}
	.st54{fill:none;stroke:#545050;stroke-width:4.1306;stroke-miterlimit:10;}
	.st55{fill:none;stroke:#000000;stroke-width:1.3769;stroke-miterlimit:10;}
	.st56{fill:#373737;}
	.st57{fill:#3E3D3D;}
	.st58{fill:#555352;}
	.st59{fill:#984148;}
	.st60{fill:none;stroke:#545050;stroke-width:2.0653;stroke-miterlimit:10;}
	.st61{fill:#596060;}
	.st62{fill:#686F6F;}
	.st63{fill:none;stroke:#888D8C;stroke-width:0.6885;stroke-miterlimit:10;}
	.st64{fill:#3EDDF9;}
	.st65{fill:#FF0000;}
	.st66{fill:none;stroke:#000000;stroke-width:2.7538;stroke-miterlimit:10;}
	.st67{fill:#00FFFF;}
	.st68{fill:#0071BF;}
	.st69{fill:#707070;}
	.st70{fill:none;stroke:#000000;stroke-width:0.6885;stroke-miterlimit:10;}
	.st71{fill:none;stroke:#FFFFFF;stroke-width:0.6885;stroke-miterlimit:10;}
	.st72{fill:#A4A6A6;}
	.st73{fill:#575B5B;}
	.st74{fill:#A7C958;}
	.st75{fill:#3DDE50;}
	.st76{fill:none;stroke:#A4A6A6;stroke-width:0.6885;stroke-miterlimit:10;}
	.st77{fill:#26A217;}
	.st78{fill:#B3B3B3;}
	.st79{fill:#666666;}
	.st80{fill:#C8C8C8;stroke:#70FF4A;stroke-width:0.6885;stroke-miterlimit:10;}
	.st81{fill:#1DB1D1;}
</style>
<g>
	<defs>
		<rect id="SVGID_1_" x="1" y="1.8" width="1918" height="696.2"/>
	</defs>
	<clipPath id="SVGID_00000113324603298488178990000000734231028710721971_">
		<use xlink:href="#SVGID_1_"  style="overflow:visible;"/>
	</clipPath>
	<g style="clip-path:url(#SVGID_00000113324603298488178990000000734231028710721971_);">
		<rect x="1" y="1.8" class="st1" width="1918" height="696.2"/>
		<g>
			<defs>
				<rect id="SVGID_00000150078074076131655900000014750834380983304100_" x="1" y="-7.3" width="1920" height="705.3"/>
			</defs>
			<clipPath id="SVGID_00000115472555251671894850000006243247389501761445_">
				<use xlink:href="#SVGID_00000150078074076131655900000014750834380983304100_"  style="overflow:visible;"/>
			</clipPath>
			<g style="clip-path:url(#SVGID_00000115472555251671894850000006243247389501761445_);">
				<path class="st3" d="M1919,1.8H-1v703.5h1920V1.8z"/>
				
					<linearGradient id="SVGID_00000149358814661058443420000015518460987718280083_" gradientUnits="userSpaceOnUse" x1="222.7166" y1="449.3066" x2="222.4377" y2="536.5693" gradientTransform="matrix(1 0 0 -1 539.0551 751.2122)">
					<stop  offset="0" style="stop-color:#CCCCCC"/>
					<stop  offset="0.1516" style="stop-color:#B3B3B3"/>
					<stop  offset="0.3214" style="stop-color:#999999"/>
					<stop  offset="0.4947" style="stop-color:#A9A9A9"/>
					<stop  offset="0.773" style="stop-color:#CCCCCC"/>
					<stop  offset="0.9079" style="stop-color:#CACACA"/>
					<stop  offset="0.9564" style="stop-color:#C3C3C3"/>
					<stop  offset="0.9909" style="stop-color:#B8B8B8"/>
					<stop  offset="1" style="stop-color:#B3B3B3"/>
				</linearGradient>
				
					<path style="opacity:0.7;fill:url(#SVGID_00000149358814661058443420000015518460987718280083_);enable-background:new    ;" d="
					M188.5,207.9h1180.4l1.1,96.7H153.5L188.5,207.9z"/>
				<g class="st5">
					
						<linearGradient id="SVGID_00000064313371624349044040000013585798720066902920_" gradientUnits="userSpaceOnUse" x1="695.288" y1="532.8091" x2="697.4339" y2="456.0763" gradientTransform="matrix(1 0 0 -1 539.0551 751.2122)">
						<stop  offset="0" style="stop-color:#AC8C4B"/>
						<stop  offset="0.1516" style="stop-color:#CBB35B"/>
						<stop  offset="0.2629" style="stop-color:#AE8F4C"/>
						<stop  offset="0.2923" style="stop-color:#A28147"/>
						<stop  offset="0.3454" style="stop-color:#92703F"/>
						<stop  offset="0.4013" style="stop-color:#88663A"/>
						<stop  offset="0.4641" style="stop-color:#856238"/>
						<stop  offset="0.5555" style="stop-color:#88653A"/>
						<stop  offset="0.6297" style="stop-color:#916F3E"/>
						<stop  offset="0.6975" style="stop-color:#A08045"/>
						<stop  offset="0.7373" style="stop-color:#AC8D4B"/>
						<stop  offset="0.8514" style="stop-color:#AD8E4C"/>
						<stop  offset="1" style="stop-color:#866338"/>
					</linearGradient>
					<path style="fill:url(#SVGID_00000064313371624349044040000013585798720066902920_);" d="M1245.9,208.9l-22.2,0.1l1.1,93.2
						h22.2L1245.9,208.9z"/>
					<path class="st7" d="M1293.5,199.4l-50-0.1l0.5,34.5l50,0.1L1293.5,199.4z"/>
					<path class="st8" d="M1294,234l-50.2-0.1l0.8,53l50,0.1L1294,234z"/>
					<path class="st9" d="M1244.6,286.9l0.1,22.8l49.1,0.3l0.8-22.9L1244.6,286.9z"/>
					<path class="st7" d="M1378.8,207.3l-86.9-0.5l0.7,30.8l86.9,0.5L1378.8,207.3z"/>
					<path class="st8" d="M1379.6,238.3l-87.8-0.5l1.1,47.1l87.5,0.5L1379.6,238.3z"/>
					<path class="st9" d="M1293.2,284.8l0.1,19.9l85.6,0.7l1.5-20L1293.2,284.8z"/>
					<path class="st7" d="M1226.2,199.4l-47.4-0.3l-2.3,26.8l50.2,0.9L1226.2,199.4z"/>
					<path class="st8" d="M1226.6,226l-50.2-0.1l0.6,54.6l50.3,0.1L1226.6,226z"/>
					<path class="st9" d="M1177,280.5l2,29.2l48.5,0.1l-0.2-29.2L1177,280.5z"/>
					
						<linearGradient id="SVGID_00000130640138614555587520000013051517971705818782_" gradientUnits="userSpaceOnUse" x1="565.6563" y1="541.2129" x2="566.2811" y2="445.6338" gradientTransform="matrix(1 0 0 -1 539.0551 751.2122)">
						<stop  offset="0" style="stop-color:#AC8C4B"/>
						<stop  offset="0.1516" style="stop-color:#CBB35B"/>
						<stop  offset="0.2629" style="stop-color:#AE8F4C"/>
						<stop  offset="0.2923" style="stop-color:#A28147"/>
						<stop  offset="0.3454" style="stop-color:#92703F"/>
						<stop  offset="0.4013" style="stop-color:#88663A"/>
						<stop  offset="0.4641" style="stop-color:#856238"/>
						<stop  offset="0.5555" style="stop-color:#88653A"/>
						<stop  offset="0.6297" style="stop-color:#916F3E"/>
						<stop  offset="0.6975" style="stop-color:#A08045"/>
						<stop  offset="0.7373" style="stop-color:#AC8D4B"/>
						<stop  offset="0.8514" style="stop-color:#AD8E4C"/>
						<stop  offset="1" style="stop-color:#866338"/>
					</linearGradient>
					<path style="fill:url(#SVGID_00000130640138614555587520000013051517971705818782_);" d="M1179.5,208.7l-9.1,0.1l0.1-3.6
						l-6-0.1h-22.8l-0.1-8.5h-24.1l0.1,10.7l-88.7,0.7v99.3l91.5-0.2l0.1,8.9h24.3l-0.1-8.9l27.8,0.1l-0.1-5h9.3L1179.5,208.7z"/>
					<path class="st11" d="M1169.6,204.2l1.3,103"/>
					<path class="st7" d="M1165.6,200.5l-22.4-0.2l-0.8,41.9l23.7,0.3L1165.6,200.5z"/>
					<path class="st8" d="M1166,242.4l-23.7-0.3l0.7,52.8h23.7L1166,242.4z"/>
					<path class="st9" d="M1166.7,295H1143l0.2,16.1h23.7L1166.7,295z"/>
					
						<linearGradient id="SVGID_00000117654461652326292030000014018400259903097260_" gradientUnits="userSpaceOnUse" x1="591.3848" y1="551.9841" x2="591.8078" y2="439.1198" gradientTransform="matrix(1 0 0 -1 539.0551 751.2122)">
						<stop  offset="0" style="stop-color:#AC8C4B"/>
						<stop  offset="0.1516" style="stop-color:#CBB35B"/>
						<stop  offset="0.2629" style="stop-color:#AE8F4C"/>
						<stop  offset="0.2923" style="stop-color:#A28147"/>
						<stop  offset="0.3454" style="stop-color:#92703F"/>
						<stop  offset="0.4013" style="stop-color:#88663A"/>
						<stop  offset="0.4641" style="stop-color:#856238"/>
						<stop  offset="0.5555" style="stop-color:#88653A"/>
						<stop  offset="0.6297" style="stop-color:#916F3E"/>
						<stop  offset="0.6975" style="stop-color:#A08045"/>
						<stop  offset="0.7373" style="stop-color:#AC8D4B"/>
						<stop  offset="0.8514" style="stop-color:#AD8E4C"/>
						<stop  offset="1" style="stop-color:#866338"/>
					</linearGradient>
					<path style="fill:url(#SVGID_00000117654461652326292030000014018400259903097260_);" d="M1119.4,314.5h23.7l-0.1-117.8h-25.2
						L1119.4,314.5z"/>
					<path class="st11" d="M1129.8,195.3l1.5,120.7"/>
					<path class="st11" d="M1091.8,206.8l1,100.9"/>
				</g>
				
					<linearGradient id="SVGID_00000123431146007597154910000002108948020454164372_" gradientUnits="userSpaceOnUse" x1="870.2374" y1="536.0734" x2="869.3407" y2="449.8786" gradientTransform="matrix(1 0 0 -1 539.0551 751.2122)">
					<stop  offset="0" style="stop-color:#B38B3E"/>
					<stop  offset="0.1516" style="stop-color:#D1B349"/>
					<stop  offset="0.2629" style="stop-color:#B58E3F"/>
					<stop  offset="0.2923" style="stop-color:#A9803B"/>
					<stop  offset="0.3454" style="stop-color:#996E35"/>
					<stop  offset="0.4013" style="stop-color:#906431"/>
					<stop  offset="0.4641" style="stop-color:#8D6030"/>
					<stop  offset="0.5555" style="stop-color:#906331"/>
					<stop  offset="0.6297" style="stop-color:#986D34"/>
					<stop  offset="0.6975" style="stop-color:#A77E3A"/>
					<stop  offset="0.7373" style="stop-color:#B38C3E"/>
					<stop  offset="0.8514" style="stop-color:#B48D3F"/>
					<stop  offset="1" style="stop-color:#8E6130"/>
				</linearGradient>
				<path style="fill:url(#SVGID_00000123431146007597154910000002108948020454164372_);" d="M1397.4,195.6h-41.7v91.9v24.4h42.4
					l7.2-7.9v-4.8l2.8,0.1l2.8-4.5l1.1,5.2l3.3-5.2h31.3h15.6l-10-46.3l-13.4-35.7l-4.5-1.3l-20.1,2.6l-2.2-5.3l-2.2,5.3l-2.8-7.4
					l-1.7,0.7L1397.4,195.6z"/>
				<path class="st14" d="M1398,288.8l0.6,22.6l-42.9,0.5l-0.1-23.1H1398z"/>
				<path class="st15" d="M1355.6,196.3h41.3l2.1,35.8h-43.5L1355.6,196.3z"/>
				<path class="st16" d="M1355.6,231.9v56.8h42.5l1.1-56.8H1355.6z"/>
				<path class="st17" d="M1407,300.6v-95.2l2.2,4.3v88.7L1407,300.6z"/>
				<path class="st17" d="M1411.4,299.3V208l2.2,4.1v85L1411.4,299.3z"/>
				
					<linearGradient id="SVGID_00000135681929863306279570000001120029199282652339_" gradientUnits="userSpaceOnUse" x1="1420.7671" y1="551.5195" x2="1424.7948" y2="438.6598" gradientTransform="matrix(1 0 0 -1 539.0551 751.2122)">
					<stop  offset="0" style="stop-color:#CCCCCC"/>
					<stop  offset="0.1516" style="stop-color:#B3B3B3"/>
					<stop  offset="0.3214" style="stop-color:#999999"/>
					<stop  offset="0.4947" style="stop-color:#A9A9A9"/>
					<stop  offset="0.773" style="stop-color:#CCCCCC"/>
					<stop  offset="0.9079" style="stop-color:#CACACA"/>
					<stop  offset="0.9564" style="stop-color:#C3C3C3"/>
					<stop  offset="0.9909" style="stop-color:#B8B8B8"/>
					<stop  offset="1" style="stop-color:#B3B3B3"/>
				</linearGradient>
				<path style="fill:url(#SVGID_00000135681929863306279570000001120029199282652339_);" d="M1817.4,198.6l284.7-0.1l-12,115.9
					l-252.9-1.1L1817.4,198.6z"/>
				
					<linearGradient id="SVGID_00000102515796655444036890000009432203580003155884_" gradientUnits="userSpaceOnUse" x1="1250.639" y1="537.6891" x2="1250.77" y2="447.971" gradientTransform="matrix(1 0 0 -1 539.0551 751.2122)">
					<stop  offset="0" style="stop-color:#B38B3E"/>
					<stop  offset="0.1516" style="stop-color:#D1B349"/>
					<stop  offset="0.2629" style="stop-color:#B58E3F"/>
					<stop  offset="0.2923" style="stop-color:#A9803B"/>
					<stop  offset="0.3454" style="stop-color:#996E35"/>
					<stop  offset="0.4013" style="stop-color:#906431"/>
					<stop  offset="0.4641" style="stop-color:#8D6030"/>
					<stop  offset="0.5555" style="stop-color:#906331"/>
					<stop  offset="0.6297" style="stop-color:#986D34"/>
					<stop  offset="0.6975" style="stop-color:#A77E3A"/>
					<stop  offset="0.7373" style="stop-color:#B38C3E"/>
					<stop  offset="0.8514" style="stop-color:#B48D3F"/>
					<stop  offset="1" style="stop-color:#8E6130"/>
				</linearGradient>
				<path style="fill:url(#SVGID_00000102515796655444036890000009432203580003155884_);" d="M1801.9,316.5h44.4v-95.7v-25.5h-45.1
					l-7.6,8.4v4.9l-2.4-1.5l-3.5,6.1l-1.2-5.5l-3.6,5.5h-33.3H1733l10.7,48.2l14.2,37.2l4.8,1.4l21.4-2.8l2.4,5.5l2.4-5.5l2.3,7.7
					l2.4-0.8L1801.9,316.5z"/>
				<path class="st15" d="M1801.4,219.3l-0.7-23.5l45.7-0.6l0.2,24.1H1801.4z"/>
				<path class="st14" d="M1846.5,315.8h-44l-2.4-37.2h46.3L1846.5,315.8z"/>
				<path class="st16" d="M1846.5,278.6v-59.2h-45.1l-1.2,59.2H1846.5z"/>
				<path class="st17" d="M1791.8,207v99l-2.4-4.5v-92.3L1791.8,207z"/>
				<path class="st17" d="M1787,208.4v95l-2.4-4.2v-88.6L1787,208.4z"/>
				<path class="st20" d="M1672.3,406.1c7.9,4.3,17.3,11.8,20.3,14.4c0.6,0.6,1.5,0.6,2.3,0.1c6.2-4.5,34.9-25.7,34.9-28.1
					c0-4.1-4-14.8-5.8-19.4c-0.5-1.2-1.9-1.5-2.7-0.8l-48.2,33.7"/>
				
					<radialGradient id="SVGID_00000055708681483039400900000016718479548145768353_" cx="-2.1197" cy="699.2913" r="0.9999" gradientTransform="matrix(172.764 0 0 -174.2019 1964.0111 122063.3984)" gradientUnits="userSpaceOnUse">
					<stop  offset="0" style="stop-color:#FFFFFF"/>
					<stop  offset="0.4545" style="stop-color:#FDFDFD"/>
					<stop  offset="0.6281" style="stop-color:#F6F6F6"/>
					<stop  offset="0.7537" style="stop-color:#EAEAEA"/>
					<stop  offset="0.8561" style="stop-color:#D9D9D9"/>
					<stop  offset="0.9433" style="stop-color:#C3C3C3"/>
					<stop  offset="1" style="stop-color:#B0B0B0"/>
				</radialGradient>
				
					<path style="fill:url(#SVGID_00000055708681483039400900000016718479548145768353_);stroke:#404040;stroke-width:3.4437;stroke-miterlimit:10;" d="
					M1597.8,419.7c95.4,0,172.8-78,172.8-174.2c0-96.1-77.3-174.2-172.8-174.2c-95.4,0-172.8,78-172.8,174.2
					C1425,341.7,1502.4,419.7,1597.8,419.7z"/>
				<path class="st22" d="M1753.4,170.6l-18.1,10.5l8.5,14l17.2-11.5L1753.4,170.6z"/>
				<path class="st22" d="M1705.9,109l-16,16.2l10.8,10.7l15-17.1L1705.9,109z"/>
				<path class="st22" d="M1769,220.1l-19.7,4l3.5,21l20.2-5.7L1769,220.1z"/>
				<path class="st22" d="M1732.8,135.9l-17.5,13.7l10.6,13l16.3-14.8L1732.8,135.9z"/>
				<path class="st22" d="M1689.8,126l-27.9,45l13.6,8.5l26.4-45.4L1689.8,126z"/>
				<path class="st22" d="M1716.2,148.8L1623.3,301l13.6,8.5l89.4-147.3L1716.2,148.8z"/>
				<path class="st22" d="M1734.3,182l-94.1,153.8l13.6,8.5l87.8-146.1L1734.3,182z"/>
				<path class="st22" d="M1747.2,224l-69.9,113.9l14.8,9.2l59.1-99.6L1747.2,224z"/>
				<path class="st23" d="M1713.2,147.1l-92.9,152.4l13.8,8.4l89.3-147.4L1713.2,147.1z"/>
				<path class="st23" d="M1733.4,177.4l-94.1,153.8l13.6,8.4l87.8-146L1733.4,177.4z"/>
				<path class="st23" d="M1748.5,219.5l-74.8,122.1l13.6,8.5l63.6-106.7L1748.5,219.5z"/>
				<path class="st23" d="M1687.7,124.6l-27.7,45l13.6,8.5l26.5-45.4L1687.7,124.6z"/>
				<path class="st23" d="M1703.5,108.9l-16.1,16.2l10.9,10.5l14.9-16.9L1703.5,108.9z"/>
				<path class="st23" d="M1731.2,133.1l-17.9,14.1l10.5,13l16.8-15L1731.2,133.1z"/>
				<path class="st23" d="M1751.5,166.9l-18.6,10.8l8.5,14.3l17.7-12L1751.5,166.9z"/>
				<path class="st23" d="M1768.5,216.5l-20.7,4.3l3.4,20.8l21.4-5.9L1768.5,216.5z"/>
				<path class="st24" d="M1646,377.4c24.7,0,44.8-19.3,44.8-43.1c0-23.8-20.1-43.1-44.8-43.1c-24.7,0-44.8,19.3-44.8,43.1
					C1601.2,358.1,1621.2,377.4,1646,377.4z"/>
				<path class="st25" d="M1598.9,401.1c84,0,152.1-68.7,152.1-153.3c0-84.7-68-153.3-152.1-153.3c-84,0-152.1,68.7-152.1,153.3
					C1446.8,332.4,1514.9,401.1,1598.9,401.1z"/>
				<path d="M1574.9,235.7l12.7,4c0,0,3.9-1.3,4.6-4c0.2-0.8,0-14.8,0-14.8h10.3l0.2,14.8c0,0,2.2,3.3,3.8,3.3
					c1.7,0,14.2-5.3,14.2-5.3l4,8.9l-13.4,5.3c0,0-2.7,4-2,5.3c0.6,1.1,9.3,11.5,9.3,11.5l-7.4,6.7l-10-11.5c0,0-4-0.6-4.6,0.6
					c-0.6,1.3-8,12.8-8,12.8l-8.8-6l7.5-12.3c0,0,0.5-4-1.2-5.7c-1.5-1.5-14.2-3.6-14.2-3.6L1574.9,235.7z"/>
				<g class="st26">
					<path class="st1" d="M1599.4,403.4c85.2,0,154.3-69.6,154.3-155.6c0-86-69.1-155.6-154.3-155.6c-85.2,0-154.3,69.6-154.3,155.6
						C1445.1,333.7,1514.2,403.4,1599.4,403.4z"/>
					<path class="st27" d="M1599.4,403.4c85.2,0,154.3-69.6,154.3-155.6c0-86-69.1-155.6-154.3-155.6
						c-85.2,0-154.3,69.6-154.3,155.6C1445.1,333.7,1514.2,403.4,1599.4,403.4z"/>
				</g>
				<path class="st28" d="M1598.9,421.9c95.4,0,172.8-78,172.8-174.2c0-96.1-77.3-174.2-172.8-174.2c-95.4,0-172.8,78-172.8,174.2
					C1426.1,343.9,1503.4,421.9,1598.9,421.9z"/>
				<path d="M1646.8,372.7c20.3,0,36.8-16.6,36.8-37.2c0-20.5-16.5-37.2-36.8-37.2c-20.3,0-36.8,16.6-36.8,37.2
					C1609.9,356.1,1626.5,372.7,1646.8,372.7z"/>
				<path class="st29" d="M1647.3,298.3l-1.5,74.5"/>
				<path class="st29" d="M1636,299.9l21,71.4"/>
				<path class="st29" d="M1667.5,366.3l-41.7-61.3"/>
				<path class="st29" d="M1658.9,300.5l-24.3,70.2"/>
				<path class="st29" d="M1669.3,306l-45,59"/>
				<path class="st29" d="M1677.3,314.5l-61.1,41.8"/>
				<path class="st29" d="M1682.3,325.3l-71,20.5"/>
				<path class="st29" d="M1683.7,337l-73.9-2.8"/>
				<path class="st29" d="M1681.4,348.6l-69.2-25.9"/>
				<path class="st29" d="M1675.6,358.8l-58.1-45.9"/>
				<path d="M1646.8,367.9c17.7,0,32.2-14.6,32.2-32.4c0-18-14.3-32.4-32.2-32.4c-17.9,0-32.2,14.6-32.2,32.4
					C1614.6,353.4,1628.9,367.9,1646.8,367.9z"/>
				<path class="st1" d="M1645.5,305.4c0-0.7,0.1-1.3,0.2-1.7c0.1-0.5,0.3-0.8,0.6-0.9c0.2-0.2,0.6-0.4,1-0.4c0.2,0,0.6,0.1,0.8,0.2
					c0.2,0.1,0.5,0.2,0.6,0.6c0.1,0.2,0.2,0.5,0.4,0.8c0.1,0.4,0.1,0.8,0.1,1.3c0,0.7-0.1,1.2-0.2,1.7c-0.1,0.5-0.3,0.7-0.6,0.9
					c-0.2,0.2-0.6,0.4-1.1,0.4c-0.6,0-0.9-0.2-1.3-0.6C1645.6,307.3,1645.5,306.6,1645.5,305.4z M1646.2,305.4
					c0,0.9,0.1,1.7,0.4,1.9c0.2,0.2,0.5,0.5,0.8,0.5c0.4,0,0.6-0.1,0.8-0.5c0.2-0.2,0.4-0.9,0.4-1.9c0-0.9-0.1-1.7-0.4-1.9
					c-0.2-0.2-0.5-0.5-0.8-0.5c-0.3,0-0.6,0.1-0.8,0.5C1646.3,303.9,1646.2,304.5,1646.2,305.4z"/>
				<path class="st1" d="M1664,314.4l-0.6-0.5l2.8-3.6c-0.2,0-0.5,0-0.8,0c-0.3-0.1-0.6-0.1-0.8-0.1l0.5-0.6
					c0.5,0.1,0.8,0.1,1.3,0.1s0.7-0.1,0.9-0.2l0.3,0.2L1664,314.4z"/>
				<path class="st1" d="M1673.6,330.1l-0.7,0.1l-0.8-3.8c0.1-0.1,0.4-0.1,0.5,0c0.2,0,0.6,0.1,0.8,0.2c0.2,0.1,0.6,0.4,1.1,0.7
					c0.6,0.5,1.2,0.8,1.5,0.9c0.3,0.1,0.6,0.2,0.9,0.1c0.2-0.1,0.5-0.2,0.6-0.5s0.2-0.5,0.1-0.8c-0.1-0.4-0.2-0.6-0.5-0.7
					c-0.2-0.1-0.6-0.2-0.9-0.1l-0.1-0.7c0.6-0.1,0.9,0,1.3,0.2c0.4,0.2,0.6,0.6,0.7,1.2c0.1,0.6,0.1,0.9-0.1,1.4
					c-0.2,0.4-0.6,0.6-0.9,0.7c-0.2,0.1-0.5,0.1-0.7,0c-0.2-0.1-0.5-0.1-0.8-0.2c-0.3-0.1-0.7-0.5-1.3-0.8c-0.5-0.4-0.8-0.6-0.9-0.6
					c-0.1-0.1-0.2-0.1-0.5-0.2L1673.6,330.1z"/>
				<path class="st1" d="M1673.6,343.8l-0.1,0.7c-0.5-0.1-0.7,0-0.9,0.1c-0.2,0.1-0.5,0.4-0.5,0.6c-0.1,0.2-0.1,0.6,0.1,0.9
					c0.1,0.2,0.3,0.5,0.7,0.6c0.2,0.1,0.6,0.1,0.8,0c0.2-0.1,0.5-0.4,0.6-0.6c0.1-0.1,0.1-0.2,0.1-0.5l0.6,0.2
					c0,0.1-0.1,0.1-0.1,0.1c-0.1,0.2-0.1,0.6-0.1,0.8c0,0.2,0.2,0.5,0.6,0.6c0.2,0.1,0.5,0.1,0.7,0c0.2-0.1,0.3-0.2,0.5-0.6
					c0.1-0.2,0.1-0.5,0-0.7c-0.1-0.2-0.2-0.5-0.6-0.6l0.3-0.6c0.5,0.2,0.7,0.6,0.8,0.9c0.1,0.4,0.1,0.8,0,1.2
					c-0.1,0.2-0.2,0.6-0.5,0.8c-0.2,0.2-0.5,0.4-0.7,0.4c-0.2,0.1-0.5,0-0.8-0.1c-0.2-0.1-0.5-0.2-0.6-0.5c-0.1-0.2-0.2-0.5-0.2-0.7
					c-0.2,0.2-0.5,0.5-0.8,0.6c-0.2,0.1-0.6,0.1-0.9-0.1c-0.5-0.2-0.8-0.5-0.9-0.9c-0.2-0.5-0.2-0.9,0-1.5c0.2-0.5,0.5-0.8,0.8-1.1
					C1672.7,343.8,1673,343.7,1673.6,343.8z"/>
				<path class="st1" d="M1661.5,358.1l0.8,1.2l2-1.5l0.3,0.6l0.1,4.6l-0.5,0.4l-2.2-3.1l-0.6,0.5l-0.4-0.6l0.6-0.5l-0.8-1.2
					L1661.5,358.1z M1662.7,359.8l1.5,2.1l-0.1-3.2L1662.7,359.8z"/>
				<path class="st1" d="M1647.9,363.7l-0.8,0.1c-0.1-0.4-0.2-0.6-0.3-0.8c-0.2-0.2-0.5-0.2-0.7-0.2c-0.3,0-0.6,0.1-0.8,0.4
					c-0.2,0.2-0.3,0.6-0.3,1.1c0,0.5,0.1,0.7,0.3,0.9c0.2,0.2,0.5,0.4,0.9,0.4c0.2,0,0.5-0.1,0.6-0.1c0.2-0.1,0.3-0.2,0.5-0.5
					l0.7,0.1l-0.6,3h-2.8v-0.7h2.4l0.2-1.5c-0.3,0.2-0.7,0.4-1.1,0.4c-0.5,0-0.9-0.1-1.3-0.5c-0.3-0.4-0.5-0.8-0.5-1.3
					c0-0.5,0.1-0.9,0.5-1.3c0.3-0.5,0.8-0.7,1.5-0.7c0.5,0,0.9,0.1,1.3,0.5C1647.6,362.9,1647.9,363.2,1647.9,363.7z"/>
				<path class="st1" d="M1626.4,359.2l0.6,0.5c-0.1,0.2-0.2,0.5-0.1,0.6c0,0.2,0.1,0.5,0.3,0.7c0.2,0.1,0.3,0.2,0.6,0.2
					c0.2,0,0.6-0.1,0.8-0.2c0.2-0.1,0.6-0.5,0.9-0.9c-0.2,0.1-0.6,0.1-0.8,0.1c-0.2-0.1-0.5-0.1-0.7-0.4c-0.3-0.2-0.6-0.7-0.6-1.2
					c-0.1-0.5,0.1-0.9,0.5-1.3c0.2-0.2,0.5-0.5,0.8-0.6c0.3-0.1,0.6-0.2,0.9-0.1c0.3,0.1,0.6,0.1,0.9,0.4c0.5,0.4,0.7,0.8,0.7,1.4
					c0,0.6-0.2,1.3-0.9,2c-0.7,0.8-1.3,1.4-2,1.5c-0.6,0.1-1,0-1.5-0.4c-0.4-0.2-0.6-0.6-0.6-0.9
					C1626,359.9,1626.1,359.5,1626.4,359.2z M1630.2,359.1c0.1-0.2,0.2-0.5,0.2-0.6c0.1-0.2,0.1-0.5,0-0.7c-0.1-0.2-0.2-0.4-0.3-0.5
					c-0.2-0.2-0.5-0.2-0.8-0.2c-0.2,0.1-0.6,0.2-0.8,0.6c-0.2,0.2-0.3,0.6-0.3,0.9c0,0.2,0.1,0.6,0.5,0.8c0.2,0.2,0.6,0.2,0.8,0.2
					C1629.7,359.5,1629.9,359.3,1630.2,359.1z"/>
				<path class="st1" d="M1616.7,345.7l-0.6,0.2l-0.9-3.6l0.6-0.1c0.5,0.2,1.1,0.5,1.9,0.6c0.7,0.1,1.4,0.2,2.2,0.2
					c0.5,0,1.1-0.1,1.7-0.1l0.2,0.7c-0.5,0.1-0.9,0.2-1.6,0.2c-0.7,0-1.3-0.1-2-0.2c-0.7-0.1-1.3-0.4-1.8-0.6L1616.7,345.7z"/>
				<path class="st1" d="M1618.5,326.3c-0.2,0.2-0.5,0.5-0.6,0.5c-0.2,0.1-0.5,0.1-0.8,0c-0.5-0.1-0.7-0.4-0.8-0.8
					c-0.2-0.4-0.2-0.8-0.1-1.3c0.1-0.5,0.5-0.8,0.8-1.1c0.4-0.2,0.8-0.2,1.2-0.1c0.2,0.1,0.5,0.2,0.6,0.5c0.1,0.2,0.2,0.5,0.2,0.8
					c0.2-0.2,0.5-0.5,0.8-0.6c0.2-0.1,0.6-0.1,0.9,0c0.5,0.1,0.8,0.5,1.1,0.9c0.2,0.5,0.2,0.9,0.1,1.5c-0.2,0.6-0.5,0.9-0.9,1.2
					c-0.5,0.2-0.9,0.2-1.3,0.1c-0.4-0.1-0.6-0.2-0.8-0.6C1618.5,327,1618.5,326.6,1618.5,326.3z M1617.3,326
					c0.2,0.1,0.5,0.1,0.7-0.1c0.2-0.1,0.3-0.2,0.5-0.6c0.1-0.2,0.1-0.5-0.1-0.7c-0.1-0.2-0.2-0.4-0.5-0.5c-0.2-0.1-0.5-0.1-0.7,0.1
					c-0.2,0.1-0.3,0.2-0.5,0.6c-0.1,0.2-0.1,0.5,0.1,0.7C1616.8,325.7,1617.1,325.9,1617.3,326z M1619.8,327
					c0.2,0.1,0.5,0.1,0.6,0.1c0.2,0,0.5-0.1,0.6-0.2c0.1-0.1,0.2-0.4,0.3-0.6c0.1-0.4,0.1-0.6-0.1-0.9c-0.1-0.2-0.3-0.5-0.7-0.6
					c-0.3-0.1-0.6-0.1-0.9,0.1c-0.2,0.1-0.5,0.4-0.6,0.7c-0.1,0.4-0.1,0.6,0.1,0.9C1619.2,326.7,1619.4,327,1619.8,327z"/>
				<path class="st1" d="M1629.3,312.8l0.5-0.5c0.2,0.2,0.5,0.4,0.7,0.5c0.2,0,0.5,0,0.6-0.1c0.2-0.1,0.2-0.2,0.5-0.5
					c0.1-0.1,0.1-0.4,0.1-0.6c0-0.2-0.1-0.5-0.1-0.7s-0.2-0.6-0.5-0.8l-0.1-0.1c0,0.2-0.1,0.6-0.1,0.8c-0.1,0.2-0.2,0.5-0.6,0.6
					c-0.5,0.2-0.8,0.4-1.3,0.2c-0.5-0.1-0.8-0.4-1.2-0.8c-0.4-0.5-0.5-0.9-0.4-1.5c0.1-0.5,0.4-0.9,0.8-1.2c0.2-0.2,0.6-0.4,1.1-0.4
					c0.4,0,0.7,0.1,1.1,0.4c0.4,0.2,0.7,0.6,1.2,1.2c0.5,0.6,0.7,1.2,0.8,1.7c0.1,0.5,0.1,0.8-0.1,1.2c-0.2,0.4-0.3,0.7-0.7,0.9
					c-0.4,0.2-0.8,0.4-1.2,0.2C1629.9,313.4,1629.5,313.1,1629.3,312.8z M1630.2,309.1c-0.2-0.4-0.5-0.6-0.8-0.6
					c-0.2-0.1-0.6,0-0.8,0.1c-0.2,0.2-0.5,0.5-0.5,0.8c-0.1,0.4,0.1,0.7,0.2,1.1c0.2,0.2,0.5,0.5,0.8,0.6c0.2,0.1,0.6,0,0.8-0.2
					c0.2-0.2,0.5-0.5,0.5-0.8C1630.6,309.7,1630.5,309.3,1630.2,309.1z"/>
				<path class="st30" d="M1647,342.1c3.6,0,6.7-3,6.7-6.7c0-3.8-2.9-6.7-6.7-6.7c-3.6,0-6.7,3-6.7,6.7
					C1640.3,339.2,1643.3,342.1,1647,342.1z"/>
				<path class="st30" d="M1651.3,332.4l-9.4,2.5l0.3-17.8L1651.3,332.4z"/>
				<path class="st31" d="M1595.1,314.1h-95.9v25.6h95.9V314.1z"/>
				<path class="st32" d="M1591,314.1v23.8"/>
				<path class="st32" d="M1587.3,314.1v23.4"/>
				<path class="st33" d="M1583.1,314.1v23.4"/>
				<path class="st32" d="M1577.7,314.1v23.4"/>
				<path class="st34" d="M1572.8,314.1v23.8"/>
				<path class="st32" d="M1565.7,314.1v23.4"/>
				<path class="st35" d="M1559.4,314.1v23.4"/>
				<path class="st32" d="M1551.5,314.1v23.4"/>
				<path class="st36" d="M1543.2,314.1v24"/>
				<path class="st32" d="M1536,314.1v23.4"/>
				<path class="st32" d="M1526,314.1v23.4"/>
				<path class="st37" d="M1518.7,314.1v23.8"/>
				<path class="st32" d="M1510.2,314.1v23.8"/>
				<path class="st38" d="M1504.8,314.1v23.4"/>
				<path class="st32" d="M1522.8,314.1v23.8"/>
				<path class="st32" d="M1567.7,314v23.3"/>
				<path class="st32" d="M1569.5,314v23.3"/>
				<path class="st32" d="M1563.2,314v23.3"/>
				<path class="st32" d="M1575.5,314.4v23.4"/>
				<path class="st32" d="M1579.7,314.4v23.4"/>
				<path class="st32" d="M1586.2,314.4v23.4"/>
				<path class="st32" d="M1589.2,314.4v23.4"/>
				<path class="st32" d="M1593,314.4v23.4"/>
				<path class="st32" d="M1549.4,314v23.4"/>
				<path class="st32" d="M1551.1,314.2v23.4"/>
				<path class="st32" d="M1553,314.2v23.4"/>
				<path class="st32" d="M1546.8,314.2v23.4"/>
				<path class="st32" d="M1536.2,314.2v23.4"/>
				<path class="st32" d="M1537.9,314v23.4"/>
				<path class="st32" d="M1539.9,314v23.4"/>
				<path class="st32" d="M1533.5,314v23.4"/>
				<path class="st32" d="M1529.6,314.3v23.4"/>
				<path class="st32" d="M1531.5,314v23.4"/>
				<path class="st32" d="M1533.2,314v23.4"/>
				<path class="st32" d="M1527.2,314v23.4"/>
				<path class="st32" d="M1510.1,314.4v23.4"/>
				<path class="st32" d="M1511.9,314.1v23.4"/>
				<path class="st32" d="M1513.8,314.1v23.4"/>
				<path class="st32" d="M1508.2,314.1v23.4"/>
				<path class="st39" d="M1594.2,336.2H1500v2.5h94.1V336.2z"/>
				<path class="st40" d="M1702.5,164.3h-209.1v39.1h209.1V164.3z"/>
				<path class="st41" d="M1517.1,166.9h-22.3v33.9h22.3V166.9z"/>
				<path class="st41" d="M1543.6,166.9h-22.3v33.9h22.3V166.9z"/>
				<path class="st41" d="M1569.6,166.9h-22.3v33.9h22.3V166.9z"/>
				<path class="st41" d="M1596,166.9h-22.3v33.9h22.3V166.9z"/>
				<path class="st41" d="M1622.6,166.9h-22.3v33.9h22.3V166.9z"/>
				<path class="st41" d="M1649.2,166.9h-22.3v33.9h22.3V166.9z"/>
				<path class="st41" d="M1675.1,166.9h-22.3v33.9h22.3V166.9z"/>
				<path class="st41" d="M1701.7,166.9h-22.3v33.9h22.3V166.9z"/>
				<path d="M1497.5,183.8c0-2.8,0.2-5.2,0.9-7c0.6-1.8,1.5-3.2,2.7-4.1c1.2-0.9,2.7-1.4,4.5-1.4c1.3,0,2.5,0.2,3.4,0.8
					c0.9,0.5,1.9,1.3,2.5,2.4c0.6,0.9,1.2,2.2,1.5,3.7c0.3,1.4,0.6,3.4,0.6,5.8c0,2.8-0.2,5.2-0.9,7c-0.6,1.8-1.5,3.1-2.7,4.1
					c-1.2,0.9-2.7,1.4-4.5,1.4c-2.3,0-4.2-0.8-5.5-2.5C1498.4,191.8,1497.5,188.4,1497.5,183.8z M1500.6,183.8c0,4,0.5,6.8,1.4,8.1
					c0.9,1.3,2.1,2,3.5,2s2.5-0.6,3.4-2c0.9-1.3,1.4-4,1.4-8.1c0-4-0.5-6.7-1.4-8.1c-0.9-1.3-2.1-2-3.5-2s-2.5,0.6-3.3,1.8
					C1501.2,177,1500.6,179.8,1500.6,183.8z"/>
				<path d="M1524.1,183.9c0-2.8,0.2-5.2,0.9-7c0.6-1.8,1.5-3.2,2.7-4.1c1.2-0.9,2.7-1.4,4.5-1.4c1.3,0,2.5,0.2,3.4,0.8
					c0.9,0.5,1.9,1.3,2.5,2.4c0.6,0.9,1.2,2.2,1.5,3.7c0.3,1.4,0.6,3.4,0.6,5.8c0,2.8-0.2,5.2-0.9,7c-0.6,1.8-1.5,3.1-2.7,4.1
					c-1.2,0.9-2.7,1.4-4.5,1.4c-2.3,0-4.2-0.8-5.5-2.5C1525.1,191.9,1524.1,188.6,1524.1,183.9z M1527.3,183.9c0,4,0.5,6.7,1.4,8.1
					c0.9,1.3,2.1,2,3.4,2c1.4,0,2.5-0.6,3.4-2c0.9-1.3,1.4-4,1.4-8.1c0-4-0.5-6.7-1.4-8.1c-0.9-1.3-2.1-2-3.5-2
					c-1.4,0-2.5,0.6-3.3,1.8C1527.8,177.1,1527.3,179.9,1527.3,183.9z"/>
				<path d="M1551,183.9c0-2.8,0.2-5.2,0.9-7c0.7-1.8,1.5-3.2,2.7-4.1c1.2-0.9,2.7-1.4,4.5-1.4c1.3,0,2.5,0.2,3.4,0.8
					c0.9,0.6,1.9,1.3,2.5,2.4c0.6,0.9,1.2,2.2,1.5,3.7c0.4,1.4,0.6,3.4,0.6,5.8c0,2.8-0.2,5.2-0.9,7c-0.6,1.8-1.5,3.1-2.7,4.1
					c-1.2,0.9-2.7,1.4-4.5,1.4c-2.3,0-4.2-0.8-5.5-2.5C1551.8,191.9,1551,188.6,1551,183.9z M1554.1,183.9c0,4,0.5,6.7,1.4,8.1
					c0.9,1.3,2.1,2,3.5,2s2.5-0.6,3.4-2c0.9-1.3,1.4-4,1.4-8.1c0-4-0.5-6.7-1.4-8.1c-0.9-1.3-2.1-2-3.5-2s-2.5,0.6-3.3,1.8
					C1554.7,177.1,1554.1,179.9,1554.1,183.9z"/>
				<path d="M1578.3,183.8c0-2.8,0.2-5.2,0.9-7c0.6-1.8,1.5-3.2,2.7-4.1c1.2-0.9,2.7-1.4,4.5-1.4c1.3,0,2.5,0.2,3.4,0.8
					c0.9,0.5,1.9,1.3,2.5,2.4c0.6,0.9,1.2,2.2,1.5,3.7c0.3,1.4,0.6,3.4,0.6,5.8c0,2.8-0.2,5.2-0.9,7c-0.6,1.8-1.5,3.1-2.7,4.1
					c-1.2,0.9-2.7,1.4-4.5,1.4c-2.3,0-4.2-0.8-5.5-2.5C1579.1,191.8,1578.3,188.3,1578.3,183.8z M1581.3,183.8c0,4,0.5,6.8,1.4,8.1
					c0.9,1.3,2.1,2,3.5,2s2.5-0.6,3.4-2c0.9-1.3,1.4-4,1.4-8.1c0-4-0.5-6.7-1.4-8.1c-0.9-1.3-2.1-2-3.5-2s-2.5,0.6-3.3,1.8
					C1581.8,177,1581.3,179.7,1581.3,183.8z"/>
				<path d="M1604.1,183.8c0-2.8,0.2-5.2,0.9-7c0.6-1.8,1.5-3.2,2.7-4.1c1.2-0.9,2.7-1.4,4.5-1.4c1.3,0,2.5,0.2,3.4,0.8
					c0.9,0.5,1.9,1.3,2.5,2.4c0.6,0.9,1.2,2.2,1.5,3.7c0.3,1.4,0.6,3.4,0.6,5.8c0,2.8-0.2,5.2-0.9,7c-0.6,1.8-1.5,3.1-2.7,4.1
					c-1.2,0.9-2.7,1.4-4.5,1.4c-2.3,0-4.2-0.8-5.5-2.5C1605,191.8,1604.1,188.3,1604.1,183.8z M1607.2,183.8c0,4,0.5,6.8,1.4,8.1
					c0.9,1.3,2.1,2,3.5,2s2.5-0.6,3.4-2c0.9-1.3,1.4-4,1.4-8.1c0-4-0.5-6.7-1.4-8.1c-0.9-1.3-2.1-2-3.5-2s-2.5,0.6-3.3,1.8
					C1607.8,177,1607.2,179.7,1607.2,183.8z"/>
				<path class="st42" d="M1630.9,183.2c0-2.8,0.2-5.2,0.9-7c0.6-1.8,1.5-3.2,2.7-4.1c1.2-0.9,2.7-1.4,4.5-1.4
					c1.3,0,2.5,0.2,3.4,0.8c0.9,0.5,1.9,1.3,2.5,2.4c0.6,0.9,1.2,2.2,1.5,3.7c0.4,1.4,0.6,3.4,0.6,5.8c0,2.8-0.2,5.2-0.9,7
					c-0.6,1.8-1.5,3.1-2.7,4.1c-1.2,1.1-2.7,1.4-4.5,1.4c-2.3,0-4.2-0.8-5.5-2.5C1631.8,191.3,1630.9,188,1630.9,183.2z M1634,183.2
					c0,4,0.5,6.7,1.4,8.1c0.9,1.3,2.1,2,3.4,2c1.4,0,2.5-0.6,3.4-2c0.9-1.4,1.4-4,1.4-8.1c0-4-0.5-6.7-1.4-8.1c-0.9-1.3-2.1-2-3.5-2
					c-1.4,0-2.5,0.6-3.3,1.8C1634.6,176.5,1634,179.2,1634,183.2z"/>
				<path class="st42" d="M1672.3,176.8l-3.1,0.2c-0.2-1.2-0.6-2-1.2-2.6c-0.8-0.8-1.9-1.3-3.1-1.3c-0.9,0-1.9,0.2-2.5,0.8
					c-0.9,0.7-1.6,1.7-2.2,3.1c-0.6,1.3-0.8,3.2-0.8,5.7c0.7-1.2,1.6-1.9,2.7-2.5c1.1-0.6,2.1-0.8,3.3-0.8c2,0,3.8,0.8,5.2,2.2
					c1.4,1.4,2.1,3.4,2.1,5.7c0,1.5-0.3,3-0.9,4.3c-0.6,1.3-1.5,2.4-2.7,3.1c-1.2,0.7-2.5,1.1-3.9,1.1c-2.5,0-4.6-0.9-6.1-2.7
					c-1.5-1.8-2.4-4.9-2.4-9.2c0-4.7,0.8-8.2,2.6-10.4c1.5-1.9,3.5-2.8,6.2-2.8c1.9,0,3.5,0.6,4.7,1.7
					C1671.4,173.4,1672.2,174.9,1672.3,176.8z M1660.2,187.5c0,1.1,0.2,2,0.6,3c0.5,0.9,1.1,1.7,1.9,2.2c0.8,0.6,1.7,0.7,2.5,0.7
					c1.3,0,2.3-0.5,3.2-1.5c0.9-1.1,1.4-2.4,1.4-4.1c0-1.7-0.5-3.1-1.3-4c-0.9-0.9-2-1.5-3.4-1.5s-2.5,0.5-3.4,1.5
					C1660.7,184.6,1660.2,185.8,1660.2,187.5z"/>
				<path class="st42" d="M1698.9,192.9v2.8h-16.1c0-0.7,0.1-1.4,0.3-2.1c0.5-1.2,1.1-2.2,2-3.2c0.9-1.1,2.2-2.4,3.9-3.8
					c2.7-2.2,4.5-3.9,5.4-5.2c0.9-1.3,1.4-2.5,1.4-3.6c0-1.2-0.5-2.2-1.3-3.1c-0.8-0.8-2-1.3-3.3-1.3c-1.5,0-2.6,0.5-3.4,1.3
					c-0.8,0.8-1.3,2-1.3,3.6l-3.1-0.4c0.2-2.4,0.9-4.1,2.4-5.3c1.4-1.2,3.2-1.9,5.5-1.9c2.4,0,4.2,0.6,5.5,2c1.3,1.3,2,2.8,2,4.9
					c0,0.9-0.2,2-0.6,2.8c-0.5,0.9-1.1,2-2,3c-0.9,1.1-2.5,2.5-4.6,4.3c-1.9,1.5-2.9,2.5-3.4,3.1c-0.5,0.6-0.9,1.1-1.3,1.7h12v0.5
					H1698.9z"/>
				<path class="st30" d="M1501.1,222.8l1.3,0.4c-0.2,1.2-0.8,2-1.5,2.5c-0.7,0.6-1.7,0.8-2.7,0.8c-1.2,0-2-0.2-2.7-0.6
					c-0.7-0.5-1.2-1.2-1.5-2c-0.3-0.8-0.6-1.8-0.6-2.7c0-1.1,0.2-2,0.6-2.7c0.5-0.8,0.9-1.4,1.8-1.9c0.8-0.5,1.5-0.6,2.5-0.6
					c0.9,0,1.9,0.2,2.6,0.8c0.7,0.6,1.2,1.3,1.5,2.2l-1.3,0.2c-0.2-0.8-0.6-1.3-1.1-1.7s-0.9-0.5-1.7-0.5c-0.8,0-1.5,0.2-2,0.6
					c-0.5,0.4-0.9,0.9-1.2,1.5c-0.2,0.6-0.4,1.3-0.4,2c0,0.8,0.1,1.7,0.4,2.2c0.2,0.6,0.6,1.2,1.2,1.5c0.6,0.4,1.2,0.5,1.8,0.5
					c0.8,0,1.4-0.2,1.9-0.6C1500.5,224.3,1500.8,223.6,1501.1,222.8z M1504,226.3V216h3.8c0.8,0,1.4,0.1,1.9,0.2
					c0.5,0.2,0.8,0.5,1.2,0.9c0.2,0.5,0.5,0.8,0.5,1.3c0,0.5-0.1,0.8-0.4,1.2c-0.2,0.4-0.6,0.7-1.1,0.9c0.6,0.2,1.1,0.5,1.4,0.9
					c0.3,0.5,0.5,0.9,0.5,1.5c0,0.5-0.1,0.9-0.2,1.3c-0.2,0.5-0.5,0.7-0.8,0.9c-0.2,0.2-0.7,0.5-1.2,0.5c-0.5,0.1-0.9,0.1-1.6,0.1
					h-3.9V226.3z M1505.3,220.4h2.2c0.6,0,1.1-0.1,1.3-0.1c0.3-0.1,0.6-0.2,0.8-0.5c0.2-0.2,0.2-0.6,0.2-0.9c0-0.4-0.1-0.6-0.2-0.9
					c-0.1-0.2-0.5-0.5-0.7-0.6c-0.2-0.1-0.8-0.1-1.5-0.1h-2v3.2H1505.3z M1505.3,225.1h2.5c0.5,0,0.8,0,0.9-0.1
					c0.2-0.1,0.6-0.1,0.8-0.2c0.2-0.1,0.4-0.4,0.5-0.6c0.1-0.2,0.2-0.6,0.2-0.8c0-0.4-0.1-0.7-0.2-0.9c-0.2-0.2-0.5-0.5-0.8-0.6
					c-0.3-0.1-0.8-0.1-1.5-0.1h-2.3V225.1z M1513.5,216h1.3v4.5c0.6,0,1.1-0.1,1.3-0.4c0.2-0.2,0.6-0.8,0.9-1.8
					c0.2-0.6,0.5-1.2,0.7-1.4c0.2-0.2,0.5-0.5,0.8-0.7c0.3-0.2,0.7-0.2,1.2-0.2s0.8,0,0.8,0v1.2c-0.1,0-0.1,0-0.2,0
					c-0.1,0-0.2,0-0.2,0c-0.5,0-0.8,0.1-0.9,0.2c-0.2,0.2-0.5,0.6-0.7,1.3c-0.4,0.8-0.6,1.4-0.8,1.7c-0.2,0.2-0.5,0.5-0.8,0.6
					c0.6,0.2,1.3,0.8,2,1.9l2.1,3.4h-1.6l-1.7-2.7c-0.5-0.8-0.8-1.3-1.2-1.5c-0.2-0.2-0.7-0.5-1.2-0.5v4.9h-1.3v-10.3h-0.5V216z
					 M1525.2,223.3v-1.3h3.9v1.3H1525.2z M1538.7,226.3h-1.3v-8.1c-0.2,0.2-0.7,0.6-1.2,0.8c-0.5,0.2-0.9,0.5-1.3,0.6v-1.2
					c0.7-0.4,1.3-0.7,1.9-1.2c0.5-0.5,0.9-0.9,1.2-1.3h0.8L1538.7,226.3z M1541.9,223.6l1.3-0.1c0.1,0.6,0.3,1.2,0.7,1.5
					c0.4,0.4,0.8,0.5,1.3,0.5c0.6,0,1.2-0.2,1.5-0.7c0.5-0.5,0.6-1.1,0.6-1.9c0-0.7-0.2-1.3-0.6-1.7c-0.5-0.5-0.9-0.6-1.5-0.6
					c-0.5,0-0.8,0.1-1,0.2c-0.4,0.2-0.6,0.5-0.8,0.7l-1.2-0.1l0.9-5.2h5.1v1.2h-4.1l-0.6,2.7c0.6-0.5,1.3-0.6,1.9-0.6
					c0.9,0,1.7,0.2,2.2,0.9c0.6,0.6,0.9,1.4,0.9,2.4c0,0.9-0.2,1.7-0.8,2.4c-0.6,0.8-1.5,1.3-2.7,1.3c-0.9,0-1.7-0.2-2.2-0.8
					C1542.2,225.1,1542,224.6,1541.9,223.6z M1550.3,216h6.6v1.2h-5.2v9h-1.3L1550.3,216z"/>
				<path class="st30" d="M1493.6,245.2l1.2-0.1c0.1,0.6,0.2,0.9,0.6,1.3c0.2,0.2,0.6,0.4,1.2,0.4c0.4,0,0.7-0.1,0.9-0.2
					c0.2-0.2,0.6-0.5,0.7-0.7c0.2-0.2,0.4-0.7,0.5-1.2c0.1-0.5,0.2-0.9,0.2-1.5c0-0.1,0-0.1,0-0.2c-0.2,0.5-0.6,0.7-1.1,0.9
					c-0.5,0.2-0.9,0.4-1.4,0.4c-0.8,0-1.5-0.2-2.1-0.9c-0.6-0.6-0.8-1.4-0.8-2.4c0-1.1,0.2-1.9,0.9-2.5c0.6-0.6,1.4-0.9,2.3-0.9
					c0.6,0,1.3,0.2,1.9,0.6c0.6,0.4,0.9,0.8,1.3,1.5c0.2,0.6,0.5,1.7,0.5,2.8c0,1.3-0.1,2.4-0.5,3.1c-0.2,0.8-0.7,1.3-1.3,1.8
					c-0.6,0.5-1.2,0.6-2,0.6c-0.8,0-1.5-0.2-2-0.6C1493.9,246.6,1493.6,245.9,1493.6,245.2z M1498.6,240.7c0-0.7-0.2-1.3-0.6-1.7
					c-0.3-0.5-0.8-0.6-1.4-0.6c-0.6,0-1,0.2-1.5,0.7c-0.5,0.5-0.6,1.1-0.6,1.8c0,0.6,0.2,1.2,0.6,1.7c0.5,0.5,0.8,0.6,1.5,0.6
					c0.6,0,1.1-0.2,1.4-0.6C1498.4,241.8,1498.6,241.4,1498.6,240.7z M1501.2,242.4c0-1.2,0.1-2.2,0.3-2.8c0.2-0.7,0.6-1.3,1.2-1.7
					c0.5-0.5,1.2-0.6,1.9-0.6c0.6,0,1.1,0.1,1.4,0.4c0.5,0.2,0.8,0.6,1.1,0.9c0.2,0.5,0.5,0.9,0.6,1.5c0.1,0.6,0.2,1.4,0.2,2.4
					c0,1.2-0.1,2.2-0.4,2.8c-0.2,0.7-0.6,1.3-1.2,1.7c-0.5,0.5-1.2,0.6-1.9,0.6c-0.9,0-1.8-0.4-2.3-1.1
					C1501.5,245.7,1501.2,244.3,1501.2,242.4z M1502.5,242.4c0,1.7,0.2,2.8,0.6,3.4c0.5,0.6,0.8,0.8,1.5,0.8c0.6,0,1.1-0.2,1.5-0.8
					c0.5-0.6,0.6-1.7,0.6-3.3c0-1.7-0.2-2.8-0.6-3.4c-0.3-0.6-0.8-0.8-1.5-0.8c-0.6,0-1.1,0.2-1.4,0.7
					C1502.7,239.6,1502.5,240.8,1502.5,242.4z M1509.4,239c0-0.6,0.2-0.9,0.6-1.3c0.4-0.4,0.8-0.6,1.3-0.6c0.6,0,0.9,0.2,1.4,0.6
					c0.3,0.4,0.6,0.8,0.6,1.3c0,0.6-0.2,0.9-0.6,1.3c-0.4,0.4-0.8,0.6-1.3,0.6s-0.9-0.2-1.3-0.6
					C1509.7,239.9,1509.4,239.6,1509.4,239z M1510.2,239c0,0.4,0.1,0.6,0.4,0.8c0.2,0.2,0.5,0.4,0.8,0.4c0.4,0,0.6-0.1,0.8-0.4
					c0.2-0.2,0.4-0.5,0.4-0.8c0-0.4-0.1-0.6-0.4-0.8c-0.2-0.2-0.5-0.4-0.8-0.4c-0.3,0-0.6,0.1-0.8,0.4
					C1510.2,238.4,1510.2,238.6,1510.2,239z M1522.6,243.9l1.3,0.4c-0.2,1.2-0.8,2-1.5,2.5c-0.7,0.6-1.6,0.8-2.7,0.8
					c-1.2,0-2-0.2-2.7-0.6c-0.7-0.5-1.2-1.2-1.5-2s-0.6-1.8-0.6-2.7c0-1.1,0.2-2,0.6-2.7c0.5-0.8,0.9-1.4,1.8-1.9
					c0.8-0.5,1.5-0.6,2.5-0.6c0.9,0,1.9,0.2,2.6,0.8c0.7,0.5,1.2,1.3,1.5,2.2l-1.3,0.2c-0.2-0.8-0.6-1.3-1.1-1.7
					c-0.5-0.4-0.9-0.5-1.6-0.5c-0.8,0-1.4,0.2-2,0.6c-0.5,0.4-0.9,0.9-1.2,1.5c-0.2,0.6-0.4,1.3-0.4,2c0,0.8,0.1,1.7,0.4,2.2
					c0.2,0.6,0.6,1.2,1.2,1.5c0.6,0.4,1.2,0.5,1.8,0.5c0.8,0,1.4-0.2,1.9-0.6C1522.1,245.4,1522.5,244.8,1522.6,243.9z"/>
				<path d="M1498,267.8h-1.3v-8.1c-0.2,0.2-0.7,0.6-1.2,0.8c-0.5,0.2-0.9,0.5-1.3,0.6V260c0.7-0.4,1.3-0.7,1.9-1.2
					c0.5-0.5,0.9-0.9,1.2-1.3h0.8L1498,267.8z M1501.9,267.8v-1.4h1.4v1.4c0,0.5-0.1,0.9-0.2,1.3c-0.2,0.4-0.5,0.6-0.9,0.8l-0.3-0.6
					c0.2-0.1,0.5-0.2,0.6-0.5c0.1-0.2,0.2-0.6,0.2-0.9h-0.7V267.8z M1511.7,260.1l-1.3,0.1c-0.1-0.5-0.2-0.8-0.5-1.1
					c-0.3-0.4-0.8-0.6-1.3-0.6c-0.5,0-0.8,0.1-1.1,0.4c-0.5,0.2-0.7,0.7-0.9,1.3c-0.2,0.6-0.4,1.3-0.4,2.4c0.2-0.5,0.7-0.8,1.2-1.1
					s0.9-0.4,1.4-0.4c0.8,0,1.5,0.2,2.1,0.9c0.6,0.6,0.9,1.4,0.9,2.4c0,0.6-0.1,1.3-0.5,1.8c-0.2,0.6-0.6,0.9-1.2,1.3
					c-0.5,0.2-1.1,0.5-1.6,0.5c-1.1,0-1.9-0.4-2.5-1.2c-0.6-0.8-0.9-2-0.9-3.8c0-2,0.4-3.4,1.2-4.3c0.6-0.8,1.5-1.2,2.5-1.2
					c0.8,0,1.5,0.2,2,0.7C1511.3,258.7,1511.5,259.2,1511.7,260.1z M1506.6,264.5c0,0.5,0.1,0.8,0.2,1.3c0.2,0.5,0.5,0.7,0.8,0.9
					c0.3,0.2,0.7,0.2,1.1,0.2c0.6,0,0.9-0.2,1.3-0.6c0.4-0.5,0.6-0.9,0.6-1.8c0-0.7-0.2-1.3-0.6-1.7c-0.3-0.5-0.8-0.6-1.4-0.6
					c-0.6,0-1.1,0.2-1.5,0.6C1506.7,263.3,1506.6,263.7,1506.6,264.5z M1517.5,267.8v-10.3h2l2.3,7.2c0.2,0.7,0.4,1.2,0.5,1.5
					c0.1-0.4,0.2-0.9,0.6-1.7l2.5-7.1h1.9v10.3h-1.3v-8.5l-2.9,8.5h-1.2l-2.9-8.6v8.6H1517.5z M1529.4,267.8v-10.3h3.9
					c0.7,0,1.2,0,1.5,0.1c0.5,0.1,0.9,0.2,1.3,0.5c0.4,0.2,0.6,0.6,0.8,0.9c0.2,0.5,0.2,0.9,0.2,1.4c0,0.8-0.2,1.7-0.8,2.2
					c-0.6,0.6-1.5,0.9-3.1,0.9h-2.6v4.1H1529.4z M1530.7,262.3h2.6c0.8,0,1.5-0.1,1.9-0.5c0.4-0.4,0.6-0.8,0.6-1.3
					c0-0.5-0.1-0.8-0.3-1.2c-0.2-0.2-0.5-0.5-0.8-0.6c-0.2-0.1-0.6-0.1-1.3-0.1h-2.6V262.3z M1543.5,266.9c-0.5,0.5-0.9,0.7-1.3,0.8
					c-0.5,0.1-1,0.2-1.4,0.2c-0.8,0-1.4-0.2-1.9-0.6c-0.5-0.5-0.6-0.9-0.6-1.5c0-0.4,0.1-0.7,0.2-0.9s0.3-0.6,0.6-0.7
					c0.2-0.2,0.6-0.4,0.9-0.5c0.2-0.1,0.6-0.1,1.2-0.2c0.9-0.1,1.8-0.2,2.2-0.5c0-0.1,0-0.2,0-0.4c0-0.5-0.1-0.8-0.3-1.1
					c-0.4-0.2-0.8-0.5-1.4-0.5c-0.6,0-1.1,0.1-1.3,0.2c-0.2,0.2-0.5,0.6-0.6,1.2l-1.2-0.1c0.1-0.5,0.2-0.9,0.6-1.3
					c0.2-0.4,0.6-0.6,1.2-0.8c0.5-0.2,1.1-0.2,1.7-0.2c0.6,0,1.2,0.1,1.5,0.2c0.5,0.1,0.7,0.4,0.8,0.6c0.2,0.2,0.2,0.5,0.5,0.8
					c0.1,0.2,0.1,0.6,0.1,1.2v1.7c0,1.2,0,1.9,0.1,2.2c0.1,0.2,0.1,0.6,0.4,0.9h-1.3C1543.6,267.5,1543.5,267.2,1543.5,266.9z
					 M1543.4,264.1c-0.5,0.2-1.2,0.4-2,0.5c-0.5,0.1-0.9,0.1-1.2,0.2c-0.2,0.1-0.4,0.2-0.5,0.5c-0.1,0.2-0.1,0.4-0.1,0.6
					c0,0.4,0.1,0.6,0.3,0.8c0.2,0.2,0.6,0.4,1.2,0.4c0.5,0,0.9-0.1,1.3-0.2c0.3-0.2,0.6-0.5,0.8-0.8c0.1-0.2,0.2-0.7,0.2-1.3
					L1543.4,264.1z"/>
				<path d="M1493.8,288.1v-10.3h3.8c0.8,0,1.4,0.1,1.9,0.2c0.5,0.2,0.8,0.5,1.2,0.9c0.2,0.5,0.5,0.8,0.5,1.3c0,0.5-0.1,0.8-0.4,1.2
					c-0.2,0.4-0.6,0.7-1.1,0.9c0.6,0.2,1.1,0.5,1.4,0.9c0.3,0.5,0.5,0.9,0.5,1.5c0,0.5-0.1,0.9-0.2,1.3c-0.2,0.5-0.5,0.7-0.8,0.9
					c-0.2,0.2-0.7,0.5-1.2,0.5c-0.5,0.1-0.9,0.1-1.7,0.1h-3.9V288.1z M1495.1,282.2h2.2c0.6,0,1.1-0.1,1.3-0.1
					c0.4-0.1,0.6-0.2,0.8-0.5c0.1-0.2,0.2-0.6,0.2-0.9c0-0.4-0.1-0.6-0.2-0.9c-0.1-0.2-0.5-0.5-0.7-0.6c-0.2-0.1-0.8-0.1-1.5-0.1h-2
					v3.2H1495.1z M1495.1,287h2.5c0.5,0,0.8,0,0.9-0.1c0.2-0.1,0.6-0.1,0.8-0.2c0.2-0.1,0.3-0.4,0.5-0.6s0.2-0.6,0.2-0.8
					c0-0.4-0.1-0.7-0.2-0.9c-0.2-0.2-0.5-0.5-0.8-0.6c-0.4-0.1-0.8-0.1-1.5-0.1h-2.3V287z M1503.3,288.1v-10.3h1.3v4.3h5.3v-4.3h1.3
					v10.3h-1.3v-4.9h-5.3v4.9H1503.3z M1512.5,288.3l2.9-10.7h0.9l-2.9,10.7H1512.5z M1516.4,288.1l3.9-10.3h1.5l4.1,10.3h-1.5
					l-1.2-3.1h-4.2l-1.2,3.1H1516.4z M1519.3,283.9h3.4l-1.1-2.8c-0.3-0.8-0.6-1.5-0.7-2.1c-0.1,0.6-0.2,1.3-0.6,2L1519.3,283.9z
					 M1528.8,288.1l-3.9-10.3h1.5l2.7,7.5c0.2,0.6,0.5,1.2,0.6,1.7c0.1-0.6,0.3-1.2,0.6-1.7l2.7-7.5h1.4l-4,10.3H1528.8z"/>
				<path class="st43" d="M1597.3,108.3v-5.7h25.6v48.2H1610v-40.6h-25v40.6h12.2v-32.6h-10"/>
				<path class="st43" d="M1582.6,118.2h-7.6v33"/>
				<path d="M1578.6,157.3v2.6h-0.6v-2.6l-0.1-0.1l-2.3,2.7h-0.7l2.7-3.1l-2.5-2.5h0.7l2.3,2.4v-2.4h0.6v2.4l2.3-2.4h0.7l-2.5,2.5
					l2.7,3.1h-0.7l-2.4-2.7h-0.3V157.3z"/>
				<path d="M1587.1,159.9h-0.6v-4.4l-3.8,4.3h-0.1v-5.7h0.6v4.4l3.8-4.4h0.1V159.9z"/>
				<path d="M1593,159.9h-0.6l-1.9-4.4l-1.9,4.4h-0.6l2.5-5.7h0.1L1593,159.9z"/>
				<path d="M1598.4,159.9h-0.6v-4.4l-3.8,4.3h-0.1v-5.7h0.6v4.4l3.8-4.4h0.1V159.9z"/>
				<path d="M1606.3,159.3h0.9v1.3h-0.6v-0.8h-7v-5.7h0.6v5.2h2.3v-5.2h0.6v5.2h2.5v-5.2h0.6
					C1606.3,154.1,1606.3,159.3,1606.3,159.3z"/>
				<path d="M1608,154.1h0.6v2.4h2.8v-2.4h0.6v5.7h-0.6v-2.8h-2.8v2.7h-0.6V154.1z"/>
				<path d="M1617.8,159.9h-0.6v-4.4l-3.8,4.3h-0.1v-5.7h0.6v4.4l3.8-4.4h0.1V159.9z"/>
				<path d="M1619.2,154.1h0.6v2l2.3-2h0.7l-2.7,2.5l2.8,3.1h-0.8l-2.5-2.6v2.6h-0.6C1619.2,159.9,1619.2,154.1,1619.2,154.1z"/>
				<path class="st44" d="M1919,1.8h-154.5c0,0-17.4,158.9,154.5,184.4V1.8z"/>
				<path class="st45" d="M1919,1.8h-95.8c0,0-9.9,100.5,95.8,117.9V1.8z"/>
				<path class="st46" d="M1923,701V458.2c0,0-226.5-11.7-234.6,242.8H1923z"/>
				<path class="st46" d="M1923,556.3V701h-127.9C1795.1,701,1782,566.3,1923,556.3z"/>
				<path class="st47" d="M-1,1.8h229.6c0,0,80.3,297.8-229.6,398V1.8z"/>
				<path class="st48" d="M-1,1.8h159.8c0,0,88.2,239.9-159.8,326.4V1.8z"/>
				<path class="st49" d="M155,545.6l-9.7-12.4c-0.8-1-2.4-6.4-2.7-7.7l-25.6-139c-0.8-3.9-2-7.7,1.7-8.7L337,318.4
					c2.6-0.7,5.3,0,7.1,1.9l9.7,9.8L155,545.6z"/>
				<path d="M125.2,388.8c0-0.1,0-0.1,0-0.2c-0.2-1.1-1.6-11.9,10.1-14.7l20.2-4.9c1.4-0.2,2.8,0.5,3.4,1.6l0.5,0.9
					c0.6,1.4,2,2.1,3.4,1.6l15.3-4.1c1.2-0.2,2.2-1.5,2-2.9c-0.1-2.1,0.7-5,5-6.4l21.8-5.8c0.9-0.2,1.9,0,2.7,0.7l7,6.5
					c0.7,0.7,1.7,0.9,2.7,0.7l50.3-13.5c0.7-0.1,1.1-0.6,1.6-1l8.8-11.8c0.5-0.6,0.9-0.8,1.6-1l19.4-4.9c0.9-0.2,1.9,0,2.6,0.7
					l4,3.4c0.7,0.7,1.7,0.8,2.6,0.7l8-2.2c1.2-0.2,2.2-1.5,2.2-2.9v-2.6c0-1.4,0.8-2.5,2.2-2.9l12.5-3.4c0.1,0,0.1,0,0.1-0.1
					c0.9-0.2,8.5-2.6,12.2,2.9c0.1,0.1,0.2,0.2,0.2,0.5l6.5,6.5l-13.3,8c-0.2,0.1-0.5,0.2-0.7,0.2l-207.9,59.8c-1,0.2-2,0-2.8-0.7
					l-4-4L125.2,388.8z"/>
				<path class="st50" d="M154.6,547.5l1,25.5c0.1,0.7,0.5,9,0.8,9.6l65.9,87.7c2.2,3.2,9,5.8,12.4,4.3l211.6-91.9
					c1.5-0.7,3.3-5.5,3.3-7.2l1.1-27.3c0-1.3,0.8-3.5-0.1-4.3l-89.8-73.7c-1.1-0.8-2.5-1.1-3.9-0.7l-200.9,74.2
					C154.3,544.4,154.4,545.7,154.6,547.5z"/>
				<path class="st51" d="M316.4,605.1c-1.2,0.6-2,1.8-2,3.2c-0.2,6.2,0.5,22,15.8,15.1c13-6.1,30.2-14.3,39.3-18.7
					c4-1.9,6.5-6.1,6.5-10.5V583c0-2.6-2.7-4.3-5.1-3.3L316.4,605.1z"/>
				<path class="st52" d="M448.2,548v11c0,0-7,3.2-13.9,7.1c-7,4-10.1-0.8-10.1-0.8s-9.4,3.2-11.7,4.7c-2.3,1.5-0.8,5.5-0.8,5.5
					s-21,12.6-24.1,10.2c-3.2-2.4-13.9-2.3-13.9-2.3l-49,21.1c-4.6,2.3-4.6,10.2-4.6,10.2l-21,10.2c-8.5,5.5-11.7-1.6-11.7-1.6
					l-15.5,7.1c-4,1.6-4,7.1-4,7.1l-21,9.5c-8.5,4.7-19.4-6.3-19.4-6.3l214.4-90.6L448.2,548z"/>
				<path class="st53" d="M162.9,556.8l65,81.8l209.5-86.5l-78.9-66.2L162.9,556.8z"/>
				<path class="st54" d="M157.4,541.5l-0.2,4.9l69.1,92.4c0.7,0.9,1.9,1.3,2.9,0.8l219.5-92.8c0.5-0.2,0.6-0.8,0.1-1.1l-85-70.9
					l-5.3-2.9"/>
				<path class="st55" d="M144.9,493l-10.7-12.1"/>
				<path class="st55" d="M150,517l-10.4-7.9"/>
				<path class="st55" d="M139.2,454.2l-11.9-11.8"/>
				<path class="st55" d="M132.9,426.9l-9.5-5.5"/>
				<path class="st56" d="M155,545.6l-29.5-151.9L354,330.2l7,142.5L155,545.6z"/>
				<path class="st57" d="M354,330.2l-15.9,5.1l7.8,124.5l15.1,12.9L354,330.2z"/>
				<path class="st58" d="M346,459.8l-194.4,67.4l3.4,18.4L361,472.7L346,459.8z"/>
				<path class="st59" d="M137.2,453.4l7.5,38.5l-10.4-11l-6.8-37.3L137.2,453.4z"/>
				<path class="st60" d="M167.4,560.5l-2,33.8"/>
				<path class="st60" d="M178.3,575.4l-1.9,33.7"/>
				<path class="st60" d="M196.2,598.9l-3.2,32.3"/>
				<path class="st60" d="M209.5,617l-3.1,32.1"/>
				<path class="st61" d="M252.1,623.9l83-35.6v-4.7l-34.7-31.1l-78.9,26.4v4.7L252.1,623.9z"/>
				<path class="st62" d="M252.6,618.8l82.5-35.2l-34.3-36.1l-79.2,31.4L252.6,618.8z"/>
				<path class="st63" d="M237.8,582l-6.2,3.2"/>
				<path class="st63" d="M240.1,585.2l-6.2,3.2"/>
				<path class="st63" d="M242.5,588.4l-6.2,3.1"/>
				<path class="st63" d="M245.2,591.6l-6.2,3.2"/>
				<path class="st64" d="M311.7,574.1l-61.4,25.1l-14.7-18l59.7-24.3L311.7,574.1z"/>
				<path d="M236.6,557.3l-20.6,8.1l2.3,5.9l20.6-8.1L236.6,557.3z"/>
				<path class="st65" d="M230,560l2.4,5.7l6.6-2.5l-2.2-5.8L230,560z"/>
				<path class="st66" d="M193.6,575.3h14.2"/>
				<path class="st51" d="M201.2,578.5l0.3-6.4"/>
				<path d="M250.8,555.3l5.9-7.5l10.9,1.6l-6.2,7.1L250.8,555.3z"/>
				<path d="M300.9,534.3l-21.5,7.9l1.5,4.1l21.5-7.9L300.9,534.3z"/>
				<path class="st67" d="M286.2,539.9l1.5,4.2l8-3.2l-1.5-4L286.2,539.9z"/>
				<path d="M318.4,532.1c3.2,0,5.8-1.2,5.8-2.7c0-1.5-2.6-2.7-5.8-2.7s-5.8,1.2-5.8,2.7C312.6,530.9,315.2,532.1,318.4,532.1z"/>
				<path class="st68" d="M318.8,530.6c1.8,0,3.2-0.7,3.2-1.6s-1.4-1.6-3.2-1.6c-1.8,0-3.2,0.7-3.2,1.6S317,530.6,318.8,530.6z"/>
				<path class="st69" d="M224.2,615.7c2.8,0,5-2.2,5-5c0-2.8-2.2-5-5-5c-2.8,0-5,2.2-5,5C219.2,613.5,221.5,615.7,224.2,615.7z"/>
				<path class="st70" d="M225.9,618.8v-1.6h4l0.2-2.3h2.2"/>
				<path class="st71" d="M278.3,596.2l25.6-10.3"/>
				<path class="st55" d="M279.1,599.3h3.3"/>
				<path class="st55" d="M280.8,597.4v3.7"/>
				<path class="st1" d="M281.5,598.5h-1.7v1.6h1.7V598.5z"/>
				<path class="st55" d="M287.3,596.2h3.3"/>
				<path class="st55" d="M289,594.2v3.8"/>
				<path class="st1" d="M289.7,595.5H288v1.6h1.7V595.5z"/>
				<path class="st55" d="M295.5,592.9h3.3"/>
				<path class="st55" d="M297.2,591v3.7"/>
				<path class="st1" d="M298,592.2h-1.7v1.6h1.7V592.2z"/>
				<path class="st55" d="M303.5,589.4h3.4"/>
				<path class="st55" d="M305.2,587.5v3.8"/>
				<path class="st1" d="M306,588.6h-1.7v1.6h1.7V588.6z"/>
				<path class="st72" d="M317.2,588.3c3,0,5.4-1.6,5.4-3.5c0-2-2.4-3.5-5.4-3.5c-3,0-5.4,1.6-5.4,3.5
					C311.7,586.7,314.2,588.3,317.2,588.3z"/>
				<path class="st73" d="M317.2,586c1.8,0,3.2-0.7,3.2-1.6c0-0.9-1.4-1.6-3.2-1.6c-1.8,0-3.2,0.7-3.2,1.6
					C314,585.3,315.4,586,317.2,586z"/>
				<path class="st73" d="M315.6,584.4l2.3-4.7h2.4l-1.5,4.7H315.6z"/>
				<path class="st72" d="M269.7,607.9c3,0,5.4-1.8,5.4-4s-2.4-4-5.4-4c-3,0-5.4,1.8-5.4,4S266.7,607.9,269.7,607.9z"/>
				<path class="st73" d="M269.7,605.5c1.8,0,3.2-0.9,3.2-1.9c0-1.1-1.4-1.9-3.2-1.9c-1.8,0-3.2,0.9-3.2,1.9
					C266.5,604.7,267.9,605.5,269.7,605.5z"/>
				<path class="st74" d="M235.7,591.4l0.6,1.4l1.5-0.7l-0.7-1.4l-1.4,0.6V591.4z"/>
				<path class="st75" d="M257.4,609.8v1.4h1.6v-1.5h-1.6V609.8z"/>
				<path class="st76" d="M247.9,607.9l10.9-4.8"/>
				<path class="st76" d="M249.6,609.3l10.9-4.7"/>
				<path class="st76" d="M251.2,610.9l10.9-4.8"/>
				<path class="st77" d="M401.1,535.8v-8.5c0,0,7.7-11.6,16.3,0v13.9h-16.3V535.8z"/>
				<path d="M401.1,535.8v12.6c0,0,8.5,7,16.3-0.1v-12.6C417.4,535.8,409.7,542.8,401.1,535.8z"/>
				<path class="st78" d="M409.2,531.1c4.5,0,8.2-2.1,8.2-4.7c0-2.6-3.7-4.7-8.2-4.7c-4.5,0-8.2,2.1-8.2,4.7
					C401.1,529,404.7,531.1,409.2,531.1z"/>
				<path class="st79" d="M409.2,528.8c2.8,0,5-1.2,5-2.7c0-1.5-2.2-2.7-5-2.7c-2.8,0-5,1.2-5,2.7
					C404.2,527.6,406.5,528.8,409.2,528.8z"/>
				<path class="st77" d="M348,493v-8.5c0,0,7.7-11.6,16.3,0v13.8H348V493z"/>
				<path d="M348,493v12.6c0,0,8.5,7,16.3-0.1v-12.6C364.3,493,356.5,500,348,493z"/>
				<path class="st78" d="M356.2,488.3c4.5,0,8.2-2.1,8.2-4.7s-3.7-4.7-8.2-4.7s-8.2,2.1-8.2,4.7S351.7,488.3,356.2,488.3z"/>
				<path class="st79" d="M356.2,485.9c2.8,0,5-1.2,5-2.7c0-1.5-2.2-2.7-5-2.7c-2.8,0-5,1.2-5,2.7
					C351.2,484.6,353.4,485.9,356.2,485.9z"/>
				<path class="st78" d="M322.6,544.4v-3.1l38-11.8l29.7,28.2v3.1L352,577.4L322.6,544.4z"/>
				<path class="st1" d="M322.6,541.4l38.1-15l29.6,31.4l-38.1,16.3L322.6,541.4z"/>
				<path d="M259.6,557.6c3.1,0,5.6-2.5,5.6-5.6c0-3.1-2.5-5.6-5.6-5.6c-3.1,0-5.6,2.5-5.6,5.6C254,555.1,256.5,557.6,259.6,557.6z"
					/>
				<path d="M256.3,549.8l-2.7-4.2l6.2-1.9l1.6,4.8L256.3,549.8z"/>
				<path class="st80" d="M224.2,614.6c2.1,0,3.9-1.7,3.9-3.9c0-2.1-1.7-3.9-3.9-3.9c-2.1,0-3.9,1.7-3.9,3.9
					C220.4,612.8,222.1,614.6,224.2,614.6z"/>
				<path class="st68" d="M321.9,522.1h-6.2v7h6.2V522.1z"/>
				<path class="st68" d="M318.8,523.7c1.8,0,3.2-0.7,3.2-1.6c0-0.9-1.4-1.6-3.2-1.6c-1.8,0-3.2,0.7-3.2,1.6
					C315.6,522.9,317,523.7,318.8,523.7z"/>
				<path d="M318.8,522.5c0.8,0,1.5-0.3,1.5-0.7c0-0.4-0.7-0.7-1.5-0.7s-1.5,0.3-1.5,0.7C317.3,522.2,318,522.5,318.8,522.5z"/>
				<path d="M320.2,520.9h-2.8v1h2.8V520.9z"/>
				<path d="M318.8,521.6c0.8,0,1.5-0.3,1.5-0.7c0-0.4-0.7-0.7-1.5-0.7s-1.5,0.3-1.5,0.7C317.3,521.3,318,521.6,318.8,521.6z"/>
				<path class="st70" d="M317.6,521.3c0,0-8.8,0.6-2,6.2"/>
				<path d="M203.5,561.8c-0.7,0.6-2,1.5-3.1,1.8c-3.4,1.4-7.1,0.2-8-0.9c-1.1-1.5,0-3.4,3.4-4.7c1-0.3,2.5-0.8,3.4-0.7l0.9,0.9
					c-0.9,0-2.5,0.6-3.4,0.9c-2.5,1.3-2.5,1.6-1.9,2.7c0.5,1,2.5,1.1,5.4,0.7c0.9-0.3,1.7-0.9,2.4-1.6L203.5,561.8z"/>
				<path d="M207.6,554l0.9,0.7l-2.7,1.1l3.7,3.9l-1.9,0.9l-4.1-4.1l-2.8,1.1l-0.7-0.9L207.6,554z"/>
				<path d="M213.1,558.5l-1.6,0.6l-0.1-6.4l2-0.8l8.5,3.2l-1.6,0.8l-2.4-0.9l-3.3,1.4l-0.1-1.3l1.9-0.7l-3.1-1.1L213.1,558.5z"/>
				<path d="M223.7,554.8L219,550l1.8-0.7l1.8,1.9l5.2-1.9l-1.7-1.9l1.8-0.7l4.4,4.7l-1.9,0.8l-1.9-2.2l-5.2,2.1l1.8,2.1
					L223.7,554.8z"/>
				<path d="M235.5,552.3l-2.2-2.2l2.3-0.9c0.9-0.7,0-1.7-1.8-4.5l3.2-1.4l3.2-1.1l4,4l1.4-0.6l1.9,1.9l-1.7,0.8l-1.5-1.4l-8.4,3.1
					l1,1.6L235.5,552.3z M237.9,548.3l4.2-1.6l-3.3-3.3l-2.5,1.1C237,546,237.8,546.5,237.9,548.3z"/>
				<path d="M248.6,545.5l-1.8,0.6l-0.2-6.2l1.8-0.7l8.4,3.2l-1.4,0.6l-2.5-0.9l-3.1,1.3l-0.2-1.3l1.8-0.7l-3.2-1L248.6,545.5z"/>
				<path d="M259,541.7l-4.6-4.6l4.2-1.9c1.9-0.8,2.9-1,4.1,0.5c1.1,1.6,0.7,1.8-1.8,3.3l-1-1c1.8-1,1.9-1.1,1.4-1.9
					c-0.2-0.3-0.7-0.3-1.8,0.1l-1.9,1l3.4,3.8L259,541.7z"/>
				<path d="M269.7,531.4l0.7,0.7l-2.6,1l3.9,3.9l-1.7,0.7l-4.3-3.9l-2.6,1l-0.8-0.8L269.7,531.4z"/>
				<path d="M279.3,534.6l-5.2-4.7l5.6-2.1c1.8-0.7,1.9-1.1,2.8,0.2c0.7,0.9,0.8,0.9-0.2,1.8c1.4-0.2,1.8-0.7,2.6,0.5
					c1.1,1.5,0.5,1.9-1.5,2.7L279.3,534.6z M282.7,532.1c0.2-0.1,0.8,0.1,0.3-1.1c-0.5-1.1-0.3-0.8-1.9-0.2l-1.4,0.6l-0.5-0.8
					c1.7-1,1.8-0.7,1.2-1.6c-0.2-0.3-0.5-0.3-1.5,0.1l-2.6,1l3.5,3.1L282.7,532.1z"/>
				<path d="M288.3,531.2l-4.9-4.7l2-0.8l7.4,1.9l-0.7-4.5l1.8-0.7l4.5,4.8l-1.1,0.5l-3.5-3l0.1,4.3l-1,0.3l-5.9-1.9l2.4,3.3
					L288.3,531.2z"/>
				<path class="st81" d="M1803,614.2c45.6,24.9,31.4,97-20.4,95.9c-76.5-1.7-179.1,0.5-306.4,0c-217.8-0.9-363.6,1.6-392.7-17
					c-66-42.3,175.7-142.7,392.5-142.7C1612.4,550.5,1732.7,575.8,1803,614.2z"/>
			</g>
		</g>
	</g>
</g>
</svg>
