<svg width="326" height="231" viewBox="0 0 326 231" fill="none" xmlns="http://www.w3.org/2000/svg">
<path d="M249.275 178H99.4255C87.5022 178 77.85 168.24 77.85 156.184V154.816C77.85 142.76 87.5022 133 99.4255 133H249.275C261.198 133 270.85 142.76 270.85 154.816V156.184C270.85 168.24 261.198 178 249.275 178Z" fill="#FF9800"/>
<path d="M104.89 161.16C104.154 161.16 103.514 161.08 102.97 160.92C102.426 160.749 101.978 160.525 101.626 160.248C101.274 159.971 100.997 159.656 100.794 159.304C100.602 158.941 100.49 158.568 100.458 158.184C100.447 158.088 100.474 158.013 100.538 157.96C100.613 157.896 100.698 157.864 100.794 157.864H102.234C102.341 157.864 102.431 157.891 102.506 157.944C102.581 157.987 102.645 158.067 102.698 158.184C102.826 158.525 103.066 158.803 103.418 159.016C103.77 159.229 104.245 159.336 104.842 159.336C105.29 159.336 105.685 159.272 106.026 159.144C106.367 159.016 106.634 158.835 106.826 158.6C107.029 158.355 107.13 158.067 107.13 157.736C107.13 157.213 106.938 156.813 106.554 156.536C106.181 156.259 105.658 156.12 104.986 156.12H103.834C103.717 156.12 103.621 156.083 103.546 156.008C103.482 155.923 103.45 155.827 103.45 155.72V154.792C103.45 154.675 103.482 154.579 103.546 154.504C103.621 154.429 103.717 154.392 103.834 154.392H104.938C105.493 154.392 105.941 154.275 106.282 154.04C106.634 153.805 106.81 153.432 106.81 152.92C106.81 152.632 106.725 152.381 106.554 152.168C106.394 151.944 106.17 151.773 105.882 151.656C105.594 151.539 105.263 151.48 104.89 151.48C104.325 151.48 103.861 151.576 103.498 151.768C103.135 151.96 102.911 152.253 102.826 152.648C102.783 152.755 102.73 152.835 102.666 152.888C102.602 152.931 102.517 152.952 102.41 152.952H100.922C100.826 152.952 100.741 152.92 100.666 152.856C100.602 152.792 100.575 152.712 100.586 152.616C100.618 152.221 100.725 151.848 100.906 151.496C101.098 151.133 101.37 150.813 101.722 150.536C102.074 150.259 102.511 150.04 103.034 149.88C103.567 149.72 104.197 149.64 104.922 149.64C105.818 149.64 106.57 149.789 107.178 150.088C107.786 150.376 108.25 150.755 108.57 151.224C108.901 151.683 109.066 152.189 109.066 152.744C109.066 153.032 109.029 153.325 108.954 153.624C108.879 153.912 108.746 154.184 108.554 154.44C108.373 154.696 108.122 154.92 107.802 155.112C108.186 155.304 108.495 155.544 108.73 155.832C108.975 156.109 109.151 156.419 109.258 156.76C109.375 157.101 109.434 157.448 109.434 157.8C109.434 158.472 109.247 159.059 108.874 159.56C108.511 160.061 107.989 160.456 107.306 160.744C106.623 161.021 105.818 161.16 104.89 161.16ZM110.754 161C110.669 161 110.589 160.968 110.514 160.904C110.45 160.84 110.418 160.76 110.418 160.664C110.418 160.621 110.429 160.573 110.45 160.52L114.306 150.2C114.338 150.093 114.397 150.003 114.482 149.928C114.578 149.843 114.706 149.8 114.866 149.8H116.61C116.77 149.8 116.893 149.843 116.978 149.928C117.063 150.003 117.127 150.093 117.17 150.2L121.026 160.52C121.037 160.573 121.042 160.621 121.042 160.664C121.042 160.76 121.01 160.84 120.946 160.904C120.882 160.968 120.807 161 120.722 161H119.33C119.181 161 119.069 160.968 118.994 160.904C118.93 160.829 118.887 160.76 118.866 160.696L118.114 158.744H113.362L112.61 160.696C112.589 160.76 112.541 160.829 112.466 160.904C112.402 160.968 112.295 161 112.146 161H110.754ZM113.922 156.904H117.554L115.73 151.96L113.922 156.904ZM122.92 161C122.813 161 122.722 160.968 122.648 160.904C122.573 160.829 122.536 160.733 122.536 160.616V150.2C122.536 150.083 122.573 149.987 122.648 149.912C122.722 149.837 122.813 149.8 122.92 149.8H124.376C124.493 149.8 124.584 149.837 124.648 149.912C124.722 149.987 124.76 150.083 124.76 150.2V154.328H126.152L128.76 150.088C128.813 150.003 128.882 149.933 128.968 149.88C129.064 149.827 129.186 149.8 129.336 149.8H130.92C131.026 149.8 131.106 149.832 131.16 149.896C131.224 149.96 131.256 150.04 131.256 150.136C131.256 150.189 131.234 150.253 131.192 150.328L128.168 155.208L131.48 160.456C131.512 160.488 131.528 160.547 131.528 160.632C131.528 160.728 131.49 160.813 131.416 160.888C131.352 160.963 131.266 161 131.16 161H129.512C129.373 161 129.266 160.968 129.192 160.904C129.128 160.84 129.074 160.781 129.032 160.728L126.232 156.328H124.76V160.616C124.76 160.723 124.722 160.813 124.648 160.888C124.584 160.963 124.493 161 124.376 161H122.92ZM132.566 161C132.481 161 132.401 160.968 132.326 160.904C132.262 160.84 132.23 160.76 132.23 160.664C132.23 160.621 132.241 160.573 132.262 160.52L136.118 150.2C136.15 150.093 136.209 150.003 136.294 149.928C136.39 149.843 136.518 149.8 136.678 149.8H138.422C138.582 149.8 138.705 149.843 138.79 149.928C138.876 150.003 138.94 150.093 138.982 150.2L142.838 160.52C142.849 160.573 142.854 160.621 142.854 160.664C142.854 160.76 142.822 160.84 142.758 160.904C142.694 160.968 142.62 161 142.534 161H141.142C140.993 161 140.881 160.968 140.806 160.904C140.742 160.829 140.7 160.76 140.678 160.696L139.926 158.744H135.174L134.422 160.696C134.401 160.76 134.353 160.829 134.278 160.904C134.214 160.968 134.108 161 133.958 161H132.566ZM135.734 156.904H139.366L137.542 151.96L135.734 156.904ZM148.14 161.16C147.404 161.16 146.764 161.08 146.22 160.92C145.676 160.749 145.228 160.525 144.876 160.248C144.524 159.971 144.247 159.656 144.044 159.304C143.852 158.941 143.74 158.568 143.708 158.184C143.697 158.088 143.724 158.013 143.788 157.96C143.863 157.896 143.948 157.864 144.044 157.864H145.484C145.591 157.864 145.681 157.891 145.756 157.944C145.831 157.987 145.895 158.067 145.948 158.184C146.076 158.525 146.316 158.803 146.668 159.016C147.02 159.229 147.495 159.336 148.092 159.336C148.54 159.336 148.935 159.272 149.276 159.144C149.617 159.016 149.884 158.835 150.076 158.6C150.279 158.355 150.38 158.067 150.38 157.736C150.38 157.213 150.188 156.813 149.804 156.536C149.431 156.259 148.908 156.12 148.236 156.12H147.084C146.967 156.12 146.871 156.083 146.796 156.008C146.732 155.923 146.7 155.827 146.7 155.72V154.792C146.7 154.675 146.732 154.579 146.796 154.504C146.871 154.429 146.967 154.392 147.084 154.392H148.188C148.743 154.392 149.191 154.275 149.532 154.04C149.884 153.805 150.06 153.432 150.06 152.92C150.06 152.632 149.975 152.381 149.804 152.168C149.644 151.944 149.42 151.773 149.132 151.656C148.844 151.539 148.513 151.48 148.14 151.48C147.575 151.48 147.111 151.576 146.748 151.768C146.385 151.96 146.161 152.253 146.076 152.648C146.033 152.755 145.98 152.835 145.916 152.888C145.852 152.931 145.767 152.952 145.66 152.952H144.172C144.076 152.952 143.991 152.92 143.916 152.856C143.852 152.792 143.825 152.712 143.836 152.616C143.868 152.221 143.975 151.848 144.156 151.496C144.348 151.133 144.62 150.813 144.972 150.536C145.324 150.259 145.761 150.04 146.284 149.88C146.817 149.72 147.447 149.64 148.172 149.64C149.068 149.64 149.82 149.789 150.428 150.088C151.036 150.376 151.5 150.755 151.82 151.224C152.151 151.683 152.316 152.189 152.316 152.744C152.316 153.032 152.279 153.325 152.204 153.624C152.129 153.912 151.996 154.184 151.804 154.44C151.623 154.696 151.372 154.92 151.052 155.112C151.436 155.304 151.745 155.544 151.98 155.832C152.225 156.109 152.401 156.419 152.508 156.76C152.625 157.101 152.684 157.448 152.684 157.8C152.684 158.472 152.497 159.059 152.124 159.56C151.761 160.061 151.239 160.456 150.556 160.744C149.873 161.021 149.068 161.16 148.14 161.16ZM154.004 161C153.919 161 153.839 160.968 153.764 160.904C153.7 160.84 153.668 160.76 153.668 160.664C153.668 160.621 153.679 160.573 153.7 160.52L157.556 150.2C157.588 150.093 157.647 150.003 157.732 149.928C157.828 149.843 157.956 149.8 158.116 149.8H159.86C160.02 149.8 160.143 149.843 160.228 149.928C160.313 150.003 160.377 150.093 160.42 150.2L164.276 160.52C164.287 160.573 164.292 160.621 164.292 160.664C164.292 160.76 164.26 160.84 164.196 160.904C164.132 160.968 164.057 161 163.972 161H162.58C162.431 161 162.319 160.968 162.244 160.904C162.18 160.829 162.137 160.76 162.116 160.696L161.364 158.744H156.612L155.86 160.696C155.839 160.76 155.791 160.829 155.716 160.904C155.652 160.968 155.545 161 155.396 161H154.004ZM157.172 156.904H160.804L158.98 151.96L157.172 156.904ZM168.634 161C168.527 161 168.436 160.963 168.362 160.888C168.287 160.813 168.25 160.723 168.25 160.616V151.768H165.29C165.183 151.768 165.092 151.731 165.018 151.656C164.943 151.581 164.906 151.491 164.906 151.384V150.2C164.906 150.083 164.943 149.987 165.018 149.912C165.092 149.837 165.183 149.8 165.29 149.8H173.45C173.567 149.8 173.663 149.837 173.738 149.912C173.812 149.987 173.85 150.083 173.85 150.2V151.384C173.85 151.491 173.812 151.581 173.738 151.656C173.663 151.731 173.567 151.768 173.45 151.768H170.506V160.616C170.506 160.723 170.468 160.813 170.394 160.888C170.319 160.963 170.223 161 170.106 161H168.634ZM175.857 161C175.75 161 175.66 160.963 175.585 160.888C175.51 160.813 175.473 160.723 175.473 160.616V150.184C175.473 150.077 175.51 149.987 175.585 149.912C175.66 149.837 175.75 149.8 175.857 149.8H177.313C177.43 149.8 177.521 149.837 177.585 149.912C177.66 149.987 177.697 150.077 177.697 150.184V153.848H179.761C181.03 153.848 182.012 154.147 182.705 154.744C183.398 155.331 183.745 156.205 183.745 157.368C183.745 158.04 183.596 158.653 183.297 159.208C182.998 159.763 182.556 160.2 181.969 160.52C181.382 160.84 180.646 161 179.761 161H175.857ZM177.697 159.224H179.665C180.241 159.224 180.684 159.053 180.993 158.712C181.302 158.36 181.457 157.907 181.457 157.352C181.457 156.776 181.302 156.344 180.993 156.056C180.694 155.768 180.252 155.624 179.665 155.624H177.697V159.224ZM189.991 161C189.884 161 189.794 160.963 189.719 160.888C189.644 160.813 189.607 160.723 189.607 160.616V159.432C189.607 159.315 189.644 159.219 189.719 159.144C189.794 159.069 189.884 159.032 189.991 159.032H190.583C190.892 159.032 191.159 158.968 191.383 158.84C191.607 158.701 191.815 158.488 192.007 158.2C192.199 157.901 192.391 157.523 192.583 157.064L195.639 150.104C195.671 149.997 195.724 149.923 195.799 149.88C195.884 149.827 195.975 149.8 196.071 149.8H197.559C197.644 149.8 197.719 149.832 197.783 149.896C197.858 149.96 197.895 150.035 197.895 150.12C197.895 150.173 197.89 150.221 197.879 150.264C197.868 150.307 197.852 150.349 197.831 150.392L194.615 157.736C194.348 158.323 194.098 158.824 193.863 159.24C193.628 159.645 193.372 159.981 193.095 160.248C192.818 160.504 192.487 160.696 192.103 160.824C191.73 160.941 191.276 161 190.743 161H189.991ZM192.471 158.2L188.199 150.312C188.167 150.248 188.151 150.195 188.151 150.152C188.151 150.056 188.188 149.976 188.263 149.912C188.338 149.837 188.418 149.8 188.503 149.8H190.071C190.167 149.8 190.247 149.827 190.311 149.88C190.386 149.923 190.444 149.997 190.487 150.104L193.639 155.992L192.471 158.2ZM203.449 161.16C202.457 161.16 201.615 160.989 200.921 160.648C200.239 160.296 199.716 159.8 199.353 159.16C198.991 158.509 198.788 157.731 198.745 156.824C198.735 156.387 198.729 155.917 198.729 155.416C198.729 154.915 198.735 154.435 198.745 153.976C198.788 153.08 198.991 152.307 199.353 151.656C199.727 151.005 200.255 150.509 200.937 150.168C201.631 149.816 202.468 149.64 203.449 149.64C204.175 149.64 204.825 149.736 205.401 149.928C205.977 150.12 206.468 150.387 206.873 150.728C207.279 151.059 207.593 151.448 207.817 151.896C208.041 152.344 208.159 152.829 208.169 153.352C208.18 153.448 208.148 153.528 208.073 153.592C208.009 153.656 207.929 153.688 207.833 153.688H206.313C206.196 153.688 206.1 153.661 206.025 153.608C205.951 153.544 205.897 153.443 205.865 153.304C205.695 152.6 205.401 152.12 204.985 151.864C204.569 151.608 204.052 151.48 203.433 151.48C202.719 151.48 202.148 151.683 201.721 152.088C201.295 152.483 201.065 153.139 201.033 154.056C201.001 154.931 201.001 155.827 201.033 156.744C201.065 157.661 201.295 158.323 201.721 158.728C202.148 159.123 202.719 159.32 203.433 159.32C204.052 159.32 204.569 159.192 204.985 158.936C205.401 158.669 205.695 158.189 205.865 157.496C205.897 157.347 205.951 157.245 206.025 157.192C206.1 157.139 206.196 157.112 206.313 157.112H207.833C207.929 157.112 208.009 157.144 208.073 157.208C208.148 157.272 208.18 157.352 208.169 157.448C208.159 157.971 208.041 158.456 207.817 158.904C207.593 159.352 207.279 159.747 206.873 160.088C206.468 160.419 205.977 160.68 205.401 160.872C204.825 161.064 204.175 161.16 203.449 161.16ZM217.475 161C217.368 161 217.278 160.963 217.203 160.888C217.128 160.813 217.091 160.723 217.091 160.616V151.8H213.619V153.816C213.619 155.096 213.55 156.189 213.411 157.096C213.283 158.003 213.07 158.739 212.771 159.304C212.472 159.859 212.067 160.275 211.555 160.552C211.043 160.819 210.403 160.963 209.635 160.984C209.528 160.995 209.432 160.963 209.347 160.888C209.272 160.803 209.235 160.707 209.235 160.6V159.4C209.235 159.176 209.358 159.048 209.603 159.016C209.923 158.963 210.195 158.813 210.419 158.568C210.654 158.323 210.846 157.976 210.995 157.528C211.155 157.08 211.272 156.525 211.347 155.864C211.422 155.192 211.459 154.413 211.459 153.528V150.184C211.459 150.077 211.496 149.987 211.571 149.912C211.646 149.837 211.736 149.8 211.843 149.8H218.915C219.032 149.8 219.128 149.837 219.203 149.912C219.278 149.987 219.315 150.083 219.315 150.2V160.616C219.315 160.723 219.278 160.813 219.203 160.888C219.128 160.963 219.032 161 218.915 161H217.475ZM222.585 161C222.478 161 222.388 160.963 222.313 160.888C222.238 160.813 222.201 160.723 222.201 160.616V159.432C222.201 159.315 222.238 159.219 222.313 159.144C222.388 159.069 222.478 159.032 222.585 159.032H223.177C223.486 159.032 223.753 158.968 223.977 158.84C224.201 158.701 224.409 158.488 224.601 158.2C224.793 157.901 224.985 157.523 225.177 157.064L228.233 150.104C228.265 149.997 228.318 149.923 228.393 149.88C228.478 149.827 228.569 149.8 228.665 149.8H230.153C230.238 149.8 230.313 149.832 230.377 149.896C230.452 149.96 230.489 150.035 230.489 150.12C230.489 150.173 230.484 150.221 230.473 150.264C230.462 150.307 230.446 150.349 230.425 150.392L227.209 157.736C226.942 158.323 226.692 158.824 226.457 159.24C226.222 159.645 225.966 159.981 225.689 160.248C225.412 160.504 225.081 160.696 224.697 160.824C224.324 160.941 223.87 161 223.337 161H222.585ZM225.065 158.2L220.793 150.312C220.761 150.248 220.745 150.195 220.745 150.152C220.745 150.056 220.782 149.976 220.857 149.912C220.932 149.837 221.012 149.8 221.097 149.8H222.665C222.761 149.8 222.841 149.827 222.905 149.88C222.98 149.923 223.038 149.997 223.081 150.104L226.233 155.992L225.065 158.2ZM232.107 161C232 161 231.91 160.963 231.835 160.888C231.76 160.813 231.723 160.723 231.723 160.616V150.2C231.723 150.083 231.76 149.987 231.835 149.912C231.91 149.837 232 149.8 232.107 149.8H238.635C238.752 149.8 238.848 149.837 238.923 149.912C238.998 149.987 239.035 150.083 239.035 150.2V151.32C239.035 151.427 238.998 151.517 238.923 151.592C238.848 151.667 238.752 151.704 238.635 151.704H233.947V160.616C233.947 160.723 233.91 160.813 233.835 160.888C233.771 160.963 233.68 161 233.563 161H232.107ZM241.179 161C241.072 161 240.981 160.963 240.907 160.888C240.832 160.813 240.795 160.723 240.795 160.616V159.432C240.795 159.315 240.832 159.219 240.907 159.144C240.981 159.069 241.072 159.032 241.179 159.032H241.771C242.08 159.032 242.347 158.968 242.571 158.84C242.795 158.701 243.003 158.488 243.195 158.2C243.387 157.901 243.579 157.523 243.771 157.064L246.827 150.104C246.859 149.997 246.912 149.923 246.987 149.88C247.072 149.827 247.163 149.8 247.259 149.8H248.747C248.832 149.8 248.907 149.832 248.971 149.896C249.045 149.96 249.083 150.035 249.083 150.12C249.083 150.173 249.077 150.221 249.067 150.264C249.056 150.307 249.04 150.349 249.019 150.392L245.803 157.736C245.536 158.323 245.285 158.824 245.051 159.24C244.816 159.645 244.56 159.981 244.283 160.248C244.005 160.504 243.675 160.696 243.291 160.824C242.917 160.941 242.464 161 241.931 161H241.179ZM243.659 158.2L239.387 150.312C239.355 150.248 239.339 150.195 239.339 150.152C239.339 150.056 239.376 149.976 239.451 149.912C239.525 149.837 239.605 149.8 239.691 149.8H241.259C241.355 149.8 241.435 149.827 241.499 149.88C241.573 149.923 241.632 149.997 241.675 150.104L244.827 155.992L243.659 158.2Z" fill="white"/>
<path d="M320.85 0H0.849976V231H320.85V0Z" fill="#35CBE2"/>
<path opacity="0.7" d="M0.849647 80.7137L216.489 80.7174L216.685 105.052L0.85 105.052L0.849647 80.7137Z" fill="url(#paint0_linear_309_88)"/>
<g opacity="0.7">
<path d="M185.317 80.9282L179.682 80.9457L179.955 104.383H185.59L185.317 80.9282Z" fill="url(#paint1_linear_309_88)"/>
<path d="M197.363 78.567L184.698 78.5496L184.828 87.2075L197.492 87.225L197.363 78.567Z" fill="#CBB35B"/>
<path d="M197.493 87.2773L184.785 87.2598L184.987 100.588L197.651 100.605L197.493 87.2773Z" fill="#AE8F4C"/>
<path d="M184.986 100.588L185.015 106.307L197.449 106.377L197.65 100.605L184.986 100.588Z" fill="#856238"/>
<path d="M218.98 80.5679L196.958 80.4473L197.145 88.1872L219.166 88.3079L218.98 80.5679Z" fill="#CBB35B"/>
<path d="M219.177 88.3233L196.92 88.2017L197.214 100.031L219.396 100.152L219.177 88.3233Z" fill="#AE8F4C"/>
<path d="M197.292 100.047L197.317 105.062L219.019 105.227L219.395 100.168L197.292 100.047Z" fill="#856238"/>
<path d="M180.314 78.567L168.297 78.4971L167.708 85.231L180.415 85.4584L180.314 78.567Z" fill="#CBB35B"/>
<path d="M180.415 85.2484L167.708 85.231L167.866 98.9612L180.616 98.9787L180.415 85.2484Z" fill="#AE8F4C"/>
<path d="M167.866 98.9614L168.369 106.308L180.66 106.325L180.617 98.9789L167.866 98.9614Z" fill="#856238"/>
<path d="M168.499 80.8934L166.184 80.9109L166.199 80.0014L164.675 79.9664H158.896L158.882 77.8325H152.787L152.801 80.5086L130.333 80.6835V105.678L153.52 105.625L153.534 107.847H159.687L159.672 105.625L166.702 105.643L166.673 104.383H169.03L168.499 80.8934Z" fill="url(#paint2_linear_309_88)"/>
<path d="M165.969 79.7739L166.299 105.66" stroke="#856238" stroke-width="2" stroke-miterlimit="10"/>
<path d="M164.963 78.8469L159.271 78.7944L159.055 89.3239L165.064 89.3938L164.963 78.8469Z" fill="#CBB35B"/>
<path d="M165.064 89.3937L159.055 89.3237L159.227 102.599H165.236L165.064 89.3937Z" fill="#AE8F4C"/>
<path d="M165.235 102.599H159.227L159.27 106.657H165.279L165.235 102.599Z" fill="#856238"/>
<path d="M153.247 107.514H159.256L159.241 77.8848H152.859L153.247 107.514Z" fill="url(#paint3_linear_309_88)"/>
<path d="M155.878 77.5176L156.252 107.864" stroke="#856238" stroke-width="2" stroke-miterlimit="10"/>
<path d="M146.275 80.4385L146.519 105.8" stroke="#856238" stroke-width="2" stroke-miterlimit="10"/>
</g>
<path d="M223.707 77.5991H213.132V100.724V106.854H223.869L225.687 104.866V103.659L226.401 103.696L227.115 102.545L227.398 103.863L228.233 102.545H236.168H240.128L237.582 90.8984L234.188 81.927L233.043 81.5926L227.951 82.2613L227.398 80.924L226.832 82.2613L226.118 80.4224L225.687 80.5896L223.707 77.5991Z" fill="url(#paint4_linear_309_88)"/>
<path d="M223.856 101.04L224.004 106.724L213.133 106.854L213.106 101.04H223.856Z" fill="#8D6030"/>
<path d="M213.106 77.7664H223.573L224.125 86.7564H213.106V77.7664Z" fill="#D1B349"/>
<path d="M213.106 86.7563V101.04H223.856L224.125 86.7563H213.106Z" fill="#B58E3F"/>
<path d="M226.119 104.031V80.0881L226.671 81.184V103.492L226.119 104.031Z" fill="#8D5700"/>
<path d="M227.25 103.696V80.7568L227.816 81.797V103.176L227.25 103.696Z" fill="#8D5700"/>
<path d="M313.818 77.1547L320.82 77.1547L320.82 106L318.904 105.98L313.818 77.1547Z" fill="url(#paint5_linear_309_88)"/>
<path d="M309.084 106.794H319.779V82.7222V76.3123H308.92L307.081 78.4097V79.6446L306.495 79.2722L305.651 80.8208L305.364 79.429L304.506 80.8208H296.482H292.49L295.065 92.9349L298.484 102.285L299.642 102.638L304.792 101.932L305.364 103.324L305.937 101.932L306.495 103.873L307.081 103.677L309.084 106.794Z" fill="url(#paint6_linear_309_88)"/>
<path d="M308.947 82.3693L308.784 76.4691L319.779 76.3123L319.819 82.3693H308.947Z" fill="#D1B349"/>
<path d="M319.82 106.617H309.234L308.662 97.2671H319.82V106.617Z" fill="#8D6030"/>
<path d="M319.82 97.267V82.3694H308.948L308.662 97.267H319.82Z" fill="#B58E3F"/>
<path d="M306.659 79.2722V104.187L306.073 103.05V79.8211L306.659 79.2722Z" fill="#8D5700"/>
<path d="M305.501 79.6055V103.501L304.929 102.422V80.1543L305.501 79.6055Z" fill="#8D5700"/>
<path d="M281.85 123.639C283.501 124.597 285.447 126.289 286.081 126.896C286.214 127.024 286.405 127.04 286.568 126.912C287.865 125.89 293.85 121.164 293.85 120.621C293.85 119.695 293.01 117.3 292.641 116.263C292.538 116.007 292.258 115.927 292.066 116.071L281.998 123.639" fill="#404040"/>
<path d="M266.35 126C287.061 126 303.85 109.658 303.85 89.5C303.85 69.3416 287.061 53 266.35 53C245.639 53 228.85 69.3416 228.85 89.5C228.85 109.658 245.639 126 266.35 126Z" fill="url(#paint7_radial_309_88)" stroke="#404040" stroke-miterlimit="10"/>
<path d="M300.396 74L296.85 76.1512L298.498 79L301.85 76.6453L300.396 74Z" fill="#3640EE"/>
<path d="M303.648 84L299.85 84.9744L300.422 90L303.85 88.6667L303.648 84Z" fill="#3640EE"/>
<path d="M295.627 66L290.85 68.5597L293.732 71L297.85 68.5L295.627 66Z" fill="#3640EE"/>
<path d="M286.098 64L279.85 74.096L282.919 76L288.85 65.824L286.098 64Z" fill="#3640EE"/>
<path d="M291.665 68L271.85 102.102L274.773 104L293.85 70.9987L291.665 68Z" fill="#3640EE"/>
<path d="M296.257 76L275.85 109.172L278.807 111L297.85 79.4877L296.257 76Z" fill="#3640EE"/>
<path d="M298.979 85L283.85 109.986L287.059 112L299.85 90.1533L298.979 85Z" fill="#3640EE"/>
<path d="M290.763 68L271.85 102.118L274.657 104L292.85 70.9987L290.763 68Z" fill="#0F6CF4"/>
<path d="M296.272 75L275.85 108.186L278.807 110L297.85 78.4892L296.272 75Z" fill="#0F6CF4"/>
<path d="M299.321 84L282.85 110.182L285.852 112L299.85 89.1173L299.321 84Z" fill="#0F6CF4"/>
<path d="M285.399 63L279.85 73.096L282.568 75L287.85 64.808L285.399 63Z" fill="#0F6CF4"/>
<path d="M294.933 66L290.85 68.2494L293.668 71L297.85 68.4163L294.933 66Z" fill="#0F6CF4"/>
<path d="M289.74 61L285.85 63.5597L288.197 66L291.85 63.2546L289.74 61Z" fill="#3640EE"/>
<path d="M289.05 60L284.85 62.9744L287.527 66L291.85 62.8421L289.05 60Z" fill="#0F6CF4"/>
<path d="M299.717 72L295.85 74.5836L297.614 78L300.85 75.6L299.717 72Z" fill="#0F6CF4"/>
<path d="M303.225 84L298.85 84.8616L299.548 89L303.85 87.8418L303.225 84Z" fill="#0F6CF4"/>
<path d="M276.35 117C281.597 117 285.85 112.971 285.85 108C285.85 103.029 281.597 99 276.35 99C271.103 99 266.85 103.029 266.85 108C266.85 112.971 271.103 117 276.35 117Z" fill="white" stroke="white" stroke-width="2.9446" stroke-miterlimit="10"/>
<path d="M267.35 123C285.299 123 299.85 108.449 299.85 90.5C299.85 72.5507 285.299 58 267.35 58C249.401 58 234.85 72.5507 234.85 90.5C234.85 108.449 249.401 123 267.35 123Z" stroke="white" stroke-width="2" stroke-miterlimit="10"/>
<path d="M260.445 87.8223L263.341 88.5957C263.341 88.5957 264.242 88.3379 264.402 87.8223C264.451 87.6594 264.402 85 264.402 85H266.767L266.831 87.8223C266.831 87.8223 267.33 88.46 267.7 88.46C268.07 88.46 270.933 87.4423 270.933 87.4423L271.85 89.1248L268.794 90.1425C268.794 90.1425 268.183 90.9159 268.343 91.1601C268.472 91.3636 270.467 93.3446 270.467 93.3446L268.794 94.6201L266.526 92.4356C266.526 92.4356 265.609 92.3134 265.464 92.5577C265.319 92.8019 263.646 95 263.646 95L261.652 93.8467L263.357 91.4858C263.357 91.4858 263.469 90.7123 263.099 90.4138C262.746 90.1289 259.85 89.7218 259.85 89.7218L260.445 87.8223Z" fill="black"/>
<g opacity="0.21">
<path d="M267.033 123.31C285.407 123.31 300.302 108.402 300.302 90.0115C300.302 71.6211 285.407 56.7126 267.033 56.7126C248.66 56.7126 233.765 71.6211 233.765 90.0115C233.765 108.402 248.66 123.31 267.033 123.31Z" fill="white"/>
<path d="M267.347 124.186C285.903 124.186 300.946 109.142 300.946 90.5846C300.946 72.0269 285.903 56.9829 267.347 56.9829C248.791 56.9829 233.749 72.0269 233.749 90.5846C233.749 109.142 248.791 124.186 267.347 124.186Z" stroke="black" stroke-width="0.5" stroke-miterlimit="9.9999"/>
</g>
<path d="M266.35 127C287.061 127 303.85 110.435 303.85 90C303.85 69.5655 287.061 53 266.35 53C245.639 53 228.85 69.5655 228.85 90C228.85 110.435 245.639 127 266.35 127Z" stroke="#404040" stroke-miterlimit="10"/>
<path d="M277.235 116.742C281.625 116.742 285.183 113.181 285.183 108.787C285.183 104.394 281.625 100.832 277.235 100.832C272.846 100.832 269.287 104.394 269.287 108.787C269.287 113.181 272.846 116.742 277.235 116.742Z" fill="black"/>
<path d="M277.342 100.832L277.007 116.758" stroke="white" stroke-width="1.8923" stroke-miterlimit="10"/>
<path d="M274.905 101.167L279.443 116.453" stroke="white" stroke-width="1.8923" stroke-miterlimit="10"/>
<path d="M281.681 115.386L272.499 102.026" stroke="white" stroke-width="1.8923" stroke-miterlimit="10"/>
<path d="M279.838 101.274L274.585 116.316" stroke="white" stroke-width="1.8923" stroke-miterlimit="10"/>
<path d="M282.062 102.478L272.363 115.096" stroke="white" stroke-width="1.8923" stroke-miterlimit="10"/>
<path d="M283.813 104.307L270.642 113.268" stroke="white" stroke-width="1.8923" stroke-miterlimit="10"/>
<path d="M284.878 106.608L269.576 110.982" stroke="white" stroke-width="1.8923" stroke-miterlimit="10"/>
<path d="M285.198 109.122L269.272 108.498" stroke="white" stroke-width="1.8923" stroke-miterlimit="10"/>
<path d="M284.681 111.622L269.76 106.09" stroke="white" stroke-width="1.8923" stroke-miterlimit="10"/>
<path d="M283.447 113.771L270.916 103.941" stroke="white" stroke-width="1.8923" stroke-miterlimit="10"/>
<path d="M277.235 115.737C281.069 115.737 284.178 112.625 284.178 108.787C284.178 104.949 281.069 101.838 277.235 101.838C273.4 101.838 270.292 104.949 270.292 108.787C270.292 112.625 273.4 115.737 277.235 115.737Z" fill="black"/>
<path d="M276.998 103.383C276.998 103.129 277.024 102.925 277.076 102.771C277.129 102.616 277.206 102.496 277.309 102.412C277.412 102.328 277.542 102.286 277.698 102.286C277.814 102.286 277.915 102.31 278.002 102.356C278.089 102.402 278.16 102.469 278.217 102.557C278.274 102.644 278.318 102.75 278.35 102.876C278.383 103.001 278.399 103.17 278.399 103.383C278.399 103.635 278.373 103.839 278.321 103.994C278.269 104.148 278.192 104.268 278.088 104.353C277.986 104.437 277.856 104.479 277.698 104.479C277.491 104.479 277.329 104.405 277.211 104.256C277.069 104.078 276.998 103.787 276.998 103.383ZM277.269 103.383C277.269 103.736 277.31 103.971 277.392 104.088C277.475 104.204 277.577 104.262 277.698 104.262C277.82 104.262 277.921 104.204 278.003 104.086C278.086 103.969 278.128 103.735 278.128 103.383C278.128 103.03 278.086 102.795 278.003 102.679C277.921 102.562 277.819 102.504 277.696 102.504C277.574 102.504 277.478 102.556 277.406 102.658C277.315 102.789 277.269 103.031 277.269 103.383Z" fill="white"/>
<path d="M280.392 105.739L280.185 105.576L281.225 104.256C281.137 104.264 281.034 104.26 280.915 104.243C280.798 104.227 280.697 104.206 280.614 104.179L280.772 103.979C280.93 104.015 281.083 104.029 281.231 104.02C281.379 104.011 281.499 103.984 281.593 103.94L281.726 104.045L280.392 105.739Z" fill="white"/>
<path d="M281.838 108.546L281.592 108.605L281.265 107.224C281.326 107.207 281.388 107.203 281.45 107.211C281.552 107.224 281.658 107.258 281.768 107.314C281.878 107.37 282.01 107.457 282.164 107.575C282.404 107.758 282.588 107.877 282.715 107.931C282.843 107.985 282.955 108 283.052 107.977C283.154 107.953 283.231 107.896 283.283 107.806C283.336 107.718 283.349 107.615 283.321 107.498C283.292 107.374 283.232 107.284 283.14 107.228C283.048 107.171 282.937 107.158 282.805 107.188L282.77 106.918C282.971 106.889 283.137 106.922 283.267 107.015C283.399 107.109 283.488 107.255 283.535 107.453C283.582 107.654 283.564 107.826 283.481 107.969C283.397 108.112 283.273 108.203 283.109 108.242C283.025 108.262 282.939 108.264 282.85 108.249C282.761 108.234 282.663 108.197 282.555 108.139C282.447 108.081 282.293 107.978 282.094 107.831C281.928 107.708 281.817 107.63 281.76 107.597C281.704 107.564 281.649 107.539 281.596 107.522L281.838 108.546Z" fill="white"/>
<path d="M281.831 110.192L281.772 110.452C281.622 110.428 281.503 110.439 281.415 110.483C281.329 110.529 281.267 110.601 281.231 110.699C281.188 110.816 281.192 110.929 281.243 111.038C281.294 111.149 281.379 111.226 281.498 111.27C281.611 111.312 281.718 111.31 281.819 111.263C281.921 111.216 281.993 111.135 282.035 111.021C282.052 110.974 282.065 110.912 282.072 110.836L282.279 110.944C282.271 110.96 282.265 110.973 282.262 110.983C282.223 111.088 282.215 111.193 282.239 111.298C282.263 111.402 282.332 111.476 282.446 111.518C282.537 111.552 282.623 111.549 282.705 111.51C282.788 111.47 282.847 111.402 282.883 111.305C282.918 111.209 282.918 111.118 282.881 111.031C282.844 110.945 282.769 110.87 282.655 110.807L282.79 110.576C282.945 110.667 283.047 110.783 283.098 110.924C283.15 111.065 283.147 111.215 283.088 111.375C283.047 111.485 282.986 111.577 282.904 111.652C282.823 111.727 282.733 111.774 282.634 111.792C282.534 111.812 282.438 111.804 282.347 111.77C282.26 111.738 282.189 111.685 282.135 111.612C282.081 111.539 282.05 111.449 282.041 111.342C281.97 111.451 281.878 111.522 281.767 111.556C281.657 111.59 281.536 111.583 281.406 111.534C281.23 111.469 281.105 111.35 281.03 111.176C280.955 111.003 280.954 110.818 281.027 110.622C281.092 110.445 281.199 110.318 281.348 110.24C281.496 110.162 281.657 110.147 281.831 110.192Z" fill="white"/>
<path d="M279.224 112.666L279.524 113.083L280.28 112.539L280.421 112.736L280.437 114.438L280.262 114.564L279.451 113.434L279.215 113.603L279.074 113.407L279.31 113.237L279.01 112.82L279.224 112.666ZM279.665 113.28L280.229 114.066L280.211 112.887L279.665 113.28Z" fill="white"/>
<path d="M277.42 113.593L277.144 113.616C277.123 113.481 277.076 113.38 277.001 113.312C276.926 113.244 276.836 113.21 276.73 113.21C276.604 113.21 276.496 113.258 276.408 113.354C276.32 113.45 276.276 113.577 276.276 113.735C276.276 113.885 276.319 114.004 276.404 114.091C276.488 114.178 276.598 114.221 276.735 114.221C276.82 114.221 276.896 114.202 276.965 114.163C277.033 114.125 277.087 114.075 277.126 114.013L277.374 114.045L277.166 115.148H276.098V114.896H276.955L277.07 114.319C276.941 114.409 276.806 114.454 276.665 114.454C276.477 114.454 276.319 114.389 276.19 114.259C276.061 114.129 275.997 113.962 275.997 113.758C275.997 113.564 276.053 113.396 276.167 113.254C276.304 113.081 276.492 112.994 276.73 112.994C276.926 112.994 277.085 113.048 277.209 113.158C277.333 113.267 277.403 113.412 277.42 113.593Z" fill="white"/>
<path d="M272.82 112.853L273.039 113C272.993 113.095 272.973 113.175 272.977 113.238C272.987 113.342 273.032 113.426 273.114 113.49C273.18 113.543 273.253 113.57 273.332 113.572C273.434 113.576 273.54 113.547 273.65 113.486C273.759 113.424 273.881 113.309 274.016 113.142C273.906 113.179 273.801 113.187 273.7 113.167C273.599 113.147 273.509 113.105 273.43 113.043C273.292 112.934 273.215 112.791 273.198 112.612C273.181 112.434 273.235 112.265 273.362 112.104C273.446 111.998 273.547 111.917 273.664 111.862C273.781 111.808 273.898 111.787 274.016 111.802C274.134 111.817 274.243 111.864 274.344 111.944C274.517 112.08 274.608 112.254 274.617 112.467C274.625 112.68 274.515 112.932 274.285 113.224C274.028 113.55 273.781 113.739 273.544 113.792C273.338 113.838 273.145 113.791 272.968 113.651C272.835 113.546 272.756 113.423 272.73 113.282C272.704 113.141 272.734 112.998 272.82 112.853ZM274.238 112.793C274.295 112.722 274.333 112.642 274.355 112.553C274.376 112.464 274.372 112.38 274.345 112.303C274.317 112.226 274.273 112.164 274.214 112.117C274.126 112.048 274.023 112.024 273.905 112.045C273.786 112.066 273.679 112.137 273.584 112.258C273.492 112.375 273.451 112.491 273.46 112.606C273.469 112.723 273.521 112.818 273.615 112.893C273.709 112.967 273.815 112.996 273.933 112.98C274.051 112.964 274.152 112.902 274.238 112.793Z" fill="white"/>
<path d="M271.389 110.73L271.145 110.798L270.772 109.459L270.97 109.404C271.146 109.496 271.369 109.575 271.638 109.64C271.906 109.704 272.172 109.737 272.438 109.739C272.625 109.742 272.823 109.721 273.033 109.678L273.106 109.939C272.943 109.981 272.737 110.004 272.49 110.007C272.242 110.011 271.996 109.985 271.751 109.931C271.504 109.876 271.29 109.805 271.107 109.717L271.389 110.73Z" fill="white"/>
<path d="M272.125 106.89C272.054 106.982 271.974 107.042 271.888 107.069C271.801 107.096 271.708 107.094 271.61 107.062C271.461 107.014 271.353 106.921 271.286 106.781C271.22 106.641 271.215 106.483 271.272 106.305C271.329 106.127 271.428 106 271.567 105.925C271.705 105.849 271.848 105.836 271.997 105.884C272.092 105.914 272.167 105.966 272.221 106.039C272.275 106.111 272.304 106.203 272.31 106.317C272.391 106.205 272.488 106.131 272.6 106.095C272.712 106.059 272.832 106.061 272.958 106.101C273.133 106.158 273.26 106.267 273.339 106.429C273.418 106.591 273.425 106.773 273.36 106.975C273.295 107.176 273.183 107.32 273.024 107.405C272.865 107.49 272.696 107.504 272.517 107.446C272.384 107.403 272.284 107.334 272.216 107.238C272.148 107.141 272.118 107.025 272.125 106.89ZM271.684 106.803C271.781 106.834 271.87 106.829 271.951 106.786C272.032 106.744 272.089 106.673 272.121 106.573C272.152 106.477 272.148 106.388 272.107 106.307C272.066 106.225 272.001 106.17 271.913 106.141C271.821 106.111 271.733 106.119 271.65 106.163C271.567 106.205 271.51 106.274 271.479 106.369C271.448 106.465 271.453 106.554 271.494 106.637C271.535 106.72 271.598 106.775 271.684 106.803ZM272.602 107.189C272.673 107.212 272.748 107.217 272.826 107.205C272.904 107.193 272.972 107.159 273.031 107.104C273.088 107.049 273.13 106.982 273.155 106.905C273.193 106.785 273.187 106.674 273.135 106.571C273.083 106.468 272.997 106.397 272.878 106.359C272.757 106.32 272.644 106.328 272.539 106.383C272.435 106.438 272.363 106.526 272.324 106.646C272.286 106.764 272.293 106.875 272.346 106.978C272.399 107.081 272.485 107.151 272.602 107.189Z" fill="white"/>
<path d="M274.222 104.939L274.419 104.777C274.503 104.863 274.586 104.912 274.666 104.922C274.746 104.933 274.826 104.911 274.904 104.858C274.971 104.813 275.019 104.757 275.048 104.693C275.079 104.627 275.092 104.558 275.09 104.485C275.087 104.412 275.067 104.324 275.03 104.222C274.993 104.12 274.943 104.023 274.882 103.933C274.875 103.923 274.865 103.909 274.851 103.89C274.855 103.989 274.833 104.086 274.787 104.182C274.741 104.275 274.674 104.352 274.586 104.412C274.439 104.512 274.278 104.543 274.104 104.506C273.93 104.468 273.784 104.362 273.665 104.187C273.543 104.007 273.497 103.826 273.529 103.644C273.561 103.462 273.657 103.317 273.817 103.208C273.932 103.129 274.059 103.089 274.196 103.086C274.335 103.083 274.468 103.123 274.595 103.205C274.723 103.286 274.861 103.435 275.009 103.653C275.163 103.88 275.261 104.078 275.304 104.247C275.345 104.414 275.341 104.567 275.291 104.703C275.242 104.839 275.152 104.952 275.021 105.041C274.882 105.135 274.742 105.174 274.602 105.157C274.462 105.139 274.335 105.066 274.222 104.939ZM274.583 103.548C274.499 103.422 274.398 103.346 274.281 103.318C274.165 103.289 274.06 103.307 273.966 103.37C273.869 103.436 273.811 103.533 273.793 103.661C273.775 103.789 273.809 103.916 273.894 104.042C273.971 104.156 274.067 104.225 274.183 104.25C274.3 104.273 274.408 104.251 274.508 104.183C274.609 104.115 274.668 104.023 274.685 103.909C274.702 103.793 274.668 103.673 274.583 103.548Z" fill="white"/>
<path d="M277.281 110.204C278.071 110.204 278.712 109.563 278.712 108.772C278.712 107.981 278.071 107.339 277.281 107.339C276.49 107.339 275.85 107.981 275.85 108.772C275.85 109.563 276.49 110.204 277.281 110.204Z" fill="#F03B2C"/>
<path d="M278.21 108.132L276.185 108.681L276.261 104.871L278.21 108.132Z" fill="#F03B2C"/>
<path d="M266.091 104.215H245.414V109.686H266.091V104.215Z" fill="white" stroke="black" stroke-width="0.3" stroke-miterlimit="10"/>
<path d="M265.208 104.215V109.321" stroke="black" stroke-width="0.2" stroke-miterlimit="10"/>
<path d="M264.416 104.215V109.229" stroke="black" stroke-width="0.2" stroke-miterlimit="10"/>
<path d="M263.503 104.215V109.229" stroke="black" stroke-width="0.2" stroke-miterlimit="10"/>
<path d="M262.345 104.215V109.229" stroke="black" stroke-width="0.2" stroke-miterlimit="10"/>
<path d="M261.264 104.215V109.321" stroke="black" stroke-width="0.2" stroke-miterlimit="10"/>
<path d="M259.772 104.215V109.229" stroke="black" stroke-width="0.2" stroke-miterlimit="10"/>
<path d="M258.387 104.215V109.229" stroke="black" stroke-width="0.2" stroke-miterlimit="10"/>
<path d="M256.681 104.215V109.229" stroke="black" stroke-width="0.2" stroke-miterlimit="10"/>
<path d="M254.9 104.215V109.366" stroke="black" stroke-width="0.2" stroke-miterlimit="10"/>
<path d="M253.332 104.215V109.229" stroke="black" stroke-width="0.2" stroke-miterlimit="10"/>
<path d="M251.185 104.215V109.229" stroke="black" stroke-width="0.2" stroke-miterlimit="10"/>
<path d="M249.631 104.215V109.321" stroke="black" stroke-width="0.2" stroke-miterlimit="10"/>
<path d="M247.79 104.215V109.321" stroke="black" stroke-width="0.2" stroke-miterlimit="10"/>
<path d="M246.632 104.215V109.229" stroke="black" stroke-width="0.2" stroke-miterlimit="10"/>
<path d="M250.515 104.215V109.321" stroke="black" stroke-width="0.2" stroke-miterlimit="10"/>
<path d="M260.168 104.169V109.168" stroke="black" stroke-width="0.2" stroke-miterlimit="10"/>
<path d="M260.548 104.169V109.168" stroke="black" stroke-width="0.2" stroke-miterlimit="10"/>
<path d="M259.224 104.169V109.168" stroke="black" stroke-width="0.2" stroke-miterlimit="10"/>
<path d="M261.858 104.292V109.29" stroke="black" stroke-width="0.2" stroke-miterlimit="10"/>
<path d="M262.771 104.292V109.29" stroke="black" stroke-width="0.2" stroke-miterlimit="10"/>
<path d="M264.158 104.292V109.29" stroke="black" stroke-width="0.2" stroke-miterlimit="10"/>
<path d="M264.827 104.292V109.29" stroke="black" stroke-width="0.2" stroke-miterlimit="10"/>
<path d="M265.619 104.292V109.29" stroke="black" stroke-width="0.2" stroke-miterlimit="10"/>
<path d="M256.225 104.169V109.183" stroke="black" stroke-width="0.2" stroke-miterlimit="10"/>
<path d="M256.62 104.23V109.244" stroke="black" stroke-width="0.2" stroke-miterlimit="10"/>
<path d="M257.016 104.23V109.244" stroke="black" stroke-width="0.2" stroke-miterlimit="10"/>
<path d="M255.677 104.23V109.244" stroke="black" stroke-width="0.2" stroke-miterlimit="10"/>
<path d="M253.378 104.23V109.244" stroke="black" stroke-width="0.2" stroke-miterlimit="10"/>
<path d="M253.758 104.185V109.199" stroke="black" stroke-width="0.2" stroke-miterlimit="10"/>
<path d="M254.169 104.185V109.199" stroke="black" stroke-width="0.2" stroke-miterlimit="10"/>
<path d="M252.829 104.185V109.199" stroke="black" stroke-width="0.2" stroke-miterlimit="10"/>
<path d="M251.976 104.246V109.259" stroke="black" stroke-width="0.2" stroke-miterlimit="10"/>
<path d="M252.372 104.185V109.199" stroke="black" stroke-width="0.2" stroke-miterlimit="10"/>
<path d="M252.753 104.185V109.199" stroke="black" stroke-width="0.2" stroke-miterlimit="10"/>
<path d="M251.428 104.185V109.199" stroke="black" stroke-width="0.2" stroke-miterlimit="10"/>
<path d="M247.774 104.291V109.29" stroke="black" stroke-width="0.2" stroke-miterlimit="10"/>
<path d="M248.155 104.215V109.229" stroke="black" stroke-width="0.2" stroke-miterlimit="10"/>
<path d="M248.551 104.215V109.229" stroke="black" stroke-width="0.2" stroke-miterlimit="10"/>
<path d="M247.363 104.215V109.229" stroke="black" stroke-width="0.2" stroke-miterlimit="10"/>
<path d="M265.893 108.955H245.612V109.488H265.893V108.955Z" fill="white" stroke="white" stroke-width="0.8702" stroke-miterlimit="10"/>
<path d="M289.232 72.1353H244.147V80.5019H289.232V72.1353Z" fill="white" stroke="black" stroke-width="0.2366" stroke-miterlimit="10"/>
<path opacity="0.38" d="M249.264 72.7144H244.437V79.9685H249.264V72.7144Z" fill="white" stroke="black" stroke-width="0.2476" stroke-miterlimit="10"/>
<path opacity="0.38" d="M254.989 72.7144H250.163V79.9685H254.989V72.7144Z" fill="white" stroke="black" stroke-width="0.2476" stroke-miterlimit="10"/>
<path opacity="0.38" d="M260.577 72.7144H255.75V79.9685H260.577V72.7144Z" fill="white" stroke="black" stroke-width="0.2476" stroke-miterlimit="10"/>
<path opacity="0.38" d="M266.302 72.7144H261.476V79.9685H266.302V72.7144Z" fill="white" stroke="black" stroke-width="0.2476" stroke-miterlimit="10"/>
<path opacity="0.38" d="M272.027 72.7144H267.2V79.9685H272.027V72.7144Z" fill="white" stroke="black" stroke-width="0.2476" stroke-miterlimit="10"/>
<path opacity="0.38" d="M277.752 72.7144H272.925V79.9685H277.752V72.7144Z" fill="white" stroke="black" stroke-width="0.2476" stroke-miterlimit="10"/>
<path opacity="0.38" d="M283.355 72.7144H278.528V79.9685H283.355V72.7144Z" fill="white" stroke="black" stroke-width="0.2476" stroke-miterlimit="10"/>
<path opacity="0.38" d="M289.065 72.7144H284.238V79.9685H289.065V72.7144Z" fill="white" stroke="black" stroke-width="0.2476" stroke-miterlimit="10"/>
<path d="M245.01 76.0659C245.01 75.5581 245.062 75.1499 245.165 74.8413C245.271 74.5308 245.426 74.2915 245.631 74.1235C245.838 73.9556 246.098 73.8716 246.41 73.8716C246.641 73.8716 246.843 73.9185 247.017 74.0122C247.191 74.104 247.334 74.2378 247.448 74.4136C247.561 74.5874 247.65 74.8003 247.714 75.0522C247.779 75.3022 247.811 75.6401 247.811 76.0659C247.811 76.5698 247.759 76.9771 247.656 77.2876C247.552 77.5962 247.397 77.8354 247.19 78.0054C246.985 78.1733 246.725 78.2573 246.41 78.2573C245.996 78.2573 245.671 78.1089 245.435 77.812C245.152 77.4546 245.01 76.8726 245.01 76.0659ZM245.552 76.0659C245.552 76.771 245.634 77.2407 245.798 77.4751C245.964 77.7075 246.168 77.8237 246.41 77.8237C246.653 77.8237 246.856 77.7065 247.02 77.4722C247.186 77.2378 247.269 76.769 247.269 76.0659C247.269 75.3589 247.186 74.8892 247.02 74.6567C246.856 74.4243 246.651 74.3081 246.405 74.3081C246.162 74.3081 245.969 74.4106 245.824 74.6157C245.643 74.8774 245.552 75.3608 245.552 76.0659Z" fill="black"/>
<path d="M250.746 76.094C250.746 75.5862 250.797 75.178 250.901 74.8694C251.006 74.5588 251.162 74.3196 251.367 74.1516C251.574 73.9836 251.833 73.8997 252.146 73.8997C252.376 73.8997 252.579 73.9465 252.752 74.0403C252.926 74.1321 253.07 74.2659 253.183 74.4417C253.296 74.6155 253.385 74.8284 253.45 75.0803C253.514 75.3303 253.546 75.6682 253.546 76.094C253.546 76.5979 253.495 77.0051 253.391 77.3157C253.288 77.6243 253.132 77.8635 252.925 78.0334C252.72 78.2014 252.46 78.2854 252.146 78.2854C251.732 78.2854 251.407 78.137 251.17 77.8401C250.887 77.4827 250.746 76.9006 250.746 76.094ZM251.288 76.094C251.288 76.7991 251.37 77.2688 251.534 77.5032C251.7 77.7356 251.904 77.8518 252.146 77.8518C252.388 77.8518 252.591 77.7346 252.755 77.5002C252.921 77.2659 253.004 76.7971 253.004 76.094C253.004 75.387 252.921 74.9172 252.755 74.6848C252.591 74.4524 252.386 74.3362 252.14 74.3362C251.898 74.3362 251.705 74.4387 251.56 74.6438C251.378 74.9055 251.288 75.3889 251.288 76.094Z" fill="black"/>
<path d="M256.53 76.0906C256.53 75.5828 256.582 75.1746 256.686 74.866C256.791 74.5554 256.946 74.3162 257.151 74.1482C257.358 73.9802 257.618 73.8962 257.931 73.8962C258.161 73.8962 258.363 73.9431 258.537 74.0369C258.711 74.1287 258.854 74.2625 258.968 74.4382C259.081 74.6121 259.17 74.825 259.234 75.0769C259.299 75.3269 259.331 75.6648 259.331 76.0906C259.331 76.5945 259.279 77.0017 259.176 77.3123C259.072 77.6208 258.917 77.8601 258.71 78.03C258.505 78.198 258.245 78.282 257.931 78.282C257.517 78.282 257.191 78.1335 256.955 77.8367C256.672 77.4792 256.53 76.8972 256.53 76.0906ZM257.072 76.0906C257.072 76.7957 257.154 77.2654 257.318 77.4998C257.484 77.7322 257.688 77.8484 257.931 77.8484C258.173 77.8484 258.376 77.7312 258.54 77.4968C258.706 77.2625 258.789 76.7937 258.789 76.0906C258.789 75.3835 258.706 74.9138 258.54 74.6814C258.376 74.449 258.171 74.3328 257.925 74.3328C257.683 74.3328 257.489 74.4353 257.345 74.6404C257.163 74.9021 257.072 75.3855 257.072 76.0906Z" fill="black"/>
<path d="M262.406 76.0576C262.406 75.5498 262.458 75.1416 262.561 74.833C262.667 74.5225 262.822 74.2832 263.027 74.1152C263.234 73.9473 263.494 73.8633 263.806 73.8633C264.037 73.8633 264.239 73.9102 264.413 74.0039C264.586 74.0957 264.73 74.2295 264.843 74.4053C264.957 74.5791 265.045 74.792 265.11 75.0439C265.174 75.2939 265.207 75.6318 265.207 76.0576C265.207 76.5615 265.155 76.9688 265.051 77.2793C264.948 77.5879 264.792 77.8271 264.585 77.9971C264.38 78.165 264.121 78.249 263.806 78.249C263.392 78.249 263.067 78.1006 262.831 77.8037C262.547 77.4463 262.406 76.8643 262.406 76.0576ZM262.948 76.0576C262.948 76.7627 263.03 77.2324 263.194 77.4668C263.36 77.6992 263.564 77.8154 263.806 77.8154C264.048 77.8154 264.251 77.6982 264.416 77.4639C264.582 77.2295 264.665 76.7607 264.665 76.0576C264.665 75.3506 264.582 74.8809 264.416 74.6484C264.251 74.416 264.046 74.2998 263.8 74.2998C263.558 74.2998 263.365 74.4023 263.22 74.6074C263.039 74.8691 262.948 75.3525 262.948 76.0576Z" fill="black"/>
<path d="M267.986 76.0576C267.986 75.5498 268.037 75.1416 268.141 74.833C268.246 74.5225 268.402 74.2832 268.607 74.1152C268.814 73.9473 269.073 73.8633 269.386 73.8633C269.616 73.8633 269.819 73.9102 269.992 74.0039C270.166 74.0957 270.31 74.2295 270.423 74.4053C270.536 74.5791 270.625 74.792 270.69 75.0439C270.754 75.2939 270.786 75.6318 270.786 76.0576C270.786 76.5615 270.735 76.9688 270.631 77.2793C270.528 77.5879 270.372 77.8271 270.165 77.9971C269.96 78.165 269.7 78.249 269.386 78.249C268.972 78.249 268.647 78.1006 268.41 77.8037C268.127 77.4463 267.986 76.8643 267.986 76.0576ZM268.528 76.0576C268.528 76.7627 268.61 77.2324 268.774 77.4668C268.94 77.6992 269.144 77.8154 269.386 77.8154C269.628 77.8154 269.831 77.6982 269.995 77.4639C270.161 77.2295 270.244 76.7607 270.244 76.0576C270.244 75.3506 270.161 74.8809 269.995 74.6484C269.831 74.416 269.626 74.2998 269.38 74.2998C269.138 74.2998 268.945 74.4023 268.8 74.6074C268.618 74.8691 268.528 75.3525 268.528 76.0576Z" fill="black"/>
<path d="M273.762 75.9531C273.762 75.4453 273.814 75.0371 273.917 74.7285C274.023 74.418 274.178 74.1787 274.383 74.0107C274.59 73.8428 274.85 73.7588 275.163 73.7588C275.393 73.7588 275.595 73.8057 275.769 73.8994C275.943 73.9912 276.086 74.125 276.2 74.3008C276.313 74.4746 276.402 74.6875 276.466 74.9395C276.531 75.1895 276.563 75.5273 276.563 75.9531C276.563 76.457 276.511 76.8643 276.408 77.1748C276.304 77.4834 276.149 77.7227 275.942 77.8926C275.737 78.0605 275.477 78.1445 275.163 78.1445C274.749 78.1445 274.423 77.9961 274.187 77.6992C273.904 77.3418 273.762 76.7598 273.762 75.9531ZM274.304 75.9531C274.304 76.6582 274.386 77.1279 274.55 77.3623C274.716 77.5947 274.92 77.7109 275.163 77.7109C275.405 77.7109 275.608 77.5938 275.772 77.3594C275.938 77.125 276.021 76.6562 276.021 75.9531C276.021 75.2461 275.938 74.7764 275.772 74.5439C275.608 74.3115 275.403 74.1953 275.157 74.1953C274.915 74.1953 274.721 74.2979 274.577 74.5029C274.395 74.7646 274.304 75.248 274.304 75.9531Z" fill="#D53847"/>
<path d="M282.08 74.8281L281.555 74.8691C281.509 74.6621 281.442 74.5117 281.356 74.418C281.214 74.2676 281.038 74.1924 280.829 74.1924C280.661 74.1924 280.513 74.2393 280.386 74.333C280.22 74.4541 280.09 74.6309 279.994 74.8633C279.898 75.0957 279.848 75.4268 279.844 75.8564C279.971 75.6631 280.127 75.5195 280.31 75.4258C280.494 75.332 280.686 75.2852 280.887 75.2852C281.239 75.2852 281.538 75.415 281.784 75.6748C282.032 75.9326 282.156 76.2666 282.156 76.6768C282.156 76.9463 282.097 77.1973 281.98 77.4297C281.865 77.6602 281.706 77.8369 281.503 77.96C281.3 78.083 281.069 78.1445 280.811 78.1445C280.372 78.1445 280.013 77.9834 279.736 77.6611C279.459 77.3369 279.32 76.8037 279.32 76.0615C279.32 75.2314 279.473 74.6279 279.78 74.251C280.048 73.9229 280.408 73.7588 280.861 73.7588C281.199 73.7588 281.475 73.8535 281.69 74.043C281.907 74.2324 282.037 74.4941 282.08 74.8281ZM279.927 76.6797C279.927 76.8613 279.965 77.0352 280.041 77.2012C280.119 77.3672 280.227 77.4941 280.366 77.582C280.505 77.668 280.65 77.7109 280.802 77.7109C281.025 77.7109 281.217 77.6211 281.377 77.4414C281.537 77.2617 281.617 77.0176 281.617 76.709C281.617 76.4121 281.538 76.1787 281.38 76.0088C281.221 75.8369 281.022 75.751 280.782 75.751C280.544 75.751 280.342 75.8369 280.176 76.0088C280.01 76.1787 279.927 76.4023 279.927 76.6797Z" fill="#D53847"/>
<path d="M287.793 77.6396V78.1465H284.954C284.95 78.0195 284.971 77.8975 285.016 77.7803C285.088 77.5869 285.203 77.3965 285.362 77.209C285.522 77.0215 285.752 76.8047 286.053 76.5586C286.52 76.1758 286.835 75.873 286.999 75.6504C287.163 75.4258 287.245 75.2139 287.245 75.0146C287.245 74.8057 287.17 74.6299 287.02 74.4873C286.871 74.3428 286.677 74.2705 286.437 74.2705C286.183 74.2705 285.98 74.3467 285.827 74.499C285.675 74.6514 285.598 74.8623 285.596 75.1318L285.054 75.0762C285.091 74.6719 285.231 74.3643 285.473 74.1533C285.715 73.9404 286.04 73.834 286.448 73.834C286.861 73.834 287.187 73.9482 287.427 74.1768C287.667 74.4053 287.787 74.6885 287.787 75.0264C287.787 75.1982 287.752 75.3672 287.682 75.5332C287.612 75.6992 287.494 75.874 287.33 76.0576C287.168 76.2412 286.898 76.4932 286.519 76.8135C286.202 77.0791 285.999 77.2598 285.909 77.3555C285.82 77.4492 285.745 77.5439 285.687 77.6396H287.793Z" fill="#D53847"/>
<path d="M246.368 85.6699L246.747 85.7656C246.667 86.0768 246.524 86.3145 246.317 86.4785C246.111 86.6413 245.859 86.7227 245.561 86.7227C245.253 86.7227 245.001 86.6602 244.807 86.5352C244.615 86.4089 244.468 86.2266 244.366 85.9883C244.266 85.75 244.216 85.4941 244.216 85.2207C244.216 84.9225 244.272 84.6628 244.385 84.4414C244.5 84.2188 244.662 84.0501 244.872 83.9355C245.083 83.8197 245.315 83.7617 245.567 83.7617C245.854 83.7617 246.094 83.8346 246.29 83.9805C246.485 84.1263 246.621 84.3314 246.698 84.5957L246.325 84.6836C246.259 84.4753 246.162 84.3236 246.036 84.2285C245.91 84.1335 245.751 84.0859 245.559 84.0859C245.339 84.0859 245.155 84.1387 245.007 84.2441C244.859 84.3496 244.756 84.4915 244.696 84.6699C244.636 84.847 244.606 85.0299 244.606 85.2188C244.606 85.4622 244.641 85.6751 244.712 85.8574C244.783 86.0384 244.894 86.1738 245.044 86.2637C245.193 86.3535 245.356 86.3984 245.53 86.3984C245.742 86.3984 245.922 86.3372 246.069 86.2148C246.216 86.0924 246.316 85.9108 246.368 85.6699ZM247.2 86.6738V83.8105H248.274C248.493 83.8105 248.668 83.8398 248.8 83.8984C248.932 83.9557 249.036 84.0449 249.11 84.166C249.186 84.2858 249.223 84.4115 249.223 84.543C249.223 84.6654 249.19 84.7806 249.124 84.8887C249.057 84.9967 248.957 85.084 248.823 85.1504C248.996 85.2012 249.129 85.2878 249.221 85.4102C249.315 85.5326 249.362 85.6771 249.362 85.8438C249.362 85.9779 249.333 86.1029 249.276 86.2188C249.22 86.3333 249.15 86.4219 249.067 86.4844C248.984 86.5469 248.879 86.5944 248.753 86.627C248.628 86.6582 248.474 86.6738 248.292 86.6738H247.2ZM247.579 85.0137H248.198C248.366 85.0137 248.486 85.0026 248.559 84.9805C248.656 84.9518 248.728 84.9043 248.776 84.8379C248.826 84.7715 248.85 84.6882 248.85 84.5879C248.85 84.4928 248.828 84.4095 248.782 84.3379C248.736 84.265 248.671 84.2155 248.587 84.1895C248.502 84.1621 248.357 84.1484 248.151 84.1484H247.579V85.0137ZM247.579 86.3359H248.292C248.414 86.3359 248.5 86.3314 248.55 86.3223C248.637 86.3066 248.71 86.2806 248.768 86.2441C248.827 86.2077 248.875 86.1549 248.913 86.0859C248.951 86.0156 248.969 85.9349 248.969 85.8438C248.969 85.737 248.942 85.6445 248.887 85.5664C248.833 85.487 248.757 85.4316 248.659 85.4004C248.563 85.3678 248.423 85.3516 248.241 85.3516H247.579V86.3359ZM249.889 83.8105H250.268V85.0645C250.441 85.0645 250.563 85.0312 250.634 84.9648C250.704 84.8971 250.794 84.7357 250.903 84.4805C250.983 84.293 251.048 84.1608 251.098 84.084C251.15 84.0059 251.224 83.9408 251.319 83.8887C251.414 83.8353 251.519 83.8086 251.634 83.8086C251.779 83.8086 251.856 83.8099 251.864 83.8125V84.1406C251.851 84.1406 251.826 84.14 251.788 84.1387C251.746 84.1374 251.721 84.1367 251.712 84.1367C251.591 84.1367 251.501 84.166 251.442 84.2246C251.382 84.2832 251.314 84.4082 251.237 84.5996C251.141 84.8418 251.059 84.9948 250.993 85.0586C250.927 85.1211 250.847 85.1712 250.755 85.209C250.94 85.2598 251.122 85.4303 251.302 85.7207L251.891 86.6738H251.421L250.942 85.8965C250.811 85.6816 250.701 85.5345 250.612 85.4551C250.524 85.3743 250.409 85.334 250.268 85.334V86.6738H249.889V83.8105ZM253.147 85.8145V85.4609H254.227V85.8145H253.147ZM256.956 86.6738H256.604V84.4336C256.52 84.5143 256.408 84.5951 256.27 84.6758C256.134 84.7565 256.01 84.8171 255.901 84.8574V84.5176C256.098 84.4251 256.27 84.3132 256.417 84.1816C256.564 84.0501 256.668 83.9225 256.729 83.7988H256.956V86.6738ZM257.858 85.9238L258.227 85.8926C258.255 86.0723 258.318 86.2077 258.417 86.2988C258.517 86.3887 258.637 86.4336 258.778 86.4336C258.947 86.4336 259.091 86.3698 259.208 86.2422C259.325 86.1146 259.384 85.9453 259.384 85.7344C259.384 85.5339 259.327 85.3757 259.214 85.2598C259.102 85.1439 258.955 85.0859 258.772 85.0859C258.659 85.0859 258.557 85.112 258.466 85.1641C258.374 85.2148 258.303 85.2812 258.251 85.3633L257.921 85.3203L258.198 83.8496H259.622V84.1855H258.479L258.325 84.9551C258.497 84.8353 258.677 84.7754 258.866 84.7754C259.116 84.7754 259.327 84.862 259.499 85.0352C259.671 85.2083 259.757 85.431 259.757 85.7031C259.757 85.9622 259.681 86.1862 259.53 86.375C259.346 86.6068 259.096 86.7227 258.778 86.7227C258.518 86.7227 258.305 86.6497 258.139 86.5039C257.975 86.3581 257.882 86.1647 257.858 85.9238ZM260.233 83.8105H262.085V84.1484H260.612V86.6738H260.233V83.8105Z" fill="#F03B2C"/>
<path d="M244.235 90.5325L244.573 90.5012C244.602 90.6601 244.656 90.7753 244.737 90.8469C244.818 90.9185 244.921 90.9543 245.048 90.9543C245.156 90.9543 245.25 90.9296 245.331 90.8801C245.413 90.8306 245.48 90.7649 245.532 90.6829C245.584 90.5995 245.628 90.4875 245.663 90.3469C245.698 90.2063 245.716 90.0631 245.716 89.9172C245.716 89.9016 245.715 89.8782 245.714 89.8469C245.643 89.9589 245.547 90.05 245.425 90.1204C245.303 90.1894 245.172 90.2239 245.03 90.2239C244.793 90.2239 244.593 90.1379 244.428 89.9661C244.264 89.7942 244.182 89.5676 244.182 89.2864C244.182 88.996 244.268 88.7623 244.438 88.5852C244.61 88.4081 244.825 88.3196 245.083 88.3196C245.269 88.3196 245.439 88.3697 245.593 88.47C245.747 88.5702 245.865 88.7135 245.944 88.8997C246.025 89.0846 246.065 89.3528 246.065 89.7043C246.065 90.0702 246.025 90.3619 245.946 90.5793C245.867 90.7955 245.748 90.9602 245.591 91.0735C245.434 91.1868 245.251 91.2434 245.04 91.2434C244.816 91.2434 244.633 91.1816 244.491 91.0579C244.349 90.9329 244.264 90.7577 244.235 90.5325ZM245.675 89.2688C245.675 89.067 245.621 88.9068 245.512 88.7883C245.406 88.6698 245.277 88.6106 245.126 88.6106C244.969 88.6106 244.833 88.6744 244.718 88.802C244.602 88.9296 244.544 89.095 244.544 89.2981C244.544 89.4804 244.598 89.6288 244.708 89.7434C244.818 89.8567 244.955 89.9133 245.116 89.9133C245.279 89.9133 245.412 89.8567 245.516 89.7434C245.622 89.6288 245.675 89.4706 245.675 89.2688ZM246.409 89.7825C246.409 89.4439 246.443 89.1718 246.512 88.9661C246.583 88.759 246.686 88.5995 246.823 88.4875C246.961 88.3756 247.134 88.3196 247.343 88.3196C247.496 88.3196 247.631 88.3508 247.747 88.4133C247.863 88.4745 247.958 88.5637 248.034 88.6809C248.109 88.7968 248.169 88.9387 248.212 89.1067C248.255 89.2734 248.276 89.4986 248.276 89.7825C248.276 90.1184 248.242 90.3899 248.173 90.5969C248.104 90.8027 248 90.9622 247.862 91.0754C247.725 91.1874 247.552 91.2434 247.343 91.2434C247.066 91.2434 246.85 91.1444 246.692 90.9465C246.503 90.7083 246.409 90.3202 246.409 89.7825ZM246.77 89.7825C246.77 90.2525 246.825 90.5657 246.934 90.7219C247.045 90.8769 247.181 90.9543 247.343 90.9543C247.504 90.9543 247.639 90.8762 247.749 90.72C247.859 90.5637 247.915 90.2512 247.915 89.7825C247.915 89.3111 247.859 88.998 247.749 88.843C247.639 88.6881 247.503 88.6106 247.339 88.6106C247.177 88.6106 247.048 88.679 246.952 88.8157C246.831 88.9902 246.77 89.3124 246.77 89.7825ZM248.719 88.8235C248.719 88.6737 248.772 88.5461 248.878 88.4407C248.984 88.3352 249.112 88.2825 249.26 88.2825C249.412 88.2825 249.54 88.3352 249.645 88.4407C249.751 88.5461 249.803 88.6737 249.803 88.8235C249.803 88.9732 249.75 89.1015 249.643 89.2083C249.538 89.3137 249.41 89.3665 249.26 89.3665C249.112 89.3665 248.984 89.3137 248.878 89.2083C248.772 89.1028 248.719 88.9745 248.719 88.8235ZM248.932 88.8235C248.932 88.9146 248.964 88.9928 249.028 89.0579C249.093 89.1217 249.171 89.1536 249.262 89.1536C249.352 89.1536 249.429 89.1217 249.493 89.0579C249.558 88.9928 249.591 88.9146 249.591 88.8235C249.591 88.7323 249.558 88.6549 249.493 88.5911C249.429 88.526 249.352 88.4934 249.262 88.4934C249.171 88.4934 249.093 88.526 249.028 88.5911C248.964 88.6549 248.932 88.7323 248.932 88.8235ZM252.423 90.1907L252.802 90.2864C252.722 90.5976 252.579 90.8352 252.372 90.9993C252.166 91.162 251.914 91.2434 251.616 91.2434C251.307 91.2434 251.056 91.1809 250.862 91.0559C250.669 90.9296 250.522 90.7473 250.421 90.509C250.32 90.2708 250.27 90.0149 250.27 89.7415C250.27 89.4433 250.327 89.1835 250.44 88.9622C250.555 88.7395 250.717 88.5709 250.927 88.4563C251.137 88.3404 251.369 88.2825 251.622 88.2825C251.908 88.2825 252.149 88.3554 252.344 88.5012C252.54 88.6471 252.676 88.8521 252.753 89.1165L252.38 89.2043C252.313 88.996 252.217 88.8443 252.091 88.7493C251.964 88.6542 251.805 88.6067 251.614 88.6067C251.394 88.6067 251.21 88.6594 251.061 88.7649C250.914 88.8704 250.811 89.0123 250.751 89.1907C250.691 89.3678 250.661 89.5507 250.661 89.7395C250.661 89.983 250.696 90.1959 250.766 90.3782C250.838 90.5592 250.949 90.6946 251.098 90.7844C251.248 90.8743 251.41 90.9192 251.585 90.9192C251.797 90.9192 251.977 90.858 252.124 90.7356C252.271 90.6132 252.371 90.4316 252.423 90.1907Z" fill="#F03B2C"/>
<path d="M245.507 95.5413H245.155V93.301C245.07 93.3818 244.959 93.4625 244.821 93.5432C244.684 93.6239 244.561 93.6845 244.452 93.7249V93.385C244.649 93.2926 244.82 93.1806 244.968 93.0491C245.115 92.9176 245.219 92.79 245.28 92.6663H245.507V95.5413ZM246.598 95.5413V95.1409H246.999V95.5413C246.999 95.6884 246.973 95.8069 246.921 95.8967C246.869 95.9879 246.786 96.0582 246.673 96.1077L246.575 95.9573C246.649 95.9247 246.704 95.8765 246.739 95.8127C246.774 95.7502 246.794 95.6597 246.798 95.5413H246.598ZM249.346 93.3792L248.997 93.4065C248.966 93.2685 248.921 93.1682 248.864 93.1057C248.769 93.0055 248.652 92.9553 248.512 92.9553C248.4 92.9553 248.302 92.9866 248.218 93.0491C248.107 93.1298 248.02 93.2476 247.956 93.4026C247.892 93.5575 247.859 93.7782 247.856 94.0647C247.941 93.9358 248.044 93.8401 248.167 93.7776C248.289 93.7151 248.417 93.6838 248.552 93.6838C248.786 93.6838 248.985 93.7704 249.149 93.9436C249.315 94.1155 249.397 94.3381 249.397 94.6116C249.397 94.7913 249.358 94.9586 249.28 95.1135C249.203 95.2672 249.097 95.385 248.962 95.467C248.826 95.5491 248.673 95.5901 248.501 95.5901C248.208 95.5901 247.969 95.4827 247.784 95.2678C247.599 95.0517 247.507 94.6962 247.507 94.2014C247.507 93.648 247.609 93.2457 247.813 92.9944C247.992 92.7756 248.232 92.6663 248.534 92.6663C248.759 92.6663 248.943 92.7294 249.087 92.8557C249.231 92.982 249.318 93.1565 249.346 93.3792ZM247.911 94.6135C247.911 94.7346 247.936 94.8505 247.987 94.9612C248.039 95.0719 248.111 95.1565 248.204 95.2151C248.296 95.2724 248.393 95.301 248.495 95.301C248.643 95.301 248.771 95.2411 248.878 95.1213C248.984 95.0015 249.038 94.8388 249.038 94.6331C249.038 94.4351 248.985 94.2795 248.88 94.1663C248.774 94.0517 248.641 93.9944 248.481 93.9944C248.322 93.9944 248.188 94.0517 248.077 94.1663C247.966 94.2795 247.911 94.4286 247.911 94.6135ZM250.993 95.5413V92.678H251.563L252.241 94.7053C252.303 94.8941 252.349 95.0354 252.378 95.1292C252.41 95.025 252.461 94.872 252.53 94.6702L253.216 92.678H253.725V95.5413H253.36V93.1448L252.528 95.5413H252.186L251.358 93.1038V95.5413H250.993ZM254.337 95.5413V92.678H255.417C255.607 92.678 255.752 92.6871 255.852 92.7053C255.993 92.7288 256.111 92.7737 256.206 92.8401C256.301 92.9052 256.377 92.997 256.434 93.1155C256.493 93.234 256.522 93.3642 256.522 93.5061C256.522 93.7496 256.445 93.956 256.29 94.1252C256.135 94.2932 255.855 94.3772 255.45 94.3772H254.716V95.5413H254.337ZM254.716 94.0393H255.456C255.701 94.0393 255.874 93.9937 255.977 93.9026C256.08 93.8114 256.132 93.6832 256.132 93.5178C256.132 93.398 256.101 93.2958 256.04 93.2112C255.98 93.1252 255.9 93.0686 255.802 93.0413C255.738 93.0243 255.62 93.0159 255.448 93.0159H254.716V94.0393ZM258.313 95.2854C258.183 95.3961 258.057 95.4742 257.936 95.5198C257.816 95.5653 257.688 95.5881 257.55 95.5881C257.322 95.5881 257.147 95.5328 257.024 95.4221C256.902 95.3101 256.841 95.1676 256.841 94.9944C256.841 94.8928 256.863 94.8004 256.909 94.717C256.956 94.6324 257.016 94.5647 257.091 94.5139C257.166 94.4631 257.251 94.4247 257.344 94.3987C257.413 94.3805 257.518 94.3629 257.657 94.3459C257.941 94.3121 258.15 94.2717 258.284 94.2249C258.285 94.1767 258.286 94.1461 258.286 94.1331C258.286 93.9898 258.253 93.8889 258.186 93.8303C258.096 93.7509 257.963 93.7112 257.786 93.7112C257.621 93.7112 257.498 93.7405 257.419 93.7991C257.341 93.8564 257.283 93.9586 257.245 94.1057L256.901 94.0588C256.932 93.9117 256.984 93.7932 257.055 93.7034C257.127 93.6122 257.231 93.5426 257.366 93.4944C257.501 93.4449 257.658 93.4202 257.837 93.4202C258.014 93.4202 258.158 93.441 258.268 93.4827C258.379 93.5243 258.46 93.5771 258.512 93.6409C258.565 93.7034 258.601 93.7828 258.622 93.8792C258.634 93.939 258.639 94.0471 258.639 94.2034V94.6721C258.639 94.9989 258.647 95.206 258.661 95.2932C258.677 95.3792 258.706 95.4618 258.751 95.5413H258.384C258.347 95.4683 258.324 95.3831 258.313 95.2854ZM258.284 94.5002C258.156 94.5523 257.965 94.5966 257.71 94.6331C257.565 94.6539 257.463 94.6773 257.403 94.7034C257.343 94.7294 257.297 94.7678 257.264 94.8186C257.232 94.8681 257.216 94.9234 257.216 94.9846C257.216 95.0784 257.251 95.1565 257.321 95.219C257.393 95.2815 257.497 95.3127 257.634 95.3127C257.769 95.3127 257.889 95.2834 257.995 95.2249C258.1 95.165 258.178 95.0836 258.227 94.9807C258.265 94.9013 258.284 94.7841 258.284 94.6292V94.5002Z" fill="black"/>
<path d="M244.309 99.8879V97.0247H245.384C245.602 97.0247 245.777 97.054 245.909 97.1125C246.042 97.1698 246.145 97.259 246.219 97.3801C246.295 97.4999 246.333 97.6256 246.333 97.7571C246.333 97.8795 246.3 97.9947 246.233 98.1028C246.167 98.2109 246.066 98.2981 245.932 98.3645C246.106 98.4153 246.238 98.5019 246.331 98.6243C246.425 98.7467 246.471 98.8912 246.471 99.0579C246.471 99.192 246.443 99.317 246.385 99.4329C246.33 99.5474 246.26 99.636 246.177 99.6985C246.093 99.761 245.988 99.8085 245.862 99.8411C245.737 99.8723 245.583 99.8879 245.401 99.8879H244.309ZM244.688 98.2278H245.307C245.475 98.2278 245.596 98.2167 245.669 98.1946C245.765 98.1659 245.837 98.1184 245.885 98.052C245.935 97.9856 245.96 97.9023 245.96 97.802C245.96 97.7069 245.937 97.6236 245.891 97.552C245.846 97.4791 245.781 97.4296 245.696 97.4036C245.611 97.3762 245.466 97.3625 245.26 97.3625H244.688V98.2278ZM244.688 99.55H245.401C245.524 99.55 245.609 99.5455 245.659 99.5364C245.746 99.5208 245.819 99.4947 245.878 99.4583C245.936 99.4218 245.984 99.3691 246.022 99.3C246.06 99.2297 246.079 99.149 246.079 99.0579C246.079 98.9511 246.052 98.8586 245.997 98.7805C245.942 98.7011 245.866 98.6458 245.768 98.6145C245.672 98.5819 245.533 98.5657 245.35 98.5657H244.688V99.55ZM247.005 99.8879V97.0247H247.384V98.2004H248.872V97.0247H249.251V99.8879H248.872V98.5383H247.384V99.8879H247.005ZM249.575 99.9368L250.405 96.9758H250.686L249.858 99.9368H249.575ZM250.682 99.8879L251.782 97.0247H252.19L253.362 99.8879H252.93L252.596 99.0208H251.399L251.085 99.8879H250.682ZM251.509 98.7122H252.479L252.18 97.9192C252.089 97.6783 252.022 97.4804 251.977 97.3254C251.941 97.509 251.889 97.6913 251.823 97.8723L251.509 98.7122ZM254.186 99.8879L253.077 97.0247H253.487L254.231 99.1047C254.291 99.2714 254.341 99.4277 254.382 99.5735C254.426 99.4172 254.477 99.261 254.536 99.1047L255.309 97.0247H255.696L254.575 99.8879H254.186Z" fill="black"/>
<path d="M266.794 60.9349V60H270.85V68H268.805V61.2544H264.85V68H266.794V62.5799H265.208" stroke="black" stroke-width="0.3" stroke-miterlimit="10"/>
<path d="M264.85 63H261.85V68" stroke="black" stroke-width="0.3" stroke-miterlimit="10"/>
<path d="M262.483 70.0603V70.6242H262.346V70.0603L262.316 70.0299L261.813 70.6242H261.661L262.24 69.9537L261.707 69.405H261.859L262.362 69.9079V69.4355H262.499V69.9384L263.001 69.4355H263.153L262.62 69.9841L263.199 70.6547H263.047L262.544 70.0603H262.483Z" fill="black"/>
<path d="M264.31 70.6242H264.173V69.6946L263.366 70.6242H263.336V69.405H263.473V70.3499L264.28 69.405H264.31V70.6242Z" fill="black"/>
<path d="M265.574 70.6242H265.437L265.026 69.6793L264.615 70.6242H264.478L265.01 69.405H265.041L265.574 70.6242Z" fill="black"/>
<path d="M266.732 70.6242H266.595V69.6946L265.788 70.6242H265.757V69.405H265.894V70.3499L266.701 69.405H266.732V70.6242Z" fill="black"/>
<path d="M268.436 70.5024H268.634V70.792H268.512V70.6091H267.005V69.3899H267.142V70.4872H267.66V69.3899H267.781V70.4872H268.314V69.3899H268.451C268.436 69.3899 268.436 70.5024 268.436 70.5024Z" fill="black"/>
<path d="M268.817 69.3899H268.954V69.8928H269.563V69.3899H269.7V70.6091H269.563V70.0147H268.954V70.6091H268.817V69.3899Z" fill="black"/>
<path d="M270.918 70.6242H270.781V69.6946L269.974 70.6242H269.944V69.405H270.081V70.3499L270.888 69.405H270.918V70.6242Z" fill="black"/>
<path d="M271.238 69.3899H271.375V69.8318L271.878 69.3899H272.03L271.451 69.9385L272.06 70.6091H271.893L271.36 70.0452V70.6091H271.223C271.238 70.6243 271.238 69.3899 271.238 69.3899Z" fill="black"/>
<defs>
<linearGradient id="paint0_linear_309_88" x1="105.213" y1="104.688" x2="105.048" y2="82.6396" gradientUnits="userSpaceOnUse">
<stop stop-color="#CCCCCC"/>
<stop offset="0.1516" stop-color="#B3B3B3"/>
<stop offset="0.3214" stop-color="#999999"/>
<stop offset="0.4947" stop-color="#A9A9A9"/>
<stop offset="0.773" stop-color="#CCCCCC"/>
<stop offset="0.9079" stop-color="#CACACA"/>
<stop offset="0.9564" stop-color="#C3C3C3"/>
<stop offset="0.9909" stop-color="#B8B8B8"/>
<stop offset="1" stop-color="#B3B3B3"/>
</linearGradient>
<linearGradient id="paint1_linear_309_88" x1="182.393" y1="83.3421" x2="182.933" y2="102.643" gradientUnits="userSpaceOnUse">
<stop stop-color="#AC8C4B"/>
<stop offset="0.1516" stop-color="#CBB35B"/>
<stop offset="0.2629" stop-color="#AE8F4C"/>
<stop offset="0.2923" stop-color="#A28147"/>
<stop offset="0.3454" stop-color="#92703F"/>
<stop offset="0.4013" stop-color="#88663A"/>
<stop offset="0.4641" stop-color="#856238"/>
<stop offset="0.5555" stop-color="#88653A"/>
<stop offset="0.6297" stop-color="#916F3E"/>
<stop offset="0.6975" stop-color="#A08045"/>
<stop offset="0.7373" stop-color="#AC8D4B"/>
<stop offset="0.8514" stop-color="#AD8E4C"/>
<stop offset="1" stop-color="#866338"/>
</linearGradient>
<linearGradient id="paint2_linear_309_88" x1="149.489" y1="81.23" x2="149.646" y2="105.27" gradientUnits="userSpaceOnUse">
<stop stop-color="#AC8C4B"/>
<stop offset="0.1516" stop-color="#CBB35B"/>
<stop offset="0.2629" stop-color="#AE8F4C"/>
<stop offset="0.2923" stop-color="#A28147"/>
<stop offset="0.3454" stop-color="#92703F"/>
<stop offset="0.4013" stop-color="#88663A"/>
<stop offset="0.4641" stop-color="#856238"/>
<stop offset="0.5555" stop-color="#88653A"/>
<stop offset="0.6297" stop-color="#916F3E"/>
<stop offset="0.6975" stop-color="#A08045"/>
<stop offset="0.7373" stop-color="#AC8D4B"/>
<stop offset="0.8514" stop-color="#AD8E4C"/>
<stop offset="1" stop-color="#866338"/>
</linearGradient>
<linearGradient id="paint3_linear_309_88" x1="156.054" y1="78.52" x2="156.162" y2="106.908" gradientUnits="userSpaceOnUse">
<stop stop-color="#AC8C4B"/>
<stop offset="0.1516" stop-color="#CBB35B"/>
<stop offset="0.2629" stop-color="#AE8F4C"/>
<stop offset="0.2923" stop-color="#A28147"/>
<stop offset="0.3454" stop-color="#92703F"/>
<stop offset="0.4013" stop-color="#88663A"/>
<stop offset="0.4641" stop-color="#856238"/>
<stop offset="0.5555" stop-color="#88653A"/>
<stop offset="0.6297" stop-color="#916F3E"/>
<stop offset="0.6975" stop-color="#A08045"/>
<stop offset="0.7373" stop-color="#AC8D4B"/>
<stop offset="0.8514" stop-color="#AD8E4C"/>
<stop offset="1" stop-color="#866338"/>
</linearGradient>
<linearGradient id="paint4_linear_309_88" x1="226.67" y1="82.5208" x2="226.444" y2="104.201" gradientUnits="userSpaceOnUse">
<stop stop-color="#B38B3E"/>
<stop offset="0.1516" stop-color="#D1B349"/>
<stop offset="0.2629" stop-color="#B58E3F"/>
<stop offset="0.2923" stop-color="#A9803B"/>
<stop offset="0.3454" stop-color="#996E35"/>
<stop offset="0.4013" stop-color="#906431"/>
<stop offset="0.4641" stop-color="#8D6030"/>
<stop offset="0.5555" stop-color="#906331"/>
<stop offset="0.6297" stop-color="#986D34"/>
<stop offset="0.6975" stop-color="#A77E3A"/>
<stop offset="0.7373" stop-color="#B38C3E"/>
<stop offset="0.8514" stop-color="#B48D3F"/>
<stop offset="1" stop-color="#8E6130"/>
</linearGradient>
<linearGradient id="paint5_linear_309_88" x1="337.556" y1="79.1007" x2="336.985" y2="105.202" gradientUnits="userSpaceOnUse">
<stop stop-color="#CCCCCC"/>
<stop offset="0.1516" stop-color="#B3B3B3"/>
<stop offset="0.3214" stop-color="#999999"/>
<stop offset="0.4947" stop-color="#A9A9A9"/>
<stop offset="0.773" stop-color="#CCCCCC"/>
<stop offset="0.9079" stop-color="#CACACA"/>
<stop offset="0.9564" stop-color="#C3C3C3"/>
<stop offset="0.9909" stop-color="#B8B8B8"/>
<stop offset="1" stop-color="#B3B3B3"/>
</linearGradient>
<linearGradient id="paint6_linear_309_88" x1="306.135" y1="80.898" x2="306.169" y2="103.464" gradientUnits="userSpaceOnUse">
<stop stop-color="#B38B3E"/>
<stop offset="0.1516" stop-color="#D1B349"/>
<stop offset="0.2629" stop-color="#B58E3F"/>
<stop offset="0.2923" stop-color="#A9803B"/>
<stop offset="0.3454" stop-color="#996E35"/>
<stop offset="0.4013" stop-color="#906431"/>
<stop offset="0.4641" stop-color="#8D6030"/>
<stop offset="0.5555" stop-color="#906331"/>
<stop offset="0.6297" stop-color="#986D34"/>
<stop offset="0.6975" stop-color="#A77E3A"/>
<stop offset="0.7373" stop-color="#B38C3E"/>
<stop offset="0.8514" stop-color="#B48D3F"/>
<stop offset="1" stop-color="#8E6130"/>
</linearGradient>
<radialGradient id="paint7_radial_309_88" cx="0" cy="0" r="1" gradientUnits="userSpaceOnUse" gradientTransform="translate(266.357 89.4953) scale(37.4943 36.4944)">
<stop stop-color="white"/>
<stop offset="0.4545" stop-color="#FDFDFD"/>
<stop offset="0.6281" stop-color="#F6F6F6"/>
<stop offset="0.7537" stop-color="#EAEAEA"/>
<stop offset="0.8561" stop-color="#D9D9D9"/>
<stop offset="0.9433" stop-color="#C3C3C3"/>
<stop offset="1" stop-color="#B0B0B0"/>
</radialGradient>
</defs>
</svg>
