<?xml version="1.0" encoding="utf-8"?>
<!-- Generator: Adobe Illustrator 25.4.1, SVG Export Plug-In . SVG Version: 6.00 Build 0)  -->
<svg version="1.1" id="Слой_1" xmlns="http://www.w3.org/2000/svg" xmlns:xlink="http://www.w3.org/1999/xlink" x="0px" y="0px"
	 viewBox="0 0 1920 698.3" style="enable-background:new 0 0 1920 698.3;" xml:space="preserve">
<style type="text/css">
	.st0{clip-path:url(#SVGID_00000018211131525567110790000012730696485863067049_);}
	.st1{fill:#FFFFFF;}
	.st2{clip-path:url(#SVGID_00000106107437785245644220000017754487749155560885_);}
	.st3{fill:#35CBE2;}
	.st4{opacity:0.7;fill:url(#SVGID_00000083078621733375613400000009995515327163584150_);enable-background:new    ;}
	.st5{opacity:0.7;}
	.st6{fill:url(#SVGID_00000150819263712300788200000011662446698567080600_);}
	.st7{fill:#CBB35B;}
	.st8{fill:#AE8F4C;}
	.st9{fill:#856238;}
	.st10{fill:url(#SVGID_00000047056749285924891160000008207185908065273506_);}
	.st11{fill:none;stroke:#856238;stroke-width:1.2136;stroke-miterlimit:10;}
	.st12{fill:url(#SVGID_00000045619034778916000960000005346157322213164696_);}
	.st13{fill:url(#SVGID_00000013172310293537497080000010478980062195168679_);}
	.st14{fill:#8D6030;}
	.st15{fill:#D1B349;}
	.st16{fill:#B58E3F;}
	.st17{fill:#8D5700;}
	.st18{fill:url(#SVGID_00000106122247072379878540000009259035752291274686_);}
	.st19{fill:url(#SVGID_00000080166295046120984530000002803861134481959823_);}
	.st20{fill:#404040;}
	
		.st21{fill:url(#SVGID_00000172402134622435656670000003445437422275097477_);stroke:#404040;stroke-width:3.4446;stroke-miterlimit:10;}
	.st22{fill:#5E5E5E;}
	.st23{fill:#868686;}
	.st24{fill:#FFFFFF;stroke:#FFFFFF;stroke-width:1.7866;stroke-miterlimit:10;}
	.st25{fill:none;stroke:#FFFFFF;stroke-width:2.8705;stroke-miterlimit:10;}
	.st26{opacity:0.21;}
	.st27{fill:none;stroke:#000000;stroke-width:0.4306;stroke-miterlimit:9.9999;}
	.st28{fill:none;stroke:#404040;stroke-width:3.4446;stroke-miterlimit:10;}
	.st29{fill:none;stroke:#FFFFFF;stroke-width:1.1482;stroke-miterlimit:10;}
	.st30{fill:#F03B2C;}
	.st31{fill:#FFFFFF;stroke:#000000;stroke-width:0.5315;stroke-miterlimit:10;}
	.st32{fill:none;stroke:#000000;stroke-width:0.5315;stroke-miterlimit:10;}
	.st33{fill:none;stroke:#000000;stroke-width:2.5962;stroke-miterlimit:10;}
	.st34{fill:none;stroke:#000000;stroke-width:2.3052;stroke-miterlimit:10;}
	.st35{fill:none;stroke:#000000;stroke-width:3.9053;stroke-miterlimit:10;}
	.st36{fill:none;stroke:#000000;stroke-width:3.2646;stroke-miterlimit:10;}
	.st37{fill:none;stroke:#000000;stroke-width:3.6557;stroke-miterlimit:10;}
	.st38{fill:none;stroke:#000000;stroke-width:3.717;stroke-miterlimit:10;}
	.st39{fill:#FFFFFF;stroke:#FFFFFF;stroke-width:0.528;stroke-miterlimit:10;}
	.st40{fill:#FFFFFF;stroke:#000000;stroke-width:0.1436;stroke-miterlimit:10;}
	.st41{opacity:0.38;fill:#FFFFFF;stroke:#000000;stroke-width:0.1502;stroke-miterlimit:10;enable-background:new    ;}
	.st42{fill:#D53847;}
	.st43{fill:none;stroke:#000000;stroke-width:0.9028;stroke-miterlimit:10;}
</style>
<g>
	<defs>
		<rect id="SVGID_1_" y="1.8" width="1919" height="696.2"/>
	</defs>
	<clipPath id="SVGID_00000168074951484194395890000000974237646303757989_">
		<use xlink:href="#SVGID_1_"  style="overflow:visible;"/>
	</clipPath>
	<g style="clip-path:url(#SVGID_00000168074951484194395890000000974237646303757989_);">
		<rect y="1.8" class="st1" width="1919" height="696.2"/>
		<g>
			<defs>
				<rect id="SVGID_00000116945055057008488670000005354746118209416084_" y="-7.3" width="1921" height="705.3"/>
			</defs>
			<clipPath id="SVGID_00000013188996644225248710000000964623732699232428_">
				<use xlink:href="#SVGID_00000116945055057008488670000005354746118209416084_"  style="overflow:visible;"/>
			</clipPath>
			<g style="clip-path:url(#SVGID_00000013188996644225248710000000964623732699232428_);">
				<path class="st3" d="M1919,1.8H-2v703.5h1921V1.8z"/>
				
					<linearGradient id="SVGID_00000134250654319039156410000012916286724153373351_" gradientUnits="userSpaceOnUse" x1="145.2885" y1="449.086" x2="145.0079" y2="536.8296" gradientTransform="matrix(1 0 0 -1 539.0551 751.2122)">
					<stop  offset="0" style="stop-color:#CCCCCC"/>
					<stop  offset="0.1516" style="stop-color:#B3B3B3"/>
					<stop  offset="0.3214" style="stop-color:#999999"/>
					<stop  offset="0.4947" style="stop-color:#A9A9A9"/>
					<stop  offset="0.773" style="stop-color:#CCCCCC"/>
					<stop  offset="0.9079" style="stop-color:#CACACA"/>
					<stop  offset="0.9564" style="stop-color:#C3C3C3"/>
					<stop  offset="0.9909" style="stop-color:#B8B8B8"/>
					<stop  offset="1" style="stop-color:#B3B3B3"/>
				</linearGradient>
				
					<path style="opacity:0.7;fill:url(#SVGID_00000134250654319039156410000012916286724153373351_);enable-background:new    ;" d="
					M-1,208l1369.7-0.1l1.1,96.7L-1,305V208z"/>
				<g class="st5">
					
						<linearGradient id="SVGID_00000013187200469149219540000017659947168425092490_" gradientUnits="userSpaceOnUse" x1="694.9207" y1="532.8092" x2="697.0665" y2="456.0762" gradientTransform="matrix(1 0 0 -1 539.0551 751.2122)">
						<stop  offset="0" style="stop-color:#AC8C4B"/>
						<stop  offset="0.1516" style="stop-color:#CBB35B"/>
						<stop  offset="0.2629" style="stop-color:#AE8F4C"/>
						<stop  offset="0.2923" style="stop-color:#A28147"/>
						<stop  offset="0.3454" style="stop-color:#92703F"/>
						<stop  offset="0.4013" style="stop-color:#88663A"/>
						<stop  offset="0.4641" style="stop-color:#856238"/>
						<stop  offset="0.5555" style="stop-color:#88653A"/>
						<stop  offset="0.6297" style="stop-color:#916F3E"/>
						<stop  offset="0.6975" style="stop-color:#A08045"/>
						<stop  offset="0.7373" style="stop-color:#AC8D4B"/>
						<stop  offset="0.8514" style="stop-color:#AD8E4C"/>
						<stop  offset="1" style="stop-color:#866338"/>
					</linearGradient>
					<path style="fill:url(#SVGID_00000013187200469149219540000017659947168425092490_);" d="M1245.6,208.9l-22.2,0.1l1.1,93.2
						h22.2L1245.6,208.9z"/>
					<path class="st7" d="M1293.2,199.4l-50-0.1l0.5,34.5l50,0.1L1293.2,199.4z"/>
					<path class="st8" d="M1293.7,234l-50.2-0.1l0.8,53l50,0.1L1293.7,234z"/>
					<path class="st9" d="M1244.3,286.9l0.1,22.8l49.1,0.3l0.8-22.9L1244.3,286.9z"/>
					<path class="st7" d="M1378.5,207.3l-86.9-0.5l0.7,30.8l86.9,0.5L1378.5,207.3z"/>
					<path class="st8" d="M1379.3,238.3l-87.8-0.5l1.1,47.1l87.5,0.5L1379.3,238.3z"/>
					<path class="st9" d="M1292.9,284.8l0.1,19.9l85.6,0.7l1.5-20L1292.9,284.8z"/>
					<path class="st7" d="M1225.9,199.4l-47.4-0.3l-2.3,26.8l50.2,0.9L1225.9,199.4z"/>
					<path class="st8" d="M1226.3,226l-50.2-0.1l0.6,54.6l50.3,0.1L1226.3,226z"/>
					<path class="st9" d="M1176.6,280.5l2,29.2l48.5,0.1l-0.2-29.2L1176.6,280.5z"/>
					
						<linearGradient id="SVGID_00000077284609234008922850000008144895540206685115_" gradientUnits="userSpaceOnUse" x1="565.2191" y1="541.2128" x2="565.8439" y2="445.6337" gradientTransform="matrix(1 0 0 -1 539.0551 751.2122)">
						<stop  offset="0" style="stop-color:#AC8C4B"/>
						<stop  offset="0.1516" style="stop-color:#CBB35B"/>
						<stop  offset="0.2629" style="stop-color:#AE8F4C"/>
						<stop  offset="0.2923" style="stop-color:#A28147"/>
						<stop  offset="0.3454" style="stop-color:#92703F"/>
						<stop  offset="0.4013" style="stop-color:#88663A"/>
						<stop  offset="0.4641" style="stop-color:#856238"/>
						<stop  offset="0.5555" style="stop-color:#88653A"/>
						<stop  offset="0.6297" style="stop-color:#916F3E"/>
						<stop  offset="0.6975" style="stop-color:#A08045"/>
						<stop  offset="0.7373" style="stop-color:#AC8D4B"/>
						<stop  offset="0.8514" style="stop-color:#AD8E4C"/>
						<stop  offset="1" style="stop-color:#866338"/>
					</linearGradient>
					<path style="fill:url(#SVGID_00000077284609234008922850000008144895540206685115_);" d="M1179.1,208.7l-9.1,0.1l0.1-3.6
						l-6-0.1h-22.8l-0.1-8.5h-24.1l0.1,10.7l-88.7,0.7v99.3l91.5-0.2l0.1,8.9h24.3l-0.1-8.9l27.8,0.1l-0.1-5h9.3L1179.1,208.7z"/>
					<path class="st11" d="M1169.2,204.2l1.3,103"/>
					<path class="st7" d="M1165.2,200.5l-22.4-0.2l-0.8,41.9l23.7,0.3L1165.2,200.5z"/>
					<path class="st8" d="M1165.6,242.4l-23.7-0.3l0.7,52.8h23.7L1165.6,242.4z"/>
					<path class="st9" d="M1166.3,295h-23.7l0.2,16.1h23.7L1166.3,295z"/>
					
						<linearGradient id="SVGID_00000129918219074432630750000001866711248512532386_" gradientUnits="userSpaceOnUse" x1="590.961" y1="551.9841" x2="591.3841" y2="439.1198" gradientTransform="matrix(1 0 0 -1 539.0551 751.2122)">
						<stop  offset="0" style="stop-color:#AC8C4B"/>
						<stop  offset="0.1516" style="stop-color:#CBB35B"/>
						<stop  offset="0.2629" style="stop-color:#AE8F4C"/>
						<stop  offset="0.2923" style="stop-color:#A28147"/>
						<stop  offset="0.3454" style="stop-color:#92703F"/>
						<stop  offset="0.4013" style="stop-color:#88663A"/>
						<stop  offset="0.4641" style="stop-color:#856238"/>
						<stop  offset="0.5555" style="stop-color:#88653A"/>
						<stop  offset="0.6297" style="stop-color:#916F3E"/>
						<stop  offset="0.6975" style="stop-color:#A08045"/>
						<stop  offset="0.7373" style="stop-color:#AC8D4B"/>
						<stop  offset="0.8514" style="stop-color:#AD8E4C"/>
						<stop  offset="1" style="stop-color:#866338"/>
					</linearGradient>
					<path style="fill:url(#SVGID_00000129918219074432630750000001866711248512532386_);" d="M1119,314.5h23.7l-0.1-117.8h-25.2
						L1119,314.5z"/>
					<path class="st11" d="M1129.4,195.3l1.5,120.7"/>
					<path class="st11" d="M1091.4,206.8l1,100.9"/>
				</g>
				
					<linearGradient id="SVGID_00000155859052107766475730000012353275559239407776_" gradientUnits="userSpaceOnUse" x1="869.9633" y1="536.0733" x2="869.0667" y2="449.8783" gradientTransform="matrix(1 0 0 -1 539.0551 751.2122)">
					<stop  offset="0" style="stop-color:#B38B3E"/>
					<stop  offset="0.1516" style="stop-color:#D1B349"/>
					<stop  offset="0.2629" style="stop-color:#B58E3F"/>
					<stop  offset="0.2923" style="stop-color:#A9803B"/>
					<stop  offset="0.3454" style="stop-color:#996E35"/>
					<stop  offset="0.4013" style="stop-color:#906431"/>
					<stop  offset="0.4641" style="stop-color:#8D6030"/>
					<stop  offset="0.5555" style="stop-color:#906331"/>
					<stop  offset="0.6297" style="stop-color:#986D34"/>
					<stop  offset="0.6975" style="stop-color:#A77E3A"/>
					<stop  offset="0.7373" style="stop-color:#B38C3E"/>
					<stop  offset="0.8514" style="stop-color:#B48D3F"/>
					<stop  offset="1" style="stop-color:#8E6130"/>
				</linearGradient>
				<path style="fill:url(#SVGID_00000155859052107766475730000012353275559239407776_);" d="M1397.2,195.6h-41.7v91.9v24.4h42.4
					l7.2-7.9v-4.8l2.8,0.1l2.8-4.5l1.1,5.2l3.3-5.2h31.3h15.6l-10-46.3l-13.4-35.7l-4.5-1.3L1414,214l-2.2-5.3l-2.2,5.3l-2.8-7.4
					l-1.7,0.7L1397.2,195.6z"/>
				<path class="st14" d="M1397.8,288.8l0.6,22.6l-42.9,0.5l-0.1-23.1H1397.8z"/>
				<path class="st15" d="M1355.3,196.3h41.3l2.1,35.8h-43.5L1355.3,196.3z"/>
				<path class="st16" d="M1355.3,231.9v56.8h42.5l1.1-56.8H1355.3z"/>
				<path class="st17" d="M1406.8,300.6v-95.2l2.2,4.3v88.7L1406.8,300.6z"/>
				<path class="st17" d="M1411.2,299.3V208l2.2,4.1v85L1411.2,299.3z"/>
				
					<linearGradient id="SVGID_00000127024738229502626890000011254780493836414901_" gradientUnits="userSpaceOnUse" x1="1420.7889" y1="551.5219" x2="1424.8168" y2="438.6576" gradientTransform="matrix(1 0 0 -1 539.0551 751.2122)">
					<stop  offset="0" style="stop-color:#CCCCCC"/>
					<stop  offset="0.1516" style="stop-color:#B3B3B3"/>
					<stop  offset="0.3214" style="stop-color:#999999"/>
					<stop  offset="0.4947" style="stop-color:#A9A9A9"/>
					<stop  offset="0.773" style="stop-color:#CCCCCC"/>
					<stop  offset="0.9079" style="stop-color:#CACACA"/>
					<stop  offset="0.9564" style="stop-color:#C3C3C3"/>
					<stop  offset="0.9909" style="stop-color:#B8B8B8"/>
					<stop  offset="1" style="stop-color:#B3B3B3"/>
				</linearGradient>
				<path style="fill:url(#SVGID_00000127024738229502626890000011254780493836414901_);" d="M1817.4,198.6l284.9-0.1l-12,115.9
					l-253-1.1L1817.4,198.6z"/>
				
					<linearGradient id="SVGID_00000157286923505412479930000013835738687847267727_" gradientUnits="userSpaceOnUse" x1="1250.5696" y1="537.6891" x2="1250.7006" y2="447.971" gradientTransform="matrix(1 0 0 -1 539.0551 751.2122)">
					<stop  offset="0" style="stop-color:#B38B3E"/>
					<stop  offset="0.1516" style="stop-color:#D1B349"/>
					<stop  offset="0.2629" style="stop-color:#B58E3F"/>
					<stop  offset="0.2923" style="stop-color:#A9803B"/>
					<stop  offset="0.3454" style="stop-color:#996E35"/>
					<stop  offset="0.4013" style="stop-color:#906431"/>
					<stop  offset="0.4641" style="stop-color:#8D6030"/>
					<stop  offset="0.5555" style="stop-color:#906331"/>
					<stop  offset="0.6297" style="stop-color:#986D34"/>
					<stop  offset="0.6975" style="stop-color:#A77E3A"/>
					<stop  offset="0.7373" style="stop-color:#B38C3E"/>
					<stop  offset="0.8514" style="stop-color:#B48D3F"/>
					<stop  offset="1" style="stop-color:#8E6130"/>
				</linearGradient>
				<path style="fill:url(#SVGID_00000157286923505412479930000013835738687847267727_);" d="M1801.9,316.5h44.4v-95.7v-25.5h-45.1
					l-7.6,8.4v4.9l-2.4-1.5l-3.5,6.1l-1.2-5.5l-3.6,5.5h-33.3h-16.6l10.7,48.2l14.2,37.2l4.8,1.4l21.4-2.8l2.4,5.5l2.4-5.5l2.3,7.7
					l2.4-0.8L1801.9,316.5z"/>
				<path class="st15" d="M1801.4,219.3l-0.7-23.5l45.7-0.6l0.2,24.1H1801.4z"/>
				<path class="st14" d="M1846.5,315.8h-44l-2.4-37.2h46.3L1846.5,315.8z"/>
				<path class="st16" d="M1846.5,278.6v-59.2h-45.1l-1.2,59.2H1846.5z"/>
				<path class="st17" d="M1791.8,207v99l-2.4-4.5v-92.3L1791.8,207z"/>
				<path class="st17" d="M1787,208.4v95l-2.4-4.2v-88.6L1787,208.4z"/>
				<path class="st20" d="M1672.2,406.1c7.9,4.3,17.3,11.8,20.3,14.4c0.6,0.6,1.5,0.6,2.4,0.1c6.2-4.5,34.9-25.7,34.9-28.1
					c0-4.1-4-14.8-5.8-19.4c-0.5-1.2-1.9-1.5-2.7-0.8l-48.2,33.7"/>
				
					<radialGradient id="SVGID_00000101104601214196531090000015422003139862204852_" cx="-2.1197" cy="699.2913" r="0.9999" gradientTransform="matrix(172.8568 0 0 -174.2019 1964.0353 122063.3984)" gradientUnits="userSpaceOnUse">
					<stop  offset="0" style="stop-color:#FFFFFF"/>
					<stop  offset="0.4545" style="stop-color:#FDFDFD"/>
					<stop  offset="0.6281" style="stop-color:#F6F6F6"/>
					<stop  offset="0.7537" style="stop-color:#EAEAEA"/>
					<stop  offset="0.8561" style="stop-color:#D9D9D9"/>
					<stop  offset="0.9433" style="stop-color:#C3C3C3"/>
					<stop  offset="1" style="stop-color:#B0B0B0"/>
				</radialGradient>
				
					<path style="fill:url(#SVGID_00000101104601214196531090000015422003139862204852_);stroke:#404040;stroke-width:3.4446;stroke-miterlimit:10;" d="
					M1597.6,419.7c95.5,0,172.9-78,172.9-174.2c0-96.1-77.4-174.2-172.9-174.2c-95.5,0-172.9,78-172.9,174.2
					C1424.8,341.7,1502.1,419.7,1597.6,419.7z"/>
				<path class="st22" d="M1753.3,170.6l-18.1,10.5l8.5,14l17.2-11.5L1753.3,170.6z"/>
				<path class="st22" d="M1705.8,109l-16,16.2l10.8,10.7l15-17.1L1705.8,109z"/>
				<path class="st22" d="M1768.9,220.1l-19.8,4l3.5,21l20.2-5.7L1768.9,220.1z"/>
				<path class="st22" d="M1732.7,135.9l-17.5,13.7l10.6,13l16.3-14.8L1732.7,135.9z"/>
				<path class="st22" d="M1689.7,126l-27.9,45l13.6,8.5l26.5-45.4L1689.7,126z"/>
				<path class="st22" d="M1716,148.8L1623.1,301l13.6,8.5l89.5-147.3L1716,148.8z"/>
				<path class="st22" d="M1734.2,182L1640,335.9l13.6,8.5l87.8-146.1L1734.2,182z"/>
				<path class="st22" d="M1747.1,224l-70,113.9l14.8,9.2l59.2-99.6L1747.1,224z"/>
				<path class="st23" d="M1713.1,147.1l-92.9,152.4l13.8,8.4l89.4-147.4L1713.1,147.1z"/>
				<path class="st23" d="M1733.3,177.4l-94.2,153.8l13.6,8.4l87.8-146L1733.3,177.4z"/>
				<path class="st23" d="M1748.4,219.5l-74.8,122.1l13.6,8.5l63.6-106.7L1748.4,219.5z"/>
				<path class="st23" d="M1687.6,124.6l-27.7,45l13.6,8.5l26.5-45.4L1687.6,124.6z"/>
				<path class="st23" d="M1703.3,108.9l-16.1,16.2l10.9,10.5l14.9-16.9L1703.3,108.9z"/>
				<path class="st23" d="M1731.1,133.1l-17.9,14.1l10.5,13l16.8-15L1731.1,133.1z"/>
				<path class="st23" d="M1751.4,166.9l-18.6,10.8l8.5,14.3l17.7-12L1751.4,166.9z"/>
				<path class="st23" d="M1768.4,216.5l-20.7,4.3l3.4,20.8l21.4-5.9L1768.4,216.5z"/>
				<path class="st24" d="M1645.8,377.4c24.7,0,44.8-19.3,44.8-43.1c0-23.8-20.1-43.1-44.8-43.1s-44.8,19.3-44.8,43.1
					C1601,358.1,1621,377.4,1645.8,377.4z"/>
				<path class="st25" d="M1598.7,401.1c84.1,0,152.2-68.7,152.2-153.3c0-84.7-68.1-153.3-152.2-153.3
					c-84.1,0-152.2,68.7-152.2,153.3C1446.5,332.4,1514.7,401.1,1598.7,401.1z"/>
				<path d="M1574.7,235.7l12.7,4c0,0,3.9-1.3,4.6-4c0.2-0.8,0-14.8,0-14.8h10.4l0.2,14.8c0,0,2.2,3.3,3.8,3.3
					c1.7,0,14.2-5.3,14.2-5.3l4,8.9l-13.4,5.3c0,0-2.7,4-2,5.3c0.6,1.1,9.3,11.5,9.3,11.5l-7.4,6.7l-10-11.5c0,0-4-0.6-4.6,0.6
					c-0.6,1.3-8,12.8-8,12.8l-8.8-6l7.5-12.3c0,0,0.5-4-1.2-5.7c-1.5-1.5-14.2-3.6-14.2-3.6L1574.7,235.7z"/>
				<g class="st26">
					<path class="st1" d="M1599.3,403.4c85.3,0,154.4-69.6,154.4-155.6c0-86-69.1-155.6-154.4-155.6c-85.3,0-154.4,69.6-154.4,155.6
						C1444.9,333.7,1514,403.4,1599.3,403.4z"/>
					<path class="st27" d="M1599.3,403.4c85.3,0,154.4-69.6,154.4-155.6c0-86-69.1-155.6-154.4-155.6
						c-85.3,0-154.4,69.6-154.4,155.6C1444.9,333.7,1514,403.4,1599.3,403.4z"/>
				</g>
				<path class="st28" d="M1598.7,421.9c95.5,0,172.9-78,172.9-174.2c0-96.1-77.4-174.2-172.9-174.2c-95.5,0-172.9,78-172.9,174.2
					C1425.8,343.9,1503.2,421.9,1598.7,421.9z"/>
				<path d="M1646.7,372.7c20.3,0,36.8-16.6,36.8-37.2c0-20.5-16.5-37.2-36.8-37.2c-20.4,0-36.8,16.6-36.8,37.2
					C1609.7,356.1,1626.3,372.7,1646.7,372.7z"/>
				<path class="st29" d="M1647.1,298.3l-1.5,74.5"/>
				<path class="st29" d="M1635.8,299.9l21.1,71.4"/>
				<path class="st29" d="M1667.4,366.3l-41.7-61.3"/>
				<path class="st29" d="M1658.8,300.5l-24.3,70.2"/>
				<path class="st29" d="M1669.1,306l-45,59"/>
				<path class="st29" d="M1677.1,314.5l-61.2,41.8"/>
				<path class="st29" d="M1682.2,325.3l-71,20.5"/>
				<path class="st29" d="M1683.6,337l-74-2.8"/>
				<path class="st29" d="M1681.2,348.6l-69.3-25.9"/>
				<path class="st29" d="M1675.5,358.8l-58.1-45.9"/>
				<path d="M1646.7,367.9c17.7,0,32.2-14.6,32.2-32.4c0-18-14.3-32.4-32.2-32.4c-17.9,0-32.2,14.6-32.2,32.4
					C1614.4,353.4,1628.8,367.9,1646.7,367.9z"/>
				<path class="st1" d="M1645.4,305.4c0-0.7,0.1-1.3,0.2-1.7c0.1-0.5,0.4-0.8,0.6-0.9c0.2-0.2,0.6-0.4,1.1-0.4
					c0.2,0,0.6,0.1,0.8,0.2c0.2,0.1,0.5,0.2,0.6,0.6c0.1,0.2,0.2,0.5,0.4,0.8c0.1,0.4,0.1,0.8,0.1,1.3c0,0.7-0.1,1.2-0.2,1.7
					c-0.1,0.5-0.4,0.7-0.6,0.9c-0.2,0.2-0.6,0.4-1.1,0.4c-0.6,0-0.9-0.2-1.3-0.6C1645.5,307.3,1645.4,306.6,1645.4,305.4z
					 M1646.1,305.4c0,0.9,0.1,1.7,0.4,1.9c0.2,0.2,0.5,0.5,0.8,0.5c0.4,0,0.6-0.1,0.8-0.5c0.2-0.2,0.4-0.9,0.4-1.9
					c0-0.9-0.1-1.7-0.4-1.9c-0.2-0.2-0.5-0.5-0.8-0.5c-0.4,0-0.6,0.1-0.8,0.5C1646.2,303.9,1646.1,304.5,1646.1,305.4z"/>
				<path class="st1" d="M1663.8,314.4l-0.6-0.5l2.8-3.6c-0.2,0-0.5,0-0.8,0c-0.4-0.1-0.6-0.1-0.8-0.1l0.5-0.6
					c0.5,0.1,0.8,0.1,1.3,0.1s0.7-0.1,1-0.2l0.4,0.2L1663.8,314.4z"/>
				<path class="st1" d="M1673.5,330.1l-0.7,0.1l-0.8-3.8c0.1-0.1,0.4-0.1,0.5,0c0.2,0,0.6,0.1,0.8,0.2c0.2,0.1,0.6,0.4,1.1,0.7
					c0.6,0.5,1.2,0.8,1.5,0.9c0.4,0.1,0.6,0.2,0.9,0.1c0.2-0.1,0.5-0.2,0.6-0.5c0.1-0.2,0.2-0.5,0.1-0.8c-0.1-0.4-0.2-0.6-0.5-0.7
					c-0.2-0.1-0.6-0.2-0.9-0.1l-0.1-0.7c0.6-0.1,0.9,0,1.3,0.2c0.4,0.2,0.6,0.6,0.7,1.2c0.1,0.6,0.1,0.9-0.1,1.4
					c-0.2,0.4-0.6,0.6-0.9,0.7c-0.2,0.1-0.5,0.1-0.7,0c-0.2-0.1-0.5-0.1-0.8-0.2c-0.4-0.1-0.7-0.5-1.3-0.8c-0.5-0.4-0.8-0.6-0.9-0.6
					c-0.1-0.1-0.2-0.1-0.5-0.2L1673.5,330.1z"/>
				<path class="st1" d="M1673.5,343.8l-0.1,0.7c-0.5-0.1-0.7,0-0.9,0.1c-0.2,0.1-0.5,0.4-0.5,0.6c-0.1,0.2-0.1,0.6,0.1,0.9
					c0.1,0.2,0.4,0.5,0.7,0.6c0.2,0.1,0.6,0.1,0.8,0c0.2-0.1,0.5-0.4,0.6-0.6c0.1-0.1,0.1-0.2,0.1-0.5l0.6,0.2
					c0,0.1-0.1,0.1-0.1,0.1c-0.1,0.2-0.1,0.6-0.1,0.8c0,0.2,0.2,0.5,0.6,0.6c0.2,0.1,0.5,0.1,0.7,0c0.2-0.1,0.4-0.2,0.5-0.6
					c0.1-0.2,0.1-0.5,0-0.7c-0.1-0.2-0.2-0.5-0.6-0.6l0.4-0.6c0.5,0.2,0.7,0.6,0.8,0.9c0.1,0.4,0.1,0.8,0,1.2
					c-0.1,0.2-0.2,0.6-0.5,0.8c-0.2,0.2-0.5,0.4-0.7,0.4c-0.2,0.1-0.5,0-0.8-0.1c-0.2-0.1-0.5-0.2-0.6-0.5c-0.1-0.2-0.2-0.5-0.2-0.7
					c-0.2,0.2-0.5,0.5-0.8,0.6c-0.2,0.1-0.6,0.1-0.9-0.1c-0.5-0.2-0.8-0.5-0.9-0.9c-0.2-0.5-0.2-0.9,0-1.5c0.2-0.5,0.5-0.8,0.8-1.1
					C1672.5,343.8,1672.9,343.7,1673.5,343.8z"/>
				<path class="st1" d="M1661.4,358.1l0.8,1.2l2-1.5l0.4,0.6l0.1,4.6l-0.5,0.4l-2.2-3.1l-0.6,0.5l-0.4-0.6l0.6-0.5l-0.8-1.2
					L1661.4,358.1z M1662.5,359.8l1.5,2.1l-0.1-3.2L1662.5,359.8z"/>
				<path class="st1" d="M1647.7,363.7l-0.8,0.1c-0.1-0.4-0.2-0.6-0.4-0.8c-0.2-0.2-0.5-0.2-0.7-0.2c-0.4,0-0.6,0.1-0.8,0.4
					c-0.2,0.2-0.4,0.6-0.4,1.1c0,0.5,0.1,0.7,0.4,0.9c0.2,0.2,0.5,0.4,0.9,0.4c0.2,0,0.5-0.1,0.6-0.1c0.2-0.1,0.4-0.2,0.5-0.5
					l0.7,0.1l-0.6,3h-2.8v-0.7h2.4l0.2-1.5c-0.4,0.2-0.7,0.4-1.1,0.4c-0.5,0-0.9-0.1-1.3-0.5c-0.4-0.4-0.5-0.8-0.5-1.3
					c0-0.5,0.1-0.9,0.5-1.3c0.4-0.5,0.8-0.7,1.5-0.7c0.5,0,0.9,0.1,1.3,0.5C1647.5,362.9,1647.7,363.2,1647.7,363.7z"/>
				<path class="st1" d="M1626.2,359.2l0.6,0.5c-0.1,0.2-0.2,0.5-0.1,0.6c0,0.2,0.1,0.5,0.4,0.7c0.2,0.1,0.4,0.2,0.6,0.2
					c0.2,0,0.6-0.1,0.8-0.2c0.2-0.1,0.6-0.5,0.9-0.9c-0.2,0.1-0.6,0.1-0.8,0.1c-0.2-0.1-0.5-0.1-0.7-0.4c-0.4-0.2-0.6-0.7-0.6-1.2
					c-0.1-0.5,0.1-0.9,0.5-1.3c0.2-0.2,0.5-0.5,0.8-0.6c0.4-0.1,0.6-0.2,0.9-0.1c0.4,0.1,0.6,0.1,0.9,0.4c0.5,0.4,0.7,0.8,0.7,1.4
					c0,0.6-0.2,1.3-0.9,2c-0.7,0.8-1.3,1.4-2,1.5c-0.6,0.1-1.1,0-1.5-0.4c-0.4-0.2-0.6-0.6-0.6-0.9
					C1625.8,359.9,1626,359.5,1626.2,359.2z M1630.1,359.1c0.1-0.2,0.2-0.5,0.2-0.6c0.1-0.2,0.1-0.5,0-0.7c-0.1-0.2-0.2-0.4-0.4-0.5
					c-0.2-0.2-0.5-0.2-0.8-0.2c-0.2,0.1-0.6,0.2-0.8,0.6c-0.2,0.2-0.4,0.6-0.4,0.9c0,0.2,0.1,0.6,0.5,0.8c0.2,0.2,0.6,0.2,0.8,0.2
					C1629.5,359.5,1629.7,359.3,1630.1,359.1z"/>
				<path class="st1" d="M1616.6,345.7l-0.6,0.2l-0.9-3.6l0.6-0.1c0.5,0.2,1.1,0.5,1.9,0.6c0.7,0.1,1.4,0.2,2.2,0.2
					c0.5,0,1.1-0.1,1.7-0.1l0.2,0.7c-0.5,0.1-0.9,0.2-1.6,0.2c-0.7,0-1.3-0.1-2-0.2c-0.7-0.1-1.3-0.4-1.8-0.6L1616.6,345.7z"/>
				<path class="st1" d="M1618.3,326.3c-0.2,0.2-0.5,0.5-0.6,0.5c-0.2,0.1-0.5,0.1-0.8,0c-0.5-0.1-0.7-0.4-0.8-0.8
					c-0.2-0.4-0.2-0.8-0.1-1.3c0.1-0.5,0.5-0.8,0.8-1.1c0.4-0.2,0.8-0.2,1.2-0.1c0.2,0.1,0.5,0.2,0.6,0.5c0.1,0.2,0.2,0.5,0.2,0.8
					c0.2-0.2,0.5-0.5,0.8-0.6c0.2-0.1,0.6-0.1,0.9,0c0.5,0.1,0.8,0.5,1.1,0.9c0.2,0.5,0.2,0.9,0.1,1.5c-0.2,0.6-0.5,0.9-0.9,1.2
					c-0.5,0.2-0.9,0.2-1.3,0.1c-0.4-0.1-0.6-0.2-0.8-0.6C1618.3,327,1618.3,326.6,1618.3,326.3z M1617.1,326
					c0.2,0.1,0.5,0.1,0.7-0.1c0.2-0.1,0.4-0.2,0.5-0.6c0.1-0.2,0.1-0.5-0.1-0.7c-0.1-0.2-0.2-0.4-0.5-0.5c-0.2-0.1-0.5-0.1-0.7,0.1
					c-0.2,0.1-0.4,0.2-0.5,0.6c-0.1,0.2-0.1,0.5,0.1,0.7C1616.7,325.7,1616.9,325.9,1617.1,326z M1619.6,327
					c0.2,0.1,0.5,0.1,0.6,0.1c0.2,0,0.5-0.1,0.6-0.2c0.1-0.1,0.2-0.4,0.4-0.6c0.1-0.4,0.1-0.6-0.1-0.9c-0.1-0.2-0.4-0.5-0.7-0.6
					c-0.4-0.1-0.6-0.1-0.9,0.1c-0.2,0.1-0.5,0.4-0.6,0.7c-0.1,0.4-0.1,0.6,0.1,0.9C1619,326.7,1619.3,327,1619.6,327z"/>
				<path class="st1" d="M1629.1,312.8l0.5-0.5c0.2,0.2,0.5,0.4,0.7,0.5c0.2,0,0.5,0,0.6-0.1c0.2-0.1,0.2-0.2,0.5-0.5
					c0.1-0.1,0.1-0.4,0.1-0.6c0-0.2-0.1-0.5-0.1-0.7s-0.2-0.6-0.5-0.8l-0.1-0.1c0,0.2-0.1,0.6-0.1,0.8c-0.1,0.2-0.2,0.5-0.6,0.6
					c-0.5,0.2-0.8,0.4-1.3,0.2c-0.5-0.1-0.8-0.4-1.2-0.8c-0.4-0.5-0.5-0.9-0.4-1.5c0.1-0.5,0.4-0.9,0.8-1.2c0.2-0.2,0.6-0.4,1.1-0.4
					c0.4,0,0.7,0.1,1.1,0.4c0.4,0.2,0.7,0.6,1.2,1.2c0.5,0.6,0.7,1.2,0.8,1.7c0.1,0.5,0.1,0.8-0.1,1.2c-0.2,0.4-0.4,0.7-0.7,0.9
					c-0.4,0.2-0.8,0.4-1.2,0.2C1629.7,313.4,1629.4,313.1,1629.1,312.8z M1630.1,309.1c-0.2-0.4-0.5-0.6-0.8-0.6
					c-0.2-0.1-0.6,0-0.8,0.1c-0.2,0.2-0.5,0.5-0.5,0.8c-0.1,0.4,0.1,0.7,0.2,1.1c0.2,0.2,0.5,0.5,0.8,0.6c0.2,0.1,0.6,0,0.8-0.2
					c0.2-0.2,0.5-0.5,0.5-0.8C1630.4,309.7,1630.3,309.3,1630.1,309.1z"/>
				<path class="st30" d="M1646.9,342.1c3.6,0,6.7-3,6.7-6.7c0-3.8-2.9-6.7-6.7-6.7c-3.6,0-6.7,3-6.7,6.7
					C1640.2,339.2,1643.1,342.1,1646.9,342.1z"/>
				<path class="st30" d="M1651.1,332.4l-9.4,2.5l0.4-17.8L1651.1,332.4z"/>
				<path class="st31" d="M1594.9,314.1h-96v25.6h96V314.1z"/>
				<path class="st32" d="M1590.8,314.1v23.8"/>
				<path class="st32" d="M1587.2,314.1v23.4"/>
				<path class="st33" d="M1582.9,314.1v23.4"/>
				<path class="st32" d="M1577.5,314.1v23.4"/>
				<path class="st34" d="M1572.6,314.1v23.8"/>
				<path class="st32" d="M1565.5,314.1v23.4"/>
				<path class="st35" d="M1559.2,314.1v23.4"/>
				<path class="st32" d="M1551.3,314.1v23.4"/>
				<path class="st36" d="M1542.9,314.1v24"/>
				<path class="st32" d="M1535.8,314.1v23.4"/>
				<path class="st32" d="M1525.8,314.1v23.4"/>
				<path class="st37" d="M1518.5,314.1v23.8"/>
				<path class="st32" d="M1510,314.1v23.8"/>
				<path class="st38" d="M1504.6,314.1v23.4"/>
				<path class="st32" d="M1522.6,314.1v23.8"/>
				<path class="st32" d="M1567.5,314v23.3"/>
				<path class="st32" d="M1569.3,314v23.3"/>
				<path class="st32" d="M1563,314v23.3"/>
				<path class="st32" d="M1575.3,314.4v23.4"/>
				<path class="st32" d="M1579.5,314.4v23.4"/>
				<path class="st32" d="M1586,314.4v23.4"/>
				<path class="st32" d="M1589,314.4v23.4"/>
				<path class="st32" d="M1592.8,314.4v23.4"/>
				<path class="st32" d="M1549.2,314v23.4"/>
				<path class="st32" d="M1550.9,314.2v23.4"/>
				<path class="st32" d="M1552.8,314.2v23.4"/>
				<path class="st32" d="M1546.6,314.2v23.4"/>
				<path class="st32" d="M1536,314.2v23.4"/>
				<path class="st32" d="M1537.7,314v23.4"/>
				<path class="st32" d="M1539.6,314v23.4"/>
				<path class="st32" d="M1533.3,314v23.4"/>
				<path class="st32" d="M1529.4,314.3v23.4"/>
				<path class="st32" d="M1531.3,314v23.4"/>
				<path class="st32" d="M1533,314v23.4"/>
				<path class="st32" d="M1527,314v23.4"/>
				<path class="st32" d="M1509.9,314.4v23.4"/>
				<path class="st32" d="M1511.7,314.1v23.4"/>
				<path class="st32" d="M1513.5,314.1v23.4"/>
				<path class="st32" d="M1508,314.1v23.4"/>
				<path class="st39" d="M1594,336.2h-94.2v2.5h94.2V336.2z"/>
				<path class="st40" d="M1702.4,164.3h-209.2v39.1h209.2V164.3z"/>
				<path class="st41" d="M1516.8,166.9h-22.3v33.9h22.3V166.9z"/>
				<path class="st41" d="M1543.4,166.9h-22.3v33.9h22.3V166.9z"/>
				<path class="st41" d="M1569.4,166.9h-22.3v33.9h22.3V166.9z"/>
				<path class="st41" d="M1595.9,166.9h-22.3v33.9h22.3V166.9z"/>
				<path class="st41" d="M1622.4,166.9h-22.3v33.9h22.3V166.9z"/>
				<path class="st41" d="M1649,166.9h-22.3v33.9h22.3V166.9z"/>
				<path class="st41" d="M1675,166.9h-22.3v33.9h22.3V166.9z"/>
				<path class="st41" d="M1701.6,166.9h-22.3v33.9h22.3V166.9z"/>
				<path d="M1497.3,183.8c0-2.8,0.2-5.2,0.9-7c0.6-1.8,1.5-3.2,2.7-4.1c1.2-0.9,2.7-1.4,4.5-1.4c1.3,0,2.5,0.2,3.4,0.8
					c0.9,0.5,1.9,1.3,2.5,2.4c0.6,0.9,1.2,2.2,1.5,3.7c0.4,1.4,0.6,3.4,0.6,5.8c0,2.8-0.2,5.2-0.9,7c-0.6,1.8-1.5,3.1-2.7,4.1
					c-1.2,0.9-2.7,1.4-4.5,1.4c-2.4,0-4.2-0.8-5.5-2.5C1498.1,191.8,1497.3,188.4,1497.3,183.8z M1500.4,183.8c0,4,0.5,6.8,1.4,8.1
					c0.9,1.3,2.1,2,3.5,2c1.4,0,2.5-0.6,3.4-2c1-1.3,1.4-4,1.4-8.1c0-4-0.5-6.7-1.4-8.1c-0.9-1.3-2.1-2-3.5-2s-2.5,0.6-3.3,1.8
					C1501,177,1500.4,179.8,1500.4,183.8z"/>
				<path d="M1523.9,183.9c0-2.8,0.2-5.2,0.9-7c0.6-1.8,1.5-3.2,2.7-4.1c1.2-0.9,2.7-1.4,4.5-1.4c1.3,0,2.5,0.2,3.4,0.8
					c0.9,0.5,1.9,1.3,2.5,2.4c0.6,0.9,1.2,2.2,1.5,3.7c0.4,1.4,0.6,3.4,0.6,5.8c0,2.8-0.2,5.2-0.9,7c-0.6,1.8-1.5,3.1-2.7,4.1
					c-1.2,0.9-2.7,1.4-4.5,1.4c-2.4,0-4.2-0.8-5.5-2.5C1524.8,191.9,1523.9,188.6,1523.9,183.9z M1527.1,183.9c0,4,0.5,6.7,1.4,8.1
					s2.1,2,3.4,2c1.4,0,2.5-0.6,3.4-2c0.9-1.3,1.4-4,1.4-8.1c0-4-0.5-6.7-1.4-8.1c-0.9-1.3-2.1-2-3.5-2c-1.4,0-2.5,0.6-3.3,1.8
					C1527.5,177.1,1527.1,179.9,1527.1,183.9z"/>
				<path d="M1550.8,183.9c0-2.8,0.2-5.2,0.9-7c0.7-1.8,1.5-3.2,2.7-4.1c1.2-0.9,2.7-1.4,4.5-1.4c1.3,0,2.5,0.2,3.4,0.8
					c0.9,0.6,1.9,1.3,2.5,2.4c0.6,0.9,1.2,2.2,1.5,3.7c0.4,1.4,0.6,3.4,0.6,5.8c0,2.8-0.2,5.2-0.9,7c-0.6,1.8-1.5,3.1-2.7,4.1
					c-1.2,0.9-2.7,1.4-4.5,1.4c-2.4,0-4.2-0.8-5.5-2.5C1551.6,191.9,1550.8,188.6,1550.8,183.9z M1553.9,183.9c0,4,0.5,6.7,1.4,8.1
					c0.9,1.3,2.1,2,3.5,2s2.5-0.6,3.4-2c0.9-1.3,1.4-4,1.4-8.1c0-4-0.5-6.7-1.4-8.1c-0.9-1.3-2.1-2-3.5-2c-1.4,0-2.5,0.6-3.3,1.8
					C1554.5,177.1,1553.9,179.9,1553.9,183.9z"/>
				<path d="M1578.1,183.8c0-2.8,0.2-5.2,0.9-7c0.6-1.8,1.5-3.2,2.7-4.1c1.2-0.9,2.7-1.4,4.5-1.4c1.3,0,2.5,0.2,3.4,0.8
					c0.9,0.5,1.9,1.3,2.5,2.4c0.6,0.9,1.2,2.2,1.5,3.7c0.4,1.4,0.6,3.4,0.6,5.8c0,2.8-0.2,5.2-0.9,7c-0.6,1.8-1.5,3.1-2.7,4.1
					c-1.2,0.9-2.7,1.4-4.5,1.4c-2.4,0-4.2-0.8-5.5-2.5C1578.9,191.8,1578.1,188.3,1578.1,183.8z M1581.2,183.8c0,4,0.5,6.8,1.4,8.1
					c0.9,1.3,2.1,2,3.5,2s2.5-0.6,3.4-2c0.9-1.3,1.4-4,1.4-8.1c0-4-0.5-6.7-1.4-8.1c-0.9-1.3-2.1-2-3.5-2c-1.4,0-2.5,0.6-3.3,1.8
					C1581.6,177,1581.2,179.7,1581.2,183.8z"/>
				<path d="M1604,183.8c0-2.8,0.2-5.2,0.9-7c0.6-1.8,1.5-3.2,2.7-4.1c1.2-0.9,2.7-1.4,4.5-1.4c1.3,0,2.5,0.2,3.4,0.8
					c0.9,0.5,1.9,1.3,2.5,2.4c0.6,0.9,1.2,2.2,1.5,3.7c0.4,1.4,0.6,3.4,0.6,5.8c0,2.8-0.2,5.2-0.9,7c-0.6,1.8-1.5,3.1-2.7,4.1
					c-1.2,0.9-2.7,1.4-4.5,1.4c-2.4,0-4.2-0.8-5.5-2.5C1604.8,191.8,1604,188.3,1604,183.8z M1607,183.8c0,4,0.5,6.8,1.4,8.1
					c0.9,1.3,2.1,2,3.5,2s2.5-0.6,3.4-2c0.9-1.3,1.4-4,1.4-8.1c0-4-0.5-6.7-1.4-8.1c-0.9-1.3-2.1-2-3.5-2s-2.5,0.6-3.3,1.8
					C1607.6,177,1607,179.7,1607,183.8z"/>
				<path class="st42" d="M1630.8,183.2c0-2.8,0.2-5.2,0.9-7c0.6-1.8,1.5-3.2,2.7-4.1c1.2-0.9,2.7-1.4,4.5-1.4
					c1.3,0,2.5,0.2,3.4,0.8c0.9,0.5,1.9,1.3,2.5,2.4c0.6,0.9,1.2,2.2,1.5,3.7c0.4,1.4,0.6,3.4,0.6,5.8c0,2.8-0.2,5.2-0.9,7
					c-0.6,1.8-1.5,3.1-2.7,4.1c-1.2,1.1-2.7,1.4-4.5,1.4c-2.4,0-4.2-0.8-5.5-2.5C1631.6,191.3,1630.8,188,1630.8,183.2z
					 M1633.8,183.2c0,4,0.5,6.7,1.4,8.1c1,1.3,2.1,2,3.4,2c1.4,0,2.5-0.6,3.4-2c0.9-1.4,1.4-4,1.4-8.1c0-4-0.5-6.7-1.4-8.1
					c-0.9-1.3-2.1-2-3.5-2c-1.4,0-2.5,0.6-3.3,1.8C1634.4,176.5,1633.8,179.2,1633.8,183.2z"/>
				<path class="st42" d="M1672.2,176.8l-3.1,0.2c-0.2-1.2-0.6-2-1.2-2.6c-0.8-0.8-1.9-1.3-3.1-1.3c-0.9,0-1.9,0.2-2.5,0.8
					c-0.9,0.7-1.6,1.7-2.2,3.1c-0.6,1.3-0.8,3.2-0.8,5.7c0.7-1.2,1.6-1.9,2.7-2.5c1.1-0.6,2.1-0.8,3.3-0.8c2,0,3.8,0.8,5.2,2.2
					c1.4,1.4,2.1,3.4,2.1,5.7c0,1.5-0.4,3-0.9,4.3c-0.6,1.3-1.5,2.4-2.7,3.1c-1.2,0.7-2.5,1.1-3.9,1.1c-2.5,0-4.6-0.9-6.1-2.7
					c-1.5-1.8-2.4-4.9-2.4-9.2c0-4.7,0.8-8.2,2.6-10.4c1.5-1.9,3.5-2.8,6.2-2.8c1.9,0,3.5,0.6,4.7,1.7
					C1671.2,173.4,1672.1,174.9,1672.2,176.8z M1660.1,187.5c0,1.1,0.2,2,0.6,3c0.5,0.9,1.1,1.7,1.9,2.2s1.7,0.7,2.5,0.7
					c1.3,0,2.4-0.5,3.2-1.5c0.9-1.1,1.4-2.4,1.4-4.1c0-1.7-0.5-3.1-1.3-4c-0.9-0.9-2-1.5-3.4-1.5c-1.4,0-2.5,0.5-3.4,1.5
					C1660.5,184.6,1660.1,185.8,1660.1,187.5z"/>
				<path class="st42" d="M1698.8,192.9v2.8h-16.1c0-0.7,0.1-1.4,0.4-2.1c0.5-1.2,1.1-2.2,2-3.2c0.9-1.1,2.2-2.4,3.9-3.8
					c2.7-2.2,4.5-3.9,5.4-5.2c0.9-1.3,1.4-2.5,1.4-3.6c0-1.2-0.5-2.2-1.3-3.1c-0.8-0.8-2-1.3-3.3-1.3c-1.5,0-2.6,0.5-3.4,1.3
					c-0.8,0.8-1.3,2-1.3,3.6l-3.1-0.4c0.2-2.4,0.9-4.1,2.4-5.3c1.4-1.2,3.2-1.9,5.5-1.9c2.4,0,4.2,0.6,5.5,2c1.3,1.3,2,2.8,2,4.9
					c0,0.9-0.2,2-0.6,2.8c-0.5,0.9-1.1,2-2,3c-0.9,1.1-2.5,2.5-4.6,4.3c-1.9,1.5-2.9,2.5-3.4,3.1c-0.5,0.6-0.9,1.1-1.3,1.7h12v0.5
					H1698.8z"/>
				<path class="st30" d="M1500.8,222.8l1.3,0.4c-0.2,1.2-0.8,2-1.5,2.5c-0.7,0.6-1.7,0.8-2.7,0.8c-1.2,0-2-0.2-2.7-0.6
					c-0.7-0.5-1.2-1.2-1.5-2c-0.4-0.8-0.6-1.8-0.6-2.7c0-1.1,0.2-2,0.6-2.7c0.5-0.8,0.9-1.4,1.8-1.9c0.8-0.5,1.5-0.6,2.5-0.6
					c0.9,0,1.9,0.2,2.6,0.8c0.7,0.6,1.2,1.3,1.5,2.2l-1.3,0.2c-0.2-0.8-0.6-1.3-1.1-1.7s-0.9-0.5-1.7-0.5c-0.8,0-1.5,0.2-2,0.6
					c-0.5,0.4-0.9,0.9-1.2,1.5c-0.2,0.6-0.4,1.3-0.4,2c0,0.8,0.1,1.7,0.4,2.2c0.2,0.6,0.6,1.2,1.2,1.5c0.6,0.4,1.2,0.5,1.8,0.5
					c0.8,0,1.4-0.2,1.9-0.6C1500.3,224.3,1500.6,223.6,1500.8,222.8z M1503.8,226.3V216h3.8c0.8,0,1.4,0.1,1.9,0.2
					c0.5,0.2,0.8,0.5,1.2,0.9c0.2,0.5,0.5,0.8,0.5,1.3c0,0.5-0.1,0.8-0.4,1.2c-0.2,0.4-0.6,0.7-1.1,0.9c0.6,0.2,1.1,0.5,1.4,0.9
					c0.4,0.5,0.5,0.9,0.5,1.5c0,0.5-0.1,0.9-0.2,1.3c-0.2,0.5-0.5,0.7-0.8,0.9c-0.2,0.2-0.7,0.5-1.2,0.5c-0.5,0.1-0.9,0.1-1.6,0.1
					h-3.9V226.3z M1505.1,220.4h2.2c0.6,0,1.1-0.1,1.3-0.1c0.4-0.1,0.6-0.2,0.8-0.5c0.2-0.2,0.2-0.6,0.2-0.9c0-0.4-0.1-0.6-0.2-0.9
					c-0.1-0.2-0.5-0.5-0.7-0.6c-0.2-0.1-0.8-0.1-1.5-0.1h-2v3.2H1505.1z M1505.1,225.1h2.5c0.5,0,0.8,0,0.9-0.1
					c0.2-0.1,0.6-0.1,0.8-0.2c0.2-0.1,0.4-0.4,0.5-0.6c0.1-0.2,0.2-0.6,0.2-0.8c0-0.4-0.1-0.7-0.2-0.9c-0.2-0.2-0.5-0.5-0.8-0.6
					c-0.4-0.1-0.8-0.1-1.5-0.1h-2.4V225.1z M1513.3,216h1.3v4.5c0.6,0,1.1-0.1,1.3-0.4c0.2-0.2,0.6-0.8,0.9-1.8
					c0.2-0.6,0.5-1.2,0.7-1.4c0.2-0.2,0.5-0.5,0.8-0.7c0.4-0.2,0.7-0.2,1.2-0.2s0.8,0,0.8,0v1.2c-0.1,0-0.1,0-0.2,0
					c-0.1,0-0.2,0-0.2,0c-0.5,0-0.8,0.1-0.9,0.2c-0.2,0.2-0.5,0.6-0.7,1.3c-0.4,0.8-0.6,1.4-0.8,1.7c-0.2,0.2-0.5,0.5-0.8,0.6
					c0.6,0.2,1.3,0.8,2,1.9l2.1,3.4h-1.6l-1.7-2.7c-0.5-0.8-0.8-1.3-1.2-1.5c-0.2-0.2-0.7-0.5-1.2-0.5v4.9h-1.3v-10.3h-0.5V216z
					 M1524.9,223.3v-1.3h3.9v1.3H1524.9z M1538.5,226.3h-1.3v-8.1c-0.2,0.2-0.7,0.6-1.2,0.8c-0.5,0.2-0.9,0.5-1.3,0.6v-1.2
					c0.7-0.4,1.3-0.7,1.9-1.2c0.5-0.5,0.9-0.9,1.2-1.3h0.8L1538.5,226.3z M1541.6,223.6l1.3-0.1c0.1,0.6,0.4,1.2,0.7,1.5
					c0.4,0.4,0.8,0.5,1.3,0.5c0.6,0,1.2-0.2,1.5-0.7c0.5-0.5,0.6-1.1,0.6-1.9c0-0.7-0.2-1.3-0.6-1.7c-0.5-0.5-0.9-0.6-1.5-0.6
					c-0.5,0-0.8,0.1-1.1,0.2c-0.4,0.2-0.6,0.5-0.8,0.7l-1.2-0.1l0.9-5.2h5.1v1.2h-4.1l-0.6,2.7c0.6-0.5,1.3-0.6,1.9-0.6
					c0.9,0,1.7,0.2,2.2,0.9c0.6,0.6,0.9,1.4,0.9,2.4c0,0.9-0.2,1.7-0.8,2.4c-0.6,0.8-1.5,1.3-2.7,1.3c-0.9,0-1.7-0.2-2.2-0.8
					C1542,225.1,1541.8,224.6,1541.6,223.6z M1550.1,216h6.6v1.2h-5.2v9h-1.3L1550.1,216z"/>
				<path class="st30" d="M1493.3,245.2l1.2-0.1c0.1,0.6,0.2,0.9,0.6,1.3c0.2,0.2,0.6,0.4,1.2,0.4c0.4,0,0.7-0.1,0.9-0.2
					c0.2-0.2,0.6-0.5,0.7-0.7c0.2-0.2,0.4-0.7,0.5-1.2c0.1-0.5,0.2-0.9,0.2-1.5c0-0.1,0-0.1,0-0.2c-0.2,0.5-0.6,0.7-1.1,0.9
					c-0.5,0.2-0.9,0.4-1.4,0.4c-0.8,0-1.5-0.2-2.1-0.9c-0.6-0.6-0.8-1.4-0.8-2.4c0-1.1,0.2-1.9,0.9-2.5c0.6-0.6,1.4-0.9,2.4-0.9
					c0.6,0,1.3,0.2,1.9,0.6c0.6,0.4,0.9,0.8,1.3,1.5c0.2,0.6,0.5,1.7,0.5,2.8c0,1.3-0.1,2.4-0.5,3.1c-0.2,0.8-0.7,1.3-1.3,1.8
					c-0.6,0.5-1.2,0.6-2,0.6c-0.8,0-1.5-0.2-2-0.6C1493.7,246.6,1493.3,245.9,1493.3,245.2z M1498.4,240.7c0-0.7-0.2-1.3-0.6-1.7
					c-0.4-0.5-0.8-0.6-1.4-0.6c-0.6,0-1.1,0.2-1.5,0.7c-0.5,0.5-0.6,1.1-0.6,1.8c0,0.6,0.2,1.2,0.6,1.7c0.5,0.5,0.8,0.6,1.5,0.6
					c0.6,0,1.1-0.2,1.4-0.6C1498.1,241.8,1498.4,241.4,1498.4,240.7z M1501,242.4c0-1.2,0.1-2.2,0.4-2.8c0.2-0.7,0.6-1.3,1.2-1.7
					c0.5-0.5,1.2-0.6,1.9-0.6c0.6,0,1.1,0.1,1.4,0.4c0.5,0.2,0.8,0.6,1.1,0.9c0.2,0.5,0.5,0.9,0.6,1.5c0.1,0.6,0.2,1.4,0.2,2.4
					c0,1.2-0.1,2.2-0.4,2.8c-0.2,0.7-0.6,1.3-1.2,1.7c-0.5,0.5-1.2,0.6-1.9,0.6c-0.9,0-1.8-0.4-2.4-1.1
					C1501.3,245.7,1501,244.3,1501,242.4z M1502.3,242.4c0,1.7,0.2,2.8,0.6,3.4c0.5,0.6,0.8,0.8,1.5,0.8c0.6,0,1.1-0.2,1.5-0.8
					c0.5-0.6,0.6-1.7,0.6-3.3c0-1.7-0.2-2.8-0.6-3.4c-0.4-0.6-0.8-0.8-1.5-0.8c-0.6,0-1.1,0.2-1.4,0.7
					C1502.5,239.6,1502.3,240.8,1502.3,242.4z M1509.2,239c0-0.6,0.2-0.9,0.6-1.3c0.4-0.4,0.8-0.6,1.3-0.6c0.6,0,0.9,0.2,1.4,0.6
					c0.4,0.4,0.6,0.8,0.6,1.3c0,0.6-0.2,0.9-0.6,1.3c-0.4,0.4-0.8,0.6-1.3,0.6s-0.9-0.2-1.3-0.6
					C1509.4,239.9,1509.2,239.6,1509.2,239z M1510,239c0,0.4,0.1,0.6,0.4,0.8c0.2,0.2,0.5,0.4,0.8,0.4c0.4,0,0.6-0.1,0.8-0.4
					c0.2-0.2,0.4-0.5,0.4-0.8c0-0.4-0.1-0.6-0.4-0.8c-0.2-0.2-0.5-0.4-0.8-0.4c-0.4,0-0.6,0.1-0.8,0.4
					C1510,238.4,1510,238.6,1510,239z M1522.4,243.9l1.3,0.4c-0.2,1.2-0.8,2-1.5,2.5c-0.7,0.6-1.6,0.8-2.7,0.8c-1.2,0-2-0.2-2.7-0.6
					c-0.7-0.5-1.2-1.2-1.5-2s-0.6-1.8-0.6-2.7c0-1.1,0.2-2,0.6-2.7c0.5-0.8,0.9-1.4,1.8-1.9c0.8-0.5,1.5-0.6,2.5-0.6
					s1.9,0.2,2.6,0.8c0.7,0.5,1.2,1.3,1.5,2.2l-1.3,0.2c-0.2-0.8-0.6-1.3-1.1-1.7c-0.5-0.4-0.9-0.5-1.6-0.5c-0.8,0-1.4,0.2-2,0.6
					c-0.5,0.4-0.9,0.9-1.2,1.5c-0.2,0.6-0.4,1.3-0.4,2c0,0.8,0.1,1.7,0.4,2.2c0.2,0.6,0.6,1.2,1.2,1.5c0.6,0.4,1.2,0.5,1.8,0.5
					c0.8,0,1.4-0.2,1.9-0.6C1521.9,245.4,1522.2,244.8,1522.4,243.9z"/>
				<path d="M1497.8,267.8h-1.3v-8.1c-0.2,0.2-0.7,0.6-1.2,0.8c-0.5,0.2-0.9,0.5-1.3,0.6V260c0.7-0.4,1.3-0.7,1.9-1.2
					c0.5-0.5,0.9-0.9,1.2-1.3h0.8L1497.8,267.8z M1501.7,267.8v-1.4h1.4v1.4c0,0.5-0.1,0.9-0.2,1.3c-0.2,0.4-0.5,0.6-0.9,0.8
					l-0.4-0.6c0.2-0.1,0.5-0.2,0.6-0.5c0.1-0.2,0.2-0.6,0.2-0.9h-0.7V267.8z M1511.4,260.1l-1.3,0.1c-0.1-0.5-0.2-0.8-0.5-1.1
					c-0.4-0.4-0.8-0.6-1.3-0.6c-0.5,0-0.8,0.1-1.1,0.4c-0.5,0.2-0.7,0.7-0.9,1.3c-0.2,0.6-0.4,1.3-0.4,2.4c0.2-0.5,0.7-0.8,1.2-1.1
					s0.9-0.4,1.4-0.4c0.8,0,1.5,0.2,2.1,0.9c0.6,0.6,0.9,1.4,0.9,2.4c0,0.6-0.1,1.3-0.5,1.8c-0.2,0.6-0.6,0.9-1.2,1.3
					c-0.5,0.2-1.1,0.5-1.7,0.5c-1.1,0-1.9-0.4-2.5-1.2c-0.6-0.8-0.9-2-0.9-3.8c0-2,0.4-3.4,1.2-4.3c0.6-0.8,1.5-1.2,2.5-1.2
					c0.8,0,1.5,0.2,2,0.7C1511.1,258.7,1511.3,259.2,1511.4,260.1z M1506.4,264.5c0,0.5,0.1,0.8,0.2,1.3c0.2,0.5,0.5,0.7,0.8,0.9
					c0.4,0.2,0.7,0.2,1.1,0.2c0.6,0,0.9-0.2,1.3-0.6c0.4-0.5,0.6-0.9,0.6-1.8c0-0.7-0.2-1.3-0.6-1.7c-0.4-0.5-0.8-0.6-1.4-0.6
					c-0.6,0-1.1,0.2-1.5,0.6C1506.5,263.3,1506.4,263.7,1506.4,264.5z M1517.3,267.8v-10.3h2l2.4,7.2c0.2,0.7,0.4,1.2,0.5,1.5
					c0.1-0.4,0.2-0.9,0.6-1.7l2.5-7.1h1.9v10.3h-1.3v-8.5l-2.9,8.5h-1.2l-2.9-8.6v8.6H1517.3z M1529.2,267.8v-10.3h3.9
					c0.7,0,1.2,0,1.5,0.1c0.5,0.1,0.9,0.2,1.3,0.5c0.4,0.2,0.6,0.6,0.8,0.9c0.2,0.5,0.2,0.9,0.2,1.4c0,0.8-0.2,1.7-0.8,2.2
					c-0.6,0.6-1.5,0.9-3.1,0.9h-2.6v4.1H1529.2z M1530.5,262.3h2.6c0.8,0,1.5-0.1,1.9-0.5c0.4-0.4,0.6-0.8,0.6-1.3
					c0-0.5-0.1-0.8-0.4-1.2c-0.2-0.2-0.5-0.5-0.8-0.6c-0.2-0.1-0.6-0.1-1.3-0.1h-2.6V262.3z M1543.3,266.9c-0.5,0.5-0.9,0.7-1.3,0.8
					c-0.5,0.1-1,0.2-1.4,0.2c-0.8,0-1.4-0.2-1.9-0.6c-0.5-0.5-0.6-0.9-0.6-1.5c0-0.4,0.1-0.7,0.2-0.9c0.1-0.2,0.4-0.6,0.6-0.7
					c0.2-0.2,0.6-0.4,0.9-0.5c0.2-0.1,0.6-0.1,1.2-0.2c0.9-0.1,1.8-0.2,2.2-0.5c0-0.1,0-0.2,0-0.4c0-0.5-0.1-0.8-0.4-1.1
					c-0.4-0.2-0.8-0.5-1.4-0.5c-0.6,0-1.1,0.1-1.3,0.2c-0.2,0.2-0.5,0.6-0.6,1.2l-1.2-0.1c0.1-0.5,0.2-0.9,0.6-1.3
					c0.2-0.4,0.6-0.6,1.2-0.8c0.5-0.2,1.1-0.2,1.7-0.2s1.2,0.1,1.5,0.2c0.5,0.1,0.7,0.4,0.8,0.6c0.2,0.2,0.2,0.5,0.5,0.8
					c0.1,0.2,0.1,0.6,0.1,1.2v1.7c0,1.2,0,1.9,0.1,2.2c0.1,0.2,0.1,0.6,0.4,0.9h-1.3C1543.4,267.5,1543.3,267.2,1543.3,266.9z
					 M1543.2,264.1c-0.5,0.2-1.2,0.4-2,0.5c-0.5,0.1-0.9,0.1-1.2,0.2c-0.2,0.1-0.4,0.2-0.5,0.5c-0.1,0.2-0.1,0.4-0.1,0.6
					c0,0.4,0.1,0.6,0.4,0.8c0.2,0.2,0.6,0.4,1.2,0.4c0.5,0,0.9-0.1,1.3-0.2c0.4-0.2,0.6-0.5,0.8-0.8c0.1-0.2,0.2-0.7,0.2-1.3
					L1543.2,264.1z"/>
				<path d="M1493.6,288.1v-10.3h3.8c0.8,0,1.4,0.1,1.9,0.2c0.5,0.2,0.8,0.5,1.2,0.9c0.2,0.5,0.5,0.8,0.5,1.3c0,0.5-0.1,0.8-0.4,1.2
					c-0.2,0.4-0.6,0.7-1.1,0.9c0.6,0.2,1.1,0.5,1.4,0.9c0.4,0.5,0.5,0.9,0.5,1.5c0,0.5-0.1,0.9-0.2,1.3c-0.2,0.5-0.5,0.7-0.8,0.9
					c-0.2,0.2-0.7,0.5-1.2,0.5c-0.5,0.1-0.9,0.1-1.7,0.1h-3.9V288.1z M1494.9,282.2h2.2c0.6,0,1.1-0.1,1.3-0.1
					c0.4-0.1,0.6-0.2,0.8-0.5c0.1-0.2,0.2-0.6,0.2-0.9c0-0.4-0.1-0.6-0.2-0.9c-0.1-0.2-0.5-0.5-0.7-0.6c-0.2-0.1-0.8-0.1-1.5-0.1h-2
					v3.2H1494.9z M1494.9,287h2.5c0.5,0,0.8,0,0.9-0.1c0.2-0.1,0.6-0.1,0.8-0.2c0.2-0.1,0.4-0.4,0.5-0.6c0.1-0.2,0.2-0.6,0.2-0.8
					c0-0.4-0.1-0.7-0.2-0.9c-0.2-0.2-0.5-0.5-0.8-0.6c-0.4-0.1-0.8-0.1-1.5-0.1h-2.4V287z M1503.1,288.1v-10.3h1.3v4.3h5.3v-4.3h1.3
					v10.3h-1.3v-4.9h-5.3v4.9H1503.1z M1512.3,288.3l2.9-10.7h0.9l-2.9,10.7H1512.3z M1516.1,288.1l3.9-10.3h1.5l4.1,10.3h-1.5
					l-1.2-3.1h-4.2l-1.2,3.1H1516.1z M1519.1,283.9h3.4l-1.1-2.8c-0.4-0.8-0.6-1.5-0.7-2.1c-0.1,0.6-0.2,1.3-0.6,2L1519.1,283.9z
					 M1528.6,288.1l-3.9-10.3h1.5l2.7,7.5c0.2,0.6,0.5,1.2,0.6,1.7c0.1-0.6,0.4-1.2,0.6-1.7l2.7-7.5h1.4l-4,10.3H1528.6z"/>
				<path class="st43" d="M1597.2,108.3v-5.7h25.6v48.2h-12.9v-40.6h-25v40.6h12.2v-32.6h-10"/>
				<path class="st43" d="M1582.4,118.2h-7.6v33"/>
				<path d="M1578.5,157.3v2.6h-0.6v-2.6l-0.1-0.1l-2.4,2.7h-0.7l2.7-3.1l-2.5-2.5h0.7l2.4,2.4v-2.4h0.6v2.4l2.4-2.4h0.7l-2.5,2.5
					l2.7,3.1h-0.7l-2.4-2.7h-0.4V157.3z"/>
				<path d="M1586.9,159.9h-0.6v-4.4l-3.8,4.3h-0.1v-5.7h0.6v4.4l3.8-4.4h0.1V159.9z"/>
				<path d="M1592.8,159.9h-0.6l-1.9-4.4l-1.9,4.4h-0.6l2.5-5.7h0.1L1592.8,159.9z"/>
				<path d="M1598.2,159.9h-0.6v-4.4l-3.8,4.3h-0.1v-5.7h0.6v4.4l3.8-4.4h0.1V159.9z"/>
				<path d="M1606.1,159.3h0.9v1.3h-0.6v-0.8h-7.1v-5.7h0.6v5.2h2.4v-5.2h0.6v5.2h2.5v-5.2h0.6
					C1606.1,154.1,1606.1,159.3,1606.1,159.3z"/>
				<path d="M1607.9,154.1h0.6v2.4h2.8v-2.4h0.6v5.7h-0.6v-2.8h-2.8v2.7h-0.6V154.1z"/>
				<path d="M1617.6,159.9h-0.6v-4.4l-3.8,4.3h-0.1v-5.7h0.6v4.4l3.8-4.4h0.1V159.9z"/>
				<path d="M1619,154.1h0.6v2l2.4-2h0.7l-2.7,2.5l2.8,3.1h-0.8l-2.5-2.6v2.6h-0.6C1619,159.9,1619,154.1,1619,154.1z"/>
			</g>
		</g>
	</g>
</g>
</svg>
