<svg width="71" height="70" viewBox="0 0 71 70" fill="none" xmlns="http://www.w3.org/2000/svg">
<path d="M60.4685 67H10.5315C5.35131 67 1 62.6046 1 57.3721V22.6279C1 17.3953 5.35131 13 10.5315 13H60.4685C65.6487 13 70 17.3953 70 22.6279V57.3721C70 62.6046 65.8559 67 60.4685 67Z" stroke="#3CA9EA" stroke-width="2" stroke-miterlimit="10"/>
<path d="M70 28H1V33H70V28Z" fill="#3CA9EA"/>
<path d="M34.972 55.812C34.732 55.812 34.528 55.728 34.36 55.56C34.192 55.392 34.108 55.188 34.108 54.948V47.928H27.232C26.992 47.928 26.788 47.844 26.62 47.676C26.452 47.508 26.368 47.304 26.368 47.064V45.12C26.368 44.88 26.452 44.676 26.62 44.508C26.788 44.34 26.992 44.256 27.232 44.256H34.108V37.452C34.108 37.188 34.192 36.984 34.36 36.84C34.528 36.672 34.732 36.588 34.972 36.588H37.132C37.396 36.588 37.6 36.672 37.744 36.84C37.912 36.984 37.996 37.188 37.996 37.452V44.256H44.872C45.112 44.256 45.316 44.34 45.484 44.508C45.652 44.676 45.736 44.88 45.736 45.12V47.064C45.736 47.304 45.652 47.508 45.484 47.676C45.34 47.844 45.136 47.928 44.872 47.928H37.996V54.948C37.996 55.188 37.912 55.392 37.744 55.56C37.6 55.728 37.396 55.812 37.132 55.812H34.972Z" fill="#3CA9EA"/>
<path d="M21.003 13C21.003 13 20.603 1 29.0029 1H45.4025C45.4025 1 51.6026 2.18034 49.6026 13" stroke="#3CA9EA" stroke-width="2" stroke-miterlimit="10"/>
</svg>
