<svg width="560" height="560" viewBox="0 0 560 560" fill="none" xmlns="http://www.w3.org/2000/svg">
<path d="M285.688 524.234C424.561 524.234 537.141 418.706 537.141 288.531C537.141 158.356 424.561 52.8281 285.688 52.8281C146.814 52.8281 34.2344 158.356 34.2344 288.531C34.2344 418.706 146.814 524.234 285.688 524.234Z" fill="#1DB0D1"/>
<path d="M57.4219 211.969L26.8516 201.961L23.7891 164.883L43.9688 132.07L78.2031 118.344L103.797 152.195L57.4219 211.969Z" fill="#8D6030"/>
<path d="M94.1719 223.945C94.1719 223.945 102.922 221.648 116.32 204.367C129.719 187.086 133.875 176.969 127.477 171.719L103.742 152.141L97.9453 137.594L79.1328 149.953L58.625 181.07L57.4219 211.969C57.4219 211.969 62.5625 207.102 73.9375 213.5C73.9375 213.5 88.4844 220.5 94.1719 223.945Z" fill="url(#paint0_linear_1_12172)"/>
<path d="M103.797 152.195C103.797 152.195 59.7188 189.711 64.2578 210.219C64.2578 210.219 60.3203 209.727 57.4766 211.969L58.6797 181.07L79.1875 149.953L98 137.594L103.797 152.195Z" fill="url(#paint1_linear_1_12172)"/>
<path d="M43.9688 132.07L79.1328 150.008L58.625 181.125L23.7891 164.883" fill="#B58E3F"/>
<path d="M79.1328 150.008L98 137.648L78.2031 118.344L43.9688 132.07L79.1328 150.008Z" fill="#D1B349"/>
<path d="M120.75 165.977C120.75 165.977 104.672 163.352 91.2734 186.211C77.875 209.125 82.9062 218.094 82.9062 218.094" stroke="#8D5700" stroke-width="0.6508" stroke-miterlimit="10"/>
<path d="M125.125 169.586C125.125 169.586 109.813 165.922 97.1797 189.219C84.8203 211.969 89.25 221.266 89.25 221.266" stroke="#8D5700" stroke-width="0.6508" stroke-miterlimit="10"/>
<path d="M116.266 162.312C116.266 162.312 100.789 160.562 86.625 182.875C72.4609 205.187 77.5469 215.414 77.5469 215.414" stroke="#8D5700" stroke-width="0.6508" stroke-miterlimit="10"/>
<path d="M111.125 158.102C111.125 158.102 95.2656 158.594 81.375 181.125C67.5938 203.492 71.8594 212.516 71.8594 212.516" stroke="#8D5700" stroke-width="0.6508" stroke-miterlimit="10"/>
<path d="M65.4062 210.383L69.3438 189.547L90.5625 160.234L103.797 152.195" stroke="#8D5700" stroke-width="0.6508" stroke-miterlimit="10"/>
<path d="M442.695 242.594L451.008 238.328L454.016 249.211C462.219 281.695 460.578 295.039 455.984 316.859L453.578 330.641L442.641 327.906L442.695 242.594Z" fill="#D9932A"/>
<path d="M176.148 429.57L173.141 438.867L163.844 433.781C146.508 424.211 131.961 411.305 122.828 397.25L117.195 388.445L127.203 383.359L176.148 429.57Z" fill="#D9932A"/>
<path d="M295.312 450.461L300.016 460.797L289.406 462.984C264.414 467.414 252.602 466.594 239.531 462.055L231.438 459.977L231.328 447.18L295.312 450.461Z" fill="#D9932A"/>
<path d="M450.461 287.383C450.734 287.109 450.297 284.484 450.461 284.047C452.484 279.672 449.914 277.32 449.477 272.617C448.93 267.367 446.742 262.555 445.648 257.359C444.555 252.273 444.938 248.281 443.297 243.359C442.477 241.062 439.961 237.289 439.141 234.992C438.32 232.641 437.117 230.891 436.789 228.375C436.625 227.391 434.219 222.086 433.453 221.484C431.43 214.047 416.391 196.93 413 189.93C410.102 183.914 411.469 204.367 414.367 210.383C417.484 216.836 419.891 223.562 421.75 230.453C422.023 231.437 422.461 232.258 423.117 232.914C423.555 235.539 424.32 237.891 425.141 240.297C422.953 240.844 421.039 242.648 421.039 245.219C420.93 257.852 420.875 270.594 420.766 283.227C420.766 284.156 420.93 284.867 421.313 285.578C416.063 292.414 414.203 302.477 412.398 310.297C411.578 313.742 410.867 317.187 410.047 320.633C406.93 324.789 403.156 329 400.969 333.703C400.586 334.523 400.313 335.234 400.039 336.164C399.492 336.273 399.055 336.438 398.562 336.82C390.742 342.07 384.945 349.891 382.648 359.023C378.93 360.5 375.266 361.922 371.766 363.672C365.969 366.406 360.773 370.836 358.969 377.125C358.859 377.562 358.695 377.945 358.586 378.383C357.656 378.766 356.836 379.094 356.125 379.641C355.414 380.187 354.758 380.734 354.375 381.445C350.766 383.086 347.484 385.328 344.531 388.062C342.781 389.266 341.359 390.797 340.43 393.148C340.047 393.969 340.047 394.789 340.266 395.609C339.609 396.156 339.063 396.703 338.516 397.25C333.594 398.07 328.781 399 323.859 399.875C314.398 401.68 303.57 403.156 295.422 408.68C294.328 409.391 293.508 410.594 293.125 411.852C290.281 411.852 287.492 411.742 284.758 411.742C284.047 411.742 283.281 411.906 282.734 412.18C271.906 412.617 261.188 413.711 250.742 416.555C250.578 416.664 250.359 416.664 250.195 416.719C249.758 416.609 249.266 416.555 248.828 416.445C241.445 416.062 234.172 415.898 226.844 416.062C226.734 416.062 226.734 416.062 226.68 416.062C222.797 415.352 218.859 414.859 214.867 414.586L202.125 413.055C203.055 410.43 201.742 406.984 198.789 406.164C197.422 405.781 196.164 405.453 194.797 405.18C194.414 405.016 194.086 404.797 193.594 404.742C188.398 403.266 183.148 401.844 177.953 400.312C175.602 399.656 173.141 398.945 170.789 398.289C168.875 397.742 166.414 397.359 164.719 396.266C162.914 395.062 161.602 392.711 160.289 391.07C158.648 389.266 156.844 387.516 155.094 385.875C151.922 382.977 148.805 380.078 146.016 376.797C135.023 364.273 126.93 349.453 112.273 341.25C109.977 339.992 106.531 340.594 105.273 343.055C102.43 348.578 106.477 354.211 108.992 359.078C111.836 364.273 115.008 369.359 118.344 374.172C125.07 383.797 130.703 393.422 138.633 402.172C142.625 406.547 148.641 410.43 152.797 414.641C155.641 417.484 158.703 421.258 162.531 422.461C166.359 427.82 170.898 430.992 177.516 432.031L178.172 433.398C178.445 433.508 179.102 432.742 179.375 432.742C179.813 434.219 181.016 434.109 182.711 434.492C183.805 434.766 184.461 436.023 185.555 436.406C185.992 437.883 187.578 438.047 189.438 438.43C190.367 438.594 191.242 438.812 192.172 438.977C195.016 441.273 198.352 442.805 201.906 443.242C202.563 444.062 203.438 444.773 204.75 445.047L212.406 447.672C212.68 449.422 214.703 448.602 216.781 449.312C226.133 452.484 234.883 456.148 244.617 454.945C245.328 455.492 247.242 455.602 248.5 455.492C260.969 455.055 273.328 454.562 285.742 454.508C291.484 454.398 296.461 453.031 301.93 451.609C307.016 450.242 308.656 450.625 313.359 448.273C314.891 447.562 318.555 447.727 320.195 446.633C321.453 447.18 325.555 445.812 327.086 444.828C331.352 441.93 335.836 441 340.539 439.195C345.734 437.117 351.805 434.656 356.453 431.648C365.094 426.125 371.547 424.922 378.656 417.266C380.297 417.156 381.664 415.078 382.375 413.656C383.031 413.547 386.258 410.484 386.805 410.102C391.234 407.203 391.891 408.461 393.531 403.539C396.266 401.516 398.617 401.078 400.695 398.18C401.898 396.539 405.234 393.914 406.438 392.164C406.875 391.891 410.813 386.641 411.25 386.258C415.789 382.812 413.438 386.367 415.242 381.336C416.172 380.68 419.125 377.234 419.344 375.977C419.344 375.867 422.789 372.094 422.898 372.094C423.609 371.711 426.891 364.93 427.438 364.109C430.609 359.187 432.797 356.945 434.875 351.477C436.898 346.008 439.578 339.555 441.766 334.195C443.953 328.836 445.211 322.82 446.578 317.187C448.055 311.391 450.188 304.008 449.859 297.937C449.695 295.039 449.969 293.125 450.297 290.227C450.461 289.953 450.406 287.766 450.461 287.383Z" fill="#4B5658"/>
<path d="M327.961 118.781C655.102 314.453 236.414 623.602 98.4375 342.945" stroke="black" stroke-width="6.2755" stroke-miterlimit="10"/>
<path d="M256.32 438.047C352.849 438.047 431.102 363.32 431.102 271.141C431.102 178.961 352.849 104.234 256.32 104.234C159.791 104.234 81.5391 178.961 81.5391 271.141C81.5391 363.32 159.791 438.047 256.32 438.047Z" fill="white" stroke="black" stroke-width="5.8813" stroke-miterlimit="10"/>
<path d="M259.164 427.383C350.77 427.383 425.031 358.19 425.031 272.836C425.031 187.482 350.77 118.289 259.164 118.289C167.558 118.289 93.2969 187.482 93.2969 272.836C93.2969 358.19 167.558 427.383 259.164 427.383Z" fill="white"/>
<path d="M284.703 281.969C284.703 288.148 282.406 293.508 279.234 298.266C276.062 302.805 271.852 306.742 266.766 309.695C260.859 313.141 254.516 316.313 246.969 316.313C240.078 316.313 233.406 315.219 227.992 312.32C222.086 309.148 217.383 303.953 214.102 298.211C211.258 293.289 209.398 287.875 209.398 281.859C209.398 276.391 211.969 272.016 214.32 267.477C220.391 255.773 232.039 246.914 247.023 246.914C256.375 246.914 266.93 249.102 274.203 254.625C277.539 257.25 279.453 261.789 281.586 265.07C284.867 270.43 284.703 275.406 284.703 281.969Z" fill="#F1F0F6"/>
<path d="M252.602 247.023C252.437 246.914 252.164 246.914 251.891 246.914C251.727 246.914 251.453 246.805 251.234 246.805C250.797 246.695 250.305 246.695 249.758 246.695C249.648 246.695 249.594 246.695 249.484 246.805C249.211 246.805 249.047 246.695 248.773 246.695C248.391 246.695 248.117 246.695 247.789 246.695C247.68 246.695 247.68 246.695 247.625 246.805C247.242 246.805 246.969 246.805 246.641 246.805C246.258 246.805 245.984 246.914 245.656 246.914C245.547 246.914 245.492 246.914 245.383 247.023C245.219 247.023 245 247.133 244.836 247.133C244.672 247.133 244.398 247.133 244.18 247.242C243.742 247.352 243.359 247.406 242.922 247.352C242.813 247.352 242.758 247.461 242.648 247.461C242.539 247.461 242.484 247.461 242.375 247.57H242.266H242.156C242.047 247.57 241.992 247.57 241.992 247.57L241.062 247.68C240.953 247.68 240.898 247.789 240.789 247.844C240.352 247.844 239.859 248.008 239.313 248.008C239.203 248.008 239.148 248.117 239.148 248.172H239.039C238.875 248.172 238.656 248.172 238.602 248.281C238.437 248.281 238.328 248.391 238.164 248.445H238.055H237.945C237.836 248.445 237.781 248.445 237.672 248.555C237.563 248.555 237.562 248.664 237.562 248.664C237.289 248.773 236.906 248.828 236.633 248.828C236.523 248.828 236.523 248.938 236.469 248.938C236.195 249.047 235.813 249.102 235.539 249.211C235.266 249.32 234.883 249.32 234.609 249.484C234.336 249.648 234.062 249.867 233.789 249.922C233.516 249.977 233.133 250.195 232.859 250.305C232.859 250.305 232.75 250.305 232.75 250.414C232.641 250.414 232.586 250.523 232.477 250.523C232.367 250.523 232.367 250.633 232.312 250.633C232.203 250.742 232.203 250.742 232.148 250.797C232.039 250.797 231.984 250.906 231.875 250.906C231.766 250.906 231.711 251.016 231.602 251.07C231.492 251.18 231.438 251.18 231.328 251.234C231.219 251.344 231.164 251.344 231.055 251.398C230.945 251.398 230.945 251.508 230.945 251.508C230.945 251.508 230.836 251.508 230.836 251.617C230.727 251.617 230.672 251.727 230.672 251.727C230.562 251.727 230.508 251.836 230.508 251.836C230.398 251.836 230.344 251.945 230.344 251.945C230.234 251.945 230.234 252.055 230.18 252.055H230.07H229.961C229.852 252.055 229.852 252.055 229.797 252.164C229.688 252.164 229.633 252.273 229.523 252.328C229.414 252.328 229.414 252.438 229.359 252.492C229.086 252.656 228.812 252.875 228.539 253.039C228.266 253.203 227.992 253.422 227.719 253.586L227.609 253.695C227.445 253.805 227.227 253.969 226.953 254.078C226.953 254.078 226.953 254.078 226.844 254.078C226.844 254.078 226.734 254.187 226.68 254.187C226.68 254.187 226.57 254.188 226.57 254.297L226.461 254.406C226.461 254.406 226.461 254.406 226.57 254.406C226.461 254.406 226.461 254.516 226.406 254.57C226.242 254.68 226.133 254.734 226.023 254.844C226.023 254.844 226.023 254.953 225.914 254.953C225.805 254.953 225.805 255.062 225.75 255.062L225.641 255.172C225.641 255.172 225.531 255.172 225.531 255.281H225.422C225.313 255.391 225.148 255.391 225.039 255.555C225.039 255.555 225.039 255.555 225.039 255.664C224.766 255.773 224.656 256.047 224.492 256.211C224.492 256.211 224.383 256.211 224.383 256.32C224.273 256.32 224.273 256.43 224.219 256.43C224.055 256.539 223.945 256.594 223.836 256.813V256.922L223.727 257.031C223.727 257.031 223.617 257.031 223.617 257.141C223.508 257.25 223.344 257.305 223.234 257.414C223.125 257.523 223.07 257.578 222.961 257.688C222.852 257.797 222.852 257.852 222.797 257.852C222.797 257.852 222.797 257.852 222.797 257.961L222.688 258.07C222.688 258.07 222.688 258.07 222.688 258.18C222.578 258.18 222.523 258.289 222.523 258.344V258.453C222.523 258.453 222.523 258.453 222.523 258.562C222.523 258.562 222.523 258.563 222.414 258.672C222.414 258.672 222.305 258.672 222.305 258.781C222.195 258.891 222.195 258.891 222.141 258.945C222.031 259.055 222.031 259.055 221.977 259.109V259.219C221.867 259.328 221.812 259.383 221.703 259.492C221.594 259.492 221.594 259.602 221.539 259.602C221.539 259.711 221.43 259.711 221.375 259.766C221.266 259.875 221.211 259.93 221.211 260.039C221.102 260.203 221.047 260.312 220.828 260.477C220.719 260.477 220.664 260.586 220.664 260.641L220.555 260.75C220.445 260.859 220.445 260.859 220.391 260.914C220.281 261.078 220.117 261.188 220.008 261.352C220.008 261.352 220.008 261.352 220.008 261.461L219.898 261.57C219.789 261.68 219.789 261.734 219.734 261.844C219.734 261.844 219.734 261.844 219.734 261.953L219.625 262.063C219.516 262.172 219.516 262.172 219.461 262.227C219.352 262.227 219.352 262.336 219.352 262.336C219.352 262.336 219.352 262.336 219.352 262.445L219.242 262.555C219.133 262.664 219.133 262.664 219.078 262.719C218.969 262.828 218.914 262.992 218.695 263.156C218.586 263.266 218.531 263.32 218.422 263.43C218.422 263.43 218.422 263.43 218.422 263.539C218.312 263.648 218.313 263.703 218.258 263.812C218.258 263.812 218.148 263.922 218.148 263.977L218.039 264.086C217.93 264.195 217.93 264.25 217.875 264.359L217.766 264.469C217.656 264.578 217.602 264.633 217.602 264.742C217.492 264.906 217.437 265.125 217.328 265.18C217.219 265.344 217.164 265.453 217.055 265.617L216.945 265.727C216.836 265.891 216.672 266.164 216.562 266.383C216.398 266.547 216.289 266.766 216.18 267.039L216.07 267.148C215.961 267.313 215.906 267.531 215.687 267.695C215.578 267.805 215.578 267.859 215.523 268.078C215.523 268.078 215.523 268.078 215.523 268.188C215.523 268.188 215.414 268.297 215.414 268.352L215.305 268.461C215.305 268.461 215.305 268.461 215.305 268.57C215.195 268.68 215.195 268.734 215.141 268.844C215.141 268.953 215.031 269.008 215.031 269.117C214.922 269.117 214.922 269.227 214.922 269.281V269.391C214.922 269.5 214.812 269.5 214.812 269.555C214.703 269.664 214.648 269.828 214.648 269.938C214.539 270.102 214.484 270.211 214.484 270.375V270.484C214.484 270.484 214.484 270.484 214.484 270.594C214.375 270.594 214.32 270.703 214.32 270.758C214.32 270.922 214.211 270.922 214.156 271.141C214.047 271.305 213.992 271.414 213.883 271.578C213.883 271.688 213.773 271.742 213.773 271.852C213.773 271.852 213.773 271.852 213.773 271.961C213.773 271.961 213.773 272.07 213.664 272.07C213.555 272.234 213.555 272.453 213.5 272.617C213.5 272.617 213.5 272.617 213.5 272.727C213.5 272.836 213.391 272.891 213.391 273V273.109V273.219C213.281 273.383 213.227 273.492 213.227 273.656C213.227 273.766 213.227 273.82 213.117 273.82V273.93C213.008 274.094 212.953 274.203 212.953 274.367C212.844 274.477 212.844 274.531 212.953 274.641C212.953 274.641 212.953 274.75 212.844 274.75C212.844 274.859 212.734 274.859 212.734 274.914C212.625 275.078 212.625 275.297 212.57 275.352C212.57 275.461 212.461 275.516 212.461 275.516V275.625C212.461 275.625 212.461 275.625 212.461 275.734C212.461 275.734 212.461 275.734 212.461 275.844C212.461 275.844 212.461 275.953 212.352 275.953C212.352 276.063 212.242 276.117 212.242 276.117C212.133 276.227 212.133 276.281 212.242 276.391C212.242 276.5 212.133 276.5 212.133 276.555C212.023 276.719 212.023 276.938 211.969 277.102C211.969 277.266 211.859 277.484 211.805 277.648C211.805 277.758 211.695 277.813 211.695 277.922V278.031C211.695 278.031 211.695 278.031 211.695 278.141C211.586 278.25 211.586 278.305 211.695 278.414C211.695 278.414 211.695 278.523 211.586 278.523C211.586 278.633 211.586 278.687 211.477 278.797V278.906C211.477 278.906 211.477 278.906 211.477 279.016C211.367 279.125 211.367 279.289 211.367 279.398C211.367 279.508 211.367 279.562 211.258 279.672C211.258 279.672 211.258 279.672 211.258 279.781V279.891V280V280.109C211.258 280.219 211.258 280.273 211.258 280.273V280.164C211.258 280.273 211.148 280.328 211.148 280.437C211.148 280.547 211.039 280.602 211.039 280.82C211.039 280.93 211.039 280.93 211.039 280.984C211.039 281.094 211.039 281.148 210.93 281.258C210.93 281.367 210.93 281.422 210.93 281.531C210.93 281.531 210.93 281.531 210.93 281.641V281.75C210.93 281.914 210.93 282.023 210.82 282.297C210.711 282.461 210.711 282.68 210.711 282.844C210.711 282.953 210.711 283.008 210.711 283.117C210.711 283.227 210.711 283.227 210.711 283.281V283.391C210.711 283.5 210.602 283.664 210.602 283.773C210.602 283.883 210.602 283.937 210.602 284.156V284.266C210.602 284.43 210.602 284.539 210.492 284.703C210.492 284.812 210.492 284.813 210.492 284.867C210.492 284.977 210.492 285.031 210.383 285.141C210.383 285.305 210.273 285.523 210.273 285.688C210.273 285.797 210.273 285.961 210.273 286.07C210.273 286.18 210.273 286.234 210.383 286.344V286.453C210.383 286.562 210.383 286.617 210.383 286.836C210.383 287 210.383 287.273 210.383 287.492V287.602V287.711C210.383 287.82 210.383 287.875 210.273 288.094C210.273 288.258 210.273 288.477 210.273 288.641C210.273 288.75 210.273 288.805 210.273 288.914C210.273 289.023 210.383 289.078 210.383 289.187C210.383 289.352 210.383 289.461 210.492 289.625C210.492 289.734 210.492 289.789 210.492 289.898C210.492 290.062 210.492 290.172 210.602 290.336C210.602 290.445 210.602 290.445 210.602 290.5V290.609C210.602 290.719 210.602 290.883 210.711 290.992C210.711 291.375 210.82 291.703 210.875 292.086C210.984 292.469 211.039 292.797 211.148 293.18C211.148 293.344 211.422 293.453 211.531 293.344C211.695 293.234 211.805 293.18 211.695 292.961C211.586 292.578 211.531 292.25 211.422 291.867C211.313 291.484 211.258 291.211 211.258 290.938V290.828V290.719V290.609C211.258 290.5 211.258 290.336 211.148 290.227C211.148 290.117 211.148 290.117 211.148 290.063V289.953C211.148 289.844 211.148 289.844 211.148 289.789C211.148 289.789 211.148 289.789 211.148 289.68C211.148 289.57 211.148 289.516 211.148 289.406C211.148 289.406 211.148 289.406 211.148 289.297V288.203C211.148 288.094 211.148 288.039 211.148 287.93C211.148 287.82 211.039 287.82 211.039 287.766C211.039 287.656 211.039 287.602 211.039 287.492C211.039 287.328 211.039 287.109 211.039 287.055C211.039 286.891 211.148 286.672 211.148 286.508V286.398C211.148 286.234 211.148 286.016 211.148 285.852C211.148 285.742 211.148 285.688 211.148 285.578C211.148 285.469 211.148 285.469 211.148 285.414V285.305C211.148 285.195 211.148 285.141 211.148 285.031V284.922C211.148 284.813 211.148 284.758 211.148 284.539C211.148 284.32 211.148 284.266 211.258 284.102C211.367 283.719 211.367 283.391 211.422 283.008C211.422 282.898 211.422 282.898 211.422 282.898C211.422 282.898 211.422 282.898 211.422 282.789V282.68C211.422 282.57 211.531 282.516 211.531 282.406C211.531 282.297 211.531 282.133 211.531 282.023C211.531 281.914 211.531 281.859 211.531 281.641C211.531 281.477 211.531 281.367 211.641 281.203C211.641 281.094 211.641 281.039 211.75 281.039C211.75 280.93 211.75 280.875 211.75 280.766C211.859 280.383 211.859 280.109 211.914 279.781C211.914 279.672 211.914 279.672 211.914 279.617V279.508C211.914 279.398 211.914 279.398 212.023 279.344C212.023 279.234 212.023 279.234 212.023 279.18C212.023 279.18 212.023 279.18 212.023 279.07C212.023 278.961 212.133 278.961 212.133 278.906C212.133 278.797 212.133 278.797 212.133 278.742C212.133 278.633 212.133 278.578 212.242 278.469C212.242 278.359 212.242 278.305 212.352 278.305C212.352 278.195 212.461 278.195 212.461 278.141C212.461 278.031 212.461 277.977 212.461 277.867C212.461 277.867 212.461 277.867 212.461 277.758C212.461 277.758 212.461 277.758 212.461 277.648C212.461 277.539 212.57 277.484 212.57 277.375C212.57 277.266 212.57 277.211 212.57 276.992V276.883C212.57 276.773 212.57 276.773 212.57 276.719C212.68 276.555 212.68 276.336 212.734 276.172C212.844 276.008 212.844 275.789 212.898 275.625C213.008 275.461 213.063 275.242 213.063 275.078C213.063 275.078 213.063 275.078 213.063 274.969C213.172 274.805 213.227 274.531 213.336 274.258C213.336 274.148 213.445 274.094 213.445 273.984C213.445 273.984 213.445 273.984 213.445 273.875C213.445 273.875 213.445 273.875 213.445 273.766C213.555 273.602 213.609 273.383 213.609 273.219V273.109C213.719 273 213.719 272.945 213.773 272.836C213.883 272.672 213.883 272.453 213.938 272.398C213.938 272.398 213.937 272.289 214.047 272.289C214.047 272.18 214.156 272.125 214.156 272.016C214.266 271.852 214.266 271.633 214.32 271.578C214.32 271.578 214.32 271.578 214.32 271.469C214.32 271.359 214.43 271.305 214.43 271.195V271.25V271.141C214.539 271.031 214.539 270.977 214.594 270.867V270.758V270.703C214.703 270.539 214.758 270.43 214.867 270.266C214.977 270.156 214.977 270.102 215.031 269.883C215.141 269.883 215.141 269.773 215.141 269.773C215.25 269.664 215.305 269.5 215.305 269.391V269.281C215.305 269.281 215.305 269.281 215.305 269.172C215.305 269.063 215.414 269.062 215.414 269.008C215.523 268.898 215.523 268.734 215.578 268.625C215.688 268.516 215.688 268.461 215.742 268.352L215.852 268.242C215.852 268.133 215.961 268.078 216.016 267.969C216.07 267.859 216.125 267.805 216.18 267.586L216.289 267.477C216.289 267.367 216.398 267.367 216.398 267.312C216.398 267.312 216.398 267.203 216.508 267.203C216.508 267.094 216.617 267.094 216.617 267.039C216.727 266.875 216.891 266.602 217 266.383L217.109 266.273C217.219 266.109 217.273 265.836 217.492 265.617C217.656 265.453 217.766 265.234 217.875 264.961C217.984 264.961 217.984 264.852 217.984 264.797C217.984 264.797 217.984 264.797 217.984 264.688C217.984 264.688 217.984 264.578 218.094 264.578C218.203 264.469 218.203 264.414 218.258 264.305C218.367 264.141 218.422 263.922 218.531 263.867L218.641 263.758C218.641 263.758 218.641 263.758 218.641 263.648C218.75 263.539 218.805 263.484 218.805 263.375C218.805 263.375 218.805 263.266 218.914 263.266C219.023 263.156 219.078 263.102 219.078 262.992L219.187 262.883L219.297 262.773C219.297 262.773 219.406 262.664 219.406 262.609C219.516 262.5 219.57 262.445 219.57 262.336C219.57 262.336 219.57 262.227 219.68 262.227C219.68 262.227 219.68 262.227 219.68 262.117L219.789 262.008C219.898 261.898 219.953 261.844 220.062 261.625C220.172 261.625 220.172 261.516 220.172 261.516C220.172 261.516 220.172 261.516 220.172 261.406L220.281 261.297C220.391 261.187 220.391 261.133 220.445 261.023C220.445 261.023 220.445 260.914 220.555 260.914C220.664 260.805 220.719 260.75 220.719 260.641C220.719 260.641 220.719 260.531 220.828 260.531C220.828 260.531 220.828 260.531 220.828 260.422C220.828 260.422 220.828 260.422 220.828 260.313L220.938 260.203C221.047 260.094 221.211 260.039 221.32 259.82C221.43 259.82 221.484 259.711 221.484 259.656C221.594 259.492 221.648 259.383 221.867 259.219C221.977 259.055 222.141 258.945 222.25 258.781C222.25 258.781 222.359 258.781 222.359 258.672C222.469 258.563 222.523 258.508 222.633 258.398C222.742 258.289 222.742 258.289 222.797 258.234V258.125C222.797 258.125 222.797 258.125 222.906 258.125C223.016 258.016 223.016 258.016 223.07 257.961C223.18 257.852 223.234 257.797 223.344 257.578C223.453 257.578 223.453 257.578 223.453 257.469C223.563 257.359 223.562 257.305 223.617 257.195L223.727 257.086C223.836 256.977 223.891 256.922 224 256.813C224 256.813 224.109 256.812 224.109 256.703C224.219 256.703 224.219 256.594 224.273 256.594C224.383 256.484 224.547 256.43 224.656 256.32C224.656 256.32 224.766 256.211 224.766 256.156C224.875 256.156 224.875 256.047 224.93 256.047C225.039 255.938 225.203 255.883 225.312 255.773C225.422 255.664 225.477 255.609 225.586 255.5L225.695 255.391C225.695 255.391 225.695 255.391 225.805 255.281C225.914 255.281 225.914 255.172 225.914 255.172C225.914 255.172 225.914 255.172 226.023 255.062C226.133 255.062 226.133 254.953 226.188 254.953C226.297 254.953 226.297 254.844 226.352 254.844L226.461 254.734C226.57 254.734 226.57 254.625 226.625 254.625C226.734 254.625 226.789 254.516 226.789 254.461C226.789 254.461 226.898 254.352 226.898 254.297C227.008 254.297 227.063 254.188 227.063 254.133C227.063 254.133 227.172 254.133 227.172 254.023C227.172 254.023 227.172 254.023 227.281 253.914C227.281 253.914 227.281 253.914 227.391 253.914C227.5 253.805 227.555 253.805 227.664 253.75C227.773 253.75 227.773 253.641 227.828 253.641C227.828 253.641 227.828 253.641 227.937 253.641C228.047 253.531 228.102 253.531 228.211 253.477C228.32 253.477 228.32 253.367 228.32 253.313C228.32 253.313 228.43 253.313 228.43 253.203L228.539 253.094C228.648 253.094 228.648 252.984 228.703 252.984C228.813 252.875 228.977 252.82 229.086 252.711C229.359 252.547 229.633 252.328 229.906 252.164C230.016 252.164 230.016 252.055 230.07 252C230.07 252 230.18 252 230.18 251.891C230.344 251.781 230.563 251.781 230.617 251.727C230.617 251.727 230.727 251.727 230.727 251.617C230.836 251.617 230.891 251.508 231 251.508C231.109 251.508 231.109 251.398 231.164 251.398C231.273 251.398 231.328 251.289 231.328 251.289C231.438 251.289 231.437 251.18 231.492 251.18C231.492 251.18 231.492 251.18 231.602 251.18C231.711 251.18 231.711 251.18 231.766 251.07L231.875 250.961C231.984 250.961 232.039 250.852 232.039 250.852C232.148 250.852 232.203 250.742 232.312 250.688C232.312 250.688 232.422 250.688 232.422 250.578H232.531C232.641 250.578 232.695 250.469 232.805 250.469C232.914 250.469 232.914 250.359 232.969 250.359C233.078 250.359 233.133 250.25 233.133 250.195C233.133 250.195 233.133 250.195 233.242 250.086C233.352 249.977 233.406 249.977 233.516 249.922C233.625 249.922 233.68 249.812 233.898 249.812C233.898 249.812 234.008 249.813 234.008 249.703C234.555 249.539 234.992 249.266 235.539 248.992C235.813 248.828 235.977 248.828 236.359 248.719C236.742 248.609 237.016 248.555 237.344 248.445C237.453 248.445 237.453 248.336 237.508 248.336C237.781 248.227 238.164 248.227 238.438 248.172C238.547 248.172 238.547 248.063 238.602 248.063C238.766 248.063 238.984 247.953 239.039 247.898C239.039 247.898 239.148 247.898 239.148 247.789H239.258C239.367 247.789 239.367 247.789 239.422 247.68C239.531 247.68 239.531 247.68 239.586 247.68H239.695H239.805C239.969 247.68 240.187 247.68 240.242 247.57C240.352 247.57 240.352 247.461 240.406 247.461C240.57 247.461 240.789 247.352 240.953 247.352C241.063 247.352 241.062 247.352 241.117 247.352H241.227C241.336 247.352 241.391 247.352 241.609 247.352C241.719 247.352 241.773 247.242 241.883 247.188L242.703 247.078C242.867 247.078 242.977 247.078 243.141 246.969C243.25 246.969 243.25 246.969 243.305 246.969H243.414C243.305 246.969 243.523 246.969 243.523 246.969C243.633 246.969 243.687 246.859 243.797 246.859C244.18 246.859 244.617 246.75 245 246.75C245.164 246.75 245.383 246.75 245.547 246.75C245.82 246.75 245.984 246.641 246.203 246.641C246.313 246.641 246.367 246.641 246.367 246.531C246.641 246.531 246.914 246.422 247.188 246.422C247.57 246.422 247.844 246.422 248.172 246.422C248.281 246.422 248.281 246.422 248.336 246.312C248.609 246.312 248.992 246.312 249.266 246.312C249.43 246.312 249.539 246.312 249.703 246.312C249.867 246.312 249.977 246.313 250.086 246.422C250.195 246.422 250.359 246.422 250.469 246.312C250.852 246.312 251.18 246.313 251.562 246.422C251.727 246.422 252 246.531 252.219 246.531C252.383 246.531 252.602 246.531 252.875 246.641C253.039 246.75 253.258 246.531 253.258 246.477C252.984 247.242 252.766 247.133 252.602 247.023Z" fill="#909090"/>
<path d="M259.438 248.117C259.328 248.008 259.273 248.008 259.273 247.953H259.164H259.055L258.945 248.063L258.836 248.172V248.281C258.836 248.391 258.836 248.391 258.836 248.445C258.836 248.445 258.836 248.445 258.945 248.555C258.945 248.555 259.055 248.664 259.109 248.664H259.219H259.328L259.438 248.555L259.547 248.445V248.336C259.492 248.227 259.492 248.227 259.438 248.117Z" fill="#909090"/>
<path d="M254.844 247.242C254.57 247.133 254.297 247.133 254.023 247.078C253.75 246.969 253.367 246.969 253.094 246.969C252.93 246.969 252.711 247.133 252.711 247.352C252.711 247.516 252.875 247.734 253.094 247.734C253.203 247.734 253.258 247.734 253.258 247.734H253.367C253.531 247.734 253.641 247.844 253.75 247.844C254.023 247.953 254.297 247.953 254.57 248.008C254.734 248.008 254.953 247.898 254.953 247.844C255.117 247.516 255.062 247.297 254.844 247.242Z" fill="#909090"/>
<path d="M273.055 253.422C272.672 253.039 272.344 252.766 271.852 252.602C271.742 252.492 271.578 252.602 271.469 252.602C271.195 252.437 271.031 252.328 270.758 252.164C270.375 251.891 270.047 251.781 269.664 251.617C269.281 251.453 268.953 251.18 268.461 251.07C268.297 250.961 268.078 250.961 267.914 250.906C267.641 250.906 267.477 250.742 267.203 250.633C266.383 250.195 265.398 249.922 264.469 249.539C263.484 249.156 262.445 248.828 261.461 248.336C261.078 248.172 260.914 248.773 261.297 248.992C261.406 248.992 261.406 249.102 261.461 249.102C261.461 249.211 261.57 249.266 261.625 249.375C261.898 249.484 262.172 249.539 262.555 249.648C262.719 249.648 262.828 249.758 262.992 249.758C263.102 249.758 263.156 249.758 263.156 249.867C263.266 249.977 263.43 249.977 263.539 249.977C263.703 250.086 263.922 250.141 264.195 250.141C265.18 250.523 266.219 250.852 267.094 251.344C267.258 251.453 267.477 251.453 267.531 251.508L267.641 251.617C268.023 251.727 268.297 251.891 268.625 252.055C269.008 252.219 269.336 252.328 269.719 252.492C269.719 252.602 269.828 252.656 269.992 252.656C269.992 252.656 270.102 252.656 270.102 252.766L270.211 252.875L270.32 252.984H270.43C270.43 252.984 270.43 252.984 270.539 252.984C270.539 252.984 270.648 252.984 270.648 253.094C271.031 253.367 271.359 253.531 271.742 253.75H271.852C271.852 253.75 271.852 253.75 271.961 253.75L272.07 253.859H271.961C272.07 253.859 272.125 253.969 272.234 254.023H272.344C272.344 254.023 272.344 254.023 272.453 254.023C272.562 254.133 272.617 254.133 272.617 254.187C272.891 254.133 273.328 253.695 273.055 253.422Z" fill="#909090"/>
<path d="M271.961 252.656C271.305 252.383 270.594 252 269.938 251.727C269.938 251.617 269.937 251.563 269.828 251.563C269.172 250.906 268.461 250.578 267.641 250.305C267.367 250.195 267.203 250.141 266.93 250.031C266.219 249.32 265.18 248.828 264.305 248.5C263.484 248.117 262.664 247.844 261.734 247.57C261.734 247.406 261.734 247.188 261.57 247.188C261.406 247.188 261.187 247.078 261.023 247.078C260.367 246.914 259.656 246.641 259 246.422C258.617 246.258 258.289 246.148 257.906 246.039C256.977 245.656 255.992 245.602 255.062 245.383C254.516 245.273 253.859 245.273 253.313 245.219C253.148 245.219 252.875 245.219 252.656 245.109C252.547 245 252.547 245 252.383 244.945C251.672 244.836 250.906 244.836 250.305 244.836C249.867 244.727 249.375 244.727 248.938 244.727C248.227 244.727 247.57 244.727 246.859 244.836C246.75 244.836 246.75 244.836 246.695 244.945H246.586C246.203 244.945 245.766 244.945 245.383 244.945C244.453 244.945 243.469 245.055 242.539 245.109C242.43 245.109 242.375 245.219 242.266 245.273C242.102 245.383 241.992 245.383 241.883 245.437C241.609 245.437 241.445 245.547 241.172 245.547C241.008 245.547 240.789 245.656 240.625 245.656C240.516 245.656 240.516 245.656 240.461 245.656C240.188 245.656 239.805 245.766 239.477 245.93C239.367 245.82 239.367 245.82 239.313 245.82C238.656 245.93 238.109 246.094 237.672 246.531C237.398 246.531 237.125 246.641 236.852 246.641C236.414 246.75 235.867 246.914 235.484 247.188C234.773 247.352 234.117 247.57 233.461 247.898C233.352 248.008 233.297 248.062 233.297 248.172C233.023 248.281 232.75 248.336 232.477 248.445C232.313 248.555 232.094 248.555 231.93 248.609C231.82 248.5 231.656 248.445 231.492 248.5C230.508 249.156 229.414 249.867 228.484 250.797C227.664 251.07 226.844 251.453 226.297 252.164C226.297 252.164 226.297 252.273 226.188 252.273C225.531 252.656 224.984 252.984 224.547 253.531C224.383 253.641 224.109 253.805 223.891 253.914C223.508 254.187 223.18 254.352 222.906 254.734C222.633 254.898 222.469 255.117 222.195 255.281C221.812 255.555 221.484 255.937 221.211 256.375C221.102 256.375 221.047 256.375 220.938 256.484C220.555 256.867 220.391 257.195 220.227 257.688L220.117 257.797C219.953 257.961 219.844 258.07 219.68 258.234C219.57 258.234 219.516 258.344 219.516 258.398C219.406 258.508 219.352 258.563 219.242 258.672C219.078 258.781 219.133 258.945 219.242 259.109C218.969 259.273 218.695 259.492 218.531 259.547C218.422 259.656 218.422 259.82 218.422 259.93C218.039 260.203 217.766 260.477 217.492 260.75C216.836 261.461 216.398 262.227 216.125 263.102C215.578 263.758 215.031 264.359 214.867 265.18C214.594 265.562 214.32 265.891 214.211 266.273C214.102 266.273 213.938 266.273 213.828 266.438C213.555 266.984 213.281 267.531 213.117 268.188C212.953 268.57 212.734 269.008 212.68 269.445C212.68 269.555 212.57 269.555 212.57 269.609C212.406 269.992 212.133 270.32 211.914 270.703C211.75 271.086 211.531 271.414 211.477 271.906C211.477 272.016 211.477 272.07 211.586 272.18C211.477 272.07 211.313 272.07 211.203 272.18C211.039 272.453 210.93 272.727 210.93 273.109C210.93 273.492 210.93 273.766 210.93 274.094C210.82 274.367 210.766 274.641 210.766 274.914C210.602 275.352 210.328 275.898 210.219 276.391C209.945 277.102 209.945 277.867 209.836 278.688C209.727 278.797 209.672 278.852 209.672 278.961C209.672 279.234 209.781 279.508 209.781 279.781H209.672C209.289 280.055 209.289 280.492 209.398 280.875C209.508 281.422 209.562 281.969 209.672 282.516C209.672 282.68 209.563 282.898 209.563 283.172C209.453 283.555 209.453 283.828 209.453 284.156C209.453 284.266 209.453 284.43 209.453 284.539C209.344 284.812 209.344 285.195 209.453 285.469C209.563 285.578 209.617 285.633 209.727 285.633V285.742C209.727 285.742 209.727 285.742 209.727 285.852C209.727 286.398 209.836 287.055 209.891 287.602C209.891 287.711 210 287.766 210 287.875C210 288.313 210 288.805 209.891 289.242C209.891 289.406 210 289.516 210.055 289.516C210.055 289.68 210.055 289.898 210.055 290.063C210.055 290.227 210.219 290.445 210.437 290.336C210.602 290.719 211.148 290.5 211.094 290.172C210.93 289.734 210.82 289.188 210.82 288.641C210.82 288.094 210.82 287.656 210.711 287.164C210.711 287.055 210.82 287 210.711 286.891C210.602 286.617 210.547 286.234 210.547 285.961C210.547 285.852 210.438 285.797 210.383 285.688C210.383 285.688 210.383 285.688 210.383 285.578C210.383 285.305 210.383 285.031 210.383 284.867C210.492 284.867 210.547 284.758 210.656 284.594C210.766 283.5 210.656 282.516 210.766 281.422C210.93 281.531 211.148 281.422 211.203 281.258C211.367 280.711 211.312 280.055 211.312 279.508V279.398C211.477 278.578 211.586 277.648 211.75 276.828C211.75 276.828 211.75 276.828 211.75 276.719C211.859 276.719 211.914 276.609 211.914 276.555C212.188 276.008 212.352 275.461 212.461 274.805C212.625 274.805 212.625 274.805 212.734 274.641C212.844 274.203 213.008 273.656 213.008 273.164C213.008 273 213.117 272.891 213.172 272.727C213.336 272.453 213.445 272.289 213.609 272.016C213.719 271.906 213.609 271.852 213.609 271.742C213.773 271.305 213.992 270.813 214.156 270.484C214.32 270.211 214.539 269.938 214.703 269.664C214.977 269.281 215.141 268.844 215.359 268.406C215.359 268.297 215.359 268.297 215.359 268.242C215.633 267.805 215.797 267.422 216.016 266.984C216.18 266.82 216.289 266.547 216.398 266.328C216.563 266.438 216.781 266.328 216.781 266.219C216.945 265.836 217.055 265.508 217.219 265.125V265.016C217.492 264.633 217.766 264.195 218.039 263.812C218.313 263.539 218.477 263.156 218.75 262.883L218.859 262.773C218.969 262.664 218.969 262.664 219.023 262.609C219.133 262.5 219.133 262.5 219.187 262.445C219.352 262.281 219.57 262.062 219.625 261.898H219.734C220.445 261.352 220.992 260.805 221.211 259.984C221.867 259.328 222.469 258.727 223.125 258.07C223.125 258.234 223.289 258.234 223.508 258.07C224.055 257.633 224.438 257.25 224.875 256.813C225.258 256.648 225.531 256.375 225.695 255.992C225.695 255.992 225.805 255.883 225.805 255.828C225.914 255.828 226.078 255.828 226.078 255.664C226.187 255.555 226.188 255.5 226.242 255.391C226.352 255.391 226.352 255.391 226.406 255.281C227.5 254.352 228.703 253.641 229.961 253.094C230.125 252.984 230.234 252.82 230.125 252.656C230.234 252.547 230.398 252.492 230.508 252.383C230.617 252.383 230.617 252.383 230.672 252.273C231.055 252.164 231.328 252 231.492 251.727C232.039 251.562 232.477 251.344 232.969 251.07H233.078C233.516 250.961 233.898 250.797 234.172 250.523C234.828 250.414 235.375 250.25 235.977 249.977C236.359 249.867 236.961 249.703 237.344 249.32C237.781 249.211 238.273 249.047 238.711 248.773C239.148 248.664 239.641 248.5 240.078 248.336C240.242 248.336 240.461 248.227 240.625 248.172C240.734 248.172 240.734 248.281 240.789 248.281H240.898C241.008 248.281 241.008 248.281 241.062 248.281C241.445 248.281 241.773 248.117 242.156 248.008C242.43 247.898 242.812 247.844 243.086 247.734C243.523 247.734 244.016 247.734 244.563 247.625H244.672C245.492 247.625 246.312 247.516 247.133 247.352C247.68 247.352 248.227 247.352 248.664 247.242C248.773 247.242 248.828 247.242 248.828 247.133C249.211 247.133 249.484 247.133 249.812 247.133H249.922C249.922 247.133 250.031 247.133 250.086 247.133C250.523 247.133 251.07 247.133 251.562 247.133C251.562 247.242 251.672 247.297 251.727 247.297C252.711 247.461 253.805 247.57 254.844 247.57C254.844 247.68 254.953 247.734 255.008 247.734C255.445 247.844 255.937 247.844 256.375 247.898C256.375 248.008 256.484 248.008 256.648 248.008C257.578 248.172 258.398 248.391 259.273 248.445C259.273 248.555 259.383 248.609 259.547 248.609C260.914 248.883 262.281 249.266 263.648 249.594C264.305 249.758 264.906 250.031 265.562 250.305C266.109 250.469 266.656 250.742 267.203 250.961C267.641 251.234 268.133 251.398 268.57 251.617C269.555 252.055 270.648 252.602 271.687 253.094C272.07 253.422 272.344 252.875 271.961 252.656Z" fill="#909090"/>
<path d="M274.969 255.227C230.891 229.578 203.164 273.93 212.406 295.148" stroke="#606060" stroke-width="0.294" stroke-miterlimit="10"/>
<path d="M212.406 295.039C197.969 269.883 237.508 223.945 274.969 255.117" stroke="#606060" stroke-width="1.1763" stroke-miterlimit="10"/>
<path d="M274.969 255.117C312.43 299.633 234.992 343.656 212.406 295.039" stroke="#606060" stroke-width="1.1763" stroke-miterlimit="10"/>
<path d="M252.766 313.687L261.844 310.516L256.156 296.844L258.891 295.313L271.141 303.023L276.117 295.313L264.523 287.766L265.234 284.43H280.492L279.672 275.953L265.234 276.117L264.414 273.383L276.117 265.344L270.43 258.234L259.055 267.148L256.703 264.961L261.516 252.438L252.766 250.031L248.227 263.867H245.055L241.336 250.852L232.312 254.242L237.125 266.602L234.172 268.844L223.234 260.75L217.875 268.133L229.141 275.406L228.156 278.797L213.5 279.016V287.93L227.773 287.602L229.141 290.117L217.438 297.883L222.414 304.391L234.063 296.242L236.797 298.484L231.984 310.953L239.695 314.508L245.219 300.016H247.953L252.766 313.687Z" fill="#505050"/>
<path d="M246.805 300.344C257.104 300.344 265.453 291.995 265.453 281.695C265.453 271.396 257.104 263.047 246.805 263.047C236.505 263.047 228.156 271.396 228.156 281.695C228.156 291.995 236.505 300.344 246.805 300.344Z" fill="#505050"/>
<path d="M236.031 273.492L259.984 275.57" stroke="#303030" stroke-width="0.5882" stroke-miterlimit="10"/>
<path d="M235.977 273.328L260.148 275.516L243.852 293.672L235.977 273.328Z" stroke="#404040" stroke-width="0.294" stroke-miterlimit="10"/>
<path d="M246.531 281.859C246.833 281.859 247.078 281.615 247.078 281.313C247.078 281.01 246.833 280.766 246.531 280.766C246.229 280.766 245.984 281.01 245.984 281.313C245.984 281.615 246.229 281.859 246.531 281.859Z" fill="#404040" stroke="#303030" stroke-width="0.294" stroke-miterlimit="10"/>
<path d="M342.125 302.148L338.844 308.492" stroke="black" stroke-width="2.3525" stroke-miterlimit="10"/>
<path d="M327.852 299.031L327.414 306.141" stroke="black" stroke-width="2.3525" stroke-miterlimit="10"/>
<path d="M313.961 298.32L313.852 305.484" stroke="black" stroke-width="2.3525" stroke-miterlimit="10"/>
<path d="M299.523 304.773L304.227 310.242" stroke="black" stroke-width="2.3525" stroke-miterlimit="10"/>
<path d="M287.328 311.773L292.578 316.586" stroke="black" stroke-width="2.3525" stroke-miterlimit="10"/>
<path d="M279.672 324.242L286.07 327.414" stroke="black" stroke-width="2.3525" stroke-miterlimit="10"/>
<path d="M273.492 336.875L280.602 337.422" stroke="black" stroke-width="2.3525" stroke-miterlimit="10"/>
<path d="M274.969 351.148L281.969 349.836" stroke="black" stroke-width="2.3525" stroke-miterlimit="10"/>
<path d="M284.211 360.828L278.141 364.492" stroke="black" stroke-width="2.3525" stroke-miterlimit="10"/>
<path d="M292.305 370.289L287.055 375.211" stroke="black" stroke-width="2.3525" stroke-miterlimit="10"/>
<path d="M301.492 377.234L297.883 383.305" stroke="black" stroke-width="2.3525" stroke-miterlimit="10"/>
<path d="M313.414 379.75L312.977 386.859" stroke="black" stroke-width="2.3525" stroke-miterlimit="10"/>
<path d="M326.047 380.57L327.305 387.57" stroke="black" stroke-width="2.3525" stroke-miterlimit="10"/>
<path d="M337.969 374.664L341.031 381.117" stroke="black" stroke-width="2.3525" stroke-miterlimit="10"/>
<path d="M348.688 368.648L353.773 373.734" stroke="black" stroke-width="2.3525" stroke-miterlimit="10"/>
<path d="M355.195 358.313L361.648 361.32" stroke="black" stroke-width="2.3525" stroke-miterlimit="10"/>
<path d="M360.117 347.758L367.281 348.195" stroke="black" stroke-width="2.3525" stroke-miterlimit="10"/>
<path d="M358.695 335.234L365.695 334.141" stroke="black" stroke-width="2.3525" stroke-miterlimit="10"/>
<path d="M362.414 320.742L355.688 324.789" stroke="black" stroke-width="2.5052" stroke-miterlimit="10"/>
<path d="M353.281 310.133L348.414 315.328" stroke="black" stroke-width="2.3525" stroke-miterlimit="10"/>
<path d="M309.148 295.039C309.312 295.203 309.586 295.313 310.078 295.477C310.734 295.75 311.445 295.75 312.156 295.586C312.977 295.422 313.688 294.93 314.344 294.055C313.633 294.328 312.812 294.328 312.047 293.891C310.57 293.18 310.297 291.594 311.062 290.281C311.883 288.805 313.633 288.094 315.219 288.914C316.859 289.844 317.133 291.648 316.039 293.617C315.109 295.367 313.852 296.242 312.703 296.516C311.773 296.789 310.789 296.68 309.859 296.352C309.422 296.188 309.148 295.969 308.875 295.914L309.148 295.039ZM311.938 290.664C311.391 291.648 311.664 292.688 312.594 293.125C313.305 293.508 314.07 293.508 314.617 293.125C314.727 293.016 314.781 292.961 314.891 292.742C315.602 291.375 315.711 290.117 314.508 289.461C313.687 289.133 312.594 289.57 311.938 290.664Z" fill="black"/>
<path d="M281.695 307.836C282.352 307.016 283.227 306.742 284.32 307.016C283.883 306.086 283.937 305.266 284.43 304.719C285.25 303.625 286.617 303.625 287.766 304.445C289.023 305.375 289.133 306.742 288.477 307.563C288.039 308.109 287.273 308.547 286.18 308.273C286.727 309.203 286.836 310.188 286.289 311.008C285.469 312.211 283.828 312.211 282.57 311.281C281.203 310.297 280.93 308.875 281.695 307.836ZM285.305 310.516C285.961 309.695 285.688 308.875 284.922 307.945C283.992 307.562 283.172 307.781 282.734 308.383C282.188 309.039 282.297 310.023 283.117 310.68C283.883 311.336 284.758 311.117 285.305 310.516ZM285.305 305.32C284.867 305.977 285.031 306.687 285.688 307.508C286.398 307.781 287.164 307.672 287.602 307.07C287.984 306.523 288.039 305.703 287.219 305.156C286.508 304.609 285.688 304.773 285.305 305.32Z" fill="black"/>
<path d="M273.711 332.828L273.437 333.594L266.82 339.664L265.617 339.227L272.18 333.32L268.078 331.68L268.461 330.75L273.711 332.828Z" fill="black"/>
<path d="M275.844 364.328C275.68 364.219 275.406 364.055 275.023 363.945C273.219 363.289 271.688 364.055 270.758 365.203C271.414 364.93 272.289 364.82 273.109 365.367C274.477 366.078 274.914 367.719 274.094 369.195C273.273 370.672 271.523 371.383 269.938 370.562C268.297 369.633 267.859 367.719 269.008 365.641C269.828 364.109 271.086 363.18 272.289 362.797C273.273 362.523 274.367 362.633 275.461 363.07C275.844 363.18 276.117 363.344 276.281 363.453L275.844 364.328ZM273.055 368.648C273.711 367.555 273.438 366.461 272.398 365.914C271.742 365.531 270.922 365.641 270.32 366.023C270.156 366.133 270.047 366.188 269.938 366.406C269.227 367.664 269.281 369.031 270.375 369.578C271.414 370.234 272.508 369.742 273.055 368.648Z" fill="black"/>
<path d="M299.797 386.477L296.461 384.836L294.984 386.914C295.148 387.023 295.422 387.023 295.695 387.187C296.352 387.57 296.953 388.008 297.336 388.555C297.883 389.266 298.047 390.305 297.5 391.453C296.68 393.203 294.656 393.805 292.797 392.93C291.812 392.492 291.156 391.836 290.883 391.289L291.594 390.578C291.867 390.961 292.414 391.563 293.234 391.945C294.328 392.492 295.695 392.219 296.242 391.016C296.789 389.812 296.406 388.664 294.711 387.844C294.164 387.57 293.781 387.461 293.453 387.406L296.078 383.523L300.234 385.547L299.797 386.477Z" fill="black"/>
<path d="M326.32 396.211L327.523 393.75L323.367 391.727L323.75 390.906L330.586 387.078L331.844 387.734L329.109 393.258L330.367 393.914L329.93 394.844L328.672 394.187L327.469 396.648L326.32 396.211ZM328.016 392.82L329.492 389.812C329.766 389.375 329.93 388.883 330.203 388.445C329.656 388.828 329.273 389.102 328.836 389.43L325.227 391.453L328.016 392.82Z" fill="black"/>
<path d="M353.5 378C353.773 378.383 354.484 378.984 355.305 379.258C356.836 379.805 357.766 378.984 357.93 378.164C358.367 376.906 357.383 375.867 356.18 375.539L355.469 375.266L355.852 374.336L356.563 374.609C357.492 374.883 358.75 374.883 359.133 373.789C359.406 373.078 359.133 372.258 358.039 371.875C357.328 371.602 356.508 371.711 356.016 371.875V370.891C356.672 370.727 357.656 370.727 358.641 371C360.445 371.656 360.937 373.023 360.445 374.117C360.062 375.047 359.242 375.648 357.984 375.648C359.078 376.305 359.625 377.453 359.242 378.766C358.695 380.242 357.164 381.117 354.977 380.297C353.992 379.914 353.172 379.313 352.789 378.82L353.5 378Z" fill="black"/>
<path d="M367.828 352.461L368.211 351.75L369.578 351.312C372.859 350.328 374.391 349.672 375.047 348.305C375.484 347.375 375.43 346.391 374.117 345.734C373.297 345.352 372.477 345.461 371.93 345.57V344.586C372.75 344.422 373.844 344.422 374.828 344.859C376.742 345.789 376.852 347.43 376.305 348.687C375.484 350.328 373.734 351.039 371.055 351.859L370.07 352.133L373.953 354.047L373.516 355.031L367.828 352.461Z" fill="black"/>
<path d="M367.773 316.148H365.969L366.242 315.219H368.539L369.469 315.766L365.094 323.859L364 323.313L367.773 316.148Z" fill="black"/>
<path d="M347.922 297.664C346.445 300.289 344.75 301.219 343 300.289C341.469 299.469 341.195 297.445 342.563 294.93C343.93 292.305 345.844 291.484 347.484 292.359C349.125 293.289 349.289 295.203 347.922 297.664ZM343.656 295.586C342.563 297.609 342.563 299.031 343.547 299.578C344.641 300.125 345.844 299.195 346.883 297.227C347.867 295.312 348.086 293.781 346.992 293.234C346.117 292.688 344.859 293.398 343.656 295.586Z" fill="black"/>
<path d="M320.469 381.664C342.819 381.664 360.938 364.329 360.938 342.945C360.938 321.562 342.819 304.227 320.469 304.227C298.118 304.227 280 321.562 280 342.945C280 364.329 298.118 381.664 320.469 381.664Z" fill="#F1F0F6" stroke="#606060" stroke-width="2.3525" stroke-miterlimit="10"/>
<path d="M321.672 359.68C329.464 359.68 335.781 353.363 335.781 345.57C335.781 337.778 329.464 331.461 321.672 331.461C313.879 331.461 307.562 337.778 307.562 345.57C307.562 353.363 313.879 359.68 321.672 359.68Z" fill="#863F4B"/>
<path d="M321.016 360.117C328.808 360.117 335.125 353.8 335.125 346.008C335.125 338.215 328.808 331.898 321.016 331.898C313.223 331.898 306.906 338.215 306.906 346.008C306.906 353.8 313.223 360.117 321.016 360.117Z" fill="#FF5F64"/>
<path opacity="0.35" d="M321.289 359.297C328.659 359.297 334.633 353.323 334.633 345.953C334.633 338.584 328.659 332.609 321.289 332.609C313.92 332.609 307.945 338.584 307.945 345.953C307.945 353.323 313.92 359.297 321.289 359.297Z" stroke="white" stroke-width="1.2407" stroke-miterlimit="10"/>
<path d="M312.703 356.945L286.07 356.016L308.219 341.687L312.703 356.945Z" fill="#FF5F64"/>
<path opacity="0.35" d="M308.602 341.852L288.039 355.578L312.32 356.016L308.602 341.852Z" stroke="white" stroke-width="1.1763" stroke-miterlimit="10"/>
<path d="M309.908 342.152L308.48 342.53L311.927 355.534L313.354 355.155L309.908 342.152Z" fill="#FF5F64" stroke="#FF5F64" stroke-width="0.5882" stroke-miterlimit="9.9996"/>
<path opacity="0.83" d="M335.672 307.563C335.398 307.453 335.125 307.398 334.852 307.289C334.688 307.18 334.687 307.18 334.469 307.18C334.195 307.07 333.813 307.016 333.539 307.016L333.375 306.906C332.828 306.633 332.391 306.633 331.734 306.469C331.57 306.469 331.352 306.469 331.187 306.359L331.023 306.195C330.586 305.922 330.203 306.031 329.656 305.922L329.547 306.086C329.82 305.977 329.547 305.922 329.547 305.922C329.437 305.922 329.383 305.922 329.383 305.922C328.836 305.758 328.289 305.648 327.633 305.539C327.469 305.43 327.195 305.43 326.977 305.43H326.867C326.758 305.156 326.43 304.992 326.047 304.992L319.867 304.883C319.703 304.773 319.484 304.719 319.32 304.773C318.938 304.773 318.5 304.883 318.117 304.883C317.953 304.773 317.734 304.719 317.57 304.719C315.93 304.883 314.289 304.992 312.648 305.266C311.938 305.43 311.281 305.703 310.57 305.977C309.859 306.141 309.039 306.25 308.273 306.414C306.797 306.852 305.375 307.508 303.898 307.945C302.914 308.328 301.711 308.492 301.055 309.312C300.07 309.695 298.977 309.969 298.32 310.844C298.047 311.008 297.664 311.227 297.391 311.5C297.227 311.609 297.117 311.773 296.953 311.883C295.969 312.43 294.93 313.141 294.055 313.797C293.945 313.906 293.945 313.906 293.891 313.961C293.727 314.07 293.617 314.234 293.617 314.398C293.07 314.781 292.359 315.219 292.141 315.875C291.758 316.148 291.484 316.422 291.156 316.695C291.047 316.805 290.992 316.859 290.992 316.969H290.883C290.773 316.969 290.719 317.078 290.609 317.078C290.5 317.078 290.445 317.078 290.445 317.188L290.336 317.297C290.063 317.461 289.898 317.734 289.789 318.117L289.68 318.227C289.406 318.5 289.133 318.773 288.859 319.156C288.422 319.703 288.039 320.359 287.656 320.906C287.492 321.07 287.383 321.289 287.219 321.453C287.109 321.453 286.945 321.453 286.836 321.562C286.453 322 286.289 322.492 286.18 323.039C286.18 323.148 286.07 323.203 286.07 323.313C286.07 323.422 286.07 323.422 286.07 323.477V323.586C285.961 323.422 285.688 323.422 285.633 323.586C285.086 324.297 284.703 325.117 284.648 326.047L284.539 326.156C284.43 326.156 284.375 326.156 284.266 326.266C283.555 327.195 283.008 328.18 282.734 329.273C282.625 329.656 283.281 329.82 283.391 329.438C283.5 329.273 283.5 329.055 283.555 328.891C283.664 328.891 283.828 328.891 283.938 328.781C284.211 328.344 284.484 327.797 284.648 327.25C284.758 327.141 284.813 326.977 284.922 326.867C285.031 326.867 285.195 326.867 285.305 326.703C285.414 326.594 285.414 326.539 285.469 326.43C285.742 326.047 286.016 325.609 286.398 325.227C286.508 325.227 286.672 325.227 286.781 325.063C286.945 324.68 287.055 324.406 287.219 324.133C287.492 323.859 287.766 323.477 288.039 323.203C288.148 323.039 288.203 322.93 288.422 322.766C288.422 322.766 288.531 322.766 288.531 322.656C288.914 322.273 289.188 321.945 289.461 321.453C289.57 321.453 289.734 321.453 289.844 321.344C290.008 321.18 290.117 320.906 290.227 320.688C290.336 320.797 290.5 320.797 290.609 320.578C290.609 320.578 290.609 320.578 290.719 320.469C290.992 320.195 291.156 319.813 291.375 319.484C291.539 319.375 291.758 319.211 291.922 318.938C292.031 318.938 292.086 318.828 292.195 318.773C292.469 318.664 292.633 318.609 292.906 318.5C293.18 318.336 293.344 318.117 293.563 317.953C293.727 317.789 293.836 317.57 294 317.406C294.383 317.133 294.82 316.859 295.203 316.586C295.641 316.203 296.133 315.875 296.461 315.383C296.57 315.273 296.625 315.219 296.625 315C297.172 314.727 297.719 314.563 298.266 314.18C298.977 313.797 299.523 313.25 300.18 312.703C300.453 312.539 300.617 312.32 300.891 312.156C301.164 312.047 301.328 311.883 301.547 311.773C301.656 311.773 301.82 311.773 301.984 311.664C303.352 311.227 304.445 310.187 305.813 309.859C306.523 309.695 307.289 309.586 308 309.312C308.711 309.039 309.367 308.602 310.078 308.383C310.188 308.383 310.352 308.273 310.461 308.219C311.719 307.945 313.031 307.672 314.289 307.508C315.219 307.344 316.203 307.125 317.133 306.961C317.516 306.852 317.844 306.797 318.227 306.523C318.5 306.523 318.664 306.414 318.938 306.414C319.047 306.414 319.047 306.414 319.102 306.414C320.469 306.414 321.945 306.414 323.258 306.523C324.352 306.523 325.336 306.523 326.43 306.523C326.594 306.523 326.813 306.414 326.867 306.414C326.977 306.414 327.141 306.414 327.25 306.523C327.797 306.633 328.234 306.687 328.781 306.687C329.328 306.797 329.875 306.961 330.531 306.961H330.641C331.078 307.07 331.625 307.07 332.008 307.125C332.117 307.125 332.281 307.125 332.445 307.125C333.43 307.398 334.469 307.508 335.453 307.781C335.617 307.781 335.562 307.891 335.562 307.781C335.562 307.617 335.727 307.781 335.727 307.781C336 307.891 336.383 308.055 336.656 308.164C336.766 308.164 337.094 308 337.203 307.891C337.477 307.781 336.109 307.672 335.672 307.563Z" fill="#909090"/>
<path d="M280.875 334.141C294.164 308.219 320.523 301.875 341.141 310.078" stroke="#606060" stroke-width="1.1763" stroke-miterlimit="10"/>
<path d="M280.875 334.141C292.852 300.398 325.664 300.945 341.25 310.078" stroke="#606060" stroke-width="1.1763" stroke-miterlimit="10"/>
<path d="M360.938 281.695L178.336 191.898L197.859 160.945L383.141 239.75L360.938 281.695Z" fill="white"/>
<path d="M187.25 192.992L183.258 190.859L198.078 165.32L201.852 167.234L187.25 192.992Z" fill="#CECBD4"/>
<path d="M188.781 193.977L185.992 192.5L200.813 166.961L203.492 168.219L188.781 193.977Z" fill="url(#paint2_linear_1_12172)"/>
<path d="M197.859 199.172L187.523 193.43L204.148 167.07L212.953 171.992L197.859 199.172Z" fill="url(#paint3_linear_1_12172)"/>
<path d="M218.805 170.516C215.359 176.531 211.148 178.609 207.266 176.312C203.82 174.289 203.383 169.695 206.609 163.844C210.055 157.938 214.539 156.133 218.039 158.211C221.758 160.344 222.031 164.883 218.805 170.516ZM208.961 165.266C206.336 169.914 206.227 173.25 208.414 174.563C210.875 176.039 213.664 173.852 216.344 169.313C218.914 164.938 219.461 161.492 216.891 160.016C214.758 158.813 211.805 160.398 208.961 165.266Z" fill="black"/>
<path d="M204.312 192.992C201.031 199.062 197.148 201.359 193.594 199.445C190.422 197.695 190.039 193.266 193.211 187.25C196.492 181.234 200.594 179.156 203.93 180.961C207.266 182.766 207.43 187.25 204.312 192.992ZM195.344 188.508C192.773 193.156 192.719 196.492 194.687 197.586C196.984 198.789 199.609 196.492 202.07 191.844C204.422 187.414 204.969 183.914 202.727 182.766C200.812 181.781 197.969 183.586 195.344 188.508Z" fill="black"/>
<path d="M197.312 164.992L212.406 172.102L198.242 198.297L183.312 190.859L197.969 165.32L197.312 164.883L181.945 190.695C181.945 190.695 186.047 196.328 186.211 196.602C186.375 196.875 192.117 200.594 192.117 200.594L199.773 201.414L205.406 193.43L210.602 181.18L217.602 174.563L224.219 160.125L213.117 155.477L197.641 163.461L197.312 164.992Z" fill="white"/>
<path d="M198.133 198.242L183.148 190.805L198.078 165.43L212.516 172.047L198.133 198.242Z" stroke="#2A2420" stroke-width="1.1763" stroke-miterlimit="10"/>
<path d="M210.164 203.219L206.227 201.25L220.609 175.438L224.492 177.242L210.164 203.219Z" fill="#CECBD4"/>
<path d="M211.805 204.148L208.961 202.781L223.344 176.969L226.133 178.227L211.805 204.148Z" fill="url(#paint4_linear_1_12172)"/>
<path d="M220.992 209.234L210.492 203.711L226.68 177.078L235.594 181.781L220.992 209.234Z" fill="url(#paint5_linear_1_12172)"/>
<path d="M230.344 197.313C227.172 203.492 223.344 205.789 219.734 203.93C216.562 202.289 216.125 197.859 219.187 191.844C222.359 185.773 226.461 183.641 229.742 185.391C233.133 187.141 233.352 191.516 230.344 197.313ZM221.32 192.992C218.859 197.695 218.75 201.086 220.773 202.07C223.07 203.273 225.695 200.867 228.047 196.273C230.398 191.844 230.891 188.344 228.594 187.195C226.68 186.156 223.891 188.07 221.32 192.992Z" fill="black"/>
<path d="M219.898 175.164L235.156 182.055L221.32 208.414L206.336 201.25L220.609 175.547L219.898 175.164L205.078 201.141C205.078 201.141 209.234 206.664 209.453 206.938C209.617 207.211 215.359 210.82 215.359 210.82L223.016 211.531L228.539 203.438L233.516 191.078L240.406 184.352L246.859 169.805L235.703 165.375L220.336 173.633L219.898 175.164Z" fill="white"/>
<path d="M221.156 208.305L206.172 201.141L220.609 175.492L235.156 181.891L221.156 208.305Z" stroke="#2A2420" stroke-width="1.1763" stroke-miterlimit="10"/>
<path d="M233.406 213.5L229.523 211.531L243.687 185.609L247.516 187.414L233.406 213.5Z" fill="#CECBD4"/>
<path d="M235.047 214.43L232.258 213.063L246.422 187.141L249.211 188.398L235.047 214.43Z" fill="url(#paint6_linear_1_12172)"/>
<path d="M244.234 219.406L233.789 213.938L249.758 187.141L258.672 191.898L244.234 219.406Z" fill="url(#paint7_linear_1_12172)"/>
<path d="M265.672 187.305C262.336 193.375 258.234 195.508 254.242 193.32C250.687 191.406 250.141 186.758 253.313 180.852C256.594 174.836 261.023 172.922 264.687 174.945C268.516 177.133 268.844 181.672 265.672 187.305ZM255.883 182.328C253.312 186.977 253.313 190.422 255.5 191.625C257.961 192.992 260.75 190.695 263.211 186.156C265.672 181.727 266.109 178.227 263.594 176.859C261.516 175.711 258.508 177.406 255.883 182.328Z" fill="black"/>
<path d="M253.148 208.852C249.977 215.031 246.148 217.383 242.539 215.578C239.367 213.938 238.93 209.508 241.883 203.492C245 197.422 249.047 195.234 252.438 196.93C255.883 198.68 256.156 203.055 253.148 208.852ZM244.125 204.586C241.664 209.289 241.664 212.68 243.688 213.664C245.984 214.867 248.5 212.461 250.961 207.758C253.258 203.328 253.695 199.828 251.398 198.68C249.43 197.805 246.695 199.719 244.125 204.586Z" fill="black"/>
<path d="M242.977 185.336L258.234 192.172L244.617 218.695L229.633 211.586L243.742 185.773L243.086 185.336L228.266 211.313C228.266 211.313 232.531 216.836 232.695 217.109C232.859 217.383 238.711 220.992 238.711 220.992L246.367 221.648L251.836 213.555L256.758 201.086L263.594 194.25L269.938 179.703L258.781 175.328L243.523 183.695L242.977 185.336Z" fill="white"/>
<path d="M244.508 218.531L229.305 211.422L243.688 185.719L258.234 191.953L244.508 218.531Z" stroke="#2A2420" stroke-width="1.1763" stroke-miterlimit="10"/>
<path d="M256.32 223.508L252.328 221.484L266.438 195.617L270.32 197.312L256.32 223.508Z" fill="#CECBD4"/>
<path d="M257.961 224.437L255.117 223.07L269.117 197.148L271.961 198.352L257.961 224.437Z" fill="url(#paint8_linear_1_12172)"/>
<path d="M267.148 229.414L256.594 223.945L272.617 197.148L281.477 201.797L267.148 229.414Z" fill="url(#paint9_linear_1_12172)"/>
<path d="M276.227 217.711C273.055 223.891 269.336 226.242 265.672 224.437C262.5 222.797 261.953 218.367 264.961 212.352C268.078 206.281 272.125 204.094 275.516 205.734C278.961 207.43 279.234 211.859 276.227 217.711ZM267.258 213.391C264.906 218.094 264.797 221.484 266.82 222.469C269.117 223.672 271.633 221.211 273.984 216.562C276.281 212.133 276.719 208.578 274.422 207.484C272.508 206.5 269.664 208.414 267.258 213.391Z" fill="black"/>
<path d="M265.672 195.234L280.93 201.961L267.477 228.594L252.383 221.484L266.383 195.563L265.727 195.125L251.07 221.32C251.07 221.32 255.336 226.844 255.5 227.063C255.664 227.227 261.516 230.945 261.516 230.945L269.172 231.602L274.641 223.508L279.453 211.039L286.289 204.203L292.578 189.656L281.422 185.391L266.164 193.867L265.672 195.234Z" fill="white"/>
<path d="M267.422 228.43L252.219 221.43L266.438 195.617L281.039 201.852L267.422 228.43Z" stroke="#2A2420" stroke-width="1.1763" stroke-miterlimit="10"/>
<path d="M279.344 233.68L275.297 231.711L289.133 205.625L293.07 207.43L279.344 233.68Z" fill="#CECBD4"/>
<path d="M280.93 234.609L278.031 233.242L291.867 207.156L294.656 208.305L280.93 234.609Z" fill="url(#paint10_linear_1_12172)"/>
<path d="M290.227 239.477L279.617 234.117L295.203 207.156L304.227 211.695L290.227 239.477Z" fill="url(#paint11_linear_1_12172)"/>
<path d="M312.156 206.172C308.875 212.352 304.773 214.539 300.781 212.352C297.227 210.437 296.625 205.898 299.687 199.883C302.859 193.812 307.234 191.898 310.953 193.812C314.836 195.781 315.219 200.32 312.156 206.172ZM302.203 201.141C299.742 205.844 299.742 209.234 301.93 210.437C304.5 211.805 307.18 209.453 309.641 204.914C311.992 200.484 312.375 196.93 309.914 195.617C307.781 194.523 304.773 196.219 302.203 201.141Z" fill="black"/>
<path d="M298.758 228.047C295.641 234.336 291.922 236.688 288.203 234.883C285.031 233.352 284.484 228.867 287.383 222.797C290.391 216.617 294.492 214.43 297.828 216.07C301.383 217.875 301.656 222.25 298.758 228.047ZM289.68 223.945C287.328 228.648 287.328 232.039 289.297 233.023C291.594 234.117 294.109 231.766 296.461 227.008C298.648 222.469 299.086 219.023 296.844 217.93C294.875 217.055 292.141 218.969 289.68 223.945Z" fill="black"/>
<path d="M288.422 205.352L303.789 211.914L290.609 238.656L275.406 231.766L289.133 205.68L288.477 205.242L274.094 231.602C274.094 231.602 278.359 237.07 278.523 237.344C278.687 237.617 284.539 241.172 284.539 241.172L292.195 241.719L297.555 233.516L302.258 221.047L308.984 214.156L315.055 199.5L303.789 195.344L288.586 203.875L288.422 205.352Z" fill="white"/>
<path d="M290.391 238.492L275.242 231.711L289.133 205.68L303.789 211.805L290.391 238.492Z" stroke="#2A2420" stroke-width="1.1763" stroke-miterlimit="10"/>
<path d="M303.516 244.398L299.523 242.484L312.977 216.234L316.859 217.984L303.516 244.398Z" fill="#CECBD4"/>
<path d="M305.156 245.219L302.312 243.961L315.656 217.711L318.609 218.859L305.156 245.219Z" fill="url(#paint12_linear_1_12172)"/>
<path d="M314.508 250.031L303.844 244.891L319.156 217.602L328.125 222.031L314.508 250.031Z" fill="url(#paint13_linear_1_12172)"/>
<path d="M318.5 228.703L314.672 228.867L315.219 226.789L319.867 226.516L321.781 227.5L312.211 245.602L310.133 244.508L318.5 228.703Z" fill="#E56F74"/>
<path d="M312.211 215.961L327.687 222.305L314.891 249.211L299.633 242.594L312.922 216.344L312.211 215.961L298.266 242.43C298.266 242.43 302.641 247.789 302.805 248.063C302.969 248.336 308.875 251.781 308.875 251.781L316.531 252.219L321.727 243.961L326.266 231.438L332.883 224.437L338.789 209.727L327.523 205.734L312.539 214.539L312.211 215.961Z" fill="white"/>
<path d="M314.781 249.047L299.414 242.43L312.977 216.234L327.688 222.141L314.781 249.047Z" stroke="#2A2420" stroke-width="1.1763" stroke-miterlimit="10"/>
<path d="M326.758 253.859L322.766 251.945L336.328 225.805L340.32 227.5L326.758 253.859Z" fill="#CECBD4"/>
<path d="M328.398 254.789L325.609 253.477L339.117 227.227L341.961 228.43L328.398 254.789Z" fill="url(#paint14_linear_1_12172)"/>
<path d="M337.75 259.602L327.141 254.297L342.508 227.117L351.586 231.711L337.75 259.602Z" fill="url(#paint15_linear_1_12172)"/>
<path d="M342.289 238.055L338.57 238.328L339.117 236.25L343.766 235.977L345.68 236.961L336.383 255.227L334.195 254.133L342.289 238.055Z" fill="#E56F74"/>
<path d="M335.672 225.422L351.148 231.875L338.133 258.672L322.93 251.945L336.383 225.75L335.781 225.313L321.672 251.836C321.672 251.836 326.047 257.305 326.211 257.469C326.375 257.742 332.281 261.188 332.281 261.188L339.937 261.625L345.188 253.367L349.836 240.844L356.453 233.844L362.469 219.133L351.203 215.031L336.109 223.781L335.672 225.422Z" fill="white"/>
<path d="M337.969 258.617L322.656 251.891L336.328 225.805L351.039 231.766L337.969 258.617Z" stroke="#2A2420" stroke-width="1.1763" stroke-miterlimit="10"/>
<path d="M347.594 269.117L343.602 267.312L360.555 234.391L364.602 236.031L347.594 269.117Z" fill="#CECBD4"/>
<path d="M349.234 270.047L346.391 268.789L363.289 236.031L366.133 237.125L349.234 270.047Z" fill="url(#paint16_linear_1_12172)"/>
<path d="M358.477 274.859L347.922 269.664L367.391 234.227L376.469 238.711L358.477 274.859Z" fill="url(#paint17_linear_1_12172)"/>
<path d="M361.648 245.875C362.852 243.578 364.93 242.594 367.391 242.703V242.594C366.133 240.68 366.133 238.766 366.953 237.125C368.43 234.227 371.656 233.406 374.5 234.938C377.672 236.578 378.109 239.586 376.961 241.828C376.141 243.359 374.609 244.672 372.039 244.672V244.781C373.57 246.695 374.063 248.938 372.969 251.125C371.328 254.297 367.773 255.117 364.711 253.477C361.211 251.891 360.281 248.5 361.648 245.875ZM370.563 250.305C371.766 248.117 370.836 246.313 369.031 244.508C366.734 244.125 365.039 244.945 364.109 246.695C363.125 248.5 363.453 250.797 365.586 251.891C367.555 252.875 369.578 252.164 370.563 250.305ZM369.195 238.055C368.266 239.859 369.031 241.5 370.563 243.031C372.313 243.195 373.898 242.648 374.719 241.008C375.43 239.531 375.43 237.672 373.461 236.633C371.656 235.703 369.961 236.523 369.195 238.055Z" fill="#E56F74"/>
<path d="M347.922 274.75C348.359 275.023 348.906 275.297 349.727 275.57C351.094 276.008 352.625 276.008 354.102 275.57C355.742 275.023 357.383 273.82 358.75 271.852H358.641C357.109 272.672 355.469 272.672 353.828 271.852C350.82 270.375 350.219 266.93 351.805 263.867C353.555 260.422 357.328 258.508 360.719 260.258C364.055 262.008 364.602 266.055 362.25 270.703C360.227 274.695 357.602 276.883 355.086 277.813C353.062 278.523 350.984 278.523 349.07 277.813C348.141 277.539 347.43 277.156 346.992 276.883L347.922 274.75ZM354.047 264.688C352.844 266.984 353.336 269.117 355.25 270.156C356.727 270.867 358.367 270.703 359.406 269.883C359.68 269.719 359.844 269.5 360.063 269.063C361.594 265.945 361.813 263.047 359.516 261.898C357.656 260.969 355.414 262.117 354.047 264.688Z" fill="#E56F74"/>
<path d="M358.477 235.43L374.5 241.5L358.859 274.039L343.656 267.312L359.953 235.594L358.75 235.047L342.398 267.148C342.398 267.148 346.773 272.617 346.938 272.781C347.102 273.055 353.008 276.5 353.008 276.5L360.664 276.937L365.914 268.68L370.563 256.156L377.18 249.156L383.195 234.445L371.93 230.344L359.406 233.898L358.477 235.43Z" fill="white"/>
<path d="M358.75 273.93L343.492 267.203L359.953 235.758L374.5 241.5L358.75 273.93Z" stroke="#2A2420" stroke-width="1.1763" stroke-miterlimit="10"/>
<path d="M365.312 277.43L340.32 266.82L337.75 259.656L320.742 252.273L311.992 249.102L287.93 238.547L266.93 229.359L243.852 219.516L228.047 212.078L216.891 208.359L189.984 196.273L182.984 191.461L182.438 190.914L182.711 190.258L197.914 164.609L228.922 178.445L253.805 189.328L281.094 201.25L303.844 211.258L328.016 221.594L351.641 231.164L374.883 241.062L375.43 241.719L374.062 245.547L371.164 251.891L360.281 275.625L368.922 281.531L395.008 245.164V227.063L346.391 208.414L311.5 190.695L263.594 171.992L210.492 151.922C210.492 151.922 196.219 154.766 195.945 155.477C195.672 156.187 178.609 176.914 178.609 176.914C178.609 176.914 170.406 197.641 170.406 198.078C170.406 198.516 179.43 207.648 180.469 208.141C181.508 208.633 266.984 243.25 266.984 243.25L302.367 255.992L338.898 279.891L363.344 289.078L369.523 280.328L365.312 277.43Z" fill="white"/>
<path d="M139.344 204.805L135.461 203L133.656 206.992L137.922 209.016L137.375 210.219L131.742 207.648L136.828 196.547L142.188 199.008L141.641 200.211L137.539 198.297L135.898 201.742L139.781 203.547L139.344 204.805Z" fill="black"/>
<path d="M141.367 211.969L143.172 199.445L144.539 200.102L143.609 206.281C143.336 208.031 143.063 209.453 142.789 210.93C143.719 209.727 144.703 208.578 145.797 207.32L149.953 202.617L151.32 203.273L142.68 212.734L141.367 211.969Z" fill="black"/>
<path d="M152.414 211.039L151.977 212.133L148.367 210.492L148.805 209.398L152.414 211.039Z" fill="black"/>
<path d="M154.875 213.938L152.25 216.945L150.883 216.289L159.359 206.719L160.891 207.43L159.25 220.062L157.883 219.406L158.43 215.414L154.875 213.938ZM158.703 214.32L159.141 210.711C159.25 209.891 159.414 209.18 159.523 208.414C159.086 208.961 158.594 209.617 158.047 210.164L155.586 212.898L158.703 214.32Z" fill="black"/>
<path d="M171.336 219.789C171.992 218.258 172.703 216.344 173.359 214.977C172.43 216.18 171.336 217.328 170.188 218.586L166.031 223.125L165.047 222.688L165.867 216.672C166.141 214.867 166.305 213.336 166.687 211.859C166.031 213.227 165.156 215.031 164.227 216.672L161.766 221.32L160.562 220.773L166.305 210.055L167.945 210.766L167.234 216.836C167.07 218.367 166.797 219.734 166.523 220.992C167.234 220.008 168.164 218.914 169.258 217.711L173.414 213.172L175.055 213.883L170.625 225.258L169.367 224.711L171.336 219.789Z" fill="black"/>
<path d="M144.703 236.414C143.719 235.43 142.68 234.336 141.805 233.297C141.641 233.133 141.531 232.914 141.367 232.859C139.289 231.602 138.25 228.867 140 225.75C141.75 222.633 144.648 221.594 147.109 222.906C149.57 224.273 150.117 227.172 148.477 230.07C147.109 232.531 145.141 233.625 143.281 233.352V233.461C144.102 234.172 144.922 234.992 145.633 235.539L144.703 236.414ZM147.164 229.578C148.258 227.664 148.367 225.148 146.453 224.055C144.43 222.961 142.352 224.437 141.258 226.516C140.055 228.594 140.164 231.055 141.969 232.039C143.883 233.023 145.961 231.766 147.164 229.578Z" fill="black"/>
<path d="M149.953 230.891C150.336 230.18 150.664 229.523 150.937 228.977L152.031 229.523L151.484 230.727C152.195 230.289 153.289 230.016 154.383 230.617C155.312 231.055 156.406 232.422 155.094 234.883L152.797 239.039L151.594 238.383L153.781 234.391C154.438 233.297 154.492 232.094 153.398 231.492C152.578 231.055 151.648 231.328 151.102 231.93C150.937 232.039 150.828 232.313 150.719 232.477L148.422 236.633L147.219 235.977L149.953 230.891Z" fill="black"/>
<path d="M154.875 239.258C155.148 238.711 155.695 238.547 156.133 238.82C156.57 239.094 156.68 239.641 156.406 240.188C156.133 240.734 155.586 240.898 155.148 240.625C154.711 240.297 154.602 239.695 154.875 239.258ZM157.609 234.117C157.883 233.57 158.43 233.406 158.867 233.68C159.305 233.953 159.414 234.5 159.141 235.047C158.867 235.594 158.32 235.758 157.883 235.484C157.5 235.156 157.336 234.609 157.609 234.117Z" fill="black"/>
<path d="M164.227 234.664H162.203L162.477 233.57H165.047L166.031 234.117L160.836 243.469L159.633 242.812L164.227 234.664Z" fill="black"/>
<path d="M164.609 244.617C164.883 244.07 165.43 243.906 165.867 244.18C166.305 244.453 166.523 245 166.141 245.547C165.867 246.094 165.32 246.258 164.883 245.984C164.445 245.711 164.336 245.055 164.609 244.617Z" fill="black"/>
<path d="M176.805 241.336L173.469 239.531L171.828 241.719C171.992 241.828 172.266 241.883 172.539 242.102C173.195 242.484 173.797 243.031 174.18 243.633C174.617 244.453 174.727 245.547 174.07 246.75C173.086 248.555 170.953 249.211 169.094 248.117C168.109 247.57 167.453 246.859 167.18 246.313L168 245.492C168.273 245.93 168.82 246.586 169.641 247.023C170.734 247.68 172.211 247.406 172.812 246.094C173.469 244.891 173.195 243.523 171.445 242.648C170.898 242.375 170.516 242.211 170.187 242.102L173.195 237.945L177.352 240.242L176.805 241.336Z" fill="black"/>
<path d="M177.078 245.711C177.461 245 177.789 244.344 178.063 243.797L179.047 244.344L178.5 245.547C179.211 245.109 180.141 244.836 181.234 245.383C182.164 245.82 182.492 246.859 182.328 247.844C182.766 247.57 183.148 247.406 183.586 247.297C184.133 247.188 184.68 247.297 185.336 247.57C186.266 248.008 187.141 249.375 185.773 251.727L183.477 255.828L182.273 255.172L184.461 251.18C185.172 249.812 185.172 248.828 184.188 248.281C183.531 247.898 182.711 248.172 182.164 248.664C182 248.828 181.891 249.047 181.727 249.211L179.375 253.586L178.172 252.93L180.469 248.773C181.125 247.68 181.125 246.586 180.195 246.148C179.484 245.711 178.555 246.039 178.008 246.586C177.844 246.75 177.734 246.969 177.57 247.133L175.273 251.289L174.07 250.633L177.078 245.711Z" fill="black"/>
<path d="M191.352 245.055C191.789 244.945 192.555 245.055 193.156 245.437C194.359 246.094 194.414 246.969 194.086 247.734C193.812 248.281 193.102 248.555 192.336 248.445C193.047 248.992 193.266 249.813 192.883 250.523C192.445 251.453 191.133 251.781 189.766 251.07C189.109 250.688 188.562 250.25 188.398 249.812L189.055 249.266C189.219 249.539 189.602 250.086 190.148 250.359C190.969 250.797 191.625 250.469 191.898 249.977C192.281 249.266 191.734 248.5 190.969 248.172L190.586 248.008L190.969 247.352L191.352 247.516C191.898 247.789 192.719 247.953 193.102 247.242C193.266 246.859 193.266 246.422 192.664 246.039C192.227 245.766 191.57 245.766 191.297 245.766L191.352 245.055Z" fill="black"/>
<path d="M188.398 259.328L197.969 250.961L198.898 251.508L189.328 259.875L188.398 259.328Z" fill="black"/>
<path d="M199.992 251.617L201.195 252.273L198.844 256.648C199.227 256.375 199.664 256.211 200.211 256.211C200.648 256.211 201.195 256.32 201.687 256.484C202.617 256.922 203.711 258.289 202.344 260.75L200.047 264.906L198.844 264.25L201.031 260.258C201.688 259.164 201.742 257.961 200.648 257.359C199.828 256.922 198.898 257.195 198.352 257.742C198.188 257.852 198.078 258.016 197.914 258.289L195.617 262.445L194.414 261.789L199.992 251.617Z" fill="black"/>
<path d="M133.711 238.602C134.367 238.766 135.188 239.148 136.063 239.695C137.266 240.352 137.867 241.062 138.141 241.883C138.414 242.594 138.305 243.523 137.867 244.344C137.43 245.273 136.773 245.82 136.063 246.094C135.078 246.477 133.875 246.258 132.727 245.656C132.344 245.492 132.07 245.273 131.797 245L129.609 248.883L128.406 248.227L133.711 238.602ZM132.234 243.961C132.398 244.125 132.781 244.398 133.164 244.617C134.641 245.437 135.898 245.164 136.609 243.797C137.32 242.539 136.773 241.445 135.516 240.68C134.969 240.406 134.586 240.242 134.313 240.133L132.234 243.961Z" fill="black"/>
<path d="M135.625 252.164L140.984 242.43L142.242 243.141L142.516 249.703C142.625 251.234 142.516 252.547 142.406 253.805C143.062 252.438 143.609 251.234 144.484 249.703L146.781 245.602L147.875 246.258L142.516 255.992L141.312 255.336L141.148 248.773C141.148 247.297 141.148 245.875 141.258 244.617H141.148C140.492 245.875 139.945 247.078 139.07 248.719L136.773 252.875L135.625 252.164Z" fill="black"/>
<path d="M144.594 256.156C144.867 255.609 145.414 255.445 145.852 255.719C146.289 255.992 146.398 256.539 146.125 257.086C145.852 257.633 145.305 257.797 144.867 257.523C144.43 257.25 144.32 256.703 144.594 256.156ZM147.438 251.07C147.711 250.523 148.258 250.359 148.695 250.633C149.133 250.906 149.242 251.453 148.969 252C148.695 252.547 148.148 252.711 147.711 252.438C147.273 252.164 147.164 251.508 147.438 251.07Z" fill="black"/>
<path d="M156.898 253.148H154.875L155.148 252.055H157.719L158.703 252.602L153.508 261.953L152.305 261.297L156.898 253.148Z" fill="black"/>
<path d="M165.266 262.117C163.516 265.289 161.438 266.492 159.469 265.398C157.719 264.469 157.555 262.117 159.195 258.945C160.945 255.773 163.078 254.789 164.938 255.773C166.797 256.867 166.906 259.219 165.266 262.117ZM160.344 259.656C158.977 262.117 158.977 263.813 160.07 264.469C161.273 265.125 162.695 263.922 163.953 261.57C165.211 259.273 165.484 257.469 164.227 256.758C163.242 256.211 161.766 257.141 160.344 259.656Z" fill="black"/>
<path d="M164.062 267.75C164.336 267.313 164.773 266.547 165.047 265.945L169.695 257.469L170.898 258.125L168.547 262.5C169.367 261.953 170.461 261.844 171.445 262.391C173.086 263.32 173.469 265.398 172.266 267.477C170.898 269.938 168.711 270.375 167.289 269.555C166.359 269.008 165.813 268.188 165.813 266.984L165.102 268.078L164.062 267.75ZM166.797 265.617C166.688 265.781 166.633 266 166.633 266.055C166.359 267.039 166.742 268.078 167.617 268.516C168.875 269.227 170.187 268.516 171.062 266.875C171.773 265.508 171.773 263.867 170.516 263.266C169.695 262.828 168.602 262.992 167.891 263.812C167.781 263.922 167.617 264.086 167.508 264.25L166.797 265.617Z" fill="black"/>
<path d="M175.438 274.039L175.82 273.109C175.164 273.492 174.18 273.547 173.25 273C171.883 272.289 171.773 270.922 172.32 269.883C173.25 268.133 175.164 268.078 177.68 269.445L177.789 269.281C178.063 268.734 178.5 267.531 177.133 266.82C176.477 266.437 175.766 266.383 175.109 266.383L175.273 265.398C175.984 265.289 176.914 265.508 177.734 265.945C179.758 267.039 179.484 268.789 178.664 270.211L177.188 272.836C176.805 273.492 176.531 274.039 176.367 274.586L175.438 274.039ZM177.242 270.32C175.984 269.609 174.344 269.062 173.633 270.43C173.195 271.25 173.469 271.906 174.07 272.234C174.891 272.672 175.82 272.398 176.367 271.961C176.477 271.852 176.531 271.688 176.641 271.578L177.242 270.32Z" fill="black"/>
<path d="M180.961 270.758C181.398 269.938 181.781 269.227 182.164 268.57L183.148 269.117L182.438 270.484H182.547C183.367 269.664 184.352 269.5 185.172 269.938C185.281 270.047 185.336 270.102 185.445 270.211L184.789 271.414C184.68 271.305 184.625 271.25 184.406 271.141C183.586 270.703 182.602 271.031 181.945 271.852C181.836 272.016 181.672 272.234 181.562 272.398L179.539 276.117L178.336 275.461L180.961 270.758Z" fill="black"/>
<path d="M125.453 256.43L123.156 260.531L127.586 262.992L129.883 258.891L131.086 259.547L125.727 269.281L124.523 268.625L127.094 264.086L122.664 261.625L120.094 266.164L118.891 265.508L124.25 255.773L125.453 256.43Z" fill="black"/>
<path d="M132.891 267.477L132.344 268.406L129.008 266.602L129.555 265.672L132.891 267.477Z" fill="black"/>
<path d="M137.156 263.047C137.703 263.211 138.633 263.594 139.453 264.031C140.656 264.687 141.258 265.289 141.531 266.109C141.805 266.766 141.805 267.477 141.367 268.187C140.82 269.117 139.836 269.664 138.633 269.445C139.344 270.156 140 271.469 139.18 272.891C138.742 273.711 138.086 274.148 137.375 274.422C136.391 274.695 135.188 274.422 133.766 273.602C132.945 273.164 132.398 272.781 132.016 272.508L137.156 263.047ZM133.602 272.344C133.766 272.508 134.148 272.727 134.586 273C135.789 273.656 137.211 273.82 137.922 272.344C138.633 270.977 137.922 269.883 136.555 269.172L135.57 268.625L133.602 272.344ZM136.172 267.695L137.266 268.242C138.523 268.953 139.617 268.625 140.164 267.695C140.82 266.492 140.273 265.672 139.07 264.961C138.523 264.688 138.141 264.523 137.977 264.523L136.172 267.695Z" fill="black"/>
<path d="M146.508 280.656L148.859 269.281L150.117 269.992L148.914 275.516C148.531 277.047 148.258 278.414 147.93 279.672C148.859 278.687 149.844 277.648 150.938 276.555L155.094 272.562L156.352 273.273L147.711 281.203L146.508 280.656Z" fill="black"/>
<path d="M156.953 280.766L156.406 281.695L153.07 279.891L153.617 278.961L156.953 280.766Z" fill="black"/>
<path d="M159.141 283.664L156.516 286.234L155.312 285.578L163.789 277.594L165.266 278.414L163.078 289.844L161.82 289.133L162.531 285.523L159.141 283.664ZM162.695 284.32L163.352 281.039C163.516 280.328 163.734 279.672 163.898 279.016C163.461 279.563 162.969 280 162.422 280.547L159.961 282.898L162.695 284.32Z" fill="black"/>
<path d="M121.898 286.562C122.172 286.945 122.828 287.656 123.648 288.094C125.18 288.805 126.219 288.094 126.547 287.383C127.203 286.125 126.273 285.031 125.07 284.484L124.414 284.102L124.852 283.172L125.508 283.555C126.438 283.992 127.805 284.102 128.242 283.008C128.625 282.297 128.406 281.477 127.313 280.93C126.602 280.547 125.781 280.547 125.234 280.656L125.344 279.672C126 279.562 127.094 279.672 128.078 280.109C129.883 280.93 130.156 282.406 129.609 283.445C129.172 284.375 128.242 284.922 126.875 284.812C127.859 285.523 128.406 286.836 127.805 288.094C127.094 289.57 125.344 290.281 123.156 289.187C122.172 288.75 121.406 287.93 121.078 287.437L121.898 286.562Z" fill="black"/>
<path d="M136.227 289.516C134.75 292.633 132.781 293.672 130.758 292.797C129.008 291.977 128.57 289.68 130.047 286.727C131.523 283.719 133.602 282.625 135.406 283.555C137.32 284.43 137.594 286.672 136.227 289.516ZM131.25 287.328C130.156 289.68 130.156 291.32 131.359 291.867C132.617 292.523 133.93 291.32 134.969 288.969C136.063 286.781 136.172 285.086 134.859 284.43C133.875 283.937 132.508 284.867 131.25 287.328Z" fill="black"/>
<path d="M142.352 288.695C141.805 289.789 140.547 290.172 139.617 289.68C138.523 289.133 138.141 287.93 138.688 287.055C139.234 285.961 140.438 285.578 141.422 286.07C142.516 286.508 142.789 287.656 142.352 288.695ZM139.344 287.328C139.07 287.984 139.234 288.695 139.891 288.969C140.547 289.242 141.258 288.969 141.531 288.312C141.805 287.766 141.805 287.055 140.984 286.562C140.328 286.234 139.617 286.672 139.344 287.328Z" fill="black"/>
<path d="M149.625 301.328C149.078 301.328 148.094 301.164 146.891 300.617C144.266 299.359 143.062 296.734 144.539 293.617C146.016 290.719 148.914 289.734 151.813 291.047C153.016 291.594 153.617 292.25 153.836 292.523L153.125 293.344C152.742 292.906 152.195 292.414 151.375 292.086C149.187 290.992 147 291.703 145.852 294.164C144.758 296.461 145.414 298.539 147.656 299.633C148.367 300.016 149.187 300.18 149.844 300.18L149.625 301.328Z" fill="black"/>
<path d="M144.867 316.039L137.43 311.773L135.898 314.508L137.703 315.492L135.516 319.211L139.453 321.508L141.531 317.789L143.336 318.773L144.867 316.039Z" fill="black"/>
<path d="M134.805 306.469C136.883 307.672 139.07 310.078 140.164 312.648L143.008 307.727C141.203 304.008 138.086 300.617 134.75 298.648C126 293.672 119 296.625 115.281 303.078C111.563 309.531 112.383 317.078 121.188 322.055C124.523 323.969 129.008 324.953 133.164 324.68L135.789 320.031C133.219 320.305 130.266 319.648 127.859 318.281C124.961 316.641 124.141 312.539 126.055 309.258C128.078 306.141 131.906 304.883 134.805 306.469ZM120.531 308.383C120.258 308.219 119.984 308 119.82 307.836L121.188 305.375C121.352 305.648 121.57 305.922 121.844 306.086C122.773 306.633 123.922 306.195 124.469 305.156C125.016 304.172 124.852 302.859 123.922 302.422C122.992 301.984 121.844 302.313 121.297 303.352C121.297 303.352 117.195 310.461 116.102 312.375C114.57 311.445 115.117 309.477 115.117 309.477L119.273 302.203C120.531 299.906 123.266 299.031 125.289 300.18C127.313 301.383 127.859 304.063 126.547 306.359C125.234 308.656 122.609 309.586 120.531 308.383Z" fill="black"/>
<path d="M379.312 275.242C379.75 274.422 380.023 273.711 380.297 272.945L381.664 273.602L381.117 274.969H381.227C382.047 274.422 383.25 274.039 384.563 274.695C385.656 275.242 386.203 276.336 386.094 277.539C386.531 277.156 387.078 276.992 387.57 276.883C388.281 276.773 388.938 276.773 389.648 277.266C390.742 277.812 392 279.344 390.633 282.187L388.281 287.109L386.805 286.398L389.102 281.695C389.922 280.055 389.758 278.852 388.555 278.25C387.734 277.812 386.75 278.141 386.094 278.687C385.93 278.852 385.711 279.125 385.656 279.398L383.086 284.484L381.609 283.773L384.07 278.797C384.727 277.539 384.617 276.227 383.414 275.68C382.484 275.242 381.391 275.57 380.789 276.227C380.625 276.391 380.406 276.664 380.352 276.883L377.891 281.859L376.414 281.148L379.312 275.242Z" fill="black"/>
<path d="M396.648 274.148C397.195 274.039 398.016 274.148 398.945 274.586C400.422 275.297 400.695 276.391 400.203 277.211C399.82 277.922 399.109 278.195 398.125 278.141C399.055 278.687 399.328 279.672 398.945 280.602C398.398 281.695 397.031 282.133 395.227 281.258C394.406 280.875 393.75 280.273 393.477 279.781L394.187 279.07C394.352 279.344 394.898 280 395.555 280.328C396.648 280.875 397.359 280.437 397.633 279.891C398.07 278.961 397.359 278.25 396.43 277.812L395.992 277.539L396.375 276.719L396.812 276.992C397.469 277.266 398.563 277.43 398.891 276.719C399.055 276.281 399 275.734 398.234 275.352C397.578 275.078 396.867 275.078 396.484 275.078L396.648 274.148Z" fill="black"/>
<path opacity="0.25" d="M413.219 198.68C454.398 283.5 420.219 373.844 338.844 418.305C255.336 463.914 148.039 432.141 102.703 348.414C57.3672 264.687 89.9609 163.461 175.766 122.063C261.57 80.6641 371.656 112.984 413.219 198.68Z" fill="#E1EBF0"/>
<path opacity="0.51" d="M137.32 393.203C123.703 380.461 111.891 365.477 102.594 348.469C57.2578 264.961 90.0703 163.406 175.656 122.063C257.742 82.5234 358.969 112.438 407.258 188.617C353.992 139.016 272.562 123.922 204.477 156.734C118.836 198.023 86.0234 299.633 131.414 383.141C133.328 386.586 135.352 389.922 137.32 393.203Z" fill="#D2E4E7"/>
<path opacity="0.33" d="M364.93 282.242L174.617 197.805L196.711 159.414L384.672 239.148L364.93 282.242Z" stroke="black" stroke-width="0.5882" stroke-miterlimit="10"/>
<path d="M240.68 122.5L242.977 117.086L265.398 126.82L245.437 173.086L234.172 168.219L251.07 129.172L229.141 119.711L212.242 158.812L222.961 163.406L236.578 131.961L227.883 128.242" stroke="black" stroke-width="1.9263" stroke-miterlimit="10"/>
<path d="M223.781 126.437L217.164 123.594L203.438 155.531" stroke="black" stroke-width="1.9263" stroke-miterlimit="10"/>
<path d="M269.062 168.766L265.727 176.422L263.977 175.711L267.312 168.055L267.039 167.398L256.758 172.594L254.57 171.664L266.273 166.031L262.281 155.586L264.469 156.516L268.078 166.25L271.086 159.359L272.836 160.07L269.828 166.961L279.398 162.969L281.586 163.898L271.25 168.164L275.133 180.633L272.945 179.703L269.773 168.711L269.062 168.766Z" fill="black"/>
<path d="M290.336 187.031L288.586 186.32L294.055 173.797L277.758 181.617L277.484 181.508L284.594 165.156L286.344 165.867L280.82 178.609L297.172 170.625L297.445 170.734L290.336 187.031Z" fill="black"/>
<path d="M307.672 194.578L305.867 193.758L306.031 178.773L294.93 189.055L293.125 188.234L307.398 174.945L307.672 175.055V194.578Z" fill="black"/>
<path d="M323.312 201.305L321.562 200.594L327.031 188.07L310.734 195.891L310.461 195.781L317.57 179.43L319.32 180.141L313.797 192.883L330.148 184.898L330.422 185.008L323.312 201.305Z" fill="black"/>
<path d="M347.102 209.672L349.836 210.875L348.086 214.867L346.555 214.211L347.648 211.75L327.305 202.945L334.414 186.594L336.164 187.305L329.711 202.125L336.711 205.242L343.164 190.422L344.695 191.078L338.242 205.898L345.406 209.016L351.859 194.195L353.609 194.906C353.555 194.852 347.102 209.672 347.102 209.672Z" fill="black"/>
<path d="M358.75 197.148L360.5 197.859L357.492 204.75L365.969 208.359L368.977 201.469L370.727 202.18L363.617 218.531L361.867 217.82L365.312 209.836L356.836 206.227L353.391 214.211L351.641 213.5L358.75 197.148Z" fill="black"/>
<path d="M380.023 225.969L378.273 225.258L383.742 212.734L367.5 220.5L367.227 220.391L374.336 204.039L376.086 204.75L370.562 217.492L386.914 209.508L387.188 209.617L380.023 225.969Z" fill="black"/>
<path d="M391.234 211.148L392.984 211.859L390.359 217.93L399.656 214.648L401.844 215.578L390.852 219.57L395.391 232.312L393.203 231.383L389.32 220.555L385.984 228.211L384.234 227.5C384.125 227.609 391.234 211.148 391.234 211.148Z" fill="black"/>
<path d="M428.914 338.953C428.914 338.953 418.742 342.836 404.961 365.203C391.18 387.625 387.57 400.203 395.883 405.672L421.094 419.945L434.492 375.594L467.195 353.719C467.195 353.719 468.727 354.43 454.398 348.797C454.453 348.742 436.187 342.344 428.914 338.953Z" fill="url(#paint18_linear_1_12172)"/>
<path d="M428.094 377.125C428.094 377.125 460.523 346.062 469.602 344.805L498.641 358.805L455.766 390.688L448.984 447.289L479.609 467.141C479.609 467.141 449.914 455.766 420.055 435.148C420.055 435.148 418.578 433.453 419.453 430.883C419.891 429.57 422.078 428.695 423.008 426.289C425.195 420.492 421.148 418.852 421.148 418.852C421.148 418.852 417.977 400.039 428.094 377.125Z" fill="url(#paint19_linear_1_12172)"/>
<path d="M452.867 388.719L428 376.5" stroke="#8D5700" stroke-width="4.2861" stroke-miterlimit="10"/>
<path d="M445.977 438.539L423.008 426.289" stroke="#8D5700" stroke-width="4.2861" stroke-miterlimit="10"/>
<path d="M467.961 344.641L498.586 359.516" stroke="#8D5700" stroke-width="4.2861" stroke-miterlimit="10"/>
<path d="M444.828 440.781L451.719 391.563C451.992 389.43 453.141 387.516 454.836 386.203L489.727 359.953C492.461 357.875 496.234 357.82 499.023 359.789L522.102 375.922C524.563 377.672 525.875 380.68 525.492 383.687L519.422 429.023C519.148 430.938 518.273 432.688 516.852 433.945L483 464.57C480.32 467.031 476.328 467.305 473.266 465.281L448.328 448.656C445.758 446.961 444.391 443.898 444.828 440.781Z" fill="#D1B349"/>
<path d="M479.063 451.281C479.063 451.281 446.961 453.688 452.32 417.266C457.68 380.789 486.719 368.266 486.719 368.266C486.719 368.266 511.273 358.75 518.219 384.891C525.219 411.031 503.07 437.719 503.07 437.719C503.07 437.719 489.617 450.461 479.063 451.281Z" fill="#E3BD54"/>
<path opacity="0.71" d="M457.461 446.961C457.461 446.961 481.25 459.594 501.648 429.516C521.992 399.438 508.211 378.383 508.211 378.383C508.211 378.383 501.813 369.25 495.633 370.453C489.453 371.656 488.195 368.32 474.305 378.602C460.359 388.883 442.313 416.445 457.461 446.961Z" fill="#BF9B3F"/>
<path opacity="0.71" d="M495.633 370.453C495.633 370.453 513.953 382.484 502.195 414.914C490.437 447.344 457.297 445.922 453.469 442.039C449.641 438.156 449.805 412.125 458.664 397.742C467.523 383.359 481.359 368.266 495.633 370.453Z" fill="#D1B349"/>
<path opacity="0.5" d="M452.867 424.758C452.867 424.758 452.922 424.922 452.977 425.141C453.961 427.93 460.852 444.008 483 432.578C507.117 420.109 502.25 391.945 502.25 391.945C502.25 391.945 499.352 373.953 483.984 379.477C484.039 379.531 458.664 391.07 452.867 424.758Z" fill="#8D6030"/>
<path opacity="0.61" d="M476.219 385C476.219 385 499.789 375.266 497.273 404.961C497.273 404.961 495.469 423.992 474.359 430.445C474.359 430.445 455.437 434.82 455.875 414.258C455.875 414.203 461.508 394.68 476.219 385Z" fill="#956829"/>
<path d="M448.984 346.828C448.984 346.828 433.18 345.078 417.43 373.898C402.555 401.188 408.789 412.945 408.789 412.945" stroke="#8D5700" stroke-width="0.7823" stroke-miterlimit="10"/>
<path d="M453.797 348.523C453.797 348.523 438.266 348.906 421.75 376.305C405.344 403.594 413.383 415.516 413.383 415.516" stroke="#8D5700" stroke-width="0.7823" stroke-miterlimit="10"/>
<path d="M442.367 344.367C442.367 344.367 431.102 343.93 413.766 371.055C396.922 397.523 404.086 410.266 404.086 410.266" stroke="#8D5700" stroke-width="0.7823" stroke-miterlimit="10"/>
<path d="M436.242 342.016C435.914 342.07 427.711 341.414 410.156 369.141C393.148 396.047 398.617 407.203 398.617 407.203" stroke="#8D5700" stroke-width="0.7823" stroke-miterlimit="10"/>
<defs>
<linearGradient id="paint0_linear_1_12172" x1="77.4054" y1="208.91" x2="106.885" y2="163.411" gradientUnits="userSpaceOnUse">
<stop offset="0.1464" stop-color="#8D6030"/>
<stop offset="0.1743" stop-color="#906331"/>
<stop offset="0.1976" stop-color="#996E35"/>
<stop offset="0.2193" stop-color="#A87F3B"/>
<stop offset="0.2204" stop-color="#A9803B"/>
<stop offset="0.2367" stop-color="#AE853D"/>
<stop offset="0.2792" stop-color="#B38C3E"/>
<stop offset="0.3972" stop-color="#B58E3F"/>
<stop offset="0.5332" stop-color="#B58E3F"/>
<stop offset="0.8832" stop-color="#B48D3F"/>
<stop offset="0.8972" stop-color="#BD9942"/>
<stop offset="0.9229" stop-color="#C8A846"/>
<stop offset="0.9533" stop-color="#CFB048"/>
<stop offset="1" stop-color="#D1B349"/>
</linearGradient>
<linearGradient id="paint1_linear_1_12172" x1="57.9018" y1="197.482" x2="96.501" y2="148.921" gradientUnits="userSpaceOnUse">
<stop offset="0.1464" stop-color="#8D6030"/>
<stop offset="0.1743" stop-color="#906331"/>
<stop offset="0.1976" stop-color="#996E35"/>
<stop offset="0.2193" stop-color="#A87F3B"/>
<stop offset="0.2204" stop-color="#A9803B"/>
<stop offset="0.2367" stop-color="#AE853D"/>
<stop offset="0.2792" stop-color="#B38C3E"/>
<stop offset="0.3972" stop-color="#B58E3F"/>
<stop offset="0.5332" stop-color="#B58E3F"/>
<stop offset="0.7972" stop-color="#B48D3F"/>
<stop offset="0.8215" stop-color="#BD9942"/>
<stop offset="0.8661" stop-color="#C8A846"/>
<stop offset="0.9189" stop-color="#CFB048"/>
<stop offset="1" stop-color="#D1B349"/>
</linearGradient>
<linearGradient id="paint2_linear_1_12172" x1="185.992" y1="180.469" x2="203.492" y2="180.469" gradientUnits="userSpaceOnUse">
<stop stop-color="#827D7F"/>
<stop offset="0.5257" stop-color="#696365"/>
<stop offset="0.7653" stop-color="#6E6869"/>
<stop offset="1" stop-color="#797374"/>
</linearGradient>
<linearGradient id="paint3_linear_1_12172" x1="193.452" y1="197.136" x2="207.061" y2="167.679" gradientUnits="userSpaceOnUse">
<stop stop-color="#E5E4E9"/>
<stop offset="0.7324" stop-color="white"/>
<stop offset="0.7824" stop-color="#FAFAFB"/>
<stop offset="0.8389" stop-color="#EDEDEE"/>
<stop offset="0.8986" stop-color="#D7D6D9"/>
<stop offset="0.9601" stop-color="#B8B7BD"/>
<stop offset="1" stop-color="#A09EA6"/>
</linearGradient>
<linearGradient id="paint4_linear_1_12172" x1="208.777" y1="190.693" x2="226.29" y2="190.426" gradientUnits="userSpaceOnUse">
<stop stop-color="#827D7F"/>
<stop offset="0.5257" stop-color="#696365"/>
<stop offset="0.7653" stop-color="#6E6869"/>
<stop offset="1" stop-color="#797374"/>
</linearGradient>
<linearGradient id="paint5_linear_1_12172" x1="216.468" y1="207.294" x2="229.629" y2="177.63" gradientUnits="userSpaceOnUse">
<stop stop-color="#E5E4E9"/>
<stop offset="0.7324" stop-color="white"/>
<stop offset="0.7824" stop-color="#FAFAFB"/>
<stop offset="0.8389" stop-color="#EDEDEE"/>
<stop offset="0.8986" stop-color="#D7D6D9"/>
<stop offset="0.9601" stop-color="#B8B7BD"/>
<stop offset="1" stop-color="#A09EA6"/>
</linearGradient>
<linearGradient id="paint6_linear_1_12172" x1="231.968" y1="200.98" x2="249.479" y2="200.591" gradientUnits="userSpaceOnUse">
<stop stop-color="#827D7F"/>
<stop offset="0.5257" stop-color="#696365"/>
<stop offset="0.7653" stop-color="#6E6869"/>
<stop offset="1" stop-color="#797374"/>
</linearGradient>
<linearGradient id="paint7_linear_1_12172" x1="239.755" y1="217.516" x2="252.708" y2="187.763" gradientUnits="userSpaceOnUse">
<stop stop-color="#E5E4E9"/>
<stop offset="0.7324" stop-color="white"/>
<stop offset="0.7824" stop-color="#FAFAFB"/>
<stop offset="0.8389" stop-color="#EDEDEE"/>
<stop offset="0.8986" stop-color="#D7D6D9"/>
<stop offset="0.9601" stop-color="#B8B7BD"/>
<stop offset="1" stop-color="#A09EA6"/>
</linearGradient>
<linearGradient id="paint8_linear_1_12172" x1="254.777" y1="211.026" x2="272.267" y2="210.56" gradientUnits="userSpaceOnUse">
<stop stop-color="#827D7F"/>
<stop offset="0.5257" stop-color="#696365"/>
<stop offset="0.7653" stop-color="#6E6869"/>
<stop offset="1" stop-color="#797374"/>
</linearGradient>
<linearGradient id="paint9_linear_1_12172" x1="262.636" y1="227.473" x2="275.457" y2="197.662" gradientUnits="userSpaceOnUse">
<stop stop-color="#E5E4E9"/>
<stop offset="0.7324" stop-color="white"/>
<stop offset="0.7824" stop-color="#FAFAFB"/>
<stop offset="0.8389" stop-color="#EDEDEE"/>
<stop offset="0.8986" stop-color="#D7D6D9"/>
<stop offset="0.9601" stop-color="#B8B7BD"/>
<stop offset="1" stop-color="#A09EA6"/>
</linearGradient>
<linearGradient id="paint10_linear_1_12172" x1="277.637" y1="221.208" x2="295.139" y2="220.558" gradientUnits="userSpaceOnUse">
<stop stop-color="#827D7F"/>
<stop offset="0.5257" stop-color="#696365"/>
<stop offset="0.7653" stop-color="#6E6869"/>
<stop offset="1" stop-color="#797374"/>
</linearGradient>
<linearGradient id="paint11_linear_1_12172" x1="285.675" y1="237.575" x2="298.182" y2="207.633" gradientUnits="userSpaceOnUse">
<stop stop-color="#E5E4E9"/>
<stop offset="0.7324" stop-color="white"/>
<stop offset="0.7824" stop-color="#FAFAFB"/>
<stop offset="0.8389" stop-color="#EDEDEE"/>
<stop offset="0.8986" stop-color="#D7D6D9"/>
<stop offset="0.9601" stop-color="#B8B7BD"/>
<stop offset="1" stop-color="#A09EA6"/>
</linearGradient>
<linearGradient id="paint12_linear_1_12172" x1="301.684" y1="231.92" x2="319.174" y2="231.007" gradientUnits="userSpaceOnUse">
<stop stop-color="#827D7F"/>
<stop offset="0.5257" stop-color="#696365"/>
<stop offset="0.7653" stop-color="#6E6869"/>
<stop offset="1" stop-color="#797374"/>
</linearGradient>
<linearGradient id="paint13_linear_1_12172" x1="309.963" y1="248.212" x2="322.02" y2="218.084" gradientUnits="userSpaceOnUse">
<stop stop-color="#E5E4E9"/>
<stop offset="0.7324" stop-color="white"/>
<stop offset="0.7824" stop-color="#FAFAFB"/>
<stop offset="0.8389" stop-color="#EDEDEE"/>
<stop offset="0.8986" stop-color="#D7D6D9"/>
<stop offset="0.9601" stop-color="#B8B7BD"/>
<stop offset="1" stop-color="#A09EA6"/>
</linearGradient>
<linearGradient id="paint14_linear_1_12172" x1="325.023" y1="241.414" x2="342.501" y2="240.601" gradientUnits="userSpaceOnUse">
<stop stop-color="#827D7F"/>
<stop offset="0.5257" stop-color="#696365"/>
<stop offset="0.7653" stop-color="#6E6869"/>
<stop offset="1" stop-color="#797374"/>
</linearGradient>
<linearGradient id="paint15_linear_1_12172" x1="333.239" y1="257.767" x2="345.466" y2="227.709" gradientUnits="userSpaceOnUse">
<stop stop-color="#E5E4E9"/>
<stop offset="0.7324" stop-color="white"/>
<stop offset="0.7824" stop-color="#FAFAFB"/>
<stop offset="0.8389" stop-color="#EDEDEE"/>
<stop offset="0.8986" stop-color="#D7D6D9"/>
<stop offset="0.9601" stop-color="#B8B7BD"/>
<stop offset="1" stop-color="#A09EA6"/>
</linearGradient>
<linearGradient id="paint16_linear_1_12172" x1="347.026" y1="254.412" x2="365.365" y2="255.222" gradientUnits="userSpaceOnUse">
<stop stop-color="#827D7F"/>
<stop offset="0.5257" stop-color="#696365"/>
<stop offset="0.7653" stop-color="#6E6869"/>
<stop offset="1" stop-color="#797374"/>
</linearGradient>
<linearGradient id="paint17_linear_1_12172" x1="353.992" y1="273.147" x2="368.985" y2="233.884" gradientUnits="userSpaceOnUse">
<stop stop-color="#E5E4E9"/>
<stop offset="0.7324" stop-color="white"/>
<stop offset="0.7824" stop-color="#FAFAFB"/>
<stop offset="0.8389" stop-color="#EDEDEE"/>
<stop offset="0.8986" stop-color="#D7D6D9"/>
<stop offset="0.9601" stop-color="#B8B7BD"/>
<stop offset="1" stop-color="#A09EA6"/>
</linearGradient>
<linearGradient id="paint18_linear_1_12172" x1="395.065" y1="424.874" x2="456.453" y2="327.144" gradientUnits="userSpaceOnUse">
<stop stop-color="#B38B3E"/>
<stop offset="0.1516" stop-color="#D1B349"/>
<stop offset="0.2629" stop-color="#B58E3F"/>
<stop offset="0.2923" stop-color="#A9803B"/>
<stop offset="0.3454" stop-color="#996E35"/>
<stop offset="0.4013" stop-color="#906431"/>
<stop offset="0.4641" stop-color="#8D6030"/>
<stop offset="0.5555" stop-color="#906331"/>
<stop offset="0.6297" stop-color="#986D34"/>
<stop offset="0.6975" stop-color="#A77E3A"/>
<stop offset="0.7373" stop-color="#B38C3E"/>
<stop offset="0.8514" stop-color="#B48D3F"/>
<stop offset="1" stop-color="#8E6130"/>
</linearGradient>
<linearGradient id="paint19_linear_1_12172" x1="439.039" y1="455.72" x2="499.249" y2="319.321" gradientUnits="userSpaceOnUse">
<stop stop-color="#B38B3E"/>
<stop offset="0.1585" stop-color="#8D6030"/>
<stop offset="0.3757" stop-color="#B58E3F"/>
<stop offset="0.7373" stop-color="#D1B349"/>
</linearGradient>
</defs>
</svg>
