<?xml version="1.0" encoding="utf-8"?>
<!-- Generator: Adobe Illustrator 27.9.0, SVG Export Plug-In . SVG Version: 6.00 Build 0)  -->
<svg version="1.1" id="Слой_1" xmlns="http://www.w3.org/2000/svg" xmlns:xlink="http://www.w3.org/1999/xlink" x="0px" y="0px"
	 viewBox="0 0 960 560" style="enable-background:new 0 0 960 560;" xml:space="preserve">
<style type="text/css">
	.st0{fill:#4E4148;}
	.st1{fill:#383838;}
	.st2{fill:none;stroke:#000000;stroke-width:8;stroke-miterlimit:10;}
	.st3{fill:#555352;stroke:#000000;stroke-miterlimit:10;}
	.st4{fill:#CACACA;}
	.st5{fill:none;stroke:#545050;stroke-width:6;stroke-miterlimit:10;}
	.st6{fill:none;stroke:#000000;stroke-width:2;stroke-miterlimit:10;}
	.st7{fill:#373737;}
	.st8{fill:#3E3D3D;}
	.st9{fill:#555352;}
	.st10{fill:#984148;}
	.st11{fill:none;stroke:#545050;stroke-width:3;stroke-miterlimit:10;}
	.st12{fill:#596060;}
	.st13{fill:#686F6F;}
	.st14{fill:none;stroke:#888D8C;stroke-miterlimit:10;}
	.st15{fill:#3EDDF9;}
	.st16{fill:#FF0000;}
	.st17{fill:none;stroke:#000000;stroke-width:4;stroke-miterlimit:10;}
	.st18{fill:#00FFFF;}
	.st19{fill:#0071BF;}
	.st20{fill:#707070;}
	.st21{fill:none;stroke:#000000;stroke-miterlimit:10;}
	.st22{fill:none;stroke:#FFFFFF;stroke-miterlimit:10;}
	.st23{fill:#FFFFFF;}
	.st24{fill:#A4A6A6;}
	.st25{fill:#575B5B;}
	.st26{fill:#A7C958;}
	.st27{fill:#3DDE50;}
	.st28{fill:none;stroke:#A4A6A6;stroke-miterlimit:10;}
	.st29{fill:#26A217;}
	.st30{fill:#B3B3B3;}
	.st31{fill:#666666;}
	.st32{fill:#C8C8C8;stroke:#70FF4A;stroke-miterlimit:10;}
</style>
<image style="display:none;overflow:visible;enable-background:new    ;" width="426" height="240" xlink:href="1-ae294eb1.png"  transform="matrix(2.1035 0 0 2.1035 -384 63)">
</image>
<path class="st0" d="M221.5,324.5L209,308.7c-1.1-1.3-3.1-8.2-3.5-9.8l-33-177.4c-1-4.9-2.6-9.8,2.2-11.1l280.9-75.9
	c3.3-0.9,6.9,0,9.3,2.5l12.6,12.6L221.5,324.5z"/>
<path d="M183,124.2c0-0.1,0-0.2,0-0.3c-0.3-1.5-2.1-15.1,13-18.9l26-6.3c1.8-0.4,3.6,0.5,4.3,2.1l0.5,1.2c0.7,1.7,2.6,2.6,4.4,2.1
	l19.7-5.3c1.6-0.4,2.8-1.9,2.7-3.6c-0.1-2.6,0.8-6.4,6.4-8.2l28-7.5c1.2-0.3,2.5,0,3.5,0.8l9,8.3c0.9,0.9,2.2,1.2,3.5,0.9l64.8-17.2
	c0.8-0.2,1.5-0.7,2-1.3l11.4-15c0.5-0.7,1.2-1.1,2-1.3l24.9-6.2c1.2-0.3,2.4,0,3.3,0.8l5.1,4.4c0.9,0.8,2.2,1.1,3.4,0.8l10.3-2.8
	c1.6-0.4,2.8-1.9,2.8-3.6v-3.3c0-1.7,1.1-3.2,2.8-3.6l16.1-4.3c0.1,0,0.2,0,0.2-0.1c1.2-0.4,10.9-3.4,15.7,3.7
	c0.1,0.2,0.3,0.4,0.4,0.5l8.3,8.3l-17.1,10.2c-0.3,0.2-0.6,0.3-0.9,0.4l-267.4,76.3c-1.3,0.4-2.7,0-3.6-0.9l-5-5L183,124.2z"/>
<path class="st1" d="M221,327l1.3,32.5c0.1,0.9,0.5,11.5,1.1,12.3l84.7,112c2.8,4,11.5,7.4,15.8,5.5L596.1,372
	c1.9-0.8,4.2-7,4.2-9.2l1.5-34.8c0-1.6,1-4.6-0.2-5.6l-115.4-94c-1.4-1.1-3.2-1.5-4.9-0.8l-258.5,94.7
	C220.5,323,220.8,324.6,221,327z"/>
<path class="st2" d="M429,400.4c-1.6,0.7-2.6,2.3-2.7,4c-0.3,7.8,0.6,28.1,20.2,19.2c16.7-7.7,38.8-18.2,50.6-23.9
	c5.1-2.5,8.4-7.7,8.4-13.4v-14.1c0-3.4-3.5-5.6-6.6-4.2L429,400.4z"/>
<path class="st3" d="M598.5,327.5v14c0,0-9,4-18,9s-13-1-13-1s-12,4-15,6s-1,7-1,7s-27,16-31,13s-18-3-18-3l-63,27c-6,3-6,13-6,13
	l-27,13c-11,7-15-2-15-2l-20,9c-5,2-5,9-5,9l-27,12c-11,6-25-8-25-8l275.8-115.7L598.5,327.5z"/>
<polygon class="st4" points="231.4,339.7 315,444 584.3,333.7 482.9,249.1 "/>
<path class="st5" d="M224.5,319.2l-0.4,6.3l89,118c0.9,1.2,2.5,1.6,3.8,1L599.1,326c0.6-0.3,0.7-1.1,0.2-1.5L490,234l-6.8-3.7"/>
<line class="st6" x1="208.4" y1="257.4" x2="194.8" y2="241.9"/>
<line class="st6" x1="215" y1="288" x2="201.6" y2="277.9"/>
<line class="st6" x1="201.2" y1="207.8" x2="185.8" y2="192.8"/>
<line class="st6" x1="193" y1="173" x2="180.7" y2="165.9"/>
<polygon class="st7" points="221.5,324.5 183.5,130.5 477.5,49.5 486.5,231.5 "/>
<polygon class="st8" points="477.5,49.5 457,56 467,215 486.5,231.5 "/>
<polygon class="st9" points="467,215 217,301 221.5,324.5 486.5,231.5 "/>
<polygon class="st10" points="198.5,206.7 208.1,255.9 194.8,241.9 186,194.2 "/>
<line class="st11" x1="237.5" y1="343.5" x2="234.8" y2="386.8"/>
<line class="st11" x1="251.5" y1="362.5" x2="249" y2="405.5"/>
<line class="st11" x1="274.5" y1="392.5" x2="270.4" y2="433.8"/>
<line class="st11" x1="291.5" y1="415.5" x2="287.6" y2="456.6"/>
<g>
	<polygon class="st12" points="346.4,424.4 453,379 453,373 408.4,333.4 307,367 307,373 	"/>
</g>
<g>
	<polygon class="st13" points="347,418 453,373 409,327 307,367 	"/>
</g>
<line class="st14" x1="328" y1="371" x2="320" y2="375"/>
<line class="st14" x1="330.9" y1="375.1" x2="322.9" y2="379.1"/>
<line class="st14" x1="333.9" y1="379.1" x2="325.9" y2="383.1"/>
<line class="st14" x1="337.4" y1="383.3" x2="329.4" y2="387.3"/>
<polygon class="st15" points="423,361 344,393 325,370 402,339 "/>
<rect x="300.5" y="344.3" transform="matrix(0.9318 -0.363 0.363 0.9318 -104.9775 138.0178)" width="28.5" height="8"/>
<polygon class="st16" points="317.9,342.8 321,350.2 329.5,347 326.6,339.5 "/>
<line class="st17" x1="271.2" y1="362.3" x2="289.3" y2="362.3"/>
<line class="st2" x1="280.9" y1="366.5" x2="281.3" y2="358.3"/>
<polygon points="344.6,336.8 352.2,327.3 366.2,329.3 358.2,338.3 "/>
<rect x="381.5" y="315.1" transform="matrix(0.9401 -0.3408 0.3408 0.9401 -84.6299 154.0726)" width="29.5" height="5.6"/>
<polygon class="st18" points="390.3,317.1 392.1,322.5 402.5,318.6 400.6,313.3 "/>
<ellipse cx="431.7" cy="303.8" rx="7.5" ry="3.5"/>
<ellipse class="st19" cx="432.2" cy="303.3" rx="4" ry="2"/>
<circle class="st20" cx="310.5" cy="407.5" r="6.5"/>
<polyline class="st21" points="312.6,418 312.6,415.8 317.8,415.8 318,413 320.9,413 "/>
<line class="st22" x1="380" y1="389" x2="413" y2="376"/>
<line class="st6" x1="381" y1="393" x2="385.3" y2="393"/>
<line class="st6" x1="383.2" y1="390.6" x2="383.2" y2="395.3"/>
<rect x="382" y="392" class="st23" width="2.2" height="2"/>
<line class="st6" x1="391.6" y1="389.1" x2="395.8" y2="389.1"/>
<line class="st6" x1="393.7" y1="386.6" x2="393.7" y2="391.4"/>
<rect x="392.5" y="388.1" class="st23" width="2.2" height="2"/>
<line class="st6" x1="402.2" y1="384.9" x2="406.5" y2="384.9"/>
<line class="st6" x1="404.4" y1="382.5" x2="404.4" y2="387.2"/>
<rect x="403.2" y="383.9" class="st23" width="2.2" height="2"/>
<line class="st6" x1="412.5" y1="380.4" x2="416.8" y2="380.4"/>
<line class="st6" x1="414.6" y1="378" x2="414.6" y2="382.7"/>
<rect x="413.5" y="379.4" class="st23" width="2.2" height="2"/>
<ellipse class="st24" cx="430" cy="374.5" rx="7" ry="4.5"/>
<ellipse class="st25" cx="430" cy="374" rx="4" ry="2"/>
<polygon class="st25" points="428,374 431,368 434,368 432.2,374 "/>
<ellipse class="st24" cx="369" cy="399" rx="7" ry="5"/>
<ellipse class="st25" cx="369" cy="398.5" rx="4" ry="2.5"/>
<polygon class="st26" points="325.3,383 326,384.6 327.8,383.8 327,382 325.2,382.8 "/>
<polygon class="st27" points="353.2,406.4 353.2,408.2 355.2,408.2 355.2,406.2 353.2,406.2 "/>
<line class="st28" x1="341" y1="404" x2="355" y2="398"/>
<line class="st28" x1="343.2" y1="405.8" x2="357.2" y2="399.8"/>
<line class="st28" x1="345.2" y1="407.8" x2="359.2" y2="401.8"/>
<path class="st29" d="M538,312v-10.8c0,0,10-14.8,21,0V319h-21V312z"/>
<path d="M538,312v16.1c0,0,11,8.9,21-0.1v-16C559,312,549,321,538,312z"/>
<ellipse class="st30" cx="548.5" cy="300" rx="10.5" ry="6"/>
<ellipse class="st31" cx="548.5" cy="299.5" rx="6.5" ry="3.5"/>
<path class="st29" d="M469.7,257.3v-10.8c0,0,10-14.8,21,0v17.8h-21V257.3z"/>
<path d="M469.7,257.3v16.1c0,0,11,8.9,21-0.1v-16C490.7,257.3,480.7,266.3,469.7,257.3z"/>
<ellipse class="st30" cx="480.2" cy="245.3" rx="10.5" ry="6"/>
<ellipse class="st31" cx="480.2" cy="244.8" rx="6.5" ry="3.5"/>
<polygon class="st30" points="437,323 437,319 485.8,304.1 524,340 524,344 474.8,365.1 "/>
<polygon class="st23" points="437,319 486,300 524,340 475,361 "/>
<circle cx="356" cy="332.6" r="7.1"/>
<polygon points="351.8,329.9 348.2,324.5 356.2,322 358.3,328.1 "/>
<circle class="st32" cx="310.5" cy="407.5" r="4.9"/>
<rect x="428.2" y="294.5" class="st19" width="8" height="8.9"/>
<ellipse class="st19" cx="432.2" cy="294.5" rx="4" ry="2"/>
<ellipse cx="432.2" cy="294.2" rx="1.9" ry="0.9"/>
<rect x="430.3" y="292.9" width="3.7" height="1.3"/>
<ellipse cx="432.2" cy="292.9" rx="1.9" ry="0.9"/>
<path class="st21" d="M430.6,293.5c0,0-11.4,0.7-2.7,7.8"/>
</svg>
